<svg baseProfile="tiny" xmlns="http://www.w3.org/2000/svg" viewBox="0 0 200 86"><path fill="#fff" d="M55.5 8.6s-.7-1.7-1.1-2.4c-.9.3-2.5.9-2.5.9-3.7 1.3-7.1 2.8-10.2 4.4-2.4-3.2-5.2-6.3-8.3-9.5-.6-.6-1.4-1.3-2.3-2-.9.7-1.6 1.4-2.3 2-3.2 3.2-5.9 6.3-8.4 9.5-3.2-1.6-6.6-3.1-10.2-4.4 0 0-1.6-.6-2.6-.9-.4.8-1.1 2.4-1.1 2.4C1.6 21.2 0 32.6 0 42c0 17 5.2 27.6 5.3 27.8C9.9 80 20 86 30.7 86h.6c10.7 0 20.8-6 25.4-16.2C56.8 69.6 62 59 62 42c0-9.4-1.6-20.8-6.5-33.4zm-4.7 27.7c-3.5-4.7-8.8-10.5-16.1-16.1 1.8-1.2 3.7-2.3 5.8-3.4 4.8 6.9 8.1 13.6 10.3 19.5zM33 55.1v-7c3.3-.1 6.3-.6 8.8-1.3.6 2.9 1 5.6 1.1 8.3H33zm9.9 4.1c-.1 2.9-.5 5.7-1.1 8.2-2.6-.6-5.5-1.1-8.7-1.3v-6.9h9.8zM33 44V26.1c3.7 5.7 6.3 11.3 7.8 16.7-2.2.6-4.9 1.1-7.8 1.2zm7.4-13.4c3.5 3.4 6.1 6.7 8 9.4-.8.4-2 1-3.4 1.5-.1 0-.2.1-.3.1-1-3.6-2.4-7.3-4.3-11zm10.3 12.9c3.6 5.3 4.3 11.7 4.4 11.7h-8c-.1-3-.5-6.2-1.2-9.5 2-.9 3.7-1.6 4.8-2.2zM31 5.6c2.6 2.6 4.9 5.3 6.9 7.9-2.4 1.3-4.7 2.8-6.8 4.2H31l-.1-.1c-2.1-1.4-4.4-2.8-6.8-4.2 2-2.6 4.3-5.2 6.9-7.8zm-9.4 11.2c2 1.1 3.9 2.3 5.8 3.4-7.4 5.6-12.7 11.4-16.2 16.1 2.2-5.9 5.5-12.6 10.4-19.5zm-8 23.2c2-2.8 4.6-6 8-9.4-1.9 3.7-3.4 7.4-4.4 11-.1 0-.2-.1-.3-.1-1.4-.5-2.5-1.1-3.3-1.5zm2.6 5.6c-.7 3.3-1.1 6.5-1.2 9.5H7s.4-6 4.4-11.7c1 .7 2.7 1.4 4.8 2.2zm-12-.1c-.1-1.1-.1-2.3-.1-3.5 0-8.6 1.4-19 5.7-30.6 2.9 1.1 5.5 2.3 8.1 3.5C9.7 26.5 6 37.5 4.2 45.5zM10.9 71c-2.3-3.4-3.7-7.5-4-11.8h8c.1 3.4.6 6.5 1.3 9.4-2.4.9-4.2 1.8-5.3 2.4zm9.3 8.3c-.5-.3-1-.5-1.5-.8-1.9-1.1-3.7-2.5-5.2-4.1 1-.5 2.3-1.1 4-1.7.7 1.9 1.4 3.6 2.3 5.1.4.7.8 1.4 1.3 2-.3-.3-.6-.4-.9-.5zm8.7 2.3c-1.8-.9-3.8-2.9-5.6-6-.7-1.3-1.4-2.7-1.9-4.3 2.2-.6 4.7-1 7.5-1.1v11.4zm0-15.4c-3.2.1-6.2.6-8.7 1.3-.6-2.5-1-5.3-1.1-8.2H29v6.9zm0-11.1H19c.1-2.7.5-5.4 1.1-8.3 2.6.7 5.5 1.2 8.8 1.3v7zm0-11.1c-2.9-.1-5.5-.6-7.8-1.2 1.6-5.4 4.1-11 7.8-16.7V44zm9.7 31.6c-1.7 3.1-3.8 5.1-5.6 6V70.3c2.8.1 5.3.5 7.5 1.1-.5 1.6-1.2 3-1.9 4.2zm4.7 2.8c-.5.3-1 .6-1.5.8-.3.1-.5.3-.8.4.4-.6.9-1.3 1.3-2 .9-1.5 1.6-3.3 2.3-5.1 1.7.6 3 1.2 4 1.7-1.7 1.7-3.4 3.1-5.3 4.2zm7.8-7.4c-1.1-.6-3-1.5-5.4-2.4.7-2.9 1.2-6 1.3-9.4h8c-.2 4.4-1.6 8.4-3.9 11.8zm-7-56.1c2.5-1.2 5.2-2.4 8.1-3.5C56.5 23 57.9 33.3 57.9 42c0 1.2-.1 2.3-.1 3.5-1.8-8-5.6-19-13.7-30.6zM53.1 79.7c0-1 .8-1.8 1.8-1.8s1.8.8 1.8 1.8-.8 1.8-1.8 1.8-1.8-.7-1.8-1.8zm3.2.1c0-.9-.6-1.5-1.5-1.5-.8 0-1.4.6-1.4 1.5s.6 1.4 1.4 1.4c.9 0 1.5-.6 1.5-1.4zm-.6.9h-.5l-.2-.5h-.2v.5h-.5v-1.9h.7c.5 0 .8.3.8.7 0 .2-.1.5-.3.6l.2.6zm-.8-.8c.2 0 .3-.1.3-.3 0-.2-.1-.3-.3-.3h-.2v.7h.2z"/><g fill="#fff"><path d="M76.5 30.7c-.7-.7-1.8-2-1.8-2s.2 1.6.2 2.7v6.2h-2.8V22.7h.3l7.5 7c.7.7 1.7 2 1.7 2s-.2-1.7-.2-2.7v-6.2h2.8v14.9h-.3l-7.4-7zM87.6 22.8h9.8v2.7h-6.7v4.7h5.9v2.6h-5.9v2.1h7v2.7H87.6V22.8zM100.9 22.8h5.7c2.8 0 4.3 1.7 4.3 3.8 0 1.4-.8 2.3-2.1 2.7 2 .5 3 1.8 3 3.7 0 2.6-1.9 4.6-5 4.6h-6V22.8zm5.4 5.4c1 0 1.6-.5 1.6-1.4 0-.8-.5-1.4-1.5-1.4h-2.5v2.8h2.4zm.4 6.7c1.2 0 2-.8 2-2s-.8-2-2.2-2h-2.6V35h2.8zM125.4 37.6h-3.5l-2.4-3.7c-.3 0-.6.1-.9.1h-1v3.7h-3V22.8h4.1c4.1 0 6.6 2 6.6 5.6 0 2.3-1 3.8-2.8 4.6l2.9 4.6zm-7-6.4c2.5 0 3.6-.8 3.6-2.9 0-2.1-1.1-2.9-3.6-2.9h-1v5.8h1zM133.4 22.7h.3l6.8 14.9h-3.2l-.7-1.7h-6l-.7 1.7H127l6.4-14.9zm2.1 10.7l-1.1-2.6c-.4-1-.9-2.7-.9-2.7s-.4 1.6-.9 2.7l-1.1 2.6h4zM141.4 34.7l2.5-1.4c.7 1.1 1.5 1.8 3 1.8 1.3 0 2.1-.6 2.1-1.5 0-1-.8-1.4-2.2-2l-.8-.3c-2.2-.9-3.7-2.1-3.7-4.6 0-2.3 1.7-4 4.5-4 1.9 0 3.3.7 4.3 2.4l-2.4 1.5c-.5-.9-1.1-1.3-2-1.3-.9 0-1.5.6-1.5 1.3 0 .9.6 1.3 1.9 1.8l.8.3c2.6 1.1 4 2.2 4 4.8 0 2.7-2.2 4.2-5 4.2-2.8.1-4.6-1.3-5.5-3zM158.8 28.1l3.9-5.3h3.5l-5 6.7 5.6 8.1h-3.7l-3.9-5.8-1.4 1.7v4.1h-3V22.8h3v5.1c0 .7-.1 1.7-.2 2.5.3-.8.7-1.7 1.2-2.3zM174.5 22.7h.3l6.8 14.9h-3.2l-.7-1.7h-6l-.7 1.7h-3l6.5-14.9zm2 10.7l-1.1-2.6c-.4-1-.9-2.7-.9-2.7s-.4 1.6-.9 2.7l-1.1 2.6h4zM72.2 44.4h3v14.8h-3V44.4zM83.1 52.3c-.7-.7-1.8-2-1.8-2s.2 1.6.2 2.7v6.2h-2.8V44.3h.3l7.5 7c.7.7 1.7 2 1.7 2s-.2-1.7-.2-2.7v-6.2h2.8v14.9h-.3l-7.4-7zM98.6 52.3c-.7-.7-1.8-2-1.8-2s.2 1.6.2 2.7v6.2h-2.8V44.3h.3l7.5 7c.7.7 1.7 2 1.7 2s-.2-1.7-.2-2.7v-6.2h2.8v14.9h-.3l-7.4-7zM109.3 51.8c0-4.4 3.4-7.6 7.7-7.6 4.3 0 7.6 3.2 7.6 7.6 0 4.4-3.4 7.6-7.6 7.6-4.3 0-7.7-3.2-7.7-7.6zm12.2 0c0-2.8-1.8-4.9-4.5-4.9s-4.5 2.1-4.5 4.9c0 2.8 1.8 4.9 4.5 4.9 2.6 0 4.5-2.1 4.5-4.9zM125.1 44.4h3.3l2.5 5.7c.6 1.3 1.2 3.3 1.2 3.3s.6-2.1 1.1-3.3l2.5-5.7h3l-6.5 14.9h-.3l-6.8-14.9zM143.1 44.3h.3l6.8 14.9H147l-.7-1.7h-6l-.7 1.7h-2.9l6.4-14.9zm2 10.7l-1.1-2.6c-.4-1-.9-2.7-.9-2.7s-.4 1.6-.9 2.7l-1.1 2.6h4zM153.8 47.1h-4.2v-2.7H161v2.7h-4.2v12.1h-3V47.1zM163.6 44.4h3v14.8h-3V44.4zM169.6 51.8c0-4.4 3.4-7.6 7.6-7.6 4.3 0 7.6 3.2 7.6 7.6 0 4.4-3.4 7.6-7.6 7.6-4.2 0-7.6-3.2-7.6-7.6zm12.2 0c0-2.8-1.8-4.9-4.5-4.9s-4.5 2.1-4.5 4.9c0 2.8 1.8 4.9 4.5 4.9s4.5-2.1 4.5-4.9zM192.2 52.3c-.7-.7-1.8-2-1.8-2s.2 1.6.2 2.7v6.2h-2.8V44.3h.3l7.5 7c.7.7 1.7 2 1.7 2s-.2-1.7-.2-2.7v-6.2h2.8v14.9h-.3l-7.4-7zM71.6 73.4c0-4.4 3.4-7.6 7.6-7.6 2.7 0 4.6 1 5.9 3l-2.3 1.7c-.7-1.1-1.9-1.9-3.6-1.9-2.7 0-4.5 2.1-4.5 4.8 0 2.8 1.8 4.9 4.5 4.9 1.9 0 3-.9 3.8-2.2l2.4 1.6c-1.3 2-3.3 3.3-6.2 3.3-4.2 0-7.6-3.2-7.6-7.6zM92.7 65.9h.3l6.8 14.9h-3.2l-.7-1.7h-6l-.7 1.7h-2.9l6.4-14.9zm2.1 10.7L93.7 74c-.4-1-.9-2.7-.9-2.7s-.4 1.7-.9 2.7l-1.1 2.6h4zM103.2 65.9h.3l5.2 7c.5.7 1.1 1.6 1.1 1.6s.6-1 1-1.6l5.1-7h.3l1.2 14.9h-3l-.4-5.2c-.1-1-.1-2.6-.1-2.6s-.8 1.4-1.4 2.2l-2.7 3.6h-.3l-2.7-3.6c-.6-.8-1.5-2.2-1.5-2.2s0 1.7-.1 2.6l-.4 5.2H102l1.2-14.9zM120.7 66h4.1c4.1 0 6.6 2.2 6.6 5.7 0 3.6-2.5 5.7-6.6 5.7h-1v3.4h-3V66zm4 8.8c2.5 0 3.6-1 3.6-3s-1.1-3-3.6-3h-1v6.1h1zM134 75.5V66h3v9.3c0 2.2.9 3 3 3 2 0 2.9-.8 2.9-3V66h3v9.4c0 3.7-2.6 5.5-6 5.5-3.3.1-5.9-1.7-5.9-5.4zM147.9 77.9l2.5-1.4c.7 1.1 1.5 1.8 3 1.8 1.3 0 2.1-.6 2.1-1.5 0-1-.8-1.4-2.2-2l-.8-.3c-2.2-.9-3.7-2.1-3.7-4.6 0-2.3 1.7-4 4.5-4 1.9 0 3.3.7 4.3 2.4l-2.4 1.5c-.5-.9-1.1-1.3-2-1.3-.9 0-1.5.6-1.5 1.3 0 .9.6 1.3 1.9 1.8l.8.3c2.6 1.1 4 2.2 4 4.8 0 2.7-2.2 4.2-5 4.2-2.7.1-4.6-1.2-5.5-3z"/></g></svg>