<?xml version="1.0" encoding="UTF-8"?><svg xmlns="http://www.w3.org/2000/svg" viewBox="0 0 2426 462"><defs><style>.moa{fill:#231f20}.sheldon{fill:#d00000}</style></defs><path d="M1034.8 456.3H898.7c-43.6 0-79-35.5-79-79V4.1h57.6v373.2c0 11.8 9.6 21.5 21.5 21.5h136.1v57.6ZM1227.8 456.3h-136.2V4h136.2c43.6 0 79 35.5 79 79v294.3c0 43.6-35.5 79-79 79Zm-78.7-57.5h78.7c11.8 0 21.5-9.6 21.5-21.5V83c0-11.8-9.6-21.5-21.5-21.5h-78.7v337.2ZM1499.6 456.3h-57.2c-43.6 0-79-35.5-79-79V83c0-43.6 35.5-79 79-79h57.2c43.6 0 79 35.5 79 79v294.3c0 43.6-35.5 79-79 79Zm-57.2-394.7c-11.8 0-21.5 9.6-21.5 21.5v294.3c0 11.8 9.6 21.5 21.5 21.5h57.2c11.8 0 21.5-9.6 21.5-21.5V83c0-11.8-9.6-21.5-21.5-21.5h-57.2ZM140.2 456.3H83c-43.6 0-79-35.5-79-79v-48.1h57.6v48.1c0 11.8 9.6 21.5 21.5 21.5h57.2c11.8 0 21.5-9.6 21.5-21.5v-23.8c0-10.4-3.6-20.6-10.2-28.8L27.1 171.4C12.2 153.1 4 130 4 106.4V83.1C4 39.5 39.5 4 83 4h57.2c43.6 0 79 35.5 79 79v48.5h-57.6V83c0-11.8-9.6-21.5-21.5-21.5H82.9c-11.8 0-21.5 9.6-21.5 21.5v23.3c0 10.4 3.6 20.7 10.2 28.8L196 288.4c14.9 18.3 23.1 41.4 23.1 65v23.8c0 43.6-35.5 79-79 79ZM1850.6 456.4H1793V83c0-11.8-9.6-21.5-21.5-21.5h-57.2c-11.8 0-21.5 9.6-21.5 21.5v373.3h-57.6V83c0-43.6 35.5-79 79-79h57.2c43.6 0 79 35.5 79 79v373.3ZM626.8 61.6h136.5V4H626.8c-43.6 0-79 35.5-79 79v294.3c0 43.6 35.5 79 79 79h136.1v-57.6H626.8c-11.8 0-21.5-9.6-21.5-21.5V258.7h157.3v-57.6H605.3V82.9c0-11.8 9.6-21.5 21.5-21.5ZM433.6 4.1v197.3H333.4V4.1h-57.5v452.3h57.5V258.9h100.2v197.5h57.5V4.1h-57.5z" class="sheldon"/><path d="M1915 231.5h10l25.5 57.3c2.2 5 4.7 11.9 4.7 11.9h.3s2.6-6.9 4.9-11.9l25.5-57.3h9.9l7.8 97.6h-9.6l-5.4-68.3c-.4-5.3-.3-13.6-.3-13.6h-.3s-2.9 8.6-5.1 13.6l-22.9 50.1h-9l-22.9-50.1c-2.2-4.9-5.3-13.9-5.3-13.9h-.3s.1 8.6-.3 13.9l-5.4 68.3h-9.6l7.8-97.6ZM2019.5 259.3h9.4v41.9c0 11 1.7 20.7 15.1 20.7s25.8-14 25.8-29.2v-33.5h9.4V329h-9.2v-10.4c0-3.1.3-5.6.3-5.6h-.3c-2.8 6.8-11.9 17.6-27.4 17.6s-23.3-8.9-23.3-27.1v-44.4ZM2098.8 313.8s7.8 8.5 20.8 8.5 14-3.7 14-11.1c0-15.3-37.6-11.5-37.6-34.3s11.2-19.3 23.9-19.3 21.5 7.6 21.5 7.6l-4.3 7.2s-6-6.4-17.5-6.4-13.9 3.1-13.9 10.8c0 15.4 37.6 11.2 37.6 34.3s-9.9 19.6-23.9 19.6-25.8-10.1-25.8-10.1l5.1-6.8ZM2190.5 257.6c19.3 0 29.2 14.9 29.2 32.2s-.3 4.9-.3 4.9h-53.6c.4 17.9 12.6 27.6 27.1 27.6s21.2-8.5 21.2-8.5l4.3 7.2s-10.1 9.7-25.8 9.7-36.5-15-36.5-36.5 15.6-36.7 34.4-36.7Zm19.5 29.3c-.6-14.6-9.4-21.4-19.9-21.4s-21.8 7.4-24 21.4h43.9ZM2236.7 259.3h9.4v41.9c0 11 1.7 20.7 15.1 20.7s25.8-14 25.8-29.2v-33.5h9.4V329h-9.2v-10.4c0-3.1.3-5.6.3-5.6h-.3c-2.8 6.8-11.9 17.6-27.4 17.6s-23.3-8.9-23.3-27.1v-44.4ZM2316.5 259.3h9.3v10.4c0 3.1-.3 5.6-.3 5.6h.3c3.3-9.4 14.4-17.6 25.3-17.6s19.6 6 21.7 17.5h.3c3.7-9.4 13.9-17.5 25.7-17.5 16.9 0 23.2 9.9 23.2 27.1v44.4h-9.4v-42.1c0-11.4-2.4-20.8-15.1-20.8s-19.4 9.4-22.1 19.7c-1 3.1-1.2 6.4-1.2 10.1v33h-9.4V287c0-10.6-1.5-20.8-14.7-20.8s-20 9.9-22.9 20.5c-.7 2.9-1 6.1-1 9.3v33h-9.4v-69.8ZM1943.4 384.8c20.4 0 36.9 15.6 36.9 36.2s-16.5 36.9-36.9 36.9-36.9-15.8-36.9-36.9 16.5-36.2 36.9-36.2Zm0 64.7c15 0 27.2-12.2 27.2-28.5s-12.2-27.6-27.2-27.6-27.2 11.8-27.2 27.6 12.2 28.5 27.2 28.5ZM1997.9 395.2h-8.7v-7.9h8.7V384c0-23 16.2-26 24.2-26s4.3.3 4.3.3v8.5s-1.4-.3-3.3-.3c-5.4 0-15.7 1.9-15.7 17.5v3.3h17.9v7.9h-17.9v61.1h-9.4v-61.1ZM2110.8 425.2h-39.3l-11.1 31.1h-10.1l35.8-97.6h10.3l35.8 97.6h-10.1l-11.2-31.1Zm-19.7-56.3s-2.1 8.1-3.7 12.6l-13.1 35.4h33.6l-12.8-35.4c-1.7-4.6-3.7-12.6-3.7-12.6h-.3ZM2142.6 386.5h9.3v12.4c0 3.1-.3 5.6-.3 5.6h.3c3.3-10.6 11.1-18.6 22.1-18.6s3.7.4 3.7.4v9.3s-1.7-.3-3.5-.3c-9.9 0-17.2 7.8-20.3 18.1-1.4 4.4-1.9 9.2-1.9 13.6v29.4h-9.4v-69.8ZM2200.2 395.2h-9.2v-7.9h9.3v-20.1h9.3v20.1h17.5v7.9h-17.5v34.7c0 16.4 10.4 18.5 15.7 18.5s3.2-.3 3.2-.3v8.5s-1.5.3-4 .3c-8.1 0-24.3-2.6-24.3-26v-35.7Z" class="moa"/></svg>
