<?xml version="1.0" encoding="utf-8"?>
<!-- Generator: Adobe Illustrator 20.0.0, SVG Export Plug-In . SVG Version: 6.00 Build 0)  -->
<svg version="1.1" baseProfile="tiny" id="Layer_1" xmlns="http://www.w3.org/2000/svg" xmlns:xlink="http://www.w3.org/1999/xlink"
	 x="0px" y="0px" viewBox="0 0 12 12" xml:space="preserve">
<path fill="#231F20" d="M9.2,0H2.8C2.6,0,2.4,0.2,2.4,0.4v11.2c0,0.2,0.1,0.3,0.2,0.3C2.8,12,3,12,3.1,11.9L6,9l2.9,2.9
	C9,12,9.1,12,9.2,12c0,0,0.1,0,0.1,0c0.1-0.1,0.2-0.2,0.2-0.3V0.4C9.6,0.2,9.4,0,9.2,0z M3.2,0.8h0.7V10l-0.7,0.7V0.8z M6,8.1
	c-0.1,0-0.2,0-0.3,0.1L4.7,9.3V0.8h2.7v8.5L6.3,8.2C6.2,8.1,6.1,8.1,6,8.1z M8.8,10.7L8.1,10V0.8h0.7V10.7z"/>
</svg>
