<?xml version="1.0" encoding="utf-8"?>
<!-- Generator: Adobe Illustrator 18.0.0, SVG Export Plug-In . SVG Version: 6.00 Build 0)  -->
<!DOCTYPE svg PUBLIC "-//W3C//DTD SVG 1.1 Tiny//EN" "http://www.w3.org/Graphics/SVG/1.1/DTD/svg11-tiny.dtd">
<svg version="1.1" baseProfile="tiny" id="Layer_1" xmlns="http://www.w3.org/2000/svg" xmlns:xlink="http://www.w3.org/1999/xlink"
	 x="0px" y="0px" viewBox="0 0 60 60" xml:space="preserve">
<g>
	<path fill="#010101" d="M59.7,0.3c-0.4-0.4-1-0.4-1.4,0L30,28.6L1.7,0.3c-0.4-0.4-1-0.4-1.4,0s-0.4,1,0,1.4L28.6,30L0.3,58.3
		c-0.4,0.4-0.4,1,0,1.4C0.5,59.9,0.7,60,1,60s0.5-0.1,0.7-0.3L30,31.4l28.3,28.3c0.2,0.2,0.5,0.3,0.7,0.3s0.5-0.1,0.7-0.3
		c0.4-0.4,0.4-1,0-1.4L31.4,30L59.7,1.7C60.1,1.3,60.1,0.7,59.7,0.3z"/>
</g>
</svg>
