<?xml version="1.0" encoding="utf-8"?>
<!-- Generator: Adobe Illustrator 20.1.0, SVG Export Plug-In . SVG Version: 6.00 Build 0)  -->
<svg version="1.1" id="Layer_1" xmlns="http://www.w3.org/2000/svg" xmlns:xlink="http://www.w3.org/1999/xlink" x="0px" y="0px"
	 viewBox="0 0 16 16" style="enable-background:new 0 0 16 16;" xml:space="preserve">
<path d="M8.8,8l6.9-7.2c0.2-0.2,0.2-0.5,0-0.7C15.5,0,15.2,0,15,0.1L8,7.4l-7-7.2C0.9,0,0.6,0,0.4,0.1C0.2,0.3,0.1,0.6,0.3,0.8
	l7,7.2l-7,7.2c-0.2,0.2-0.1,0.5,0.1,0.7s0.5,0.2,0.7,0l7-7.2l7,7.2c0.2,0.2,0.5,0.2,0.7,0c0.2-0.2,0.2-0.5,0-0.7L8.8,8z"/>
</svg>
