<?xml version="1.0" encoding="utf-8"?>
<!-- Generator: Adobe Illustrator 20.1.0, SVG Export Plug-In . SVG Version: 6.00 Build 0)  -->
<svg version="1.1" baseProfile="tiny" id="Layer_1" xmlns="http://www.w3.org/2000/svg" xmlns:xlink="http://www.w3.org/1999/xlink"
	 x="0px" y="0px" viewBox="0 0 700 260" xml:space="preserve">
<path d="M92.7,130c0-4.5,3.7-8.2,8.2-8.2c4.5,0,8.2,3.7,8.2,8.2c0,4.5-3.7,8.2-8.2,8.2C96.4,138.2,92.7,134.5,92.7,130"/>
<path d="M73.8,130c0-4.1,3.3-7.4,7.4-7.4c4.1,0,7.4,3.3,7.4,7.4c0,4.1-3.3,7.4-7.4,7.4C77.1,137.4,73.8,134.1,73.8,130"/>
<path d="M55.5,130c0-3.7,3-6.6,6.6-6.6c3.7,0,6.6,3,6.6,6.6c0,3.7-3,6.6-6.6,6.6C58.4,136.6,55.5,133.7,55.5,130"/>
<path d="M37.3,130c0-3.3,2.7-6,6-6c3.3,0,6,2.7,6,6c0,3.3-2.7,6-6,6C40,136,37.3,133.3,37.3,130"/>
<path d="M18.9,130c0-3,2.4-5.4,5.4-5.4s5.4,2.4,5.4,5.4c0,3-2.4,5.4-5.4,5.4S18.9,133,18.9,130"/>
<path d="M0,130c0-2.7,2.2-4.8,4.8-4.8c2.7,0,4.8,2.2,4.8,4.8c0,2.7-2.2,4.8-4.8,4.8C2.2,134.8,0,132.7,0,130"/>
<rect x="0.1" y="0.5" fill="none" width="699.8" height="259.5"/>
<path d="M127.5,93.2c4.5,0,8.2,3.7,8.2,8.2c0,4.5-3.7,8.2-8.2,8.2c-4.5,0-8.2-3.7-8.2-8.2C119.3,96.8,123,93.2,127.5,93.2"/>
<path d="M127.5,74.2c4.1,0,7.4,3.3,7.4,7.4s-3.3,7.4-7.4,7.4c-4.1,0-7.4-3.3-7.4-7.4S123.4,74.2,127.5,74.2"/>
<path d="M127.5,55.9c3.7,0,6.6,3,6.6,6.6c0,3.7-3,6.6-6.6,6.6c-3.7,0-6.6-3-6.6-6.6C120.9,58.9,123.8,55.9,127.5,55.9"/>
<path d="M127.5,37.7c3.3,0,6,2.7,6,6c0,3.3-2.7,6-6,6c-3.3,0-6-2.7-6-6C121.5,40.4,124.2,37.7,127.5,37.7"/>
<path d="M127.5,19.3c3,0,5.4,2.4,5.4,5.4c0,3-2.4,5.4-5.4,5.4c-3,0-5.4-2.4-5.4-5.4C122.1,21.7,124.5,19.3,127.5,19.3"/>
<path d="M127.5,0.5c2.7,0,4.8,2.2,4.8,4.8c0,2.7-2.2,4.8-4.8,4.8c-2.7,0-4.8-2.2-4.8-4.8C122.7,2.6,124.8,0.5,127.5,0.5"/>
<path d="M79.7,107.8c1.5-3.3,5.5-4.8,8.8-3.3c3.3,1.5,4.8,5.5,3.3,8.8c-1.5,3.3-5.5,4.8-8.8,3.3C79.6,115,78.1,111.1,79.7,107.8"/>
<path d="M63.2,100.1c1.4-3,4.9-4.3,7.9-2.9c3,1.4,4.3,4.9,2.9,7.9c-1.4,3-4.9,4.3-7.9,2.9C63.1,106.7,61.8,103.1,63.2,100.1"/>
<path d="M46.4,92.4c1.2-2.7,4.4-3.9,7.1-2.6c2.7,1.2,3.9,4.4,2.6,7.1c-1.2,2.7-4.4,3.9-7.1,2.6C46.4,98.3,45.2,95.1,46.4,92.4"/>
<path d="M29.3,84.6c1.1-2.4,4-3.5,6.4-2.4c2.4,1.1,3.5,4,2.4,6.4c-1.1,2.4-4,3.5-6.4,2.4C29.2,89.9,28.2,87,29.3,84.6"/>
<path d="M107.9,79.9c3.5-1.2,7.3,0.7,8.4,4.2c1.2,3.5-0.7,7.2-4.2,8.4c-3.5,1.2-7.2-0.7-8.4-4.2C102.6,84.9,104.5,81.1,107.9,79.9"
	/>
<path d="M102.1,62.7c3.1-1.1,6.5,0.6,7.6,3.8c1.1,3.1-0.6,6.5-3.7,7.6c-3.1,1.1-6.5-0.6-7.6-3.7C97.3,67.2,99,63.8,102.1,62.7"/>
<path d="M96.2,45.3c2.8-1,5.9,0.6,6.8,3.4c1,2.8-0.5,5.9-3.4,6.8c-2.8,1-5.9-0.5-6.8-3.4C91.9,49.3,93.4,46.2,96.2,45.3"/>
<path d="M90.1,27.4c2.5-0.9,5.3,0.5,6.1,3c0.8,2.5-0.5,5.3-3,6.1c-2.5,0.9-5.3-0.5-6.1-3C86.2,31,87.6,28.3,90.1,27.4"/>
<path d="M101.6,103.3c-3.2,3.2-3.2,8.4,0,11.6c3.2,3.2,8.4,3.2,11.6,0c3.2-3.2,3.2-8.4,0-11.6C110,100.1,104.8,100.1,101.6,103.3"/>
<path d="M88.2,89.9c-2.9,2.9-2.9,7.6,0,10.4c2.9,2.9,7.5,2.9,10.4,0c2.9-2.9,2.9-7.6,0-10.4C95.8,87,91.1,87,88.2,89.9"/>
<path d="M75.3,77c-2.6,2.6-2.6,6.8,0,9.4c2.6,2.6,6.8,2.6,9.4,0c2.6-2.6,2.6-6.8,0-9.4C82.1,74.4,77.9,74.4,75.3,77"/>
<path d="M62.5,64.1c-2.3,2.3-2.3,6.1,0,8.5c2.3,2.3,6.1,2.3,8.5,0c2.3-2.3,2.3-6.1,0-8.4C68.6,61.8,64.8,61.8,62.5,64.1"/>
<path d="M49.4,51.1c-2.1,2.1-2.1,5.5,0,7.6c2.1,2.1,5.5,2.1,7.6,0c2.1-2.1,2.1-5.5,0-7.6C54.9,49,51.5,49,49.4,51.1"/>
<path d="M36.1,37.7c-1.9,1.9-1.9,5,0,6.9c1.9,1.9,5,1.9,6.8,0c1.9-1.9,1.9-4.9,0-6.8C41.1,35.9,38,35.9,36.1,37.7"/>
<path d="M127.6,167.3c-4.5,0-8.2-3.7-8.2-8.2c0-4.5,3.7-8.2,8.2-8.2c4.5,0,8.2,3.7,8.2,8.2C135.8,163.6,132.1,167.3,127.6,167.3"/>
<path d="M127.6,186.2c-4.1,0-7.4-3.3-7.4-7.4c0-4.1,3.3-7.4,7.4-7.4c4.1,0,7.4,3.3,7.4,7.4C135,182.9,131.7,186.2,127.6,186.2"/>
<path d="M127.6,204.5c-3.7,0-6.6-3-6.6-6.6c0-3.7,3-6.6,6.6-6.6c3.7,0,6.6,3,6.6,6.6C134.2,201.6,131.3,204.5,127.6,204.5"/>
<path d="M127.6,222.7c-3.3,0-6-2.7-6-6c0-3.3,2.7-6,6-6c3.3,0,6,2.7,6,6C133.6,220,130.9,222.7,127.6,222.7"/>
<path d="M127.6,241.1c-3,0-5.4-2.4-5.4-5.4c0-3,2.4-5.4,5.4-5.4c3,0,5.4,2.4,5.4,5.4C133,238.7,130.6,241.1,127.6,241.1"/>
<path d="M127.6,260c-2.7,0-4.8-2.2-4.8-4.8c0-2.7,2.2-4.8,4.8-4.8c2.7,0,4.8,2.2,4.8,4.8C132.4,257.8,130.3,260,127.6,260"/>
<path d="M107.7,178.8c-3.3-1.5-4.8-5.5-3.3-8.8c1.5-3.3,5.5-4.8,8.8-3.3c3.3,1.5,4.8,5.5,3.3,8.8C114.9,178.9,111,180.3,107.7,178.8
	"/>
<path d="M100.1,195.3c-3-1.4-4.3-4.9-2.9-7.9c1.4-3,4.9-4.3,7.9-2.9c3,1.4,4.3,4.9,2.9,7.9C106.6,195.3,103.1,196.7,100.1,195.3"/>
<path d="M92.4,212c-2.7-1.2-3.9-4.4-2.6-7.1c1.2-2.7,4.4-3.9,7.1-2.6c2.7,1.2,3.9,4.4,2.6,7.1C98.2,212.1,95.1,213.3,92.4,212"/>
<path d="M84.5,229.2c-2.4-1.1-3.5-4-2.4-6.4c1.1-2.4,4-3.5,6.4-2.4c2.4,1.1,3.5,4,2.4,6.4C89.8,229.2,86.9,230.3,84.5,229.2"/>
<path d="M79.5,151c-1.2-3.5,0.7-7.3,4.2-8.4c3.5-1.2,7.2,0.7,8.4,4.2c1.2,3.5-0.7,7.2-4.2,8.4C84.5,156.3,80.7,154.5,79.5,151"/>
<path d="M62.3,156.8c-1.1-3.1,0.6-6.5,3.8-7.6c3.1-1.1,6.5,0.6,7.6,3.7c1.1,3.1-0.6,6.5-3.7,7.6C66.8,161.6,63.4,159.9,62.3,156.8"
	/>
<path d="M44.9,162.7c-1-2.8,0.6-5.9,3.4-6.8c2.8-1,5.9,0.5,6.8,3.4c1,2.8-0.6,5.9-3.4,6.8C48.9,167.1,45.8,165.6,44.9,162.7"/>
<path d="M27,168.8c-0.9-2.5,0.5-5.3,3-6.1c2.5-0.9,5.3,0.5,6.1,3c0.9,2.5-0.5,5.3-3,6.1C30.6,172.7,27.9,171.3,27,168.8"/>
<path d="M102,155.9c3.2,3.2,8.4,3.2,11.6,0c3.2-3.2,3.2-8.4,0-11.6c-3.2-3.2-8.4-3.2-11.6,0C98.8,147.5,98.8,152.7,102,155.9"/>
<path d="M88.6,169.3c2.9,2.9,7.6,2.9,10.4,0c2.9-2.9,2.9-7.5,0-10.4c-2.9-2.9-7.6-2.9-10.4,0C85.7,161.7,85.7,166.4,88.6,169.3"/>
<path d="M75.7,182.2c2.6,2.6,6.8,2.6,9.4,0c2.6-2.6,2.6-6.8,0-9.4c-2.6-2.6-6.8-2.6-9.4,0C73.1,175.4,73.1,179.6,75.7,182.2"/>
<path d="M62.8,195.1c2.3,2.3,6.1,2.3,8.5,0c2.3-2.3,2.3-6.1,0-8.5c-2.3-2.3-6.1-2.3-8.4,0C60.5,188.9,60.5,192.7,62.8,195.1"/>
<path d="M49.8,208.1c2.1,2.1,5.5,2.1,7.6,0c2.1-2.1,2.1-5.5,0-7.6c-2.1-2.1-5.5-2.1-7.6,0C47.7,202.6,47.7,206,49.8,208.1"/>
<path d="M36.4,221.4c1.9,1.9,5,1.9,6.9,0c1.9-1.9,1.9-5,0-6.8c-1.9-1.9-4.9-1.9-6.8,0C34.5,216.5,34.5,219.5,36.4,221.4"/>
<path d="M206.1,134c-0.3-6.5-0.7-14.3-0.6-21.1h-0.2c-1.6,6.1-3.7,12.9-6,19.3l-7.4,21.8h-7l-6.7-21.5c-1.9-6.4-3.7-13.3-5.1-19.6
	h-0.1c-0.2,6.6-0.5,14.6-0.9,21.4l-1.1,20.2h-8.6l3.4-50.3h12.1l6.6,20.2c1.8,5.9,3.4,11.9,4.6,17.5h0.2c1.3-5.4,3.1-11.6,5-17.5
	l6.9-20.2h11.9l2.9,50.3h-9L206.1,134"/>
<path d="M254.5,143.6c0,4.3,0.1,7.9,0.3,10.9h-8l-0.4-5.4h-0.2c-1.6,2.5-5.1,6.3-11.7,6.3c-6.6,0-12.6-4-12.6-15.8v-21.3h9.2v19.8
	c0,6,1.9,9.9,6.8,9.9c3.7,0,6.1-2.5,7-4.9c0.4-0.7,0.5-1.8,0.5-2.8v-21.9h9.2V143.6"/>
<path d="M262.3,146c2,1.3,6,2.7,9.3,2.7c4,0,5.8-1.7,5.8-4.1c0-2.5-1.5-3.7-6-5.3c-7.1-2.4-10-6.3-10-10.6c0-6.4,5.3-11.3,13.7-11.3
	c4,0,7.5,1,9.7,2.2l-1.9,6.4c-1.5-0.9-4.5-2.1-7.7-2.1c-3.3,0-5.1,1.6-5.1,3.9c0,2.3,1.7,3.4,6.3,5.1c6.6,2.3,9.6,5.7,9.7,11
	c0,6.6-5.1,11.4-14.8,11.4c-4.4,0-8.4-1-11-2.5L262.3,146"/>
<path d="M314.6,132.5c0.1-3.4-1.4-8.9-7.5-8.9c-5.7,0-8.1,5.1-8.4,8.9H314.6 M298.6,138.9c0.2,6.6,5.4,9.4,11.2,9.4
	c4.3,0,7.2-0.7,10.1-1.6l1.3,6.3c-3.1,1.3-7.5,2.3-12.7,2.3c-11.8,0-18.7-7.2-18.7-18.4c0-10.1,6.1-19.6,17.8-19.6
	c11.8,0,15.7,9.7,15.7,17.7c0,1.7-0.1,3.1-0.3,3.9H298.6z"/>
<path d="M361.5,143.6c0,4.3,0.1,7.9,0.3,10.9h-8l-0.4-5.4h-0.2c-1.6,2.5-5.2,6.3-11.7,6.3c-6.6,0-12.6-4-12.6-15.8v-21.3h9.2v19.8
	c0,6,1.9,9.9,6.8,9.9c3.7,0,6.1-2.5,7-4.9c0.4-0.7,0.5-1.8,0.5-2.8v-21.9h9.2V143.6"/>
<path d="M368.4,129c0-4.2-0.1-7.7-0.3-10.8h7.8l0.4,5.4h0.2c1.7-2.8,5-6.2,11.2-6.2c4.8,0,8.5,2.7,10.1,6.7h0.1
	c1.3-2,2.8-3.5,4.4-4.6c2.1-1.4,4.4-2.2,7.5-2.2c6,0,12.1,4.1,12.1,15.8v21.4h-9v-20.1c0-6-2.1-9.6-6.5-9.6c-3.1,0-5.4,2.2-6.4,4.9
	c-0.3,0.8-0.4,2-0.4,3.1v21.8h-9v-21c0-5.1-2-8.7-6.3-8.7c-3.4,0-5.7,2.7-6.6,5.2c-0.3,1-0.4,2-0.4,3.1v21.5h-9V129"/>
<path d="M437.6,146.5c-2.9,0-5.7,0.6-5.7,3.1c0,1.6,1,2.4,2.4,2.4c1.7,0,2.9-1.1,3.3-2.3c0.1-0.3,0.1-0.6,0.1-0.9V146.5
	 M441.7,150.6c0,1.5,0.1,2.9,0.3,3.9h-3.7l-0.3-1.8h-0.1c-1,1.3-2.7,2.2-4.8,2.2c-3.3,0-5.1-2.4-5.1-4.9c0-4.1,3.7-6.2,9.7-6.2v-0.3
	c0-1.1-0.4-2.9-3.3-2.9c-1.6,0-3.3,0.5-4.4,1.2l-0.8-2.7c1.2-0.7,3.3-1.4,5.9-1.4c5.2,0,6.8,3.3,6.8,6.9V150.6z"/>
<path d="M446,143c0-1.9-0.1-3.5-0.1-4.9h3.6l0.2,2.5h0.1c0.7-1.3,2.5-2.8,5.2-2.8c2.9,0,5.8,1.8,5.8,7v9.7h-4.1v-9.2
	c0-2.4-0.9-4.1-3.1-4.1c-1.6,0-2.8,1.2-3.2,2.4c-0.1,0.3-0.2,0.8-0.2,1.3v9.6H446V143"/>
<path d="M476.2,145c0-0.3,0-0.8-0.1-1.1c-0.4-1.6-1.7-2.9-3.6-2.9c-2.7,0-4.1,2.4-4.1,5.4c0,3,1.5,5.2,4.1,5.2
	c1.7,0,3.2-1.1,3.6-2.9c0.1-0.4,0.1-0.8,0.1-1.2V145 M480.3,130.6v19.3c0,1.7,0.1,3.5,0.1,4.6h-3.7l-0.2-2.6h-0.1c-1,1.8-3,3-5.3,3
	c-3.9,0-7-3.3-7-8.4c0-5.5,3.4-8.7,7.3-8.7c2.2,0,3.9,0.9,4.6,2.1h0.1v-9.3H480.3z"/>
<polyline points="487.9,104.2 497,104.2 497,146.8 517.7,146.8 517.7,154.5 487.9,154.5 487.9,104.2 "/>
<path d="M522.8,118.2h9.2v36.4h-9.2V118.2z M527.3,112.9c-3.1,0-5.1-2.2-5.1-4.9c0-2.8,2.1-5,5.2-5c3.1,0,5.1,2.2,5.1,5
	C532.6,110.7,530.6,112.9,527.3,112.9L527.3,112.9z"/>
<path d="M548.1,139.5c0,0.7,0.1,1.5,0.2,2.2c1,3.7,4.2,6.4,8.1,6.4c5.7,0,9.3-4.6,9.3-11.9c0-6.4-3.1-11.6-9.2-11.6
	c-3.7,0-7.2,2.7-8.1,6.7c-0.2,0.7-0.3,1.5-0.3,2.4V139.5 M538.9,101.4h9.2v21.7h0.1c2.2-3.5,6.2-5.8,11.6-5.8
	c8.9,0,15.2,7.4,15.2,18.4c0,13.1-8.3,19.6-16.5,19.6c-4.7,0-8.9-1.8-11.5-6.3h-0.2l-0.4,5.4h-7.8c0.2-2.5,0.3-6.5,0.3-10.2V101.4z"
	/>
<path d="M581.1,129.9c0-4.9-0.1-8.5-0.3-11.7h7.9l0.4,6.9h0.2c1.8-5.1,6-7.7,10-7.7c0.9,0,1.4,0.1,2.2,0.2v8.6
	c-0.8-0.1-1.6-0.2-2.8-0.2c-4.3,0-7.4,2.8-8.2,6.9c-0.1,0.8-0.2,1.8-0.2,2.8v18.9h-9.2V129.9"/>
<path d="M625.4,136.7c-6.5-0.1-12.7,1.3-12.7,6.8c0,3.6,2.3,5.2,5.2,5.2c3.7,0,6.3-2.4,7.2-5c0.2-0.7,0.2-1.3,0.2-2V136.7
	 M634.4,145.8c0,3.3,0.1,6.5,0.6,8.7h-8.3l-0.7-4h-0.2c-2.2,2.8-6,4.9-10.7,4.9c-7.3,0-11.4-5.3-11.4-10.8c0-9.1,8.1-13.8,21.6-13.7
	v-0.6c0-2.4-1-6.3-7.4-6.3c-3.6,0-7.3,1.1-9.8,2.7l-1.8-6c2.7-1.6,7.4-3.2,13.1-3.2c11.6,0,15,7.4,15,15.4V145.8z"/>
<path d="M641.1,129.9c0-4.9-0.1-8.5-0.3-11.7h7.9l0.4,6.9h0.2c1.8-5.1,6-7.7,10-7.7c0.9,0,1.4,0.1,2.2,0.2v8.6
	c-0.8-0.1-1.6-0.2-2.8-0.2c-4.3,0-7.4,2.8-8.2,6.9c-0.2,0.8-0.2,1.8-0.2,2.8v18.9h-9.2V129.9"/>
<path d="M673.6,118.2l6.5,19.5c0.7,2.2,1.6,5,2.1,7h0.2c0.5-2,1.2-4.8,1.9-7.1l5.7-19.4h9.8l-9.1,24.8c-5,13.6-8.4,19.6-12.6,23.4
	c-3.7,3.1-7.4,4.3-9.6,4.6l-2.1-7.7c1.6-0.4,3.4-1.2,5.3-2.5c1.7-1.1,3.8-3.3,5.1-5.7c0.3-0.7,0.5-1.2,0.5-1.6
	c0-0.4-0.1-0.9-0.4-1.8l-13.4-33.4H673.6"/>
<path d="M224.9,106.3c-1.2,0-1.6,0-2.8,0l-0.3-0.3c0-2.3,0-4.4,0-6c0-1,0-13-0.3-19.7l0.3-0.3c1.1,0,1.5,0,2.8,0l0.3,0.3v1.1
	c0,2.2,0,4.3,0,6.5c0,7.1,0.1,12.6,0.3,18.1L224.9,106.3"/>
<path d="M252.6,106.3c-0.4,0-0.9,0-1.4,0c-0.3,0-2,0.1-2.3,0.1l-0.4-0.2c-1.3-2-2.4-4-3.6-6l-10-17.1l0.1,5
	c0.1,12,0.1,13.3,0.3,17.8l-0.3,0.3c-1,0-1.4,0-2.4,0l-0.3-0.3c0-0.7,0-16.7-0.1-20.4c0-0.8-0.1-5-0.1-5.3l0.3-0.3c1,0,2.7,0,3.7,0
	l0.4,0.2c1.2,1.8,1.5,2.3,3.9,6.4c1.6,2.7,3.1,5.3,4.7,7.9l5,8.7v-5c0-4.3-0.1-12.5-0.3-17.9L250,80c1.2,0,1.3,0,2.3,0l0.3,0.3
	c0,2.3,0,4.3,0,5.9c0,6.7,0,13.5,0.3,19.8L252.6,106.3"/>
<path d="M259,101.6c1.4,2.1,4.1,2.9,6.1,2.9c3.5,0,6.1-2,6.1-5c0-2.1-1.3-3.2-3.1-4.1c-0.7-0.4-4.3-2-5.1-2.4c-2-1-5-2.6-5-6.5
	c0-3.5,2.7-6.9,8.5-6.9c2.4,0,4.7,0.6,6.8,1.8l0.1,0.3c-0.2,1.1-0.2,1.2-0.3,2.3l-0.4,0.2c-1.1-1-2.9-2.2-5.9-2.2
	c-5.4,0-5.7,3.6-5.7,4.5c0,2.1,1.8,3.2,4.1,4.3l2.7,1.2c2.5,1.1,6.4,2.8,6.4,7.4c0,4.1-3.3,7.5-9,7.5c-3.7,0-5.8-1.3-7-2l-0.1-0.4
	c0-0.4,0.1-0.8,0.2-1.2c0-0.5,0.1-1,0.2-1.5L259,101.6"/>
<path d="M287.5,106.3c-1.1,0-1.2,0-2.8,0.1l-0.3-0.3c0-2.7,0-5.2,0-7.9c0-3.3,0-13,0-15.7c-1.7,0-6.1,0.1-7.9,0.1l-0.3-0.3
	c0-0.8,0.1-1.1,0.1-2.1l0.4-0.2c0.6,0,3.4,0.1,4.1,0.1h8.7c3.1,0,4.7,0,5.6-0.1l0.3,0.3c-0.1,0.8-0.1,1.3-0.2,2.2l-0.3,0.2
	c-1.3,0-2.5-0.1-4.1-0.1c-0.5,0-3.2,0-3.4,0c0,1.1,0,2.3,0,3.4c0,2.4,0,4.9,0.1,7.4c0,2.5,0,5,0.1,7.5c0,0.8,0.1,4.5,0.1,5.3
	L287.5,106.3"/>
<path d="M302.6,106.3c-1.2,0-1.6,0-2.8,0l-0.3-0.3c0-2.3,0-4.4,0-6c0-1,0-13-0.3-19.7l0.3-0.3c1.1,0,1.5,0,2.8,0l0.3,0.3v1.1
	c0,2.2,0,4.3,0,6.5c0,7.1,0.1,12.6,0.3,18.1L302.6,106.3"/>
<path d="M317.8,106.3c-1.1,0-1.2,0-2.8,0.1l-0.3-0.3c0-2.7,0-5.2,0-7.9c0-3.3,0-13,0-15.7c-1.7,0-6.1,0.1-7.9,0.1l-0.3-0.3
	c0-0.8,0.1-1.1,0.1-2.1l0.4-0.2c0.6,0,3.4,0.1,4.1,0.1h8.7c3.1,0,4.7,0,5.6-0.1l0.3,0.3c-0.1,0.8-0.1,1.3-0.2,2.2l-0.3,0.2
	c-1.3,0-2.5-0.1-4.1-0.1c-0.5,0-3.2,0-3.4,0c0,1.1,0,2.3,0,3.4c0,2.4,0,4.9,0.1,7.4c0,2.5,0,5,0.1,7.5c0,0.8,0.1,4.5,0.1,5.3
	L317.8,106.3"/>
<path d="M349.2,80.3v0.6c0,4.6,0,5.1,0,9.5v4.9c0,2.7-0.1,4.9-1,6.7c-1.5,3.3-5,4.9-8.9,4.9c-2.4,0-4.6-0.6-6.1-1.7
	c-3.3-2.4-3.3-6.4-3.3-9.4v-2.2c0-2.9,0-10.5,0-13.2L330,80c1.4,0,1.5,0,2.9,0l0.3,0.3c-0.1,4.7-0.2,9.3-0.2,13.9
	c0,4.5,0.1,6.9,1.8,8.6c1,0.9,2.6,1.5,4.8,1.5c2.5,0,4.7-0.9,5.8-3.1c0.8-1.7,0.9-3.7,0.9-7.7c0-4.4,0-8.8-0.2-13.2l0.3-0.3
	c1.2,0,1.4,0,2.5,0L349.2,80.3"/>
<path d="M364.3,106.3c-1.1,0-1.2,0-2.8,0.1l-0.3-0.3c0-2.7,0-5.2,0-7.9c0-3.3,0-13,0-15.7c-1.7,0-6.1,0.1-7.9,0.1l-0.3-0.3
	c0-0.8,0.1-1.1,0.1-2.1l0.4-0.2c0.6,0,3.4,0.1,4.1,0.1h8.7c3.1,0,4.7,0,5.6-0.1l0.3,0.3c-0.1,0.8-0.1,1.3-0.2,2.2l-0.3,0.2
	c-1.3,0-2.5-0.1-4.1-0.1c-0.5,0-3.2,0-3.4,0c0,1.1,0,2.3,0,3.4c0,2.4,0,4.9,0.1,7.4c0,2.5,0,5,0.1,7.5c0,0.8,0.1,4.5,0.1,5.3
	L364.3,106.3"/>
<path d="M391.1,106.3h-11.3c-1.3,0-1.9,0.1-3.3,0.1l-0.3-0.3v-1c0-1.6,0-3.2,0-4.7c0-6.5-0.1-13.6-0.3-20.1l0.3-0.3c1,0,1.9,0,2.9,0
	h6.6c2.2,0,3.8,0,5.3-0.1l0.3,0.3c-0.1,1-0.1,1.2-0.1,2.1l-0.3,0.3c-1.9-0.1-2.7-0.1-9.9-0.1l-1.8,0c0,2.9,0,6.2,0,9h3.3
	c1.2,0,2.5,0,3.7,0c2.5,0,2.7,0,4.3,0l0.2,0.3c-0.1,1-0.1,1.1-0.1,2l-0.3,0.2c-1.7-0.1-2.9-0.1-7.9,0h-3.2c0,1.7,0.1,9.3,0.1,10h2.9
	c3.4,0,4,0,9-0.1l0.2,0.3c-0.1,0.9-0.1,1-0.1,2L391.1,106.3"/>
<path d="M419,95.1c0-3.6-2.4-4.7-4.4-4.7c-6.3,0-7.3,8.1-7.3,9.8c0,2.8,1.5,4.8,4.5,4.8c1.1,0,2.3-0.2,3.5-1.1
	c2.2-1.8,3-4.8,3.2-5.9C418.8,97,419,96.1,419,95.1 M411.7,106.7c-4.3,0-6.6-2.4-6.6-6.6c0-3.9,1.9-11.4,9.5-11.4
	c4.7,0,6.5,3,6.5,6.6c0,1.2-0.2,2.4-0.5,3.5C420.2,100.4,418.4,106.7,411.7,106.7z"/>
<path d="M429.4,90.8c-1.7,7.3-2,9-3.2,15.3l-0.3,0.2l-1.9,0.1l-0.2-0.2l1.6-7.1l1.8-8.3l-2.5,0.1l-0.2-0.2l0.4-1.4l0.3-0.2l2.5,0.1
	l0.5-2.5c0.4-1.8,0.5-2.6,0.8-3.3c0.5-1.4,1.5-3.2,4.6-3.2c0.7,0,1.2,0.1,1.8,0.2l0.2,0.3l-0.3,1.4l-0.3,0.2c-0.5-0.1-1-0.2-1.5-0.2
	c-0.7,0-1.3,0.2-1.8,0.6c-0.7,0.6-0.9,1.5-1.6,4.3l-0.4,2.1L433,89l0.2,0.3l-0.4,1.2l-0.2,0.3H429.4"/>
<path d="M488.1,188.3c1.4,2.1,4.1,2.9,6.1,2.9c3.5,0,6.1-2,6.1-5c0-2.1-1.3-3.2-3.1-4.1c-0.7-0.4-4.3-2-5.1-2.4c-2-1-5-2.6-5-6.5
	c0-3.5,2.7-6.9,8.5-6.9c2.4,0,4.7,0.6,6.8,1.8l0.1,0.3c-0.2,1.1-0.2,1.2-0.3,2.3l-0.4,0.2c-1.1-1-2.9-2.2-5.9-2.2
	c-5.4,0-5.7,3.6-5.7,4.5c0,2.1,1.8,3.2,4.1,4.3l2.7,1.2c2.5,1.1,6.4,2.8,6.4,7.4c0,4.1-3.3,7.5-9,7.5c-3.7,0-5.8-1.3-7-2l-0.1-0.4
	c0-0.4,0.1-0.8,0.2-1.2c0-0.5,0.1-1,0.2-1.5L488.1,188.3"/>
<path d="M525.7,193h-11.3c-1.3,0-1.9,0.1-3.3,0.1l-0.3-0.3v-1c0-1.6,0-3.2,0-4.7c0-6.5-0.1-13.6-0.3-20.1l0.3-0.3c1,0,1.9,0,2.9,0
	h6.5c2.2,0,3.8,0,5.3-0.1l0.3,0.3c-0.1,1-0.1,1.2-0.1,2.1l-0.3,0.3c-1.9-0.1-2.7-0.1-9.9-0.1l-1.8,0c0,2.9,0,6.2,0,9h3.3
	c1.2,0,2.5,0,3.7,0c2.5,0,2.7,0,4.3,0l0.2,0.3c-0.1,1-0.1,1.1-0.1,2l-0.3,0.2c-1.7-0.1-2.9-0.1-7.9,0h-3.2c0,1.7,0.1,9.3,0.1,10h2.9
	c3.4,0,4,0,9-0.1l0.2,0.3c-0.1,0.9-0.1,1-0.1,2L525.7,193"/>
<path d="M543.7,178.4c1.3-0.3,3.9-1.4,3.9-4.7c0-1.6-0.6-2.7-1.4-3.4c-1.3-1.1-3.2-1.2-5.8-1.2c-1.1,0-2.5,0-3.8,0.1v9.7
	C540.4,178.9,542.1,178.9,543.7,178.4 M533.7,166.8c0.1,0,7.4-0.1,7.6-0.1c2,0,4,0.1,5.7,0.8c2.3,1.1,3.8,3.3,3.8,6.1
	c0,4-3.2,6.8-7.5,7.3l2.5,3.1c3.1,3.7,3.6,4.4,7,8.5l-0.2,0.4h-2.1c-0.4,0-0.9,0-1.4,0l-0.4-0.2c-0.7-1-1.5-1.9-2.2-2.9
	c-1-1.3-2.1-2.6-3.1-3.8c-0.7-0.9-3.4-4.3-3.8-4.8c-1.3,0-1.6,0-3,0c0,3.8,0.1,7.6,0.2,11.4l-0.3,0.3c-1.2,0-1.5,0-2.8,0l-0.3-0.3
	c0-2,0-4,0-6c0-6.5,0-13.1-0.3-19.6L533.7,166.8z"/>
<path d="M568.1,193c-1.7,0-2.1,0-3.5,0l-0.3-0.3c-0.8-2.2-1.9-5.8-2.6-8l-3.2-9.8c-0.4-1.3-0.9-2.6-1.3-3.9
	c-0.3-1.1-0.9-2.8-1.3-3.8l0.2-0.3c1.7-0.1,1.9-0.1,3-0.2l0.3,0.2c0.9,3.5,1.7,6.1,2.8,9.6l4.4,13.8l5.2-16.5c0.8-2.5,0.9-2.9,2-6.8
	l0.3-0.2c1.2,0,1.5,0,2.7,0l0.2,0.3c-0.6,1.8-0.9,2.5-3.1,8.8l-3,8.8c-1.1,3.3-1.3,3.8-2.7,8.1L568.1,193"/>
<path d="M586,193c-1.2,0-1.6,0-2.8,0l-0.3-0.3c0-2.3,0-4.4,0-6c0-1,0-13-0.3-19.7l0.3-0.3c1.1,0,1.5,0,2.8,0l0.3,0.3v1.1
	c0,2.2,0,4.3,0,6.5c0,7.1,0.1,12.6,0.3,18.1L586,193"/>
<path d="M614.4,188.4c-0.1,1.3-0.1,1.6-0.2,2.7l-0.2,0.4c-1.5,1.1-3.6,2-7.3,2c-2.1,0-5.7-0.3-8.7-3.2c-2.9-2.6-4.1-6.5-4.1-10.4
	c0-7.5,4.6-13.8,13.1-13.8c3.6,0,5.7,1.1,6.8,1.7l0.2,0.3c-0.2,0.9-0.2,1.1-0.4,2.2l-0.4,0.2c-1.3-0.8-3.2-2-6.3-2
	c-6.9,0-9.9,5.7-9.9,11.2c0,5.6,3.3,11.1,10.1,11.1c3.6,0,5.2-1.4,6.8-2.7L614.4,188.4"/>
<path d="M636.9,193h-11.3c-1.3,0-1.9,0.1-3.3,0.1l-0.3-0.3v-1c0-1.6,0-3.2,0-4.7c0-6.5-0.1-13.6-0.3-20.1l0.3-0.3c1,0,1.9,0,2.9,0
	h6.5c2.2,0,3.8,0,5.3-0.1l0.3,0.3c-0.1,1-0.1,1.2-0.1,2.1l-0.3,0.3c-1.9-0.1-2.7-0.1-9.9-0.1l-1.8,0c0,2.9,0,6.2,0,9h3.3
	c1.2,0,2.5,0,3.7,0c2.5,0,2.7,0,4.3,0l0.2,0.3c-0.1,1-0.1,1.1-0.1,2l-0.3,0.2c-1.7-0.1-2.9-0.1-7.9,0h-3.2c0,1.7,0.1,9.3,0.1,10h2.9
	c3.4,0,4,0,9-0.1l0.2,0.3c-0.1,0.9-0.1,1-0.1,2L636.9,193"/>
<path d="M643.6,188.3c1.4,2.1,4.1,2.9,6.1,2.9c3.5,0,6.1-2,6.1-5c0-2.1-1.3-3.2-3.1-4.1c-0.7-0.4-4.3-2-5.1-2.4c-2-1-5-2.6-5-6.5
	c0-3.5,2.7-6.9,8.5-6.9c2.4,0,4.7,0.6,6.8,1.8l0.1,0.3c-0.2,1.1-0.2,1.2-0.3,2.3l-0.4,0.2c-1.1-1-2.9-2.2-5.9-2.2
	c-5.4,0-5.7,3.6-5.7,4.5c0,2.1,1.8,3.2,4.1,4.3l2.7,1.2c2.5,1.1,6.4,2.8,6.4,7.4c0,4.1-3.3,7.5-9,7.5c-3.7,0-5.8-1.3-7-2l-0.1-0.4
	c0-0.4,0.1-0.8,0.2-1.2c0-0.5,0.1-1,0.2-1.5L643.6,188.3"/>
</svg>
