<?xml version="1.0" encoding="utf-8"?>
<!-- Generator: Adobe Illustrator 20.0.0, SVG Export Plug-In . SVG Version: 6.00 Build 0)  -->
<svg version="1.1" baseProfile="tiny" id="Instagram_1_"
	 xmlns="http://www.w3.org/2000/svg" xmlns:xlink="http://www.w3.org/1999/xlink" x="0px" y="0px" viewBox="0 0 60 60"
	 xml:space="preserve">
<g>
	<path d="M30,17.7c4,0,4.5,0,6.1,0.1c1.5,0.1,2.3,0.3,2.8,0.5c0.7,0.3,1.2,0.6,1.7,1.1c0.5,0.5,0.8,1,1.1,1.7
		c0.2,0.5,0.4,1.3,0.5,2.8c0.1,1.6,0.1,2.1,0.1,6.1s0,4.5-0.1,6.1c-0.1,1.5-0.3,2.3-0.5,2.8c-0.3,0.7-0.6,1.2-1.1,1.7
		c-0.5,0.5-1,0.8-1.7,1.1c-0.5,0.2-1.3,0.4-2.8,0.5c-1.6,0.1-2.1,0.1-6.1,0.1s-4.5,0-6.1-0.1c-1.5-0.1-2.3-0.3-2.8-0.5
		c-0.7-0.3-1.2-0.6-1.7-1.1c-0.5-0.5-0.8-1-1.1-1.7c-0.2-0.5-0.4-1.3-0.5-2.8c-0.1-1.6-0.1-2.1-0.1-6.1s0-4.5,0.1-6.1
		c0.1-1.5,0.3-2.3,0.5-2.8c0.3-0.7,0.6-1.2,1.1-1.7c0.5-0.5,1-0.8,1.7-1.1c0.5-0.2,1.3-0.4,2.8-0.5C25.5,17.7,26,17.7,30,17.7
		 M30,15c-4.1,0-4.6,0-6.2,0.1c-1.6,0.1-2.7,0.3-3.6,0.7c-1,0.4-1.8,0.9-2.7,1.7c-0.8,0.8-1.3,1.7-1.7,2.7c-0.4,1-0.6,2-0.7,3.6
		C15,25.4,15,25.9,15,30c0,4.1,0,4.6,0.1,6.2c0.1,1.6,0.3,2.7,0.7,3.6c0.4,1,0.9,1.8,1.7,2.7c0.8,0.8,1.7,1.3,2.7,1.7
		c1,0.4,2,0.6,3.6,0.7C25.4,45,25.9,45,30,45s4.6,0,6.2-0.1c1.6-0.1,2.7-0.3,3.6-0.7c1-0.4,1.8-0.9,2.7-1.7c0.8-0.8,1.3-1.7,1.7-2.7
		c0.4-1,0.6-2,0.7-3.6C45,34.6,45,34.1,45,30s0-4.6-0.1-6.2c-0.1-1.6-0.3-2.7-0.7-3.6c-0.4-1-0.9-1.8-1.7-2.7
		c-0.8-0.8-1.7-1.3-2.7-1.7c-1-0.4-2-0.6-3.6-0.7C34.6,15,34.1,15,30,15L30,15z"/>
	<path d="M30,22.3c-4.3,0-7.7,3.4-7.7,7.7s3.4,7.7,7.7,7.7s7.7-3.4,7.7-7.7S34.3,22.3,30,22.3z M30,35c-2.8,0-5-2.2-5-5
		c0-2.8,2.2-5,5-5c2.8,0,5,2.2,5,5C35,32.8,32.8,35,30,35z"/>
	<circle cx="38" cy="22" r="1.8"/>
</g>
</svg>
