<?xml version="1.0" encoding="utf-8"?>
<!-- Generator: Adobe Illustrator 20.1.0, SVG Export Plug-In . SVG Version: 6.00 Build 0)  -->
<svg version="1.1" baseProfile="tiny" id="Layer_1" xmlns="http://www.w3.org/2000/svg" xmlns:xlink="http://www.w3.org/1999/xlink"
	 x="0px" y="0px" viewBox="0 0 16 16" xml:space="preserve">
<path d="M0.1,8.3C0.1,8.3,0.1,8.2,0.1,8.3C0,8.1,0,7.9,0,7.8c0,0,0-0.1,0.1-0.1c0,0,0,0,0-0.1l0,0c0,0,0,0,0,0l6.2-6.5
	C6.5,1,6.9,1,7.1,1.2c0.2,0.2,0.2,0.5,0,0.7L1.7,7.5h13.8C15.8,7.5,16,7.7,16,8s-0.2,0.5-0.5,0.5H1.7l5.4,5.6c0.2,0.2,0.2,0.5,0,0.7
	C7,14.9,6.8,15,6.7,15c-0.1,0-0.3-0.1-0.4-0.2L0.1,8.3C0.1,8.4,0.1,8.4,0.1,8.3L0.1,8.3C0.1,8.3,0.1,8.3,0.1,8.3z"/>
</svg>
