<?xml version="1.0" encoding="utf-8"?>
<!-- Generator: Adobe Illustrator 20.0.0, SVG Export Plug-In . SVG Version: 6.00 Build 0)  -->
<svg version="1.1" baseProfile="tiny" id="Layer_1" xmlns="http://www.w3.org/2000/svg" xmlns:xlink="http://www.w3.org/1999/xlink"
	 x="0px" y="0px" viewBox="0 0 48 48" xml:space="preserve">
<path fill="#231F20" d="M42,10H6c-2.2,0-4,1.8-4,4v22c0,2.2,1.8,4,4,4h36c2.2,0,4-1.8,4-4V14C46,11.8,44.2,10,42,10z M42,12
	c0.1,0,0.2,0,0.4,0L24,26.7L5.6,12c0.1,0,0.2,0,0.4,0H42z M44,36c0,1.1-0.9,2-2,2H6c-1.1,0-2-0.9-2-2V14c0-0.2,0-0.4,0.1-0.6
	l19.3,15.4c0.2,0.1,0.4,0.2,0.6,0.2s0.4-0.1,0.6-0.2l19.3-15.4C44,13.6,44,13.8,44,14V36z"/>
</svg>
