<?xml version="1.0" encoding="utf-8"?>
<!-- Generator: Adobe Illustrator 18.0.0, SVG Export Plug-In . SVG Version: 6.00 Build 0)  -->
<!DOCTYPE svg PUBLIC "-//W3C//DTD SVG 1.1 Tiny//EN" "http://www.w3.org/Graphics/SVG/1.1/DTD/svg11-tiny.dtd">
<svg version="1.1" baseProfile="tiny" id="Layer_1" xmlns="http://www.w3.org/2000/svg" xmlns:xlink="http://www.w3.org/1999/xlink"
	 x="0px" y="0px" viewBox="0 0 32 48" xml:space="preserve">
<g>
	<path fill="#231F20" d="M16,0C7.2,0,0,7.2,0,16c0,8.5,14.5,30.6,15.2,31.6c0.2,0.3,0.5,0.4,0.8,0.4c0.3,0,0.6-0.2,0.8-0.4
		C17.5,46.6,32,24.5,32,16C32,7.2,24.8,0,16,0z M16,45.2C12.9,40.3,2,22.8,2,16C2,8.3,8.3,2,16,2s14,6.3,14,14
		C30,22.8,19.1,40.3,16,45.2z"/>
	<path fill="#231F20" d="M16,9c-3.9,0-7,3.1-7,7s3.1,7,7,7s7-3.1,7-7S19.9,9,16,9z M16,21c-2.8,0-5-2.2-5-5s2.2-5,5-5s5,2.2,5,5
		S18.8,21,16,21z"/>
</g>
</svg>
