<?xml version="1.0" encoding="utf-8"?>
<!-- Generator: Adobe Illustrator 20.0.0, SVG Export Plug-In . SVG Version: 6.00 Build 0)  -->
<svg version="1.1" baseProfile="tiny" id="Layer_1" xmlns="http://www.w3.org/2000/svg" xmlns:xlink="http://www.w3.org/1999/xlink"
	 x="0px" y="0px" viewBox="0 0 12 12" xml:space="preserve">
<path fill="#231F20" d="M6,12c-3.3,0-6-2.7-6-6s2.7-6,6-6s6,2.7,6,6S9.3,12,6,12z M6,0.8C3.1,0.8,0.8,3.1,0.8,6s2.4,5.2,5.2,5.2
	c2.9,0,5.2-2.4,5.2-5.2S8.9,0.8,6,0.8z M9.4,6c0-0.2-0.2-0.4-0.4-0.4H2.9C2.7,5.6,2.6,5.8,2.6,6s0.2,0.4,0.4,0.4h6.1
	C9.3,6.4,9.4,6.2,9.4,6z"/>
</svg>
