<?xml version="1.0" encoding="utf-8"?>
<!-- Generator: Adobe Illustrator 18.0.0, SVG Export Plug-In . SVG Version: 6.00 Build 0)  -->
<!DOCTYPE svg PUBLIC "-//W3C//DTD SVG 1.1 Tiny//EN" "http://www.w3.org/Graphics/SVG/1.1/DTD/svg11-tiny.dtd">
<svg version="1.1" baseProfile="tiny" id="Layer_1" xmlns="http://www.w3.org/2000/svg" xmlns:xlink="http://www.w3.org/1999/xlink"
	 x="0px" y="0px" viewBox="0 0 60 60" xml:space="preserve">
<g>
	<path fill="#231F20" d="M60.4,28.7c0-0.1-0.1-0.1-0.1-0.2c0,0,0-0.1-0.1-0.1l-24-25c-0.4-0.4-1-0.4-1.4,0c-0.4,0.4-0.4,1,0,1.4
		L57.1,28H1.5c-0.6,0-1,0.4-1,1s0.4,1,1,1h55.7L34.7,53.3c-0.4,0.4-0.4,1,0,1.4c0.2,0.2,0.4,0.3,0.7,0.3c0.3,0,0.5-0.1,0.7-0.3
		l24-25c0,0,0.1-0.1,0.1-0.1c0-0.1,0.1-0.1,0.1-0.2C60.5,29.2,60.5,28.9,60.4,28.7z"/>
</g>
</svg>
