<?xml version="1.0" encoding="utf-8"?>
<!-- Generator: Adobe Illustrator 20.1.0, SVG Export Plug-In . SVG Version: 6.00 Build 0)  -->
<svg version="1.1" baseProfile="tiny" id="Layer_1" xmlns="http://www.w3.org/2000/svg" xmlns:xlink="http://www.w3.org/1999/xlink"
	 x="0px" y="0px" viewBox="0 0 16 16" xml:space="preserve">
<path d="M15.9,8.3C15.9,8.3,15.9,8.2,15.9,8.3C16,8.1,16,7.9,16,7.8c0,0,0-0.1-0.1-0.1c0,0,0,0,0-0.1l0,0c0,0,0,0,0,0L9.7,1.2
	C9.5,1,9.1,1,8.9,1.2c-0.2,0.2-0.2,0.5,0,0.7l5.4,5.6H0.5C0.2,7.5,0,7.7,0,8s0.2,0.5,0.5,0.5h13.8l-5.4,5.6c-0.2,0.2-0.2,0.5,0,0.7
	C9,14.9,9.2,15,9.3,15c0.1,0,0.3-0.1,0.4-0.2L15.9,8.3C15.9,8.4,15.9,8.4,15.9,8.3L15.9,8.3C15.9,8.3,15.9,8.3,15.9,8.3z"/>
</svg>
