<?xml version="1.0" encoding="utf-8"?>
<!-- Generator: Adobe Illustrator 18.0.0, SVG Export Plug-In . SVG Version: 6.00 Build 0)  -->
<!DOCTYPE svg PUBLIC "-//W3C//DTD SVG 1.1//EN" "http://www.w3.org/Graphics/SVG/1.1/DTD/svg11.dtd">
<svg version="1.1" id="Layer_1" xmlns="http://www.w3.org/2000/svg" xmlns:xlink="http://www.w3.org/1999/xlink" x="0px" y="0px"
	 viewBox="0 0 75 30" enable-background="new 0 0 75 30" xml:space="preserve">
<g>
	<path d="M45.8,21.7l-0.7,0.1v7.3c0.3,0,0.5,0.1,0.8,0.1c1.4,0,1.9-0.8,2.4-2.2l0.3,0.1l-0.5,2.6c-0.6-0.2-0.6-0.2-1.2-0.2h-3.5
		v-0.4l0.6-0.1v-7.3l-0.6-0.1v-0.4h2.3V21.7z"/>
	<path d="M50.1,29l0.5,0.1v0.4h-1.8v-0.4l0.5-0.1V25c0-0.3-0.1-0.4-0.3-0.4c-0.1,0-0.2,0-0.2,0v-0.4l1.3-0.5V29z M49.7,22.5
		c-0.3,0-0.6-0.3-0.6-0.6s0.3-0.7,0.6-0.7c0.3,0,0.5,0.3,0.5,0.7C50.2,22.2,50,22.5,49.7,22.5z"/>
	<path d="M52.3,24.6c0.3-0.5,0.9-0.9,1.4-0.9c1.2,0,1.5,1,1.5,2.2V29l0.5,0.1v0.4h-1.8v-0.4l0.5-0.1v-3.1c0-1.1-0.3-1.6-0.9-1.6
		c-0.5,0-0.9,0.3-1.2,0.8V29l0.5,0.1v0.4H51v-0.4l0.5-0.1v-3.5c0-0.8-0.1-1-0.4-1c0,0-0.1,0-0.1,0v-0.4l1-0.5
		C52.1,23.9,52.2,24.2,52.3,24.6z"/>
	<path d="M57.9,29.7c-1.2,0-2.1-1.1-2.1-2.7c0-1.8,1-3.2,2.3-3.2c0.8,0,1.4,0.4,1.4,1c0,0.4-0.2,0.6-0.5,0.6c-0.3,0-0.5-0.3-0.6-0.7
		c-0.1-0.5-0.1-0.5-0.4-0.5c-0.7,0-1.3,1-1.3,2.2c0,1.4,0.7,2.5,1.7,2.5c0.5,0,0.8-0.2,1.2-0.9l0.3,0.2
		C59.3,29.2,58.6,29.7,57.9,29.7z"/>
	<path d="M63.2,26.7c0,1.7-0.4,2.6-1.2,2.6c-0.9,0-1.3-0.8-1.3-2.6c0-1.5,0.5-2.5,1.3-2.5C62.8,24.2,63.2,25.1,63.2,26.7z
		 M64.2,26.8c0-1.7-0.9-3-2.1-3c-1.2,0-2.3,1.3-2.3,3c0,1.7,1,3,2.2,3C63.2,29.7,64.2,28.3,64.2,26.8z"/>
	<path d="M65.6,29l0.5,0.1v0.4h-1.9v-0.4l0.5-0.1v-6.6c0-0.6-0.1-0.7-0.3-0.7c-0.1,0-0.1,0-0.2,0v-0.4l1.3-0.6V29z"/>
	<path d="M67.8,24.6c0.3-0.5,0.9-0.9,1.4-0.9c1.2,0,1.5,1,1.5,2.2V29l0.5,0.1v0.4h-1.8v-0.4l0.5-0.1v-3.1c0-1.1-0.3-1.6-0.9-1.6
		c-0.5,0-0.9,0.3-1.2,0.8V29l0.5,0.1v0.4h-1.9v-0.4L67,29v-3.5c0-0.8-0.1-1-0.4-1c0,0-0.1,0-0.1,0v-0.4l1-0.5
		C67.6,23.9,67.7,24.2,67.8,24.6z"/>
	<path d="M27.3,1.8v2.3c0,0.6,0,0.7,0.1,0.9c0.1,0.2,0.4,0.4,0.7,0.4c0.3,0,0.6-0.2,0.7-0.5C28.9,4.8,29,4.6,29,4.1V1.8h0.4v2.3
		c0,0.6,0,0.8-0.2,1.1c-0.2,0.4-0.6,0.6-1.1,0.6c-0.6,0-0.9-0.2-1.1-0.7c-0.1-0.2-0.1-0.4-0.1-1V1.8H27.3z"/>
	<polygon points="32.7,5.7 32.3,5.7 30.5,2.5 30.5,5.7 30,5.7 30,1.8 30.5,1.8 32.3,5 32.3,1.8 32.7,1.8 	"/>
	<rect x="33.5" y="1.8" width="0.4" height="3.9"/>
	<polygon points="35.9,4.9 37,1.8 37.3,1.8 36,5.7 35.7,5.7 34.5,1.8 34.9,1.8 	"/>
	<polygon points="39.5,3.5 39.5,3.9 38.4,3.9 38.4,5.3 39.7,5.3 39.7,5.7 37.9,5.7 37.9,1.8 39.5,1.8 39.5,2.2 38.4,2.2 38.4,3.5 	
		"/>
	<path d="M40.7,3.6V2.2h0.4c0.3,0,0.5,0.2,0.5,0.6c0,0.3-0.1,0.5-0.2,0.6c-0.1,0.1-0.2,0.1-0.4,0.1H40.7z M40.3,5.7h0.4V3.9h0.4
		L42,5.7h0.5l-1-1.8c0.2-0.1,0.3-0.1,0.4-0.3c0.2-0.2,0.3-0.5,0.3-0.8c0-0.4-0.1-0.7-0.4-0.9c-0.1-0.1-0.3-0.1-0.7-0.1h-0.8V5.7z"/>
	<path d="M44.3,2.6c-0.1-0.3-0.3-0.5-0.5-0.5c-0.3,0-0.5,0.3-0.5,0.6c0,0.3,0.1,0.5,0.5,0.8c0.3,0.2,0.4,0.3,0.6,0.5
		c0.1,0.2,0.2,0.4,0.2,0.7c0,0.7-0.4,1.1-1,1.1c-0.4,0-0.7-0.2-0.9-0.6L43,4.8c0.1,0.4,0.3,0.6,0.6,0.6c0.3,0,0.6-0.3,0.6-0.7
		c0-0.2-0.1-0.4-0.2-0.5c-0.1-0.1-0.1-0.1-0.4-0.3c-0.6-0.4-0.7-0.7-0.7-1.1c0-0.6,0.4-1,0.9-1c0.4,0,0.6,0.2,0.8,0.5L44.3,2.6z"/>
	<rect x="45.3" y="1.8" width="0.4" height="3.9"/>
	<polygon points="47.8,5.7 47.4,5.7 47.4,2.2 46.5,2.2 46.5,1.8 48.7,1.8 48.7,2.2 47.8,2.2 	"/>
	<polygon points="51.8,1.8 50.7,4 50.7,5.7 50.3,5.7 50.3,4 49.2,1.8 49.6,1.8 50.5,3.5 51.4,1.8 	"/>
	<path d="M59.2,2.1c0.7,0,1.1,0.6,1.1,1.7c0,1-0.4,1.7-1.1,1.7c-0.7,0-1.1-0.6-1.1-1.7C58.1,2.7,58.5,2.1,59.2,2.1z M59.2,1.7
		c-1,0-1.5,0.8-1.5,2c0,0.7,0.1,1.2,0.5,1.6c0.3,0.3,0.6,0.5,1.1,0.5c0.4,0,0.8-0.2,1.1-0.5c0.3-0.4,0.5-0.9,0.5-1.6
		C60.7,2.5,60.1,1.7,59.2,1.7z"/>
	<polygon points="63,3.6 63,3.9 61.9,3.9 61.9,5.7 61.5,5.7 61.5,1.8 63.1,1.8 63.1,2.2 61.9,2.2 61.9,3.6 	"/>
	<path d="M9.8,1.5V2l0.3,0.1c1.4,0.3,1.6,0.3,1.6,2c0,0,0,9.2,0,10C11.4,13.3,4.3,1.5,4.3,1.5H0.5V2l0.4,0c1.5,0.1,1.6,0.1,1.6,1.8
		v12.4c0,1.5-0.3,1.5-1.5,1.7l-0.5,0.1l0,0.1v0.5h5.3v-0.6L5.1,18c-1.3-0.2-1.5-0.2-1.5-1.7c0,0,0-9.8,0-10.5
		c0.4,0.6,8.2,12.9,8.2,12.9h1.1V3.9c0-1.5,0.2-1.5,1.3-1.9L14.5,2V1.5H9.8z"/>
	<path d="M27.9,7.1c-1.2,0-2.1,0.5-2.8,1.5c0-0.6,0-8.3,0-8.3l-0.2,0.1l-3.1,1.2v0.6l0.1,0C22.2,2,22.3,2,22.4,2
		c0.5,0,0.7,0.2,0.7,1.4v10.8c0,2.3-0.1,3.1-0.7,4.5l0,0.1l0.6,0.3c0,0,1.2-1.5,1.4-1.7c0.7,1.1,1.7,1.7,3,1.7
		c2.6,0,4.7-2.8,4.7-6.3C32.1,9.4,30.4,7.1,27.9,7.1z M27.2,17.9c-1.6,0-2.1-0.9-2.1-4c0,0,0-3.9,0-3.9c0.7-0.8,1.3-1.1,1.9-1.1
		c1.7,0,3,2.1,3,4.9C30.1,16.2,28.9,17.9,27.2,17.9z"/>
	<path d="M71.7,16.8L71.7,16.8c-0.4,0.5-0.6,0.6-0.7,0.6c-0.3,0-0.4-0.4-0.4-1.1v-5.2c0-1.4-0.2-2.1-1-2.7c-2-1.6-4.1-1.6-4.8-1.6
		c-2.1-0.1-7.1,2.8-8.4,6.1c0-1.9,0-1.8,0-12.7l-3.2,1.2v0.6l0.1,0C53.5,2,53.7,2,53.8,2c0.4,0,0.6,0.2,0.6,1.2c0,0,0,14.6,0,14.8
		c-0.2,0-1.2,0.2-1.2,0.2v0.7h4.4v-0.7c0,0-1-0.1-1.2-0.2c0-2.5,0.1-3.2,1.5-5.2c0.2,0.3,2.6,4.9,2.7,5.2c-0.2,0-1.1,0.2-1.1,0.2
		v0.7h4.8c0.4,0.2,0.8,0.3,1.3,0.3c1.3,0,2.4-0.7,3.1-1.9c0.1,1.2,0.7,1.9,1.6,1.9c0.5,0,1.3-0.6,2-1.6l0.1-0.1L71.7,16.8z M62.5,16
		c0,0.8,0.2,1.4,0.7,2c-0.1,0-0.2,0-0.3,0c-0.1-0.1-3.7-6.7-3.8-6.8c0.7-0.9,2.4-2.3,3.7-2.5c0.4,0,0.6-0.1,0.7,0
		C63.8,9,64.4,9,64.4,9c0.1,0,0.8,0.1,1.5-0.9c0,0,0-0.1,0.4-0.1c1.6,0,2.2,1.8,2.2,3C66.2,11.7,62.5,12.9,62.5,16z M68.5,16.1
		c-0.7,0.8-1.4,1.2-2.1,1.2c-1,0-1.7-0.8-1.7-2c0-2.1,2.1-2.8,3.8-3.4c0,0,0,0,0,0C68.5,12.3,68.5,16,68.5,16.1z"/>
	<path d="M21.8,15.5l-0.1,0.1c-0.9,1.3-1.6,1.8-2.7,1.8c-1.7,0-3.1-1.5-3.4-3.8c0.2-0.1,6.9-1.8,6.9-1.8l0-0.1
		c-0.3-2.9-1.9-4.6-4.3-4.6c-2.6,0-4.7,2.9-4.7,6.4c0,3.2,2,5.6,4.9,5.6c1.8,0,3.1-0.9,4.1-3l0-0.1L21.8,15.5z M18.2,8.2
		c1.1,0,1.8,0.8,1.8,2.1c0,0.6-0.2,1-1.4,1.3c0,0-2.5,0.6-3.1,0.8C15.5,9.8,16.5,8.2,18.2,8.2z"/>
	<path d="M51,11.9c-2.5-1.1-2.7-1.2-2.7-2.2c0-0.8,0.7-1.4,1.6-1.4c0,0,0.7,0,0.8,0.3c0,0.1,0.3,1.1,1.5,0.9C52.8,9.3,53,8.8,53,8.5
		c0-0.7-0.8-1.4-2-1.4c-2.5,0-4.4,1.5-4.4,3.4c0,1.8,1.5,2.5,3,3.2c1.3,0.6,2.5,1.1,2.5,2.4c0,1-0.9,1.8-2,1.8
		c-1.1,0-1.5-0.5-1.6-1.4c-0.1-0.8-0.8-1-1.3-1c-0.6,0-1.1,0.4-1.1,1.2c0,0.2,0,0.2,0,0.3c-0.2,0.3-0.4,0.3-0.5,0.3
		c-0.3,0-0.4-0.4-0.4-1.1l0-5.2c0-1.4-0.2-2.1-1-2.7c-1.2-1.1-3.6-2-5.7-1.5c-1.1,0.2-2.9,1.6-3.8,3.9c-0.1-1.8-0.2-2.5-0.9-3.7
		l0-0.1L31.5,8v0.5l0.2-0.1l0.1,0c0.7,0,1,0.9,1,2.8c0,0,0,6.6,0,6.7c-0.2,0-1.2,0.2-1.2,0.2v0.6h4.5v-0.6c0,0-1.1-0.1-1.3-0.2
		c0-0.2,0-2.6,0-2.6c0.3-5.5,1.5-6.1,2-6.4c0.4-0.3,1.1-0.3,1.1-0.2C38.3,9.1,38.9,9,38.9,9c0.2,0,0.9,0.1,1.5-0.9
		c0,0,0-0.1,0.4-0.1c1.6,0,2.2,1.8,2.2,3l0,0c0,0,0,0,0,0c-2.3,0.7-6,2-6,5c0,1.8,1.3,3.1,3.1,3.1c1.3,0,2.4-0.7,3.1-1.9
		c0.1,1.2,0.7,1.9,1.6,1.9c0.4,0,1-0.4,1.6-1.1c0.6,0.7,1.8,1.1,3.3,1.1c2.3,0,4-1.6,4-3.5C53.8,14,52.8,12.6,51,11.9z M43,16.1
		c-0.7,0.8-1.4,1.2-2.1,1.2c-1,0-1.7-0.8-1.7-2c0-2.1,2.1-2.8,3.8-3.4c0,0,0,0,0,0C43,12.3,43,16.1,43,16.1z"/>
	<g>
		<path d="M74.5,20.5c0,0.8-0.6,1.4-1.4,1.4c-0.8,0-1.4-0.6-1.4-1.4c0-0.8,0.6-1.4,1.4-1.4C73.9,19.1,74.5,19.7,74.5,20.5z M72,20.5
			c0,0.6,0.5,1.1,1.1,1.1c0.6,0,1.1-0.5,1.1-1.2c0-0.6-0.5-1.2-1.1-1.2C72.5,19.3,72,19.8,72,20.5z M72.7,19.7h0.4
			c0.2,0,0.3,0,0.3,0c0.1,0.1,0.2,0.2,0.2,0.4c0,0.2-0.1,0.4-0.3,0.4l0.5,0.7h-0.3l-0.4-0.7h-0.1v0.7h-0.2V19.7z M73.1,20.4
			c0.2,0,0.3-0.1,0.3-0.3c0-0.2-0.1-0.2-0.2-0.2H73h-0.1v0.5H73.1z"/>
	</g>
</g>
</svg>
