<?xml version="1.0" encoding="utf-8"?>
<!-- Generator: Adobe Illustrator 18.0.0, SVG Export Plug-In . SVG Version: 6.00 Build 0)  -->
<!DOCTYPE svg PUBLIC "-//W3C//DTD SVG 1.1 Tiny//EN" "http://www.w3.org/Graphics/SVG/1.1/DTD/svg11-tiny.dtd">
<svg version="1.1" baseProfile="tiny" id="YouTube" xmlns="http://www.w3.org/2000/svg" xmlns:xlink="http://www.w3.org/1999/xlink"
	 x="0px" y="0px" viewBox="0 0 60 60" xml:space="preserve">
<g id="Lozenge">
	<path d="M44.8,24c0,0-0.3-2.1-1.2-3c-1.1-1.2-2.4-1.2-3-1.3C36.3,19.4,30,19.4,30,19.4h0c0,0-6.3,0-10.5,0.3
		c-0.6,0.1-1.9,0.1-3,1.3c-0.9,0.9-1.2,3-1.2,3s-0.3,2.4-0.3,4.9v2.3c0,2.4,0.3,4.9,0.3,4.9s0.3,2.1,1.2,3c1.1,1.2,2.7,1.2,3.3,1.3
		c2.4,0.2,10.3,0.3,10.3,0.3s6.3,0,10.6-0.3c0.6-0.1,1.9-0.1,3-1.3c0.9-0.9,1.2-3,1.2-3s0.3-2.4,0.3-4.9v-2.3
		C45.1,26.4,44.8,24,44.8,24z M26.9,33.9l0-8.5l8.1,4.3L26.9,33.9z"/>
</g>
</svg>
