<?xml version="1.0" encoding="utf-8"?>
<!-- Generator: Adobe Illustrator 17.0.0, SVG Export Plug-In . SVG Version: 6.00 Build 0)  -->
<!DOCTYPE svg PUBLIC "-//W3C//DTD SVG 1.1//EN" "http://www.w3.org/Graphics/SVG/1.1/DTD/svg11.dtd">
<svg version="1.1" id="Layer_1" xmlns="http://www.w3.org/2000/svg" xmlns:xlink="http://www.w3.org/1999/xlink" x="0px" y="0px"
	 width="60px" height="60px" viewBox="0 0 60 60" enable-background="new 0 0 60 60" xml:space="preserve">
<g>
	<path fill="#231F20" d="M7.979,28.047c0.789,2.368,2.856,4.051,5.31,4.413c-0.384,2.382,0.62,4.849,2.66,6.296
		c2.002,1.42,4.768,1.61,6.948,0.504c1.113,2.154,3.408,3.581,5.928,3.581c2.52,0,4.814-1.427,5.928-3.581
		c2.184,1.107,4.947,0.916,6.948-0.504c2.038-1.446,3.042-3.91,2.659-6.296c2.455-0.362,4.523-2.045,5.312-4.413
		c0.782-2.348,0.111-4.922-1.631-6.627c1.742-1.705,2.413-4.279,1.631-6.626c-0.789-2.368-2.856-4.05-5.31-4.413
		c0.384-2.381-0.62-4.849-2.661-6.297c-2-1.417-4.765-1.608-6.948-0.504C33.64,1.427,31.346,0,28.826,0
		c-2.521,0-4.816,1.428-5.928,3.581c-2.185-1.107-4.948-0.915-6.948,0.504c-2.04,1.447-3.044,3.914-2.66,6.296
		c-2.455,0.363-4.522,2.045-5.311,4.413c-0.781,2.347-0.11,4.921,1.631,6.626C7.869,23.125,7.198,25.7,7.979,28.047z M9.877,15.426
		c0.621-1.865,2.394-3.118,4.412-3.118l0.259,0.005c0.334,0.034,0.646-0.147,0.839-0.417c0.193-0.27,0.241-0.617,0.126-0.928
		l-0.042-0.115c-0.678-1.86-0.005-3.973,1.637-5.137c1.624-1.153,3.977-1.125,5.577,0.078l0.102,0.076
		c0.26,0.193,0.6,0.248,0.908,0.147c0.309-0.102,0.548-0.346,0.644-0.656l0.038-0.125C24.951,3.331,26.781,2,28.826,2
		s3.875,1.331,4.45,3.238l0.036,0.119c0.095,0.312,0.335,0.558,0.644,0.66c0.31,0.102,0.65,0.047,0.91-0.148l0.104-0.078
		c1.592-1.195,3.95-1.226,5.573-0.075c1.642,1.165,2.315,3.278,1.641,5.128l-0.044,0.118c-0.117,0.312-0.072,0.661,0.122,0.932
		c0.193,0.272,0.495,0.438,0.841,0.42l0.259-0.005c2.018,0,3.791,1.253,4.412,3.118c0.635,1.908-0.081,3.955-1.782,5.092
		l-0.106,0.071c-0.278,0.185-0.444,0.497-0.444,0.831c0,0.334,0.167,0.646,0.444,0.832l0.106,0.071
		c1.675,1.12,2.408,3.214,1.782,5.092c-0.622,1.865-2.394,3.118-4.412,3.118l-0.259-0.005c-0.345-0.019-0.648,0.148-0.842,0.42
		c-0.193,0.271-0.238,0.621-0.121,0.933l0.04,0.107c0.689,1.89,0.03,3.955-1.638,5.138c-1.625,1.153-3.981,1.121-5.573-0.075
		l-0.102-0.076c-0.262-0.197-0.603-0.251-0.912-0.15c-0.311,0.102-0.551,0.349-0.646,0.662l-0.036,0.12
		c-0.575,1.905-2.404,3.236-4.45,3.236s-3.875-1.331-4.451-3.239l-0.037-0.12c-0.095-0.312-0.335-0.557-0.645-0.659
		c-0.102-0.033-0.207-0.05-0.312-0.05c-0.213,0-0.423,0.068-0.598,0.199l-0.105,0.078c-1.589,1.196-3.946,1.228-5.572,0.075
		c-1.668-1.183-2.326-3.248-1.639-5.134l0.043-0.118c0.115-0.312,0.068-0.66-0.125-0.929c-0.193-0.269-0.509-0.438-0.839-0.417
		l-0.26,0.005c-2.017,0-3.789-1.253-4.411-3.118c-0.626-1.878,0.107-3.973,1.782-5.092l0.106-0.071
		c0.278-0.186,0.444-0.497,0.444-0.832c0-0.334-0.166-0.646-0.444-0.831l-0.105-0.07C9.958,19.381,9.242,17.335,9.877,15.426z"/>
	<path fill="#231F20" d="M18,43v16c0,0.404,0.244,0.769,0.617,0.924c0.374,0.154,0.803,0.069,1.09-0.217L29,50.414l9.293,9.293
		C38.484,59.898,38.74,60,39,60c0.129,0,0.259-0.025,0.383-0.076C39.756,59.769,40,59.404,40,59V43h-2v13.586l-8.293-8.293
		c-0.391-0.391-1.023-0.391-1.414,0L20,56.586V43H18z"/>
	<path fill="#231F20" d="M22.856,23.27l-2.805,8.414c-0.133,0.4-0.001,0.841,0.33,1.102c0.332,0.26,0.792,0.285,1.148,0.062
		L29,28.179l7.47,4.669C36.633,32.95,36.816,33,37,33c0.219,0,0.438-0.072,0.619-0.214c0.331-0.261,0.463-0.702,0.33-1.102
		l-2.805-8.414l5.563-5.563c0.286-0.286,0.372-0.716,0.217-1.09C40.769,16.244,40.404,16,40,16h-6.42l-3.712-6.496
		c-0.355-0.623-1.381-0.623-1.736,0L24.42,16H18c-0.404,0-0.769,0.244-0.924,0.617c-0.155,0.374-0.069,0.804,0.217,1.09
		L22.856,23.27z M25,18c0.359,0,0.69-0.192,0.868-0.504L29,12.016l3.132,5.48C32.31,17.808,32.641,18,33,18h4.586l-4.293,4.293
		c-0.268,0.267-0.361,0.664-0.242,1.023l2.121,6.362l-5.642-3.526C29.368,26.051,29.184,26,29,26s-0.368,0.051-0.53,0.152
		l-5.642,3.526l2.121-6.362c0.12-0.359,0.026-0.756-0.242-1.023L20.414,18H25z"/>
</g>
</svg>
