<?xml version="1.0" encoding="utf-8"?>
<!-- Generator: Adobe Illustrator 17.0.0, SVG Export Plug-In . SVG Version: 6.00 Build 0)  -->
<!DOCTYPE svg PUBLIC "-//W3C//DTD SVG 1.1//EN" "http://www.w3.org/Graphics/SVG/1.1/DTD/svg11.dtd">
<svg version="1.1" id="Layer_1" xmlns="http://www.w3.org/2000/svg" xmlns:xlink="http://www.w3.org/1999/xlink" x="0px" y="0px"
	 width="60px" height="60px" viewBox="0 0 60 60" enable-background="new 0 0 60 60" xml:space="preserve">
<g>
	<path fill="#231F20" d="M59,24h-3v-5c0-0.552-0.448-1-1-1H45c-0.552,0-1,0.448-1,1v5h-3c-0.552,0-1,0.448-1,1v9H24V19
		c0-0.552-0.448-1-1-1h-3v-7c0-0.552-0.448-1-1-1h-7V1c0-0.552-0.448-1-1-1s-1,0.448-1,1v9H5c-0.552,0-1,0.448-1,1v7H1
		c-0.552,0-1,0.448-1,1v40c0,0.552,0.448,1,1,1h8h4h10h18h8h4h6c0.552,0,1-0.448,1-1V25C60,24.448,59.552,24,59,24z M46,20h8v4h-8
		V20z M40,36v22H24V36H40z M6,12h12v6H6V12z M2,20h3h14h3v38h-8v-5c0-0.552-0.448-1-1-1H9c-0.552,0-1,0.448-1,1v5H2V20z M10,58v-4h2
		v4H10z M50,58v-4h2v4H50z M58,58h-4v-5c0-0.552-0.448-1-1-1h-4c-0.552,0-1,0.448-1,1v5h-6V26h3h10h3V58z"/>
	<path fill="#231F20" d="M15,14H9c-0.552,0-1,0.448-1,1c0,0.552,0.448,1,1,1h6c0.552,0,1-0.448,1-1C16,14.448,15.552,14,15,14z"/>
	<path fill="#231F20" d="M5,28h14c0.552,0,1-0.448,1-1c0-0.552-0.448-1-1-1H5c-0.552,0-1,0.448-1,1C4,27.552,4.448,28,5,28z"/>
	<path fill="#231F20" d="M5,24h14c0.552,0,1-0.448,1-1c0-0.552-0.448-1-1-1H5c-0.552,0-1,0.448-1,1C4,23.552,4.448,24,5,24z"/>
	<path fill="#231F20" d="M5,32h14c0.552,0,1-0.448,1-1c0-0.552-0.448-1-1-1H5c-0.552,0-1,0.448-1,1C4,31.552,4.448,32,5,32z"/>
	<path fill="#231F20" d="M5,36h14c0.552,0,1-0.448,1-1c0-0.552-0.448-1-1-1H5c-0.552,0-1,0.448-1,1C4,35.552,4.448,36,5,36z"/>
	<path fill="#231F20" d="M5,40h14c0.552,0,1-0.448,1-1c0-0.552-0.448-1-1-1H5c-0.552,0-1,0.448-1,1C4,39.552,4.448,40,5,40z"/>
	<path fill="#231F20" d="M5,44h14c0.552,0,1-0.448,1-1c0-0.552-0.448-1-1-1H5c-0.552,0-1,0.448-1,1C4,43.552,4.448,44,5,44z"/>
	<path fill="#231F20" d="M19,48c0.552,0,1-0.448,1-1c0-0.552-0.448-1-1-1H5c-0.552,0-1,0.448-1,1c0,0.552,0.448,1,1,1H19z"/>
	<path fill="#231F20" d="M45,28c-0.552,0-1,0.448-1,1c0,0.552,0.448,1,1,1h10c0.552,0,1-0.448,1-1c0-0.552-0.448-1-1-1H45z"/>
	<path fill="#231F20" d="M55,32H45c-0.552,0-1,0.448-1,1c0,0.552,0.448,1,1,1h10c0.552,0,1-0.448,1-1C56,32.448,55.552,32,55,32z"/>
	<path fill="#231F20" d="M55,36H45c-0.552,0-1,0.448-1,1c0,0.552,0.448,1,1,1h10c0.552,0,1-0.448,1-1C56,36.448,55.552,36,55,36z"/>
	<path fill="#231F20" d="M55,40H45c-0.552,0-1,0.448-1,1c0,0.552,0.448,1,1,1h10c0.552,0,1-0.448,1-1C56,40.448,55.552,40,55,40z"/>
	<path fill="#231F20" d="M55,48H45c-0.552,0-1,0.448-1,1c0,0.552,0.448,1,1,1h10c0.552,0,1-0.448,1-1C56,48.448,55.552,48,55,48z"/>
	<path fill="#231F20" d="M55,44H45c-0.552,0-1,0.448-1,1c0,0.552,0.448,1,1,1h10c0.552,0,1-0.448,1-1C56,44.448,55.552,44,55,44z"/>
	<path fill="#231F20" d="M27,42h10c0.552,0,1-0.448,1-1c0-0.552-0.448-1-1-1H27c-0.552,0-1,0.448-1,1C26,41.552,26.448,42,27,42z"/>
	<path fill="#231F20" d="M27,46h10c0.552,0,1-0.448,1-1c0-0.552-0.448-1-1-1H27c-0.552,0-1,0.448-1,1C26,45.552,26.448,46,27,46z"/>
	<path fill="#231F20" d="M27,50h10c0.552,0,1-0.448,1-1c0-0.552-0.448-1-1-1H27c-0.552,0-1,0.448-1,1C26,49.552,26.448,50,27,50z"/>
</g>
</svg>
