<?xml version="1.0" encoding="utf-8"?>
<!-- Generator: Adobe Illustrator 17.0.0, SVG Export Plug-In . SVG Version: 6.00 Build 0)  -->
<!DOCTYPE svg PUBLIC "-//W3C//DTD SVG 1.1//EN" "http://www.w3.org/Graphics/SVG/1.1/DTD/svg11.dtd">
<svg version="1.1" id="Layer_1" xmlns="http://www.w3.org/2000/svg" xmlns:xlink="http://www.w3.org/1999/xlink" x="0px" y="0px"
	 width="60px" height="60px" viewBox="0 0 60 60" enable-background="new 0 0 60 60" xml:space="preserve">
<g>
	<path fill="#231F20" d="M59,6h-9V1c0-0.552-0.448-1-1-1h-8c-0.552,0-1,0.448-1,1v5H20V1c0-0.552-0.448-1-1-1h-8
		c-0.552,0-1,0.448-1,1v5H1C0.448,6,0,6.448,0,7v52c0,0.552,0.448,1,1,1h58c0.552,0,1-0.448,1-1V7C60,6.448,59.552,6,59,6z M42,2h6
		v8h-6V2z M18,2v8h-6V7.402C12.054,7.278,12.087,7.143,12.087,7S12.054,6.722,12,6.598V2H18z M10,8v3c0,0.552,0.448,1,1,1h8
		c0.552,0,1-0.448,1-1V8h20v3c0,0.552,0.448,1,1,1h8c0.552,0,1-0.448,1-1V8h8v10H2V8H10z M2,58V20h56v38H2z"/>
	<path fill="#231F20" d="M28,48h-4V29c0-0.404-0.244-0.769-0.617-0.924c-0.375-0.156-0.804-0.07-1.09,0.217l-5,5
		c-0.391,0.391-0.391,1.023,0,1.414c0.391,0.391,1.023,0.391,1.414,0L22,31.414V48h-4c-0.552,0-1,0.448-1,1c0,0.552,0.448,1,1,1h10
		c0.552,0,1-0.448,1-1C29,48.448,28.552,48,28,48z"/>
	<path fill="#231F20" d="M43,28H31c-0.552,0-1,0.448-1,1v2.261c0,0.552,0.448,1,1,1s1-0.448,1-1V30h9.523l-3.197,8h-4.544
		c-0.552,0-1,0.448-1,1c0,0.552,0.448,1,1,1h3.745l-3.413,8.542c-0.204,0.513,0.045,1.095,0.558,1.3
		c0.121,0.048,0.247,0.072,0.371,0.072c0.397,0,0.773-0.238,0.929-0.629L39.682,40h1.666c0.552,0,1-0.448,1-1c0-0.552-0.448-1-1-1
		h-0.867l3.448-8.629c0.123-0.308,0.086-0.657-0.101-0.932C43.642,28.165,43.331,28,43,28z"/>
</g>
</svg>
