<?xml version="1.0" encoding="utf-8"?>
<!-- Generator: Adobe Illustrator 17.0.0, SVG Export Plug-In . SVG Version: 6.00 Build 0)  -->
<!DOCTYPE svg PUBLIC "-//W3C//DTD SVG 1.1//EN" "http://www.w3.org/Graphics/SVG/1.1/DTD/svg11.dtd">
<svg version="1.1" id="Layer_1" xmlns="http://www.w3.org/2000/svg" xmlns:xlink="http://www.w3.org/1999/xlink" x="0px" y="0px"
	 width="60px" height="60px" viewBox="0 0 60 60" enable-background="new 0 0 60 60" xml:space="preserve">
<g>
	<path fill="#231F20" d="M59,4h-9V1c0-0.552-0.447-1-1-1h-8c-0.553,0-1,0.448-1,1v3H20V1c0-0.552-0.447-1-1-1h-8
		c-0.553,0-1,0.448-1,1v3H1C0.447,4,0,4.448,0,5v54c0,0.552,0.447,1,1,1h58c0.553,0,1-0.448,1-1V5C60,4.448,59.553,4,59,4z M42,2h6
		v8h-6V2z M12,2h6v8h-6V2z M10,6v5c0,0.552,0.447,1,1,1h8c0.553,0,1-0.448,1-1V6h20v5c0,0.552,0.447,1,1,1h8c0.553,0,1-0.448,1-1V6
		h8v12H2V6H10z M2,58V20h56v38H2z"/>
	<path fill="#231F20" d="M53.956,30c0.553,0,1-0.448,1-1c0-0.552-0.447-1-1-1H44v-4.304c0-0.552-0.447-1-1-1c-0.553,0-1,0.448-1,1
		V28H30v-4.304c0-0.552-0.447-1-1-1c-0.553,0-1,0.448-1,1V28H16v-4.304c0-0.552-0.447-1-1-1c-0.553,0-1,0.448-1,1V28H6.043
		c-0.553,0-1,0.448-1,1c0,0.552,0.447,1,1,1H14v8H6.043c-0.553,0-1,0.448-1,1c0,0.552,0.447,1,1,1H14v8H6.043c-0.553,0-1,0.448-1,1
		c0,0.552,0.447,1,1,1H14v3.957c0,0.552,0.447,1,1,1c0.553,0,1-0.448,1-1V50h12v3.957c0,0.552,0.447,1,1,1c0.553,0,1-0.448,1-1V50
		h12v3.957c0,0.552,0.447,1,1,1c0.553,0,1-0.448,1-1V50h9.956c0.553,0,1-0.448,1-1c0-0.552-0.447-1-1-1H44v-8h9.956
		c0.553,0,1-0.448,1-1c0-0.552-0.447-1-1-1H44v-8H53.956z M16,30h12v8H16V30z M16,48v-8h12v8H16z M42,48H30v-8h12V48z M42,38H30v-8
		h12V38z"/>
</g>
</svg>
