<?xml version="1.0" encoding="utf-8"?>
<!-- Generator: Adobe Illustrator 17.0.0, SVG Export Plug-In . SVG Version: 6.00 Build 0)  -->
<!DOCTYPE svg PUBLIC "-//W3C//DTD SVG 1.1//EN" "http://www.w3.org/Graphics/SVG/1.1/DTD/svg11.dtd">
<svg version="1.1" id="Layer_2" xmlns="http://www.w3.org/2000/svg" xmlns:xlink="http://www.w3.org/1999/xlink" x="0px" y="0px"
	 width="60px" height="60px" viewBox="0 0 60 60" enable-background="new 0 0 60 60" xml:space="preserve">
<path fill="#010101" d="M57.244,42.695l-6.245-6.244c-1.3-1.301-3.029-2.017-4.87-2.017c-1.84,0-3.569,0.716-4.871,2.017
	l-1.438,1.439c-6.347-5.278-12.442-11.373-17.709-17.711l1.438-1.438c2.686-2.685,2.686-7.055,0-9.74l-6.246-6.245
	c-1.3-1.301-3.03-2.017-4.87-2.017s-3.57,0.716-4.872,2.017L4.138,6.181C0.852,9.467,0.33,14.669,2.896,18.552
	c10.041,15.179,23.372,28.509,38.551,38.55c1.616,1.068,3.492,1.633,5.427,1.633c2.627,0,5.092-1.021,6.943-2.874l3.426-3.425
	C59.928,49.752,59.929,45.382,57.244,42.695z"/>
</svg>
