<?xml version="1.0" encoding="utf-8"?>
<!-- Generator: Adobe Illustrator 17.0.0, SVG Export Plug-In . SVG Version: 6.00 Build 0)  -->
<!DOCTYPE svg PUBLIC "-//W3C//DTD SVG 1.1//EN" "http://www.w3.org/Graphics/SVG/1.1/DTD/svg11.dtd">
<svg version="1.1" id="Layer_1" xmlns="http://www.w3.org/2000/svg" xmlns:xlink="http://www.w3.org/1999/xlink" x="0px" y="0px"
	 width="60px" height="60px" viewBox="0 0 60 60" enable-background="new 0 0 60 60" xml:space="preserve">
<g>
	<path fill="#231F20" d="M30,0C13.458,0,0,13.458,0,30s13.458,30,30,30s30-13.458,30-30S46.542,0,30,0z M30,58
		C14.56,58,2,45.44,2,30S14.56,2,30,2s28,12.56,28,28S45.44,58,30,58z"/>
	<path fill="#231F20" d="M30,29.565V16.13c0-0.552-0.447-1-1-1c-0.553,0-1,0.448-1,1V30c0,0.277,0.115,0.542,0.318,0.731
		l14.869,13.87c0.192,0.18,0.438,0.269,0.682,0.269c0.268,0,0.534-0.107,0.732-0.318c0.377-0.404,0.354-1.037-0.05-1.414L30,29.565z
		"/>
</g>
</svg>
