<?xml version="1.0" encoding="utf-8"?>
<!-- Generator: Adobe Illustrator 17.0.0, SVG Export Plug-In . SVG Version: 6.00 Build 0)  -->
<!DOCTYPE svg PUBLIC "-//W3C//DTD SVG 1.1//EN" "http://www.w3.org/Graphics/SVG/1.1/DTD/svg11.dtd">
<svg version="1.1" xmlns="http://www.w3.org/2000/svg" xmlns:xlink="http://www.w3.org/1999/xlink" x="0px" y="0px" width="60px"
	 height="60px" viewBox="0 0 60 60" enable-background="new 0 0 60 60" xml:space="preserve">
<g id="Layer_1">
	<g>
		<path fill="#231F20" d="M3.648,21.781C1.883,22.285,0.5,24.12,0.5,25.956V28h13.348h2.522H27.5v-2c0-1.928-1.262-3.742-2.96-4.227
			l-6.04-1.549v-2.048c2.495-1.618,4.174-4.561,4.174-7.927c0-5.1-3.842-9.249-8.565-9.249c-4.723,0-8.565,4.149-8.565,9.249
			c0,3.268,1.581,6.138,3.956,7.784v2.197L3.648,21.781z M14.109,3c3.031,0,5.581,2.282,6.333,5.37
			c-0.444,0.193-1.085,0.302-1.804,0.198C18.012,8.475,16.868,8.148,16.25,7c-0.149-0.279-0.422-0.47-0.735-0.516
			c-0.31-0.046-0.629,0.059-0.852,0.282C12.654,8.774,9.6,8.846,7.855,8.048C8.701,5.124,11.184,3,14.109,3z M7.544,10.249
			c0-0.062,0.007-0.122,0.008-0.184c2.252,0.794,5.327,0.559,7.642-1.13c0.791,0.855,1.891,1.425,3.153,1.611
			c0.296,0.044,0.59,0.065,0.878,0.065c0.509,0,0.99-0.082,1.441-0.209c-0.074,3.927-2.984,7.098-6.558,7.098
			C10.489,17.499,7.544,14.247,7.544,10.249z M14.109,19.499c0.83,0,1.631-0.135,2.391-0.374v2.651l7.517,1.928
			C24.834,23.937,25.5,24.967,25.5,26h-9.13h-2.522H2.5v-0.044c0-0.941,0.794-1.994,1.679-2.247L11.5,21.77v-2.713
			C12.323,19.342,13.199,19.499,14.109,19.499z"/>
		<path fill="#231F20" d="M59.5,26c0-1.928-1.262-3.742-2.96-4.227l-6.04-1.549v-2.048c2.495-1.618,4.174-4.561,4.174-7.927
			c0-5.1-3.842-9.249-8.565-9.249c-4.723,0-8.565,4.149-8.565,9.249c0,3.268,1.581,6.138,3.956,7.784v2.197l-5.852,1.55
			c-1.766,0.504-3.148,2.339-3.148,4.176V28h13.348h2.522H59.5V26z M46.109,3c3.031,0,5.581,2.282,6.333,5.37
			c-0.444,0.193-1.086,0.302-1.804,0.198C50.012,8.475,48.868,8.148,48.25,7c-0.149-0.279-0.422-0.47-0.735-0.516
			c-0.311-0.046-0.629,0.059-0.852,0.282c-2.008,2.008-5.062,2.08-6.808,1.282C40.701,5.124,43.184,3,46.109,3z M39.544,10.249
			c0-0.062,0.007-0.122,0.008-0.184c2.252,0.794,5.327,0.559,7.642-1.13c0.791,0.855,1.891,1.425,3.153,1.611
			c0.296,0.044,0.59,0.065,0.878,0.065c0.509,0,0.99-0.082,1.441-0.209c-0.074,3.927-2.984,7.098-6.558,7.098
			C42.489,17.499,39.544,14.247,39.544,10.249z M48.37,26h-2.522H34.5v-0.044c0-0.941,0.794-1.994,1.679-2.247L43.5,21.77v-2.713
			c0.823,0.285,1.699,0.442,2.609,0.442c0.83,0,1.631-0.135,2.391-0.374v2.651l7.517,1.928C56.834,23.937,57.5,24.967,57.5,26H48.37
			z"/>
		<path fill="#231F20" d="M38.065,42.032c0-5.1-3.842-9.249-8.565-9.249s-8.565,4.149-8.565,9.249c0,3.189,1.502,6.006,3.783,7.67
			v2.24l-5.678,1.622c-1.766,0.505-3.148,2.339-3.148,4.176V60h12.348h2.521h12.348v-2.261c0-1.837-1.384-3.672-3.151-4.176
			l-5.675-1.622v-2.24C36.563,48.038,38.065,45.221,38.065,42.032z M29.5,34.783c3.007,0,5.542,2.247,6.317,5.298
			c-0.456,0.211-1.127,0.334-1.869,0.226c-0.604-0.089-1.705-0.405-2.306-1.523c-0.149-0.279-0.422-0.47-0.735-0.516
			c-0.311-0.047-0.629,0.059-0.853,0.282c-2.008,2.008-5.062,2.08-6.808,1.282C24.092,36.907,26.575,34.783,29.5,34.783z
			 M22.935,42.032c0-0.062,0.007-0.123,0.008-0.185c2.252,0.794,5.328,0.559,7.643-1.13c0.775,0.833,1.845,1.388,3.069,1.568
			c0.284,0.042,0.567,0.062,0.848,0.062c0.547,0,1.072-0.091,1.558-0.237c-0.038,3.961-2.966,7.172-6.562,7.172
			C25.88,49.282,22.935,46.029,22.935,42.032z M39.408,55.486c0.906,0.259,1.701,1.312,1.701,2.253V58H30.761h-2.521H17.891v-0.261
			c0-0.941,0.793-1.994,1.698-2.253l7.128-2.036v-2.679c0.874,0.326,1.808,0.511,2.783,0.511s1.909-0.185,2.783-0.511v2.679
			L39.408,55.486z"/>
		<path fill="#231F20" d="M16.337,36.858l-6.304-6.305c-0.391-0.391-1.023-0.391-1.414,0c-0.391,0.391-0.391,1.023,0,1.414
			l6.304,6.305c0.195,0.195,0.451,0.293,0.707,0.293c0.256,0,0.512-0.098,0.707-0.293C16.728,37.882,16.728,37.249,16.337,36.858z"
			/>
		<path fill="#231F20" d="M44.077,38.273l6.304-6.305c0.391-0.391,0.391-1.023,0-1.414c-0.391-0.391-1.023-0.391-1.414,0
			l-6.304,6.305c-0.391,0.391-0.391,1.023,0,1.414c0.195,0.195,0.451,0.293,0.707,0.293C43.625,38.565,43.881,38.468,44.077,38.273z
			"/>
	</g>
</g>
<g id="nyt_x5F_exporter_x5F_info" display="none">
</g>
</svg>
