<?xml version="1.0" encoding="utf-8"?>
<!-- Generator: Adobe Illustrator 17.0.0, SVG Export Plug-In . SVG Version: 6.00 Build 0)  -->
<!DOCTYPE svg PUBLIC "-//W3C//DTD SVG 1.1//EN" "http://www.w3.org/Graphics/SVG/1.1/DTD/svg11.dtd">
<svg version="1.1" id="Layer_1" xmlns="http://www.w3.org/2000/svg" xmlns:xlink="http://www.w3.org/1999/xlink" x="0px" y="0px"
	 width="60px" height="60px" viewBox="0 0 60 60" enable-background="new 0 0 60 60" xml:space="preserve">
<g>
	<path fill="#231F20" d="M51.707,4.293C51.519,4.106,51.266,4,51,4H30V1c0-0.552-0.447-1-1-1c-0.553,0-1,0.448-1,1v3H7
		C6.447,4,6,4.448,6,5v16c0,0.552,0.447,1,1,1h21v4H9c-0.266,0-0.52,0.106-0.707,0.293l-8,8c-0.391,0.391-0.391,1.023,0,1.414l8,8
		C8.48,43.895,8.734,44,9,44h19v15c0,0.552,0.447,1,1,1c0.553,0,1-0.448,1-1V44h23c0.553,0,1-0.448,1-1V27c0-0.552-0.447-1-1-1H30
		v-4h21c0.266,0,0.519-0.105,0.707-0.293l8-8c0.391-0.391,0.391-1.023,0-1.414L51.707,4.293z M52,42H9.414l-7-7l7-7H52V42z
		 M50.586,20H8V6h42.586l7,7L50.586,20z"/>
</g>
</svg>
