<?xml version="1.0" encoding="utf-8"?>
<!-- Generator: Adobe Illustrator 17.0.0, SVG Export Plug-In . SVG Version: 6.00 Build 0)  -->
<!DOCTYPE svg PUBLIC "-//W3C//DTD SVG 1.1//EN" "http://www.w3.org/Graphics/SVG/1.1/DTD/svg11.dtd">
<svg version="1.1" id="Layer_1" xmlns="http://www.w3.org/2000/svg" xmlns:xlink="http://www.w3.org/1999/xlink" x="0px" y="0px"
	 width="60px" height="60px" viewBox="0 0 60 60" enable-background="new 0 0 60 60" xml:space="preserve">
<g>
	<path fill="#231F20" d="M6,58.5v-57c0-0.552-0.448-1-1-1s-1,0.448-1,1v57c0,0.552,0.448,1,1,1S6,59.052,6,58.5z"/>
	<path fill="#231F20" d="M8,5.5v30c0,0.32,0.153,0.62,0.411,0.808c0.259,0.188,0.591,0.241,0.895,0.144
		c0.096-0.031,9.68-3.091,16.131-3.091c5.128,0,5.128,1.839,5.128,2.443c0,2.22,1.439,4.866,8.295,4.866c0.001,0,0.001,0,0.002,0
		c6.275,0,14.072-2.116,14.401-2.206C53.699,38.345,54,37.951,54,37.5v-30c0-0.31-0.144-0.602-0.389-0.792
		c-0.246-0.19-0.564-0.254-0.864-0.176C52.672,6.552,45.157,8.5,39.196,8.5c-0.001,0-0.001,0-0.002,0
		c-2.16,0-3.832-0.253-4.97-0.751c-1.487-0.651-1.659-1.571-1.659-2.206c0-1.995-1.195-4.374-6.889-4.374
		c-6.771,0-16.579,3.243-16.993,3.381C8.275,4.688,8,5.069,8,5.5z M10,6.23c2.346-0.733,10.217-3.06,15.677-3.06
		c4.889,0,4.889,1.787,4.889,2.374c0,1.271,0.496,3.003,2.856,4.038c1.393,0.61,3.334,0.919,5.772,0.919h0.002
		c4.789,0,10.357-1.158,12.804-1.728v27.953c-2.087,0.523-8.21,1.944-13.137,1.944h-0.001c-4.178,0-6.296-0.964-6.296-2.866
		c0-2.027-1.237-4.443-7.128-4.443c-5.372,0-12.523,1.93-15.437,2.788V6.23z"/>
</g>
</svg>
