<?xml version="1.0" encoding="utf-8"?>
<!-- Generator: Adobe Illustrator 17.0.0, SVG Export Plug-In . SVG Version: 6.00 Build 0)  -->
<!DOCTYPE svg PUBLIC "-//W3C//DTD SVG 1.1//EN" "http://www.w3.org/Graphics/SVG/1.1/DTD/svg11.dtd">
<svg version="1.1" id="Layer_1" xmlns="http://www.w3.org/2000/svg" xmlns:xlink="http://www.w3.org/1999/xlink" x="0px" y="0px"
	 width="60px" height="60px" viewBox="0 0 60 60" enable-background="new 0 0 60 60" xml:space="preserve">
<g>
	<path fill="#010101" d="M37,0c-0.552,0-1,0.448-1,1v58c0,0.552,0.448,1,1,1s1-0.448,1-1V40h7c0.552,0,1-0.448,1-1
		C46,20.59,42.151,0,37,0z M38,38V2.801C40.3,6.055,43.875,19.022,43.997,38H38z"/>
	<path fill="#010101" d="M27,0.001c-0.552,0-1,0.448-1,1v14c0,3.519-2.613,6.432-6,6.92V1c0-0.552-0.448-1-1-1s-1,0.448-1,1v20.921
		c-3.387-0.488-6-3.401-6-6.92v-14c0-0.552-0.448-1-1-1s-1,0.448-1,1v14c0,4.624,3.507,8.441,8,8.941V59c0,0.552,0.448,1,1,1
		s1-0.448,1-1V23.942c4.493-0.5,8-4.317,8-8.941v-14C28,0.449,27.552,0.001,27,0.001z"/>
</g>
</svg>
