<?xml version="1.0" encoding="utf-8"?>
<!-- Generator: Adobe Illustrator 17.0.0, SVG Export Plug-In . SVG Version: 6.00 Build 0)  -->
<!DOCTYPE svg PUBLIC "-//W3C//DTD SVG 1.1//EN" "http://www.w3.org/Graphics/SVG/1.1/DTD/svg11.dtd">
<svg version="1.1" id="Layer_1" xmlns="http://www.w3.org/2000/svg" xmlns:xlink="http://www.w3.org/1999/xlink" x="0px" y="0px"
	 width="60px" height="60px" viewBox="0 0 60 60" enable-background="new 0 0 60 60" xml:space="preserve">
<g>
	<path fill="#010101" d="M21.996,28.116c1.712,0,4.032-0.732,5.987-3.918c3.737,6.631,5.022,11.96,5.043,12.047
		c0.101,0.435,0.479,0.75,0.925,0.772c0.017,0.001,0.033,0.001,0.049,0.001c0.428,0,0.81-0.272,0.947-0.68
		c0.02-0.06,1.288-3.719,3.878-7.37c1.624,2.859,3.705,3.515,5.268,3.515c0,0,0,0,0.001,0c1.904,0,3.957-1.012,5.632-2.777
		c3.16-3.331,4.323-12.443,2.184-17.105c-0.127-0.275-0.371-0.479-0.665-0.553c-0.289-0.073-0.604-0.012-0.847,0.171
		c-2.252,1.7-4.366,2.246-6.411,2.774c-1.807,0.466-3.676,0.949-5.541,2.193c-2.085,1.391-3.333,3.409-3.338,5.397
		c-0.004,1.218,0.469,2.951,2.503,4.629c-1.56,2.08-2.704,4.2-3.452,5.802c-0.817-2.441-2.318-6.257-4.817-10.537
		c2.863-1.455,4.602-3.367,5.144-5.707c0.823-3.552-1.353-6.788-2.723-8.4c-2.29-2.699-5.573-3.484-9.05-4.316
		c-3.135-0.75-6.377-1.525-9.067-3.801c-0.231-0.195-0.543-0.275-0.835-0.218c-0.298,0.058-0.553,0.247-0.694,0.514
		c-3.397,6.421-1.657,18.664,2.121,23.115C16.638,26.494,19.466,28.116,21.996,28.116z M37.107,22.589
		c0.003-1.321,0.918-2.718,2.447-3.739c1.584-1.056,3.21-1.476,4.932-1.92c1.826-0.472,3.86-0.997,6.023-2.359
		c1.287,4.408-0.027,11.432-2.235,13.758c-1.279,1.348-2.842,2.153-4.181,2.153h-0.001c-1.937,0-3.17-1.658-3.912-3.258
		c1.447-1.703,3.193-3.276,5.266-4.312c0.494-0.247,0.694-0.848,0.447-1.342c-0.248-0.494-0.847-0.695-1.342-0.447
		c-2.245,1.123-4.13,2.764-5.688,4.541C37.713,24.711,37.104,23.66,37.107,22.589z M13.387,2.578
		c2.819,1.978,6.01,2.741,8.861,3.423c3.285,0.786,6.123,1.464,7.99,3.665c1.918,2.257,2.756,4.683,2.299,6.654
		c-0.41,1.771-1.842,3.262-4.236,4.447c-2.377-3.768-5.518-7.79-9.632-11.492c-0.41-0.37-1.042-0.335-1.412,0.074
		c-0.369,0.411-0.336,1.043,0.074,1.412c4.061,3.655,7.149,7.68,9.468,11.432c-1.295,2.592-2.906,3.922-4.803,3.922
		c-1.942,0-4.214-1.365-6.233-3.744C12.633,18.685,11.061,8.525,13.387,2.578z"/>
	<path fill="#010101" d="M51.172,43.147l-9.208,3.054c0.003-0.063,0.016-0.126,0.016-0.19c0-1.991-1.367-4.007-3.98-4.007
		c-1.74,0-2.835,0.005-3.727,0.009c-1.285,0.005-2.147,0.009-3.926-0.006C26.903,39.36,23.087,38.019,19,38.019h-7v-1
		c0-0.552-0.447-1-1-1H1c-0.553,0-1,0.448-1,1v18c0,0.552,0.447,1,1,1h10c0.553,0,1-0.448,1-1v-0.763
		c2.466,0.832,4.631,1.587,6.521,2.249c6.396,2.238,10.01,3.478,13.367,3.478c4.218,0,8.03-1.958,16.435-6.354
		c2.96-1.548,6.643-3.475,11.124-5.715c0.287-0.144,0.488-0.417,0.54-0.734c0.051-0.317-0.053-0.64-0.28-0.867
		C57.442,44.047,54.843,42.096,51.172,43.147z M10,54.019H2v-16h8V54.019z M47.396,51.856c-14.47,7.569-14.468,7.57-28.215,2.76
		c-2.059-0.721-4.435-1.55-7.182-2.472V40.019h7c3.733,0,7.226,1.269,10.379,3.77c0.174,0.139,0.39,0.215,0.612,0.217
		c2.024,0.019,2.919,0.015,4.291,0.009c0.89-0.004,1.981-0.009,3.718-0.009c1.462,0,1.98,1.081,1.98,2.007s-0.519,2.007-1.98,2.007
		H24c-0.553,0-1,0.448-1,1s0.447,1,1,1h14c1.394,0,2.422-0.582,3.088-1.419l10.674-3.541c1.911-0.549,3.451-0.103,5.513,1.708
		C53.35,48.742,50.077,50.454,47.396,51.856z"/>
</g>
</svg>
