<?xml version="1.0" encoding="utf-8"?>
<!-- Generator: Adobe Illustrator 17.0.0, SVG Export Plug-In . SVG Version: 6.00 Build 0)  -->
<!DOCTYPE svg PUBLIC "-//W3C//DTD SVG 1.1//EN" "http://www.w3.org/Graphics/SVG/1.1/DTD/svg11.dtd">
<svg version="1.1" id="Layer_1" xmlns="http://www.w3.org/2000/svg" xmlns:xlink="http://www.w3.org/1999/xlink" x="0px" y="0px"
	 width="60px" height="60px" viewBox="0 0 60 60" enable-background="new 0 0 60 60" xml:space="preserve">
<g>
	<path fill="#010101" d="M51.172,43.149l-9.208,3.054c0.003-0.063,0.016-0.126,0.016-0.19c0-1.991-1.367-4.007-3.98-4.007
		c-1.74,0-2.835,0.005-3.727,0.009c-1.285,0.005-2.148,0.009-3.926-0.006C26.903,39.362,23.087,38.02,19,38.02h-7v-1
		c0-0.552-0.447-1-1-1H1c-0.553,0-1,0.448-1,1v18c0,0.552,0.447,1,1,1h10c0.553,0,1-0.448,1-1v-0.763
		c2.466,0.832,4.631,1.587,6.521,2.249c6.396,2.238,10.01,3.478,13.367,3.478c4.218,0,8.03-1.958,16.435-6.354
		c2.96-1.548,6.643-3.475,11.124-5.715c0.287-0.144,0.488-0.417,0.54-0.734c0.051-0.317-0.053-0.64-0.28-0.867
		C57.442,44.049,54.843,42.099,51.172,43.149z M10,54.02H2v-16h8V54.02z M47.396,51.858c-14.47,7.57-14.468,7.57-28.215,2.76
		c-2.059-0.721-4.435-1.55-7.182-2.472V40.02h7c3.733,0,7.226,1.269,10.379,3.77c0.174,0.139,0.39,0.215,0.612,0.217
		c2.024,0.019,2.919,0.014,4.291,0.009c0.89-0.004,1.981-0.009,3.718-0.009c1.462,0,1.98,1.081,1.98,2.007S39.462,48.02,38,48.02H24
		c-0.553,0-1,0.448-1,1s0.447,1,1,1h14c1.394,0,2.422-0.582,3.088-1.419l10.674-3.541c1.913-0.548,3.451-0.103,5.513,1.708
		C53.35,48.743,50.077,50.456,47.396,51.858z"/>
	<path fill="#010101" d="M18.257,32.005c0.477-0.279,0.636-0.892,0.356-1.369c-2.568-4.377-3.279-9.493-2-14.404
		c1.279-4.911,4.395-9.03,8.771-11.598c3.444-2.019,7.341-2.872,11.24-2.53C34.32,3,32.065,4.388,32.25,6.375
		c0.114,1.22,0.675,2.168,1.578,2.67c0.836,0.464,1.888,0.486,2.945,0.077c0.116,0.649,0.104,1.933-0.036,3.264
		c-0.415,0.069-0.855,0.171-1.312,0.277c-1.429,0.332-3.033,0.704-3.92,0.086c-0.109-0.292-0.31-0.603-0.632-0.867
		c-0.93-0.762-2.51-0.905-4.84-0.438c-5.132,1.024-5.19,7.712-5.19,7.996c0,1.56,0.759,4.51,3.631,4.51
		c0.471,0,0.941-0.026,1.398-0.053c1.079-0.061,2.1-0.12,2.501,0.259c0.3,0.283,0.363,0.931,0.363,1.424
		c0,0.265,0.105,0.52,0.293,0.707c0.711,0.711,1.409,1.646,1.463,1.926c0,0.201-0.177,0.554-0.334,0.866
		c-0.256,0.51-0.546,1.089-0.546,1.764c0,0.936,1.813,5.386,3.633,5.386c3.655,0,5.938-1.749,6.23-4.718
		c0.584-0.29,1.481-0.827,2.368-1.714c0.492-0.491,0.732-1.013,0.714-1.551c-0.027-0.811-0.624-1.33-1.018-1.673
		c-0.039-0.033-0.084-0.073-0.129-0.113c0.21-0.244,0.531-0.579,0.789-0.846c1.679-1.746,4.489-4.669,2.277-6.881
		c-0.305-0.305-0.769-0.377-1.154-0.188c-0.364,0.183-0.981,0.345-1.315,0.267c-0.399-1.485-0.818-2.403-1.207-2.969
		c0.972-0.52,2.756-1.13,4.48-0.696c0.229,0.057,0.474,0.031,0.689-0.076c2.4-1.198,3.69-3.583,4.34-5.3
		c0.383,0.523,0.743,1.066,1.076,1.633c5.303,9.036,2.266,20.702-6.771,26.004c-0.477,0.279-0.636,0.892-0.356,1.369
		c0.187,0.317,0.521,0.494,0.863,0.494c0.172,0,0.346-0.044,0.505-0.138c4.839-2.839,8.281-7.392,9.694-12.821
		c1.414-5.428,0.628-11.083-2.211-15.92c-0.675-1.151-1.454-2.216-2.312-3.201c-0.089-0.189-0.226-0.347-0.413-0.45
		c-2.433-2.632-5.501-4.581-8.969-5.691c-0.127-0.078-0.272-0.118-0.424-0.133c-0.236-0.07-0.463-0.158-0.702-0.22
		C34.864-0.716,29.21,0.07,24.373,2.91c-4.839,2.838-8.281,7.391-9.695,12.819c-1.413,5.428-0.628,11.083,2.211,15.921
		C17.169,32.126,17.78,32.284,18.257,32.005z M48.797,7.973c-0.313,1.157-1.25,3.874-3.422,5.148
		c-3.176-0.601-6.136,1.103-6.814,1.93c-0.46,0.561-0.299,1.066-0.209,1.258c0.147,0.311,0.422,0.521,0.762,0.594
		c0.288,0.377,0.767,1.627,1.056,2.78c0.044,0.176,0.135,0.337,0.264,0.465c0.838,0.837,2.004,0.753,2.822,0.54
		c-0.05,0.997-1.594,2.601-2.495,3.539c-0.966,1.004-1.498,1.558-1.498,2.229c0,0.784,0.559,1.27,0.966,1.625
		c0.08,0.069,0.186,0.161,0.263,0.238c-0.017,0.019-0.036,0.039-0.059,0.062c-1.113,1.114-2.233,1.51-2.239,1.512
		c-0.408,0.136-0.684,0.518-0.684,0.949c0,2.201-1.377,3.339-4.094,3.384c-0.58-0.487-1.752-2.769-1.802-3.384
		c0-0.202,0.178-0.555,0.334-0.867c0.256-0.51,0.546-1.088,0.546-1.763c0-0.995-1.006-2.246-1.768-3.051
		c-0.063-1.093-0.386-1.9-0.979-2.46c-1.028-0.971-2.533-0.886-3.988-0.801c-0.419,0.024-0.852,0.049-1.284,0.049
		c-1.595,0-1.63-2.411-1.631-2.508c0-0.053,0.06-5.333,3.584-6.037c2.457-0.494,3.102-0.044,3.196,0.041
		c0.031,0.211,0.129,0.409,0.282,0.562c1.619,1.616,4.137,1.03,5.972,0.603c0.688-0.16,1.337-0.311,1.754-0.311
		c0.498,0,0.92-0.366,0.99-0.858c0.337-2.361,0.489-5.355-0.703-6.215c-0.464-0.333-1.053-0.364-1.613-0.083
		c-0.597,0.3-1.144,0.354-1.507,0.153c-0.396-0.219-0.521-0.724-0.557-1.107c-0.096-1.024,3.318-2.52,6.551-3.242
		C43.879,3.932,46.612,5.654,48.797,7.973z"/>
</g>
</svg>
