<?xml version="1.0" encoding="utf-8"?>
<!-- Generator: Adobe Illustrator 17.0.0, SVG Export Plug-In . SVG Version: 6.00 Build 0)  -->
<!DOCTYPE svg PUBLIC "-//W3C//DTD SVG 1.1//EN" "http://www.w3.org/Graphics/SVG/1.1/DTD/svg11.dtd">
<svg version="1.1" xmlns="http://www.w3.org/2000/svg" xmlns:xlink="http://www.w3.org/1999/xlink" x="0px" y="0px" width="60px"
	 height="60px" viewBox="0 0 60 60" enable-background="new 0 0 60 60" xml:space="preserve">
<g id="Layer_1">
	<g>
		<path fill="#231F20" d="M29,0c-6.205,0-7,3.741-7,7v3.261H9c-0.552,0-1,0.448-1,1V59c0,0.552,0.448,1,1,1h42c0.552,0,1-0.448,1-1
			V11.261c0-0.552-0.448-1-1-1H36V7C36,3.741,35.205,0,29,0z M24,7c0-3.243,0.797-5,5-5c4.203,0,5,1.757,5,5v11H24V7z M10,58v-8h40
			v8H10z M23.008,31.935c2.251,0.794,5.325,0.559,7.64-1.129c0.798,0.868,1.908,1.446,3.179,1.633
			c0.292,0.043,0.582,0.064,0.866,0.064c0.505,0,0.982-0.082,1.429-0.208c-0.086,3.916-2.991,7.073-6.557,7.073
			c-3.62,0-6.565-3.252-6.565-7.25C23,32.056,23.007,31.996,23.008,31.935z M23.311,29.918c0.846-2.924,3.329-5.048,6.254-5.048
			c3.038,0,5.593,2.293,6.339,5.392c-0.422,0.192-1.045,0.308-1.784,0.198c-0.509-0.075-1.762-0.379-2.413-1.59
			c-0.149-0.279-0.422-0.47-0.735-0.516c-0.313-0.047-0.628,0.059-0.853,0.282C28.111,30.643,25.057,30.716,23.311,29.918z
			 M26,40.518c1.087,0.54,2.292,0.85,3.565,0.85c0.846,0,1.662-0.138,2.435-0.386v2.835l8.638,1.756
			c0.819,0.234,1.693,0.972,1.678,2.068L42.322,48H16.807l0.006-0.373c0-0.898,0.722-1.78,1.635-2.042L26,43.79V40.518z M50,12.261
			V48h-5.678l-0.005-0.36c0.025-1.815-1.262-3.456-3.204-4.008L34,42.183v-2.167c2.471-1.624,4.13-4.552,4.13-7.898
			c0-5.1-3.842-9.249-8.565-9.249c-4.723,0-8.565,4.149-8.565,9.249c0,2.806,1.167,5.319,3,7.017v3.075l-6.057,1.44
			c-1.813,0.517-3.129,2.189-3.129,3.959L14.807,48H10V12.261h12V19c0,0.552,0.448,1,1,1h12c0.552,0,1-0.448,1-1v-6.739H50z"/>
		<path fill="#231F20" d="M29,4c-1.654,0-3,1.346-3,3s1.346,3,3,3s3-1.346,3-3S30.654,4,29,4z M29,8c-0.551,0-1-0.449-1-1
			c0-0.551,0.449-1,1-1c0.551,0,1,0.449,1,1C30,7.551,29.551,8,29,8z"/>
		<rect x="35" y="54" fill="#231F20" width="10" height="2"/>
	</g>
</g>
<g id="nyt_x5F_exporter_x5F_info" display="none">
</g>
</svg>
