<?xml version="1.0" encoding="utf-8"?>
<!-- Generator: Adobe Illustrator 17.0.0, SVG Export Plug-In . SVG Version: 6.00 Build 0)  -->
<!DOCTYPE svg PUBLIC "-//W3C//DTD SVG 1.1//EN" "http://www.w3.org/Graphics/SVG/1.1/DTD/svg11.dtd">
<svg version="1.1" id="Layer_1" xmlns="http://www.w3.org/2000/svg" xmlns:xlink="http://www.w3.org/1999/xlink" x="0px" y="0px"
	 width="60px" height="60px" viewBox="0 0 60 60" enable-background="new 0 0 60 60" xml:space="preserve">
<g>
	<path fill="#010101" d="M59.793,36.366L47.878,14.521C47.703,14.2,47.366,14,47,14H18V3c0-0.551,0.449-1,1-1h1
		c0.83,0,2.12,0.534,2.707,1.121l0.86,0.86C23.215,4.576,23,5.26,23,6c0,2.206,1.794,4,4,4c2.206,0,4-1.794,4-4c0-2.206-1.794-4-4-4
		c-0.74,0-1.424,0.216-2.019,0.567l-0.86-0.86C23.148,0.734,21.376,0,20,0h-1c-1.654,0-3,1.346-3,3v11h-2
		c-0.354,0-0.681,0.187-0.861,0.491l-13,22c-0.015,0.025-0.021,0.054-0.034,0.08c-0.013,0.028-0.025,0.055-0.036,0.084
		c-0.041,0.111-0.069,0.225-0.069,0.342C0.001,36.998,0,36.999,0,37v6c0,0.552,0.448,1,1,1h28v14h-4c-0.552,0-1,0.448-1,1
		s0.448,1,1,1h10c0.552,0,1-0.448,1-1s-0.448-1-1-1h-4V44h28c0.552,0,1-0.448,1-1v-5.901c0.004-0.034,0.02-0.064,0.02-0.099
		C60.02,36.759,59.935,36.538,59.793,36.366z M29,6c0,1.103-0.897,2-2,2s-2-0.897-2-2c0-0.551,0.224-1.05,0.585-1.412
		c0.001-0.001,0.002-0.001,0.002-0.001s0.001-0.002,0.001-0.002C25.95,4.224,26.449,4,27,4C28.103,4,29,4.897,29,6z M14.571,16H16v3
		c0,0.552,0.448,1,1,1s1-0.448,1-1v-3h28.406l10.909,20H2.752L14.571,16z M58,42H2v-4h56V42z"/>
	<path fill="#010101" d="M49.852,30.445l-4.929-11.83C44.768,18.243,44.404,18,44,18H24c-0.459,0-0.859,0.312-0.97,0.757l-3,12
		c-0.075,0.299-0.007,0.615,0.182,0.858C20.401,31.858,20.692,32,21,32h28c0.007,0,0.013,0,0.02,0c0.552,0,1-0.448,1-1
		C50.02,30.795,49.958,30.604,49.852,30.445z M22.281,30l2.5-10h18.553L47.5,30H22.281z"/>
</g>
</svg>
