<?xml version="1.0" encoding="utf-8"?>
<!-- Generator: Adobe Illustrator 17.0.0, SVG Export Plug-In . SVG Version: 6.00 Build 0)  -->
<!DOCTYPE svg PUBLIC "-//W3C//DTD SVG 1.1//EN" "http://www.w3.org/Graphics/SVG/1.1/DTD/svg11.dtd">
<svg version="1.1" id="Layer_1" xmlns="http://www.w3.org/2000/svg" xmlns:xlink="http://www.w3.org/1999/xlink" x="0px" y="0px"
	 width="60px" height="60px" viewBox="0 0 60 60" enable-background="new 0 0 60 60" xml:space="preserve">
<g>
	<path fill="#010101" d="M56.137,2.869c-0.105,0.012-10.659,1.19-22.178,4.717C18.333,12.37,8.445,18.969,4.567,27.199
		c-3.258,6.914-2.102,14.826,3.407,23.522l-2.436,2.436c-0.391,0.391-0.391,1.023,0,1.414c0.195,0.195,0.451,0.293,0.707,0.293
		s0.512-0.098,0.707-0.293l2.446-2.446c5.368,3.314,10.478,5.012,15.194,5.012c11.027,0,20.177-9.267,26.459-26.8
		c4.669-13.028,6.173-26.232,6.188-26.364c0.034-0.301-0.071-0.602-0.286-0.817C56.738,2.941,56.439,2.835,56.137,2.869z
		 M24.592,55.137c-4.223,0-8.842-1.515-13.739-4.468l5.807-5.807h11.585c0.552,0,1-0.448,1-1s-0.448-1-1-1H18.66l7.999-7.999h9.586
		c0.552,0,1-0.448,1-1s-0.448-1-1-1h-7.586l8-8h3.586c0.552,0,1-0.448,1-1s-0.448-1-1-1h-3v-3c0-0.552-0.448-1-1-1s-1,0.448-1,1
		v3.586l-8,8v-7.586c0-0.552-0.448-1-1-1s-1,0.448-1,1v9.586l-8,8v-9.587c0-0.552-0.448-1-1-1s-1,0.448-1,1V43.45L9.425,49.27
		c-4.914-7.927-5.948-15.063-3.049-21.218C14.208,11.426,48.083,5.976,55.086,5.019C53.986,12.934,47.055,55.137,24.592,55.137z"/>
</g>
</svg>
