<?xml version="1.0" encoding="utf-8"?>
<!-- Generator: Adobe Illustrator 17.0.0, SVG Export Plug-In . SVG Version: 6.00 Build 0)  -->
<!DOCTYPE svg PUBLIC "-//W3C//DTD SVG 1.1//EN" "http://www.w3.org/Graphics/SVG/1.1/DTD/svg11.dtd">
<svg version="1.1" id="Layer_1" xmlns="http://www.w3.org/2000/svg" xmlns:xlink="http://www.w3.org/1999/xlink" x="0px" y="0px"
	 width="60px" height="60px" viewBox="0 0 60 60" enable-background="new 0 0 60 60" xml:space="preserve">
<g>
	<path fill="#010101" d="M29,0C16.317,0,6,10.318,6,23c0,9.653,5.998,18.229,15,21.564V47c0,0.552,0.447,1,1,1h14
		c0.553,0,1-0.448,1-1v-2.436C46.002,41.229,52,32.653,52,23C52,10.318,41.683,0,29,0z M35.682,42.908
		C35.274,43.045,35,43.427,35,43.856V46h-5.172c-0.356-1.953-1.233-7.253-1.417-12.913c2.047,1.419,3.924,2.148,5.595,2.148
		c2.922,0,5.041-2.132,5.967-6.002c1.405-5.871-3.512-16.888-9.396-21.049c-0.245-0.174-0.558-0.227-0.852-0.146
		c-0.291,0.083-0.528,0.293-0.646,0.572c-1.37,3.24-3.545,5.321-5.648,7.334c-2.354,2.253-4.578,4.381-5.403,7.823
		c-0.714,2.987-0.467,5.273,0.735,6.796c1.028,1.303,2.687,1.964,4.929,1.964c0.001,0,0.001,0,0.001,0
		c0.804,0,1.72-0.11,2.691-0.281c0.101,5.83,0.979,11.369,1.409,13.753H23v-2.144c0-0.43-0.274-0.812-0.682-0.948
		C13.754,40.035,8,32.034,8,23C8,11.42,17.421,2,29,2s21,9.42,21,21C50,32.034,44.246,40.035,35.682,42.908z M23.692,30.528
		C23.692,30.528,23.692,30.528,23.692,30.528c-1.6,0-2.73-0.405-3.359-1.203c-1.001-1.268-0.748-3.469-0.36-5.092
		c0.688-2.869,2.612-4.711,4.841-6.844c1.904-1.821,4.032-3.858,5.558-6.824c4.753,4.143,8.788,13.476,7.656,18.202
		c-0.487,2.038-1.581,4.467-4.021,4.467c-1.526,0-3.468-0.929-5.626-2.671c0.038-4.6,0.645-9.139,2.466-12.031
		c0.295-0.467,0.154-1.084-0.312-1.379c-0.468-0.293-1.085-0.153-1.379,0.313c-1.999,3.174-2.696,7.956-2.774,12.762
		C25.382,30.425,24.478,30.528,23.692,30.528z"/>
	<path fill="#010101" d="M36,50H22c-0.553,0-1,0.448-1,1s0.447,1,1,1h14c0.553,0,1-0.448,1-1S36.553,50,36,50z"/>
	<path fill="#010101" d="M36,54H22c-0.553,0-1,0.448-1,1s0.447,1,1,1h6v3c0,0.552,0.447,1,1,1s1-0.448,1-1v-3h6c0.553,0,1-0.448,1-1
		S36.553,54,36,54z"/>
</g>
</svg>
