<?xml version="1.0" encoding="utf-8"?>
<!-- Generator: Adobe Illustrator 18.0.0, SVG Export Plug-In . SVG Version: 6.00 Build 0)  -->
<!DOCTYPE svg PUBLIC "-//W3C//DTD SVG 1.1 Tiny//EN" "http://www.w3.org/Graphics/SVG/1.1/DTD/svg11-tiny.dtd">
<svg version="1.1" baseProfile="tiny" id="Layer_1" xmlns="http://www.w3.org/2000/svg" xmlns:xlink="http://www.w3.org/1999/xlink"
	 x="0px" y="0px" viewBox="0 0 24 24" xml:space="preserve">
<g>
	<path fill="#231F20" d="M12,16.2l-3.2,3.2c-0.9,0.9-2.6,0.9-3.5,0l-0.7-0.7c-1-1-1-2.6,0-3.5l4.6-4.6c0.9-0.9,2.6-0.9,3.5,0
		l0.7,0.7c0.2,0.2,0.5,0.2,0.7,0s0.2-0.5,0-0.7l-0.7-0.7c-1.3-1.3-3.6-1.3-4.9,0l-4.6,4.6c-1.4,1.4-1.4,3.6,0,4.9l0.7,0.7
		c0.7,0.7,1.5,1,2.5,1c0.9,0,1.8-0.4,2.5-1l3.2-3.2c0.2-0.2,0.2-0.5,0-0.7C12.5,16,12.2,16,12,16.2z"/>
	<path fill="#231F20" d="M20.1,4.6l-0.7-0.7c-1.3-1.3-3.6-1.3-4.9,0L11.3,7c-0.2,0.2-0.2,0.5,0,0.7c0.2,0.2,0.5,0.2,0.7,0l3.2-3.2
		c0.9-0.9,2.6-0.9,3.5,0l0.7,0.7c0.5,0.5,0.7,1.1,0.7,1.8c0,0.7-0.3,1.3-0.7,1.8l-4.6,4.6c-0.9,0.9-2.6,0.9-3.5,0
		c-0.2-0.2-0.5-0.2-0.7,0c-0.2,0.2-0.2,0.5,0,0.7c0.7,0.7,1.5,1,2.5,1c0.9,0,1.8-0.4,2.5-1l4.6-4.6c0.7-0.7,1-1.5,1-2.5
		C21.2,6.1,20.8,5.2,20.1,4.6z"/>
</g>
</svg>
