<?xml version="1.0" encoding="utf-8"?>
<!-- Generator: Adobe Illustrator 18.0.0, SVG Export Plug-In . SVG Version: 6.00 Build 0)  -->
<!DOCTYPE svg PUBLIC "-//W3C//DTD SVG 1.1 Tiny//EN" "http://www.w3.org/Graphics/SVG/1.1/DTD/svg11-tiny.dtd">
<svg version="1.1" baseProfile="tiny" id="Layer_2" xmlns="http://www.w3.org/2000/svg" xmlns:xlink="http://www.w3.org/1999/xlink"
	 x="0px" y="0px" viewBox="0 0 60 60" xml:space="preserve">
<g>
	<path fill="#066C9A" d="M32.6,26.8L32.6,26.8L32.6,26.8L32.6,26.8z"/>
	<rect x="9" y="22.8" width="9.2" height="27.8"/>
	<path d="M13.6,19L13.6,19c-3.2,0-5.2-2.2-5.2-4.8c0-2.7,2-4.8,5.2-4.8s5.2,2,5.2,4.8C18.8,16.9,16.8,19,13.6,19z"/>
	<path d="M51.6,50.5h-9.2V35.7c0-3.7-1.3-6.3-4.8-6.3c-2.6,0-4,1.7-4.8,3.5c-0.3,0.6-0.3,1.4-0.3,2.3v15.6h-9.2c0,0,0.1-25.2,0-27.8
		h9.2v3.9c1.3-1.9,3.5-4.6,8.4-4.6c6,0,10.7,4,10.7,12.5V50.5z"/>
</g>
</svg>
