<?xml version="1.0" encoding="utf-8"?>
<!-- Generator: Adobe Illustrator 17.0.0, SVG Export Plug-In . SVG Version: 6.00 Build 0)  -->
<!DOCTYPE svg PUBLIC "-//W3C//DTD SVG 1.1//EN" "http://www.w3.org/Graphics/SVG/1.1/DTD/svg11.dtd">
<svg version="1.1" id="Layer_2" xmlns="http://www.w3.org/2000/svg" xmlns:xlink="http://www.w3.org/1999/xlink" x="0px" y="0px"
	 width="60px" height="60px" viewBox="0 0 60 60" enable-background="new 0 0 60 60" xml:space="preserve">
<g>
	<path fill="#010101" d="M56.9,13.366L31.628,33.778C31.445,33.926,31.223,34,31,34c-0.206,0-0.411-0.063-0.586-0.19L2.809,13.821
		C2.292,14.721,2,15.797,2,17v26c0,3.42,2.505,6,5.826,6H52c3.309,0,6-2.691,6-6V17C58,15.587,57.6,14.349,56.9,13.366z"/>
	<path fill="#010101" d="M55.45,11.967C54.499,11.347,53.324,11,52,11H8c-1.539,0-2.876,0.469-3.895,1.29l26.861,19.451
		L55.45,11.967z"/>
</g>
</svg>
