<?xml version="1.0" encoding="utf-8"?>
<!-- Generator: Adobe Illustrator 17.0.0, SVG Export Plug-In . SVG Version: 6.00 Build 0)  -->
<!DOCTYPE svg PUBLIC "-//W3C//DTD SVG 1.1//EN" "http://www.w3.org/Graphics/SVG/1.1/DTD/svg11.dtd">
<svg version="1.1" xmlns="http://www.w3.org/2000/svg" xmlns:xlink="http://www.w3.org/1999/xlink" x="0px" y="0px" width="60px"
	 height="60px" viewBox="0 0 60 60" enable-background="new 0 0 60 60" xml:space="preserve">
<g id="Layer_1">
	<g>
		<path fill="#010101" d="M30,60c0.316,0,0.614-0.15,0.803-0.404C31.628,58.484,51,32.247,51,21C51,9.42,41.579,0,30,0S9,9.42,9,21
			c0,11.247,19.372,37.484,20.197,38.596C29.386,59.85,29.684,60,30,60z M30,2c10.477,0,19,8.523,19,19
			c0,9.352-15.288,31.147-19,36.3C26.288,52.147,11,30.352,11,21C11,10.523,19.523,2,30,2z"/>
		<path fill="#010101" d="M39,21c0-4.962-4.037-9-9-9s-9,4.038-9,9s4.037,9,9,9S39,25.962,39,21z M23,21c0-3.86,3.141-7,7-7
			c3.859,0,7,3.14,7,7s-3.141,7-7,7C26.141,28,23,24.86,23,21z"/>
	</g>
</g>
<g id="nyt_x5F_exporter_x5F_info" display="none">
</g>
</svg>
