<?xml version="1.0" encoding="utf-8"?>
<!-- Generator: Adobe Illustrator 17.0.0, SVG Export Plug-In . SVG Version: 6.00 Build 0)  -->
<!DOCTYPE svg PUBLIC "-//W3C//DTD SVG 1.1//EN" "http://www.w3.org/Graphics/SVG/1.1/DTD/svg11.dtd">
<svg version="1.1" id="Layer_1" xmlns="http://www.w3.org/2000/svg" xmlns:xlink="http://www.w3.org/1999/xlink" x="0px" y="0px"
	 width="60px" height="60px" viewBox="0 0 60 60" enable-background="new 0 0 60 60" xml:space="preserve">
<g>
	<path fill="#010101" d="M59,58h-5.695C56.139,56.008,58,52.72,58,49V27c0-6.065-4.935-11-11-11H28.357l2.167-6.128
		c0.089-0.25,0.074-0.525-0.04-0.765s-0.319-0.423-0.569-0.512l-2.625-0.927l1.015-2.871l1.435,0.507
		c0.11,0.039,0.223,0.058,0.333,0.058c0.412,0,0.798-0.257,0.942-0.667c0.185-0.521-0.089-1.092-0.609-1.276l-3.074-1.086
		l-4.059-1.435c-0.001,0-0.003,0-0.004-0.001l-2.375-0.839c-0.523-0.185-1.093,0.089-1.275,0.61
		c-0.185,0.521,0.089,1.092,0.609,1.276l1.436,0.507l-1.015,2.871l-2.624-0.927c-0.523-0.185-1.092,0.09-1.275,0.609L9.185,26.399
		c-0.089,0.25-0.074,0.525,0.04,0.765c0.114,0.239,0.319,0.423,0.569,0.512l1.437,0.508l-2.188,6.189
		c-0.185,0.521,0.088,1.092,0.608,1.276l4.75,1.683c0.108,0.039,0.222,0.058,0.334,0.058c0.147,0,0.295-0.033,0.431-0.098
		c0.239-0.114,0.424-0.319,0.512-0.569l2.189-6.193l3.817,1.349c0.11,0.039,0.223,0.058,0.333,0.058
		c0.412,0,0.798-0.257,0.942-0.667l3.629-10.267l6.705,6.705C33.48,27.895,33.734,28,34,28h5c4.71,0,7,2.944,7,9v5
		c0,5.383-2.29,8-7,8H19.555l-3.751-6H23c0.553,0,1-0.448,1-1s-0.447-1-1-1H1c-0.553,0-1,0.448-1,1s0.447,1,1,1h5v14H1
		c-0.553,0-1,0.448-1,1s0.447,1,1,1h44h2h12c0.553,0,1-0.448,1-1S59.553,58,59,58z M14.126,35.112l-2.864-1.015l1.854-5.247
		l2.864,1.013L14.126,35.112z M23.549,3.117l2.728,0.964l0.143,0.05l-1.015,2.871l-1.435-0.507l-1.435-0.507L23.549,3.117z
		 M21.407,29.66l-10.004-3.537l6.897-19.51l2.622,0.927c0.001,0,0.001,0.001,0.002,0.001l2.378,0.84l5.002,1.768L21.407,29.66z
		 M45,58H8V44h5.446l4.706,7.53C18.335,51.822,18.655,52,19,52h20c5.804,0,9-3.551,9-10v-5c0-7.093-3.196-11-9-11h-4.586
		l-7.087-7.087L27.65,18H47c4.963,0,9,4.038,9,9v22c0,4.962-4.037,9-9,9H45z"/>
</g>
</svg>
