<?xml version="1.0" encoding="utf-8"?>
<!-- Generator: Adobe Illustrator 17.0.0, SVG Export Plug-In . SVG Version: 6.00 Build 0)  -->
<!DOCTYPE svg PUBLIC "-//W3C//DTD SVG 1.1//EN" "http://www.w3.org/Graphics/SVG/1.1/DTD/svg11.dtd">
<svg version="1.1" xmlns="http://www.w3.org/2000/svg" xmlns:xlink="http://www.w3.org/1999/xlink" x="0px" y="0px" width="60px"
	 height="60px" viewBox="0 0 60 60" enable-background="new 0 0 60 60" xml:space="preserve">
<g id="Layer_1">
	<g>
		<path d="M55,10c2.757,0,5-2.243,5-5c0-2.757-2.243-5-5-5c-2.757,0-5,2.243-5,5c0,1.017,0.309,1.962,0.833,2.753l-9.799,9.799
			C39.125,15.961,36.673,15,34,15c-4.221,0-7.889,2.393-9.733,5.89L9.904,14.947C9.964,14.64,10,14.324,10,14c0-2.757-2.243-5-5-5
			c-2.757,0-5,2.243-5,5c0,2.757,2.243,5,5,5c1.722,0,3.243-0.875,4.142-2.203l14.352,5.938C23.173,23.767,23,24.864,23,26
			c0,2.673,0.961,5.125,2.552,7.034L7.753,50.833C6.962,50.309,6.017,50,5,50c-2.757,0-5,2.243-5,5c0,2.757,2.243,5,5,5
			c2.757,0,5-2.243,5-5c0-1.017-0.309-1.962-0.833-2.753l17.799-17.799C28.875,36.039,31.327,37,34,37v13.101
			c-2.279,0.465-4,2.485-4,4.899c0,2.757,2.243,5,5,5c2.757,0,5-2.243,5-5c0-2.414-1.721-4.434-4-4.899V36.809
			c3.166-0.585,5.854-2.528,7.447-5.203l6.714,3.197C50.065,35.189,50,35.585,50,36c0,2.757,2.243,5,5,5c2.757,0,5-2.243,5-5
			c0-2.757-2.243-5-5-5c-1.627,0-3.061,0.793-3.974,2l-6.717-3.198C44.748,28.615,45,27.338,45,26c0-2.673-0.961-5.125-2.552-7.034
			l9.799-9.799C53.038,9.691,53.983,10,55,10z M5,17c-1.654,0-3-1.346-3-3s1.346-3,3-3s3,1.346,3,3S6.654,17,5,17z M38,55
			c0,1.654-1.346,3-3,3s-3-1.346-3-3s1.346-3,3-3S38,53.346,38,55z M55,33c1.654,0,3,1.346,3,3s-1.346,3-3,3s-3-1.346-3-3
			S53.346,33,55,33z M55,2c1.654,0,3,1.346,3,3s-1.346,3-3,3s-3-1.346-3-3S53.346,2,55,2z M5,58c-1.654,0-3-1.346-3-3s1.346-3,3-3
			s3,1.346,3,3S6.654,58,5,58z M34,35c-4.963,0-9-4.038-9-9s4.037-9,9-9s9,4.038,9,9S38.963,35,34,35z"/>
	</g>
</g>
<g id="nyt_x5F_exporter_x5F_info" display="none">
</g>
</svg>
