<?xml version="1.0" encoding="utf-8"?>
<!-- Generator: Adobe Illustrator 18.0.0, SVG Export Plug-In . SVG Version: 6.00 Build 0)  -->
<!DOCTYPE svg PUBLIC "-//W3C//DTD SVG 1.1 Tiny//EN" "http://www.w3.org/Graphics/SVG/1.1/DTD/svg11-tiny.dtd">
<svg version="1.1" baseProfile="tiny" id="Layer_1" xmlns="http://www.w3.org/2000/svg" xmlns:xlink="http://www.w3.org/1999/xlink"
	 x="0px" y="0px" viewBox="0 0 200 86" xml:space="preserve">
<g>
	<path fill="#FFFFFF" d="M55.5,8.6c0,0-0.7-1.7-1.1-2.4c-0.9,0.3-2.5,0.9-2.5,0.9c-3.7,1.3-7.1,2.8-10.2,4.4
		c-2.4-3.2-5.2-6.3-8.3-9.5c-0.6-0.6-1.4-1.3-2.3-2l0,0l0,0c-0.9,0.7-1.6,1.4-2.3,2c-3.2,3.2-5.9,6.3-8.4,9.5
		c-3.2-1.6-6.6-3.1-10.2-4.4c0,0-1.6-0.6-2.6-0.9C7.2,7,6.5,8.6,6.5,8.6C1.6,21.2,0,32.6,0,42c0,17,5.2,27.6,5.3,27.8
		C9.9,80,20,86,30.7,86c0.1,0,0.5,0,0.6,0c10.7,0,20.8-6,25.4-16.2C56.8,69.6,62,59,62,42C62,32.6,60.4,21.2,55.5,8.6z M50.8,36.3
		c-3.5-4.7-8.8-10.5-16.1-16.1c1.8-1.2,3.7-2.3,5.8-3.4C45.3,23.7,48.6,30.4,50.8,36.3z M33,55.1v-7c3.3-0.1,6.3-0.6,8.8-1.3
		c0.6,2.9,1,5.6,1.1,8.3H33z M42.9,59.2c-0.1,2.9-0.5,5.7-1.1,8.2c-2.6-0.6-5.5-1.1-8.7-1.3v-6.9H42.9z M33,44V26.1
		c3.7,5.7,6.3,11.3,7.8,16.7C38.6,43.4,35.9,43.9,33,44z M40.4,30.6c3.5,3.4,6.1,6.7,8,9.4c-0.8,0.4-2,1-3.4,1.5
		c-0.1,0-0.2,0.1-0.3,0.1C43.7,38,42.3,34.3,40.4,30.6z M50.7,43.5c3.6,5.3,4.3,11.7,4.4,11.7h-8c-0.1-3-0.5-6.2-1.2-9.5
		C47.9,44.8,49.6,44.1,50.7,43.5z M31,5.6L31,5.6L31,5.6L31,5.6L31,5.6L31,5.6L31,5.6c2.6,2.6,4.9,5.3,6.9,7.9
		c-2.4,1.3-4.7,2.8-6.8,4.2L31,17.7l-0.1-0.1c-2.1-1.4-4.4-2.8-6.8-4.2C26.1,10.8,28.4,8.2,31,5.6z M21.6,16.8
		c2,1.1,3.9,2.3,5.8,3.4C20,25.8,14.7,31.6,11.2,36.3C13.4,30.4,16.7,23.7,21.6,16.8z M13.6,40c2-2.8,4.6-6,8-9.4
		c-1.9,3.7-3.4,7.4-4.4,11c-0.1,0-0.2-0.1-0.3-0.1C15.5,41,14.4,40.4,13.6,40z M16.2,45.6c-0.7,3.3-1.1,6.5-1.2,9.5h-8
		c0,0,0.4-6,4.4-11.7C12.4,44.1,14.1,44.8,16.2,45.6z M4.2,45.5c-0.1-1.1-0.1-2.3-0.1-3.5c0-8.6,1.4-19,5.7-30.6
		c2.9,1.1,5.5,2.3,8.1,3.5C9.7,26.5,6,37.5,4.2,45.5z M10.9,71c-2.3-3.4-3.7-7.5-4-11.8h8c0.1,3.4,0.6,6.5,1.3,9.4
		C13.8,69.5,12,70.4,10.9,71z M20.2,79.3c-0.5-0.3-1-0.5-1.5-0.8c-1.9-1.1-3.7-2.5-5.2-4.1c1-0.5,2.3-1.1,4-1.7
		c0.7,1.9,1.4,3.6,2.3,5.1c0.4,0.7,0.8,1.4,1.3,2C20.8,79.5,20.5,79.4,20.2,79.3z M28.9,81.6c-1.8-0.9-3.8-2.9-5.6-6
		c-0.7-1.3-1.4-2.7-1.9-4.3c2.2-0.6,4.7-1,7.5-1.1V81.6z M28.9,66.2c-3.2,0.1-6.2,0.6-8.7,1.3c-0.6-2.5-1-5.3-1.1-8.2h9.9V66.2z
		 M28.9,55.1H19c0.1-2.7,0.5-5.4,1.1-8.3c2.6,0.7,5.5,1.2,8.8,1.3V55.1z M28.9,44c-2.9-0.1-5.5-0.6-7.8-1.2c1.6-5.4,4.1-11,7.8-16.7
		V44z M38.6,75.6c-1.7,3.1-3.8,5.1-5.6,6V70.3c2.8,0.1,5.3,0.5,7.5,1.1C40,73,39.3,74.4,38.6,75.6z M43.3,78.4
		c-0.5,0.3-1,0.6-1.5,0.8c-0.3,0.1-0.5,0.3-0.8,0.4c0.4-0.6,0.9-1.3,1.3-2c0.9-1.5,1.6-3.3,2.3-5.1c1.7,0.6,3,1.2,4,1.7
		C46.9,75.9,45.2,77.3,43.3,78.4z M51.1,71c-1.1-0.6-3-1.5-5.4-2.4c0.7-2.9,1.2-6,1.3-9.4h8C54.8,63.6,53.4,67.6,51.1,71z
		 M44.1,14.9c2.5-1.2,5.2-2.4,8.1-3.5C56.5,23,57.9,33.3,57.9,42c0,1.2-0.1,2.3-0.1,3.5C56,37.5,52.2,26.5,44.1,14.9z"/>
	<g>
		<path fill="#FFFFFF" d="M53.1,79.7c0-1,0.8-1.8,1.8-1.8c1,0,1.8,0.8,1.8,1.8c0,1-0.8,1.8-1.8,1.8C53.9,81.5,53.1,80.8,53.1,79.7z
			 M56.3,79.8c0-0.9-0.6-1.5-1.5-1.5c-0.8,0-1.4,0.6-1.4,1.5c0,0.9,0.6,1.4,1.4,1.4C55.7,81.2,56.3,80.6,56.3,79.8z M55.7,80.7h-0.5
			L55,80.2c0,0,0,0,0,0h-0.2v0.5h-0.5v-1.9h0.7c0.5,0,0.8,0.3,0.8,0.7c0,0.2-0.1,0.5-0.3,0.6L55.7,80.7z M54.9,79.9
			c0.2,0,0.3-0.1,0.3-0.3c0-0.2-0.1-0.3-0.3-0.3h-0.2v0.7H54.9z"/>
	</g>
	<g>
		<path fill="#FFFFFF" d="M76.5,30.7c-0.7-0.7-1.8-2-1.8-2s0.2,1.6,0.2,2.7v6.2h-2.8V22.7h0.3l7.5,7c0.7,0.7,1.7,2,1.7,2
			S81.4,30,81.4,29v-6.2h2.8v14.9h-0.3L76.5,30.7z"/>
		<path fill="#FFFFFF" d="M87.6,22.8h9.8v2.7h-6.7v4.7h5.9v2.6h-5.9v2.1h7v2.7H87.6V22.8z"/>
		<path fill="#FFFFFF" d="M100.9,22.8h5.7c2.8,0,4.3,1.7,4.3,3.8c0,1.4-0.8,2.3-2.1,2.7c2,0.5,3,1.8,3,3.7c0,2.6-1.9,4.6-5,4.6h-6
			V22.8z M106.3,28.2c1,0,1.6-0.5,1.6-1.4c0-0.8-0.5-1.4-1.5-1.4h-2.5v2.8H106.3z M106.7,34.9c1.2,0,2-0.8,2-2c0-1.2-0.8-2-2.2-2
			h-2.6v4.1H106.7z"/>
		<path fill="#FFFFFF" d="M125.4,37.6h-3.5l-2.4-3.7c-0.3,0-0.6,0.1-0.9,0.1h-1v3.7h-3V22.8h4.1c4.1,0,6.6,2,6.6,5.6
			c0,2.3-1,3.8-2.8,4.6L125.4,37.6z M118.4,31.2c2.5,0,3.6-0.8,3.6-2.9c0-2.1-1.1-2.9-3.6-2.9h-1v5.8H118.4z"/>
		<path fill="#FFFFFF" d="M133.4,22.7h0.3l6.8,14.9h-3.2l-0.7-1.7h-6l-0.7,1.7h-2.9L133.4,22.7z M135.5,33.4l-1.1-2.6
			c-0.4-1-0.9-2.7-0.9-2.7s-0.4,1.6-0.9,2.7l-1.1,2.6H135.5z"/>
		<path fill="#FFFFFF" d="M141.4,34.7l2.5-1.4c0.7,1.1,1.5,1.8,3,1.8c1.3,0,2.1-0.6,2.1-1.5c0-1-0.8-1.4-2.2-2l-0.8-0.3
			c-2.2-0.9-3.7-2.1-3.7-4.6c0-2.3,1.7-4,4.5-4c1.9,0,3.3,0.7,4.3,2.4l-2.4,1.5c-0.5-0.9-1.1-1.3-2-1.3c-0.9,0-1.5,0.6-1.5,1.3
			c0,0.9,0.6,1.3,1.9,1.8l0.8,0.3c2.6,1.1,4,2.2,4,4.8c0,2.7-2.2,4.2-5,4.2C144.1,37.8,142.3,36.4,141.4,34.7z"/>
		<path fill="#FFFFFF" d="M158.8,28.1l3.9-5.3h3.5l-5,6.7l5.6,8.1h-3.7l-3.9-5.8l-1.4,1.7v4.1h-3V22.8h3v5.1c0,0.7-0.1,1.7-0.2,2.5
			C157.9,29.6,158.3,28.7,158.8,28.1z"/>
		<path fill="#FFFFFF" d="M174.5,22.7h0.3l6.8,14.9h-3.2l-0.7-1.7h-6l-0.7,1.7H168L174.5,22.7z M176.5,33.4l-1.1-2.6
			c-0.4-1-0.9-2.7-0.9-2.7s-0.4,1.6-0.9,2.7l-1.1,2.6H176.5z"/>
		<path fill="#FFFFFF" d="M72.2,44.4h3v14.8h-3V44.4z"/>
		<path fill="#FFFFFF" d="M83.1,52.3c-0.7-0.7-1.8-2-1.8-2s0.2,1.6,0.2,2.7v6.2h-2.8V44.3H79l7.5,7c0.7,0.7,1.7,2,1.7,2
			S88,51.6,88,50.6v-6.2h2.8v14.9h-0.3L83.1,52.3z"/>
		<path fill="#FFFFFF" d="M98.6,52.3c-0.7-0.7-1.8-2-1.8-2s0.2,1.6,0.2,2.7v6.2h-2.8V44.3h0.3l7.5,7c0.7,0.7,1.7,2,1.7,2
			s-0.2-1.7-0.2-2.7v-6.2h2.8v14.9h-0.3L98.6,52.3z"/>
		<path fill="#FFFFFF" d="M109.3,51.8c0-4.4,3.4-7.6,7.7-7.6c4.3,0,7.6,3.2,7.6,7.6c0,4.4-3.4,7.6-7.6,7.6
			C112.7,59.4,109.3,56.2,109.3,51.8z M121.5,51.8c0-2.8-1.8-4.9-4.5-4.9c-2.7,0-4.5,2.1-4.5,4.9c0,2.8,1.8,4.9,4.5,4.9
			C119.6,56.7,121.5,54.6,121.5,51.8z"/>
		<path fill="#FFFFFF" d="M125.1,44.4h3.3l2.5,5.7c0.6,1.3,1.2,3.3,1.2,3.3s0.6-2.1,1.1-3.3l2.5-5.7h3l-6.5,14.9h-0.3L125.1,44.4z"
			/>
		<path fill="#FFFFFF" d="M143.1,44.3h0.3l6.8,14.9h-3.2l-0.7-1.7h-6l-0.7,1.7h-2.9L143.1,44.3z M145.1,55l-1.1-2.6
			c-0.4-1-0.9-2.7-0.9-2.7s-0.4,1.6-0.9,2.7l-1.1,2.6H145.1z"/>
		<path fill="#FFFFFF" d="M153.8,47.1h-4.2v-2.7H161v2.7h-4.2v12.1h-3V47.1z"/>
		<path fill="#FFFFFF" d="M163.6,44.4h3v14.8h-3V44.4z"/>
		<path fill="#FFFFFF" d="M169.6,51.8c0-4.4,3.4-7.6,7.6-7.6c4.3,0,7.6,3.2,7.6,7.6c0,4.4-3.4,7.6-7.6,7.6
			C173,59.4,169.6,56.2,169.6,51.8z M181.8,51.8c0-2.8-1.8-4.9-4.5-4.9c-2.7,0-4.5,2.1-4.5,4.9c0,2.8,1.8,4.9,4.5,4.9
			C180,56.7,181.8,54.6,181.8,51.8z"/>
		<path fill="#FFFFFF" d="M192.2,52.3c-0.7-0.7-1.8-2-1.8-2s0.2,1.6,0.2,2.7v6.2h-2.8V44.3h0.3l7.5,7c0.7,0.7,1.7,2,1.7,2
			s-0.2-1.7-0.2-2.7v-6.2h2.8v14.9h-0.3L192.2,52.3z"/>
		<path fill="#FFFFFF" d="M71.6,73.4c0-4.4,3.4-7.6,7.6-7.6c2.7,0,4.6,1,5.9,3l-2.3,1.7c-0.7-1.1-1.9-1.9-3.6-1.9
			c-2.7,0-4.5,2.1-4.5,4.8c0,2.8,1.8,4.9,4.5,4.9c1.9,0,3-0.9,3.8-2.2l2.4,1.6c-1.3,2-3.3,3.3-6.2,3.3C75,81,71.6,77.8,71.6,73.4z"
			/>
		<path fill="#FFFFFF" d="M92.7,65.9H93l6.8,14.9h-3.2l-0.7-1.7h-6l-0.7,1.7h-2.9L92.7,65.9z M94.8,76.6L93.7,74
			c-0.4-1-0.9-2.7-0.9-2.7S92.4,73,91.9,74l-1.1,2.6H94.8z"/>
		<path fill="#FFFFFF" d="M103.2,65.9h0.3l5.2,7c0.5,0.7,1.1,1.6,1.1,1.6s0.6-1,1-1.6l5.1-7h0.3l1.2,14.9h-3l-0.4-5.2
			c-0.1-1-0.1-2.6-0.1-2.6s-0.8,1.4-1.4,2.2l-2.7,3.6h-0.3l-2.7-3.6c-0.6-0.8-1.5-2.2-1.5-2.2s0,1.7-0.1,2.6l-0.4,5.2H102
			L103.2,65.9z"/>
		<path fill="#FFFFFF" d="M120.7,66h4.1c4.1,0,6.6,2.2,6.6,5.7c0,3.6-2.5,5.7-6.6,5.7h-1v3.4h-3V66z M124.7,74.8c2.5,0,3.6-1,3.6-3
			c0-2-1.1-3-3.6-3h-1v6.1H124.7z"/>
		<path fill="#FFFFFF" d="M134,75.5V66h3v9.3c0,2.2,0.9,3,3,3c2,0,2.9-0.8,2.9-3V66h3v9.4c0,3.7-2.6,5.5-6,5.5
			C136.6,81,134,79.2,134,75.5z"/>
		<path fill="#FFFFFF" d="M147.9,77.9l2.5-1.4c0.7,1.1,1.5,1.8,3,1.8c1.3,0,2.1-0.6,2.1-1.5c0-1-0.8-1.4-2.2-2l-0.8-0.3
			c-2.2-0.9-3.7-2.1-3.7-4.6c0-2.3,1.7-4,4.5-4c1.9,0,3.3,0.7,4.3,2.4l-2.4,1.5c-0.5-0.9-1.1-1.3-2-1.3c-0.9,0-1.5,0.6-1.5,1.3
			c0,0.9,0.6,1.3,1.9,1.8l0.8,0.3c2.6,1.1,4,2.2,4,4.8c0,2.7-2.2,4.2-5,4.2C150.7,81,148.8,79.7,147.9,77.9z"/>
	</g>
</g>
</svg>
