<?xml version="1.0" encoding="utf-8"?>
<!-- Generator: Adobe Illustrator 18.0.0, SVG Export Plug-In . SVG Version: 6.00 Build 0)  -->
<!DOCTYPE svg PUBLIC "-//W3C//DTD SVG 1.1 Tiny//EN" "http://www.w3.org/Graphics/SVG/1.1/DTD/svg11-tiny.dtd">
<svg version="1.1" baseProfile="tiny" id="Layer_1" xmlns="http://www.w3.org/2000/svg" xmlns:xlink="http://www.w3.org/1999/xlink"
	 x="0px" y="0px" viewBox="0 0 110 152.7" xml:space="preserve">
<g>
	<path fill="#626265" d="M98.5,15.3c0,0-1.2-2.9-1.9-4.3c-1.6,0.6-4.5,1.6-4.5,1.6c-6.5,2.4-12.6,5-18.2,7.8
		C69.5,14.9,64.6,9.2,59,3.6c-1.1-1.1-2.5-2.3-4-3.6l0,0l0,0c-1.5,1.3-2.9,2.5-4,3.6c-5.6,5.6-10.5,11.2-14.8,16.8
		C30.5,17.7,24.5,15,18,12.6c0,0-2.9-1.1-4.5-1.6c-0.7,1.4-1.9,4.3-1.9,4.3C2.8,37.6,0,57.8,0,74.5c0,30.2,9.2,49.1,9.4,49.4
		c8.2,18.1,26.2,28.8,45.1,28.7c0.1,0,0.9,0,1,0c18.9,0,36.9-10.7,45.1-28.7c0.2-0.3,9.4-19.2,9.4-49.4
		C110,57.8,107.2,37.6,98.5,15.3z M90.1,64.4C83.9,56,74.6,45.8,61.5,35.9c3.2-2.1,6.6-4.1,10.2-6.1C80.4,42,86.3,53.9,90.1,64.4z
		 M58.7,97.8V85.4c5.8-0.3,11.1-1.1,15.7-2.3c1.1,5.1,1.7,10,1.9,14.7H58.7z M76.2,105.1c-0.2,5.2-0.9,10.1-2,14.6
		c-4.5-1.1-9.8-2-15.5-2.3v-12.3H76.2z M58.7,78.1V46.4C65.3,56.5,69.8,66.5,72.5,76C68.5,77.1,63.8,77.9,58.7,78.1z M71.7,54.3
		c6.1,6.1,10.8,11.8,14.3,16.8c-1.5,0.8-3.5,1.7-6,2.6c-0.1,0.1-0.3,0.1-0.4,0.2C77.6,67.5,75,60.9,71.7,54.3z M90,77.2
		c6.4,9.5,7.7,20.7,7.7,20.7H83.5c-0.2-5.4-0.9-11.1-2.2-16.9C85,79.6,88,78.2,90,77.2z M55,9.9L55,9.9L55,9.9L55,9.9L55,9.9L55,9.9
		L55,9.9c4.6,4.7,8.6,9.3,12.3,14c-4.3,2.4-8.4,4.9-12.1,7.4L55,31.4l-0.1-0.1c-3.8-2.6-7.8-5-12.1-7.4C46.4,19.2,50.4,14.6,55,9.9z
		 M38.3,29.8c3.6,2,7,4,10.2,6.1C35.4,45.8,26.1,56,19.9,64.4C23.7,53.9,29.6,42,38.3,29.8z M24.1,71c3.5-4.9,8.1-10.7,14.3-16.8
		c-3.4,6.6-6,13.2-7.8,19.6c-0.2-0.1-0.3-0.1-0.4-0.2C27.6,72.7,25.6,71.8,24.1,71z M28.7,80.9c-1.3,5.8-2,11.5-2.2,16.9H12.3
		c0,0,0.8-10.6,7.7-20.7C22,78.2,25,79.6,28.7,80.9z M7.5,80.7c-0.1-2-0.2-4-0.2-6.2c0-15.3,2.5-33.7,10.2-54.3
		c5.1,1.9,9.8,4,14.3,6.2C17.3,47,10.6,66.6,7.5,80.7z M19.3,126.1c-4-6.1-6.5-13.2-7-21h14.3c0.2,6,1,11.6,2.3,16.7
		C24.6,123.4,21.3,125,19.3,126.1z M35.9,140.7c-0.9-0.5-1.8-1-2.7-1.5c-3.4-2-6.5-4.5-9.3-7.4c1.7-0.9,4.1-2,7.1-3.1
		c1.2,3.3,2.6,6.3,4.1,9.1c0.7,1.2,1.5,2.4,2.3,3.5C36.9,141.2,36.4,141,35.9,140.7z M51.4,144.9c-3.1-1.6-6.8-5.1-9.9-10.7
		c-1.3-2.2-2.4-4.8-3.4-7.6c3.9-1,8.4-1.7,13.4-1.9V144.9z M51.4,117.5c-5.8,0.2-11,1.1-15.5,2.3c-1.1-4.4-1.8-9.3-2-14.6h17.5
		V117.5z M51.4,97.8H33.8c0.2-4.7,0.8-9.6,1.9-14.7c4.6,1.2,9.8,2.1,15.7,2.3V97.8z M51.4,78.1c-5.2-0.2-9.8-1.1-13.9-2.1
		c2.8-9.5,7.2-19.5,13.9-29.7V78.1z M68.6,134.3c-3.1,5.6-6.8,9.1-9.9,10.7v-20.2c4.9,0.2,9.4,0.9,13.4,1.9
		C71,129.5,69.8,132.1,68.6,134.3z M76.8,139.3c-0.9,0.5-1.8,1-2.7,1.5c-0.5,0.2-0.9,0.5-1.4,0.7c0.8-1.1,1.5-2.3,2.3-3.5
		c1.5-2.7,2.9-5.8,4.1-9.1c3,1.1,5.3,2.2,7,3.1C83.3,134.8,80.2,137.2,76.8,139.3z M90.7,126.1c-2-1.1-5.3-2.7-9.6-4.2
		c1.3-5.1,2.1-10.7,2.3-16.7h14.3C97.2,112.9,94.7,120,90.7,126.1z M78.2,26.4c4.5-2.2,9.2-4.3,14.3-6.2
		c7.7,20.5,10.2,38.9,10.2,54.3c0,2.1-0.1,4.2-0.2,6.2C99.4,66.6,92.7,47,78.2,26.4z"/>
	<g>
		<path fill="#626265" d="M94.2,141.2c0-1.7,1.3-3,3-3c1.7,0,3,1.2,3,3c0,1.7-1.4,2.9-3,2.9C95.6,144.1,94.2,142.9,94.2,141.2z
			 M99.6,141.2c0-1.5-1-2.4-2.4-2.4c-1.4,0-2.4,0.9-2.4,2.4c0,1.4,1,2.4,2.4,2.4C98.6,143.5,99.6,142.6,99.6,141.2z M98.6,142.7
			h-0.8l-0.4-0.8c0,0,0,0-0.1,0h-0.4v0.8h-0.7v-3.1h1.1c0.9,0,1.3,0.6,1.3,1.2c0,0.4-0.2,0.8-0.6,1L98.6,142.7z M97.3,141.3
			c0.3,0,0.6-0.2,0.6-0.6c0-0.3-0.2-0.5-0.6-0.5h-0.4v1.1H97.3z"/>
	</g>
</g>
</svg>
