<?xml version="1.0" encoding="utf-8"?>
<!-- Generator: Adobe Illustrator 19.0.0, SVG Export Plug-In . SVG Version: 6.00 Build 0)  -->
<!DOCTYPE svg PUBLIC "-//W3C//DTD SVG 1.1 Tiny//EN" "http://www.w3.org/Graphics/SVG/1.1/DTD/svg11-tiny.dtd">
<svg version="1.1" baseProfile="tiny" id="Layer_1" xmlns="http://www.w3.org/2000/svg" xmlns:xlink="http://www.w3.org/1999/xlink"
	 x="0px" y="0px" viewBox="0 0 60 60" xml:space="preserve">
<path id="XMLID_6_" d="M14.8,41.7c-0.4,0-0.8,0.2-1.1,0.5c-0.2,0.3-0.3,0.8-0.2,1.2l5.2,15.7c0.2,0.5,0.7,0.9,1.2,0.9h13.1
	c0.6,0,1.1-0.4,1.2-0.9l5.2-15.7c0.1-0.4,0.1-0.8-0.2-1.2c-0.2-0.3-0.6-0.5-1.1-0.5H29c0.7-2.5,2.4-7.5,5.7-13.4
	c1.9,3.3,4.3,5,7.1,5c2.9,0,6.2-1.9,9.2-5.5c4.5-5.3,6.4-19.4,2.3-27.1c-0.2-0.4-0.5-0.6-0.9-0.7c-0.4-0.1-0.8,0-1.1,0.3
	C48.1,3,44.6,4.1,41.1,5.1c-3.9,1.2-7.6,2.3-10.3,5.5c-2.9,3.4-4.1,6.7-3.4,9.6c0.6,2.4,2.4,4.5,5.4,6.2c-3,5.2-6.5,15.3-6.5,15.3
	L14.8,41.7z M16.7,44.3h19.9l-4.4,13.1H21L16.7,44.3z M36.3,25.7c2.6-4.2,6.1-8.7,10.6-12.7c0.5-0.5,0.6-1.3,0.1-1.9
	c-0.5-0.5-1.3-0.6-1.8-0.1c-4.7,4.2-8.3,8.8-11,13.1c-2.4-1.3-3.9-2.8-4.3-4.5c-0.6-2.6,1.2-5.4,2.8-7.3c2.2-2.6,5.4-3.6,9.1-4.7
	c3.1-0.9,6.6-2,9.8-4.3c2.7,7,1,18.5-2.6,22.8c-2.5,2.9-5.1,4.6-7.2,4.6C39.7,30.7,37.8,29,36.3,25.7z"/>
</svg>
