<?xml version="1.0" encoding="utf-8"?>
<!-- Generator: Adobe Illustrator 17.0.0, SVG Export Plug-In . SVG Version: 6.00 Build 0)  -->
<!DOCTYPE svg PUBLIC "-//W3C//DTD SVG 1.1//EN" "http://www.w3.org/Graphics/SVG/1.1/DTD/svg11.dtd">
<svg version="1.1" id="Layer_1" xmlns="http://www.w3.org/2000/svg" xmlns:xlink="http://www.w3.org/1999/xlink" x="0px" y="0px"
	 width="60px" height="60px" viewBox="0 0 60 60" enable-background="new 0 0 60 60" xml:space="preserve">
<g>
	<path fill="#010101" d="M38,39c0,6.065,4.935,11,11,11s11-4.935,11-11s-4.935-11-11-11c-1.255,0-2.456,0.221-3.58,0.61
		l-2.176-11.422l5.612,0.802c0.83,0.121,1.41,0.896,1.293,1.724c-0.112,0.77-1.12,1.421-2.007,1.297
		c-0.546-0.078-1.054,0.301-1.132,0.847c-0.079,0.547,0.3,1.054,0.847,1.133c1.991,0.285,3.997-1.106,4.271-2.992
		c0.271-1.92-1.067-3.708-2.987-3.987l-7-1c-0.326-0.046-0.643,0.066-0.865,0.299s-0.319,0.561-0.259,0.877L42.125,22H21.321
		l-2.759-6.942l3.163,0.904C21.817,15.988,21.909,16,22.001,16c0.435,0,0.835-0.287,0.961-0.726
		c0.151-0.531-0.156-1.084-0.688-1.236l-7-2c-0.526-0.15-1.084,0.155-1.236,0.687c-0.151,0.531,0.156,1.084,0.688,1.236l1.408,0.402
		l3.397,8.547l-3.739,6.203C14.341,28.408,12.719,28,11,28C4.935,28,0,32.935,0,39s4.935,11,11,11
		c5.728,0,10.443-4.403,10.949-10.001l4.988-0.001c0.271,0.019,0.551-0.078,0.763-0.284l14.999-14.701l0.847,4.447
		C40.238,31.359,38,34.92,38,39z M11,48c-4.963,0-9-4.038-9-9s4.037-9,9-9c1.342,0,2.611,0.303,3.756,0.832l-4.612,7.652
		c-0.187,0.309-0.191,0.694-0.015,1.008C10.307,39.806,10.64,40,11,40l8.941-0.001C19.442,44.492,15.625,48,11,48z M19.941,37.999
		L12.771,38l3.697-6.133C18.36,33.322,19.663,35.505,19.941,37.999z M21.949,37.999c-0.292-3.218-1.979-6.032-4.446-7.85
		l2.956-4.903l5.067,12.752L21.949,37.999z M27.374,37.233L22.115,24h18.76L27.374,37.233z M49,30c4.963,0,9,4.038,9,9s-4.037,9-9,9
		s-9-4.038-9-9c0-3.09,1.566-5.82,3.945-7.441l1.072,5.628c0.051,0.264,0.204,0.496,0.428,0.645l3,2
		C48.616,39.946,48.809,40,48.999,40c0.323,0,0.641-0.156,0.833-0.445c0.307-0.459,0.183-1.081-0.277-1.387l-2.65-1.767
		l-1.105-5.802C46.795,30.218,47.871,30,49,30z"/>
</g>
</svg>
