<?xml version="1.0" encoding="utf-8"?>
<!-- Generator: Adobe Illustrator 18.0.0, SVG Export Plug-In . SVG Version: 6.00 Build 0)  -->
<!DOCTYPE svg PUBLIC "-//W3C//DTD SVG 1.1 Tiny//EN" "http://www.w3.org/Graphics/SVG/1.1/DTD/svg11-tiny.dtd">
<svg version="1.1" baseProfile="tiny" id="Layer_1" xmlns="http://www.w3.org/2000/svg" xmlns:xlink="http://www.w3.org/1999/xlink"
	 x="0px" y="0px" viewBox="0 0 60 60" xml:space="preserve">
<g>
	<path fill="#231F20" d="M36.7,35.3c-0.1-0.1-0.1-0.1-0.2-0.2C39.9,31.4,42,26.5,42,21C42,9.4,32.6,0,21,0S0,9.4,0,21s9.4,21,21,21
		c5.5,0,10.4-2.1,14.1-5.5c0,0.1,0.1,0.2,0.2,0.2l23,23c0.2,0.2,0.5,0.3,0.7,0.3s0.5-0.1,0.7-0.3c0.4-0.4,0.4-1,0-1.4L36.7,35.3z
		 M21,40C10.5,40,2,31.5,2,21S10.5,2,21,2s19,8.5,19,19S31.5,40,21,40z"/>
</g>
</svg>
