<?xml version="1.0" encoding="utf-8"?>
<!-- Generator: Adobe Illustrator 17.0.0, SVG Export Plug-In . SVG Version: 6.00 Build 0)  -->
<!DOCTYPE svg PUBLIC "-//W3C//DTD SVG 1.1//EN" "http://www.w3.org/Graphics/SVG/1.1/DTD/svg11.dtd">
<svg version="1.1" id="Layer_1" xmlns="http://www.w3.org/2000/svg" xmlns:xlink="http://www.w3.org/1999/xlink" x="0px" y="0px"
	 width="60px" height="60px" viewBox="0 0 60 60" enable-background="new 0 0 60 60" xml:space="preserve">
<g>
	<path fill="#010101" d="M1,60h10c0.552,0,1-0.448,1-1v-1h37c0.552,0,1-0.448,1-1c0-4.766-9.759-6.936-19.571-6.997
		c-0.028-0.029-0.047-0.049-0.077-0.08C28.821,48.303,24.753,44,17,44h-5v-1c0-0.552-0.448-1-1-1H1c-0.552,0-1,0.448-1,1v16
		C0,59.552,0.448,60,1,60z M17,46c5.374,0,8.684,2.254,10.595,4H17c-0.552,0-1,0.448-1,1s0.448,1,1,1h13
		c9.583,0,16.018,1.928,17.613,4H12V46H17z M2,44h8v14H2V44z"/>
	<circle fill="#010101" cx="5" cy="55" r="1"/>
	<path fill="#010101" d="M59,32l-2,0c0,0,0,0,0,0l-2.025,0c-0.478-12.063-9.538-21.956-21.232-23.719C34.515,7.4,35,6.261,35,5
		c0-2.757-2.243-5-5-5s-5,2.243-5,5c0,1.261,0.485,2.4,1.257,3.281C14.563,10.044,5.502,19.938,5.025,32.001l-4.025,0
		c-0.552,0-1,0.448-1,1s0.448,1,1,1h1.564l5.269,5.679C8.021,39.884,8.287,40,8.565,40H51c0.265,0,0.52-0.105,0.707-0.293L57.414,34
		H59c0.552,0,1-0.448,1-1S59.552,32,59,32z M27,5c0-1.654,1.346-3,3-3s3,1.346,3,3s-1.346,3-3,3S27,6.654,27,5z M30,10
		c12.347,0,22.449,9.78,22.975,22L30,32l-22.975,0C7.551,19.781,17.653,10,30,10z M50.586,38H9.002l-3.71-3.999l24.3,0l24.994,0
		L50.586,38z"/>
	<path fill="#010101" d="M30,16c0.552,0,1-0.448,1-1s-0.448-1-1-1c-6.355,0-12.262,3.157-15.801,8.444
		c-0.307,0.459-0.184,1.08,0.275,1.387C14.645,23.945,14.838,24,15.029,24c0.323,0,0.639-0.156,0.832-0.444
		C19.028,18.825,24.313,16,30,16z"/>
</g>
</svg>
