<?xml version="1.0" encoding="utf-8"?>
<!-- Generator: Adobe Illustrator 17.0.0, SVG Export Plug-In . SVG Version: 6.00 Build 0)  -->
<!DOCTYPE svg PUBLIC "-//W3C//DTD SVG 1.1//EN" "http://www.w3.org/Graphics/SVG/1.1/DTD/svg11.dtd">
<svg version="1.1" id="Layer_1" xmlns="http://www.w3.org/2000/svg" xmlns:xlink="http://www.w3.org/1999/xlink" x="0px" y="0px"
	 width="60px" height="60px" viewBox="0 0 60 60" enable-background="new 0 0 60 60" xml:space="preserve">
<g>
	<path fill="#231F20" d="M7.737,36.88c0.175,0.261,0.463,0.425,0.778,0.441c0.018,0.001,0.035,0.002,0.052,0.002
		c0.295,0,0.577-0.131,0.768-0.359l8.081-9.678c0.354-0.424,0.297-1.055-0.127-1.409c-0.424-0.354-1.055-0.297-1.409,0.126
		l-6.77,8.107c-0.828-4.78,0.083-9.679,2.647-13.976c3.011-5.046,7.945-8.698,13.537-10.021c7.341-1.736,15.009,0.698,20.016,6.351
		c0.366,0.414,0.998,0.452,1.412,0.085c0.413-0.366,0.452-0.998,0.085-1.412c-5.495-6.206-13.917-8.876-21.973-6.971
		C18.72,9.613,13.327,13.601,10.04,19.109c-2.369,3.971-3.456,8.413-3.196,12.853l-4.476-6.666C2.06,24.838,1.44,24.713,0.98,25.023
		c-0.458,0.308-0.581,0.929-0.272,1.388L7.737,36.88z"/>
	<path fill="#231F20" d="M42.71,36.679c0.423,0.354,1.055,0.297,1.409-0.127l6.576-7.871c0.615,9.505-6.28,18.909-15.996,21.205
		c-6.887,1.631-14.015-0.368-19.065-5.347c-0.393-0.387-1.026-0.383-1.414,0.01c-0.388,0.394-0.383,1.027,0.01,1.415
		c4.273,4.211,9.899,6.48,15.716,6.479c1.73,0,3.479-0.201,5.213-0.611c10.164-2.402,17.514-11.922,17.576-21.87l4.896,7.296
		c0.193,0.288,0.509,0.443,0.832,0.443c0.191,0,0.385-0.055,0.556-0.169c0.458-0.308,0.581-0.929,0.273-1.388l-7.025-10.469
		c-0.176-0.261-0.464-0.425-0.778-0.441c-0.312-0.023-0.618,0.116-0.82,0.357l-8.085,9.678
		C42.229,35.694,42.286,36.325,42.71,36.679z"/>
</g>
</svg>
