<?xml version="1.0" encoding="utf-8"?>
<!-- Generator: Adobe Illustrator 18.0.0, SVG Export Plug-In . SVG Version: 6.00 Build 0)  -->
<!DOCTYPE svg PUBLIC "-//W3C//DTD SVG 1.1 Tiny//EN" "http://www.w3.org/Graphics/SVG/1.1/DTD/svg11-tiny.dtd">
<svg version="1.1" baseProfile="tiny" id="Layer_1" xmlns="http://www.w3.org/2000/svg" xmlns:xlink="http://www.w3.org/1999/xlink"
	 x="0px" y="0px" viewBox="0 0 24 24" xml:space="preserve">
<g>
	<path fill="#231F20" d="M7.9,2.1C7.8,2.1,7.6,2,7.5,2h-7C0.2,2,0,2.2,0,2.5v7c0,0.1,0.1,0.3,0.1,0.4l14,14c0.1,0.1,0.2,0.1,0.4,0.1
		s0.3,0,0.4-0.1l7-7c0.2-0.2,0.2-0.5,0-0.7L7.9,2.1z M14.5,22.8L1,9.3V3h6.3l13.5,13.5L14.5,22.8z"/>
	<path fill="#231F20" d="M23.9,13.1l-13-13C10.8,0.1,10.6,0,10.5,0h-7C3.2,0,3,0.2,3,0.5S3.2,1,3.5,1h6.8l12.5,12.5l-0.6,0.6
		c-0.2,0.2-0.2,0.5,0,0.7c0.1,0.1,0.2,0.1,0.4,0.1c0.1,0,0.3,0,0.4-0.1l1-1C24,13.7,24,13.3,23.9,13.1z"/>
	<path fill="#231F20" d="M5,5C3.9,5,3,5.9,3,7s0.9,2,2,2s2-0.9,2-2S6.1,5,5,5z M5,8C4.4,8,4,7.6,4,7s0.4-1,1-1s1,0.4,1,1S5.6,8,5,8z
		"/>
</g>
</svg>
