<?xml version="1.0" encoding="utf-8"?>
<!-- Generator: Adobe Illustrator 17.0.0, SVG Export Plug-In . SVG Version: 6.00 Build 0)  -->
<!DOCTYPE svg PUBLIC "-//W3C//DTD SVG 1.1//EN" "http://www.w3.org/Graphics/SVG/1.1/DTD/svg11.dtd">
<svg version="1.1" id="Layer_1" xmlns="http://www.w3.org/2000/svg" xmlns:xlink="http://www.w3.org/1999/xlink" x="0px" y="0px"
	 width="60px" height="60px" viewBox="0 0 60 60" enable-background="new 0 0 60 60" xml:space="preserve">
<g>
	<path fill="#010101" d="M3,23H1c-0.553,0-1,0.448-1,1s0.447,1,1,1h2c0.553,0,1-0.448,1-1S3.553,23,3,23z"/>
	<path fill="#010101" d="M9.293,6.293c-0.391,0.391-0.391,1.023,0,1.414l3,3C12.488,10.902,12.744,11,13,11
		c0.256,0,0.512-0.098,0.707-0.293c0.391-0.391,0.391-1.023,0-1.414l-3-3C10.316,5.902,9.684,5.902,9.293,6.293z"/>
	<path fill="#010101" d="M28,2v4c0,0.552,0.447,1,1,1c0.553,0,1-0.448,1-1V2c0-0.552-0.447-1-1-1C28.447,1,28,1.448,28,2z"/>
	<path fill="#010101" d="M46.293,6.293l-3,3c-0.391,0.391-0.391,1.023,0,1.414C43.488,10.902,43.744,11,44,11
		c0.256,0,0.512-0.098,0.707-0.293l3-3c0.391-0.391,0.391-1.023,0-1.414C47.316,5.902,46.684,5.902,46.293,6.293z"/>
	<path fill="#010101" d="M57,23h-2c-0.553,0-1,0.448-1,1s0.447,1,1,1h2c0.553,0,1-0.448,1-1S57.553,23,57,23z"/>
	<path fill="#010101" d="M53,29h-1.052c-0.521-4.937-4.99-5.896-10.007-5.992C41.363,18.245,36.616,15,30,15
		c-5.934,0-12.219,2.797-12.933,8.003C13.35,23.041,6.781,23.505,6.071,29H5c-0.553,0-1,0.448-1,1v28c0,0.552,0.447,1,1,1h48
		c0.553,0,1-0.448,1-1V30C54,29.448,53.553,29,53,29z M18,25c0.553,0,1-0.448,1-1c0-4.382,5.593-7,11-7c4.816,0,10,2.19,10,7
		c0,0.552,0.447,1,1,1c6.001,0,8.496,1.074,8.925,4H8.102C8.657,26.213,11.701,25,18,25z M52,57H6V31h46V57z"/>
	<path fill="#010101" d="M47,35H33c-0.553,0-1,0.448-1,1v5h-6v-5c0-0.552-0.447-1-1-1H11c-0.553,0-1,0.448-1,1v16
		c0,0.552,0.447,1,1,1h36c0.553,0,1-0.448,1-1V36C48,35.448,47.553,35,47,35z M46,51H12V37h12v5c0,0.552,0.447,1,1,1h8
		c0.553,0,1-0.448,1-1v-5h12V51z"/>
	<path fill="#010101" d="M29,39c0.553,0,1-0.448,1-1v-2c0-0.552-0.447-1-1-1c-0.553,0-1,0.448-1,1v2C28,38.552,28.447,39,29,39z"/>
</g>
</svg>
