<?xml version="1.0" encoding="utf-8"?>
<!-- Generator: Adobe Illustrator 18.0.0, SVG Export Plug-In . SVG Version: 6.00 Build 0)  -->
<!DOCTYPE svg PUBLIC "-//W3C//DTD SVG 1.1 Tiny//EN" "http://www.w3.org/Graphics/SVG/1.1/DTD/svg11-tiny.dtd">
<svg version="1.1" baseProfile="tiny" id="Layer_1" xmlns="http://www.w3.org/2000/svg" xmlns:xlink="http://www.w3.org/1999/xlink"
	 x="0px" y="0px" viewBox="0 0 60 60" xml:space="preserve">
<path d="M51.7,18.8c0,0.5,0,0.9,0,1.5c0,14.8-11.3,32-32,32c-6.4,0-12.3-1.8-17.2-5.1c0.9,0.2,1.8,0.2,2.7,0.2
	c5.3,0,10.1-1.8,13.9-4.8c-4.9-0.2-9.1-3.3-10.4-7.9c0.7,0.2,1.5,0.2,2.2,0.2c1.1,0,2-0.2,2.9-0.4c-5.1-1.1-9-5.7-9-11v-0.2
	c1.5,0.9,3.3,1.3,5.1,1.5c-3.1-2-4.9-5.5-4.9-9.3c0-2,0.5-4,1.5-5.7c5.5,6.8,13.9,11.3,23.2,11.7c-0.2-0.9-0.4-1.6-0.4-2.6
	c0-6.2,5.1-11.3,11.3-11.3C44,7.7,47,9,49,11.2c2.6-0.5,4.9-1.5,7.1-2.7c-0.9,2.6-2.6,4.8-4.9,6.2c2.2-0.2,4.4-0.9,6.4-1.8
	C55.9,15.2,53.9,17.2,51.7,18.8z"/>
</svg>
