<?xml version="1.0" encoding="utf-8"?>
<!-- Generator: Adobe Illustrator 17.0.0, SVG Export Plug-In . SVG Version: 6.00 Build 0)  -->
<!DOCTYPE svg PUBLIC "-//W3C//DTD SVG 1.1//EN" "http://www.w3.org/Graphics/SVG/1.1/DTD/svg11.dtd">
<svg version="1.1" xmlns="http://www.w3.org/2000/svg" xmlns:xlink="http://www.w3.org/1999/xlink" x="0px" y="0px" width="60px"
	 height="60px" viewBox="0 0 60 60" enable-background="new 0 0 60 60" xml:space="preserve">
<g id="Layer_3">
	<g>
		<path fill="#010101" d="M49.242,43.878L37,39.306v-5.627c3.754-2.875,6.25-7.868,6.25-13.548c0-0.133-0.014-0.262-0.017-0.395
			c-0.898,0.099-1.871,0.185-2.88,0.185c-3.005,0-6.315-0.753-8.813-4.132c-2.049,2.343-5.931,4.082-9.464,4.082
			c-1.606,0-4.145-0.816-5.946-1.597c-0.059,0.611-0.098,1.229-0.098,1.858c0,6.036,2.815,11.3,6.967,14.066v5.108l-12.317,4.569
			C7.284,45.088,5,48.355,5,52v5h50v-5C55,48.373,52.681,45.107,49.242,43.878z"/>
		<path fill="#010101" d="M30.685,13.541l0.847-1.623l0.908,1.589c2.743,4.799,6.861,4.662,10.644,4.233
			C42.104,9.978,36.458,4,29.641,4c-6.367,0-11.71,5.216-13.189,12.227c1.6,0.751,4.213,1.642,5.624,1.642
			C25.459,17.87,29.482,15.847,30.685,13.541z"/>
	</g>
</g>
<g id="nyt_x5F_exporter_x5F_info" display="none">
</g>
</svg>
