<?xml version="1.0" encoding="UTF-8"?><svg id="Layer_1" xmlns="http://www.w3.org/2000/svg" viewBox="0 0 73.72 68.74"><defs><style>.cls-1{fill:#fff;}.cls-2{fill:#d00000;}</style></defs><g><path class="cls-1" d="m71.91,68.38c-.79,0-1.45-.65-1.45-1.44s.64-1.45,1.47-1.45,1.43.66,1.43,1.45-.65,1.45-1.44,1.45Z"/><path class="cls-2" d="m71.93,65.12c-1.02,0-1.83.8-1.83,1.81s.82,1.81,1.81,1.81,1.81-.81,1.81-1.81-.81-1.81-1.78-1.81Zm-.02,3.26c-.79,0-1.45-.65-1.45-1.44s.64-1.45,1.47-1.45,1.43.66,1.43,1.45-.65,1.45-1.44,1.45Z"/><path class="cls-2" d="m71.18,65.85h.64c.26,0,.37.02.48.07.18.09.29.28.29.51,0,.16-.06.32-.16.43-.07.07-.12.11-.25.17l-.05.02.5.97h-.36l-.47-.92h-.25v.92h-.36v-2.17Zm.56.95s.12,0,.17-.01c.17-.04.27-.16.27-.34,0-.14-.06-.24-.18-.27-.05-.02-.07-.02-.27-.02h-.18v.64h.19Z"/></g><g><path class="cls-2" d="m66.48,0h-26.68v20.35h4.52v11.21L24.97,1.05l-.67-1.05H0v20.35h4.52v28.04H0v20.35h28.94v-20.35h-4.52v-11.21l19.35,30.51.67,1.05h24.31v-20.35h-4.52v-28.04h4.52V0h-2.26Zm1.36,2.26v17.19h-4.52v29.85h4.52v18.54h-22.91l-.4-.63-21.01-33.14v15.23h4.52v18.54H.9v-18.54h4.52v-29.85H.9V.9h22.91l.4.63,21.02,33.14v-15.23h-4.52V.9h27.14v1.36Z"/><path class="cls-2" d="m46.58,39.35h0S23.06,2.26,23.06,2.26H2.26v15.83h4.52v32.56h0c-1,0-4.52,0-4.52,0v15.83h24.42v-15.83h-4.52v-21.25l23.52,37.08h20.8v-15.83h-4.52V18.09h4.52V2.26h-24.42v15.83h4.52v21.26Z"/><path class="cls-2" d="m6.78,50.65H2.26s3.52,0,4.52,0h0Z"/><polygon class="cls-2" points="46.58 39.35 23.06 2.26 46.58 39.35 46.58 39.35"/><path class="cls-2" d="m26.68,50.65h0s-3.53,0-4.52,0h0c.99,0,4.52,0,4.52,0Z"/><path class="cls-2" d="m66.48,50.65h0s-3.52,0-4.52,0h0c1,0,4.52,0,4.52,0Z"/><path class="cls-1" d="m66.48.9h-25.78v18.54h4.52v15.23L24.21,1.53l-.4-.63H.9v18.54h4.52v29.85H.9v18.54h27.14v-18.54h-4.52v-15.23l21.01,33.14.4.63h22.91v-18.54h-4.52v-29.85h4.52V.9h-1.36ZM26.68,50.65h0v15.83H2.26v-15.83h0s3.52,0,4.52,0V18.09H2.26V2.26h20.8l23.52,37.09v-21.26h-4.52V2.26h24.42v15.83h-4.52v32.56h4.52v15.83h-20.8L22.16,29.4v21.25h4.52Z"/><path class="cls-2" d="m46.58,39.35L23.06,2.26H2.26v15.83h4.52v32.56H2.26v15.83h24.42v-15.83h-4.52v-21.25l23.52,37.08h20.8v-15.83h-4.52V18.09h4.52V2.26h-24.42v15.83h4.52v21.26Z"/></g></svg>