<svg xmlns="http://www.w3.org/2000/svg" width="60" height="60" viewBox="0 0 60 60"><g fill="#231F20"><path d="M7.98 28.047c.788 2.368 2.855 4.05 5.31 4.413-.385 2.382.62 4.85 2.66 6.296 2 1.42 4.767 1.61 6.947.504 1.113 2.154 3.408 3.58 5.928 3.58s4.814-1.426 5.928-3.58c2.184 1.107 4.947.916 6.948-.504 2.04-1.446 3.043-3.91 2.66-6.296 2.455-.362 4.523-2.045 5.312-4.413.782-2.348.11-4.922-1.63-6.627 1.74-1.705 2.412-4.28 1.63-6.626-.79-2.368-2.856-4.05-5.31-4.413.384-2.38-.62-4.848-2.66-6.296-2-1.417-4.766-1.608-6.95-.504C33.64 1.427 31.347 0 28.827 0s-4.816 1.428-5.928 3.58c-2.185-1.106-4.948-.914-6.948.505C13.91 5.532 12.906 8 13.29 10.38c-2.455.364-4.522 2.046-5.31 4.414-.782 2.347-.11 4.92 1.63 6.626-1.74 1.705-2.412 4.28-1.63 6.627zm1.897-12.62c.62-1.866 2.394-3.12 4.412-3.12l.258.006c.334.034.646-.147.84-.417.192-.27.24-.617.125-.928l-.042-.115c-.677-1.86-.004-3.973 1.638-5.137 1.624-1.153 3.977-1.125 5.577.078l.102.076c.26.193.6.248.908.147.31-.102.548-.346.644-.656l.037-.124C24.95 3.33 26.78 2 28.827 2s3.874 1.33 4.45 3.238l.035.12c.095.31.335.557.644.66.31.1.65.046.91-.15l.104-.077c1.592-1.194 3.95-1.225 5.573-.074 1.642 1.165 2.315 3.278 1.64 5.128l-.043.118c-.117.312-.072.66.122.932.193.272.495.438.84.42l.26-.005c2.018 0 3.79 1.252 4.412 3.117.635 1.908-.08 3.955-1.782 5.092l-.106.07c-.278.185-.444.497-.444.83 0 .335.167.647.444.833l.106.07c1.675 1.12 2.408 3.215 1.782 5.093-.622 1.865-2.394 3.118-4.412 3.118l-.26-.005c-.344-.02-.647.147-.84.42-.194.27-.24.62-.122.932l.04.107c.69 1.89.03 3.954-1.638 5.137-1.625 1.153-3.98 1.12-5.573-.075l-.103-.076c-.262-.197-.603-.25-.912-.15-.31.102-.55.35-.646.662l-.037.12c-.575 1.905-2.404 3.236-4.45 3.236s-3.875-1.33-4.45-3.24l-.038-.12c-.095-.31-.335-.556-.645-.658-.102-.033-.207-.05-.312-.05-.213 0-.423.068-.598.2l-.105.077c-1.59 1.196-3.946 1.228-5.572.075-1.668-1.183-2.326-3.248-1.64-5.134l.044-.118c.115-.312.068-.66-.125-.93-.193-.268-.51-.437-.84-.416l-.26.005c-2.016 0-3.788-1.253-4.41-3.118-.626-1.878.107-3.973 1.782-5.092l.106-.07c.278-.187.444-.498.444-.833 0-.334-.166-.646-.444-.83l-.105-.07c-1.697-1.14-2.413-3.187-1.778-5.096zM18 43v16c0 .404.244.77.617.924.374.154.803.07 1.09-.217L29 50.414l9.293 9.293c.19.19.447.293.707.293.13 0 .26-.025.383-.076.373-.155.617-.52.617-.924V43h-2v13.586l-8.293-8.293c-.39-.39-1.023-.39-1.414 0L20 56.586V43h-2zM22.856 23.27l-2.805 8.414c-.132.4 0 .84.33 1.102.333.26.793.285 1.15.062l7.47-4.67 7.47 4.67c.163.102.346.152.53.152.22 0 .438-.072.62-.214.33-.26.462-.702.33-1.102l-2.806-8.414 5.563-5.563c.286-.286.372-.716.217-1.09-.155-.373-.52-.617-.924-.617h-6.42l-3.712-6.496c-.355-.623-1.38-.623-1.736 0L24.42 16H18c-.404 0-.77.244-.924.617-.155.374-.07.804.217 1.09l5.563 5.563zM25 18c.36 0 .69-.192.868-.504L29 12.016l3.132 5.48c.178.312.51.504.868.504h4.586l-4.293 4.293c-.268.267-.36.664-.242 1.023l2.122 6.362-5.642-3.526c-.162-.1-.346-.152-.53-.152s-.368.05-.53.152l-5.642 3.526 2.12-6.362c.12-.36.027-.756-.24-1.023L20.413 18H25z"/></g></svg>