<svg xmlns="http://www.w3.org/2000/svg" width="60" height="60" viewBox="0 0 60 60"><g fill="#231F20"><path d="M59 24h-3v-5c0-.552-.448-1-1-1H45c-.552 0-1 .448-1 1v5h-3c-.552 0-1 .448-1 1v9H24V19c0-.552-.448-1-1-1h-3v-7c0-.552-.448-1-1-1h-7V1c0-.552-.448-1-1-1s-1 .448-1 1v9H5c-.552 0-1 .448-1 1v7H1c-.552 0-1 .448-1 1v40c0 .552.448 1 1 1h58c.552 0 1-.448 1-1V25c0-.552-.448-1-1-1zm-13-4h8v4h-8v-4zm-6 16v22H24V36h16zM6 12h12v6H6v-6zm-4 8h20v38h-8v-5c0-.552-.448-1-1-1H9c-.552 0-1 .448-1 1v5H2V20zm8 38v-4h2v4h-2zm40 0v-4h2v4h-2zm8 0h-4v-5c0-.552-.448-1-1-1h-4c-.552 0-1 .448-1 1v5h-6V26h16v32zM15 14H9c-.552 0-1 .448-1 1s.448 1 1 1h6c.552 0 1-.448 1-1s-.448-1-1-1zM5 28h14c.552 0 1-.448 1-1s-.448-1-1-1H5c-.552 0-1 .448-1 1s.448 1 1 1zM5 24h14c.552 0 1-.448 1-1s-.448-1-1-1H5c-.552 0-1 .448-1 1s.448 1 1 1zM5 32h14c.552 0 1-.448 1-1s-.448-1-1-1H5c-.552 0-1 .448-1 1s.448 1 1 1zM5 36h14c.552 0 1-.448 1-1s-.448-1-1-1H5c-.552 0-1 .448-1 1s.448 1 1 1zM5 40h14c.552 0 1-.448 1-1s-.448-1-1-1H5c-.552 0-1 .448-1 1s.448 1 1 1zM5 44h14c.552 0 1-.448 1-1s-.448-1-1-1H5c-.552 0-1 .448-1 1s.448 1 1 1zM19 48c.552 0 1-.448 1-1s-.448-1-1-1H5c-.552 0-1 .448-1 1s.448 1 1 1h14zM45 28c-.552 0-1 .448-1 1s.448 1 1 1h10c.552 0 1-.448 1-1s-.448-1-1-1H45zM55 32H45c-.552 0-1 .448-1 1s.448 1 1 1h10c.552 0 1-.448 1-1s-.448-1-1-1zM55 36H45c-.552 0-1 .448-1 1s.448 1 1 1h10c.552 0 1-.448 1-1s-.448-1-1-1zM55 40H45c-.552 0-1 .448-1 1s.448 1 1 1h10c.552 0 1-.448 1-1s-.448-1-1-1zM55 48H45c-.552 0-1 .448-1 1s.448 1 1 1h10c.552 0 1-.448 1-1s-.448-1-1-1zM55 44H45c-.552 0-1 .448-1 1s.448 1 1 1h10c.552 0 1-.448 1-1s-.448-1-1-1zM27 42h10c.552 0 1-.448 1-1s-.448-1-1-1H27c-.552 0-1 .448-1 1s.448 1 1 1zM27 46h10c.552 0 1-.448 1-1s-.448-1-1-1H27c-.552 0-1 .448-1 1s.448 1 1 1zM27 50h10c.552 0 1-.448 1-1s-.448-1-1-1H27c-.552 0-1 .448-1 1s.448 1 1 1z"/></g></svg>