<svg xmlns="http://www.w3.org/2000/svg" width="60" height="60" viewBox="0 0 60 60"><g fill="#231F20"><path d="M59 6h-9V1c0-.552-.448-1-1-1h-8c-.552 0-1 .448-1 1v5H20V1c0-.552-.448-1-1-1h-8c-.552 0-1 .448-1 1v5H1c-.552 0-1 .448-1 1v52c0 .552.448 1 1 1h58c.552 0 1-.448 1-1V7c0-.552-.448-1-1-1zM42 2h6v8h-6V2zM18 2v8h-6V7.402c.054-.124.087-.26.087-.402s-.033-.278-.087-.402V2h6zm-8 6v3c0 .552.448 1 1 1h8c.552 0 1-.448 1-1V8h20v3c0 .552.448 1 1 1h8c.552 0 1-.448 1-1V8h8v10H2V8h8zM2 58V20h56v38H2zM28 48h-4V29c0-.404-.244-.77-.617-.924-.375-.156-.804-.07-1.09.217l-5 5c-.39.39-.39 1.023 0 1.414.39.39 1.023.39 1.414 0L22 31.414V48h-4c-.552 0-1 .448-1 1s.448 1 1 1h10c.552 0 1-.448 1-1s-.448-1-1-1zM43 28H31c-.552 0-1 .448-1 1v2.26c0 .553.448 1 1 1s1-.447 1-1V30h9.523l-3.197 8h-4.544c-.552 0-1 .448-1 1s.448 1 1 1h3.745l-3.413 8.542c-.204.513.045 1.095.558 1.3.12.048.247.072.37.072.398 0 .774-.238.93-.63L39.682 40h1.666c.552 0 1-.448 1-1s-.448-1-1-1h-.867l3.45-8.63c.122-.307.085-.656-.102-.93-.186-.275-.497-.44-.828-.44z"/></g></svg>