<svg xmlns="http://www.w3.org/2000/svg" width="60" height="60" viewBox="0 0 60 60"><g fill="#231F20"><path d="M59 4h-9V1c0-.552-.447-1-1-1h-8c-.553 0-1 .448-1 1v3H20V1c0-.552-.447-1-1-1h-8c-.553 0-1 .448-1 1v3H1c-.553 0-1 .448-1 1v54c0 .552.447 1 1 1h58c.553 0 1-.448 1-1V5c0-.552-.447-1-1-1zM42 2h6v8h-6V2zM12 2h6v8h-6V2zm-2 4v5c0 .552.447 1 1 1h8c.553 0 1-.448 1-1V6h20v5c0 .552.447 1 1 1h8c.553 0 1-.448 1-1V6h8v12H2V6h8zM2 58V20h56v38H2zM53.956 30c.553 0 1-.448 1-1s-.447-1-1-1H44v-4.304c0-.552-.447-1-1-1-.553 0-1 .448-1 1V28H30v-4.304c0-.552-.447-1-1-1-.553 0-1 .448-1 1V28H16v-4.304c0-.552-.447-1-1-1-.553 0-1 .448-1 1V28H6.043c-.553 0-1 .448-1 1s.447 1 1 1H14v8H6.043c-.553 0-1 .448-1 1s.447 1 1 1H14v8H6.043c-.553 0-1 .448-1 1s.447 1 1 1H14v3.957c0 .552.447 1 1 1 .553 0 1-.448 1-1V50h12v3.957c0 .552.447 1 1 1 .553 0 1-.448 1-1V50h12v3.957c0 .552.447 1 1 1 .553 0 1-.448 1-1V50h9.956c.553 0 1-.448 1-1s-.447-1-1-1H44v-8h9.956c.553 0 1-.448 1-1s-.447-1-1-1H44v-8h9.956zM16 30h12v8H16v-8zm0 18v-8h12v8H16zm26 0H30v-8h12v8zm0-10H30v-8h12v8z"/></g></svg>