<svg xmlns="http://www.w3.org/2000/svg" width="60" height="60" viewBox="0 0 60 60"><path fill="#010101" d="M57.244 42.695L51 36.45c-1.3-1.3-3.03-2.016-4.87-2.016-1.84 0-3.57.716-4.872 2.017l-1.438 1.44c-6.347-5.278-12.442-11.373-17.71-17.71l1.44-1.44c2.685-2.684 2.685-7.054 0-9.74l-6.247-6.244c-1.3-1.3-3.03-2.017-4.87-2.017s-3.57.715-4.872 2.016L4.14 6.18C.852 9.468.33 14.67 2.896 18.553c10.04 15.18 23.372 28.51 38.55 38.55 1.617 1.068 3.493 1.633 5.428 1.633 2.627 0 5.092-1.02 6.943-2.874l3.426-3.424c2.685-2.684 2.686-7.054 0-9.74z"/></svg>