<svg xmlns="http://www.w3.org/2000/svg" width="60" height="60" viewBox="0 0 60 60"><g fill="#231F20"><path d="M3.648 21.78C1.883 22.286.5 24.12.5 25.957V28h27v-2c0-1.928-1.262-3.742-2.96-4.227l-6.04-1.55v-2.047c2.495-1.618 4.174-4.56 4.174-7.927 0-5.1-3.842-9.25-8.565-9.25-4.724 0-8.566 4.15-8.566 9.25 0 3.267 1.58 6.137 3.956 7.783v2.197l-5.852 1.55zM14.108 3c3.032 0 5.582 2.282 6.334 5.37-.444.193-1.085.302-1.804.198-.626-.093-1.77-.42-2.388-1.568-.15-.28-.422-.47-.735-.516-.31-.046-.63.06-.852.282-2.01 2.008-5.063 2.08-6.808 1.282C8.7 5.124 11.185 3 14.11 3zm-6.564 7.25c0-.063.007-.123.008-.185 2.252.794 5.327.56 7.642-1.13.79.855 1.89 1.425 3.153 1.61.296.045.59.066.878.066.51 0 .99-.08 1.44-.208-.073 3.927-2.983 7.098-6.557 7.098-3.62 0-6.564-3.253-6.564-7.25zm6.565 9.25c.83 0 1.63-.136 2.39-.375v2.65l7.517 1.93c.817.232 1.483 1.262 1.483 2.295h-23v-.044c0-.94.794-1.994 1.68-2.247l7.32-1.94v-2.713c.823.285 1.7.442 2.61.442zM59.5 26c0-1.928-1.262-3.742-2.96-4.227l-6.04-1.55v-2.047c2.495-1.618 4.174-4.56 4.174-7.927 0-5.1-3.842-9.25-8.565-9.25-4.724 0-8.566 4.15-8.566 9.25 0 3.267 1.58 6.137 3.956 7.783v2.197l-5.852 1.55c-1.766.504-3.148 2.34-3.148 4.176V28h27v-2zM46.11 3c3.03 0 5.58 2.282 6.332 5.37-.444.193-1.086.302-1.804.198-.626-.093-1.77-.42-2.388-1.568-.15-.28-.422-.47-.735-.516-.31-.046-.63.06-.852.282-2.008 2.008-5.062 2.08-6.808 1.282C40.7 5.124 43.185 3 46.11 3zm-6.566 7.25c0-.063.007-.123.008-.185 2.252.794 5.327.56 7.642-1.13.79.855 1.89 1.425 3.153 1.61.296.045.59.066.878.066.51 0 .99-.08 1.44-.208-.073 3.927-2.983 7.098-6.557 7.098-3.62 0-6.564-3.253-6.564-7.25zM48.37 26H34.5v-.044c0-.94.794-1.994 1.68-2.247l7.32-1.94v-2.713c.823.285 1.7.442 2.61.442.83 0 1.63-.136 2.39-.375v2.65l7.517 1.93c.817.232 1.483 1.262 1.483 2.295h-9.13zM38.065 42.032c0-5.1-3.842-9.25-8.565-9.25s-8.565 4.15-8.565 9.25c0 3.19 1.502 6.006 3.783 7.67v2.24l-5.678 1.622c-1.766.505-3.148 2.34-3.148 4.176V60H43.11v-2.26c0-1.838-1.385-3.673-3.152-4.177l-5.675-1.622V49.7c2.28-1.662 3.782-4.48 3.782-7.668zm-8.565-7.25c3.007 0 5.542 2.248 6.317 5.3-.456.21-1.127.333-1.87.225-.603-.09-1.704-.405-2.305-1.523-.15-.28-.422-.47-.735-.516-.31-.047-.63.06-.853.282-2.008 2.008-5.062 2.08-6.808 1.282.846-2.925 3.33-5.05 6.254-5.05zm-6.565 7.25c0-.062.007-.123.008-.185 2.252.794 5.328.56 7.643-1.13.775.833 1.845 1.388 3.07 1.568.283.042.566.062.847.062.547 0 1.072-.09 1.558-.237-.037 3.96-2.965 7.172-6.56 7.172-3.62 0-6.565-3.253-6.565-7.25zm16.473 13.454c.906.26 1.7 1.312 1.7 2.253V58H17.892v-.26c0-.942.794-1.995 1.7-2.254l7.127-2.036v-2.68c.874.327 1.808.512 2.783.512s1.91-.185 2.783-.51v2.678l7.125 2.036zM16.337 36.858l-6.304-6.305c-.39-.39-1.023-.39-1.414 0-.392.39-.392 1.023 0 1.414l6.303 6.305c.195.195.45.293.707.293.256 0 .512-.098.707-.293.39-.39.39-1.023 0-1.414zM44.077 38.273l6.304-6.305c.392-.39.392-1.023 0-1.414-.39-.39-1.022-.39-1.413 0l-6.304 6.305c-.39.39-.39 1.022 0 1.413.195.195.45.293.707.293.255 0 .51-.098.707-.293z"/></g></svg>