<svg xmlns="http://www.w3.org/2000/svg" width="60" height="60" viewBox="0 0 60 60"><path fill="#231F20" d="M51.707 4.293C51.52 4.106 51.267 4 51 4H30V1c0-.552-.447-1-1-1-.553 0-1 .448-1 1v3H7c-.553 0-1 .448-1 1v16c0 .552.447 1 1 1h21v4H9c-.266 0-.52.106-.707.293l-8 8c-.39.39-.39 1.023 0 1.414l8 8c.187.188.44.293.707.293h19v15c0 .552.447 1 1 1 .553 0 1-.448 1-1V44h23c.553 0 1-.448 1-1V27c0-.552-.447-1-1-1H30v-4h21c.266 0 .52-.105.707-.293l8-8c.39-.39.39-1.023 0-1.414l-8-8zM52 42H9.414l-7-7 7-7H52v14zm-1.414-22H8V6h42.586l7 7-7 7z"/></svg>