<svg xmlns="http://www.w3.org/2000/svg" width="60" height="60" viewBox="0 0 60 60"><g fill="#010101"><path d="M29.08 9.606L26.34 16H20c-.42 0-.797.264-.94.66-.144.396-.023.84.3 1.108l5.455 4.545-2.75 7.335c-.155.412-.022.876.326 1.145.35.266.834.275 1.19.02L30 26.23l6.42 4.584c.173.124.377.186.58.186.215 0 .43-.07.61-.206.348-.268.48-.733.326-1.145l-2.75-7.336 5.454-4.545c.323-.27.443-.713.3-1.11-.143-.396-.52-.66-.94-.66h-6.34l-2.74-6.394C30.76 9.238 30.4 9 30 9s-.762.238-.92.606zm3 7.788c.158.368.52.606.92.606h4.238l-3.88 3.232c-.325.272-.444.72-.295 1.12l1.85 4.928-4.332-3.094c-.173-.124-.376-.186-.58-.186s-.407.062-.58.186l-4.332 3.094 1.85-4.93c.148-.397.03-.846-.297-1.118L22.763 18H27c.4 0 .762-.238.92-.606L30 12.54l2.08 4.854zM9 21c0 11.247 19.372 37.484 20.197 38.596.19.254.487.404.803.404s.614-.15.803-.404C31.628 58.484 51 32.246 51 21 51 9.42 41.58 0 30 0S9 9.42 9 21zm40 0c0 9.352-15.288 31.147-19 36.3-3.712-5.153-19-26.948-19-36.3 0-10.477 8.523-19 19-19s19 8.523 19 19z"/></g></svg>