<svg xmlns="http://www.w3.org/2000/svg" width="60" height="60" viewBox="0 0 60 60"><g fill="#231F20"><path d="M6 58.5v-57c0-.552-.448-1-1-1s-1 .448-1 1v57c0 .552.448 1 1 1s1-.448 1-1zM8 5.5v30c0 .32.153.62.41.808.26.188.592.24.896.144.096-.03 9.68-3.09 16.13-3.09 5.13 0 5.13 1.838 5.13 2.442 0 2.22 1.438 4.866 8.294 4.866h.002c6.275 0 14.072-2.116 14.4-2.206.437-.12.738-.513.738-.964v-30c0-.31-.144-.602-.39-.792-.245-.19-.563-.254-.863-.176-.075.02-7.59 1.968-13.55 1.968h-.003c-2.16 0-3.832-.253-4.97-.75-1.487-.652-1.66-1.572-1.66-2.207 0-1.995-1.194-4.374-6.888-4.374-6.77 0-16.58 3.242-16.993 3.38-.408.138-.683.52-.683.95zm2 .73c2.346-.733 10.217-3.06 15.677-3.06 4.89 0 4.89 1.787 4.89 2.374 0 1.27.495 3.003 2.855 4.038 1.393.61 3.334.92 5.772.92h.002c4.79 0 10.357-1.16 12.804-1.73v27.954c-2.087.523-8.21 1.944-13.137 1.944-4.18 0-6.297-.964-6.297-2.866 0-2.027-1.237-4.443-7.128-4.443-5.372 0-12.523 1.93-15.437 2.79V6.23z"/></g></svg>