<svg xmlns="http://www.w3.org/2000/svg" width="60" height="60" viewBox="0 0 60 60"><g fill="#010101"><path d="M37 0c-.552 0-1 .448-1 1v58c0 .552.448 1 1 1s1-.448 1-1V40h7c.552 0 1-.448 1-1 0-18.41-3.85-39-9-39zm1 38V2.8c2.3 3.255 5.875 16.222 5.997 35.2H38zM27 0c-.552 0-1 .45-1 1v14c0 3.52-2.613 6.433-6 6.92V1c0-.552-.448-1-1-1s-1 .448-1 1v20.92c-3.387-.487-6-3.4-6-6.92V1c0-.55-.448-1-1-1s-1 .45-1 1v14c0 4.625 3.507 8.442 8 8.942V59c0 .552.448 1 1 1s1-.448 1-1V23.942c4.493-.5 8-4.317 8-8.94V1c0-.553-.448-1-1-1z"/></g></svg>