<svg xmlns="http://www.w3.org/2000/svg" width="60" height="60" viewBox="0 0 60 60"><g fill="#010101"><path d="M21.996 28.116c1.712 0 4.032-.732 5.987-3.918 3.737 6.63 5.022 11.96 5.043 12.047.1.435.48.75.925.772H34c.428 0 .81-.27.947-.68.02-.06 1.288-3.718 3.878-7.37 1.624 2.86 3.705 3.516 5.268 3.516 1.905 0 3.958-1.012 5.633-2.777 3.16-3.33 4.323-12.443 2.184-17.105-.127-.274-.37-.478-.665-.552-.29-.073-.604-.012-.847.17-2.252 1.7-4.366 2.247-6.41 2.775-1.808.466-3.677.95-5.542 2.193-2.085 1.39-3.333 3.41-3.338 5.397-.004 1.218.47 2.95 2.503 4.63-1.56 2.08-2.703 4.2-3.45 5.8-.818-2.44-2.32-6.256-4.818-10.536 2.863-1.455 4.602-3.367 5.144-5.707.823-3.552-1.353-6.788-2.723-8.4-2.29-2.7-5.573-3.484-9.05-4.316-3.135-.75-6.377-1.525-9.067-3.8-.23-.196-.543-.276-.835-.22-.297.06-.552.248-.693.515-3.397 6.42-1.657 18.663 2.12 23.114 2.4 2.83 5.23 4.452 7.76 4.452zm15.11-5.527c.004-1.322.92-2.72 2.448-3.74 1.584-1.056 3.21-1.476 4.932-1.92 1.826-.472 3.86-.997 6.023-2.36 1.286 4.41-.028 11.433-2.236 13.76-1.28 1.347-2.842 2.152-4.18 2.152h-.002c-1.937 0-3.17-1.658-3.912-3.258 1.447-1.703 3.193-3.276 5.266-4.312.494-.247.694-.848.447-1.342-.248-.494-.847-.695-1.342-.447-2.244 1.123-4.13 2.764-5.687 4.54-1.15-.952-1.76-2.003-1.756-3.074zM13.387 2.577c2.82 1.978 6.01 2.74 8.862 3.423 3.285.787 6.123 1.465 7.99 3.666 1.918 2.257 2.756 4.683 2.3 6.654-.41 1.77-1.843 3.262-4.237 4.447-2.376-3.768-5.517-7.79-9.63-11.492-.41-.37-1.043-.335-1.413.074-.37.41-.336 1.042.074 1.41 4.062 3.656 7.15 7.68 9.47 11.433-1.296 2.592-2.907 3.922-4.804 3.922-1.942 0-4.214-1.365-6.233-3.744-3.13-3.685-4.702-13.845-2.376-19.792zM51.172 43.147L41.964 46.2c.003-.062.016-.125.016-.19 0-1.99-1.367-4.006-3.98-4.006-1.74 0-2.835.005-3.727.01-1.285.004-2.147.008-3.926-.007C26.903 39.36 23.087 38.02 19 38.02h-7v-1c0-.553-.447-1-1-1H1c-.553 0-1 .447-1 1v18c0 .55.447 1 1 1h10c.553 0 1-.45 1-1v-.764c2.466.832 4.63 1.587 6.52 2.25 6.397 2.237 10.01 3.477 13.368 3.477 4.218 0 8.03-1.958 16.435-6.354 2.96-1.55 6.643-3.476 11.124-5.716.287-.144.488-.417.54-.734.05-.317-.053-.64-.28-.867-2.265-2.266-4.864-4.217-8.535-3.166zM10 54.02H2v-16h8v16zm37.396-2.164c-14.47 7.57-14.468 7.57-28.215 2.76-2.058-.72-4.434-1.55-7.18-2.472V40.02h7c3.732 0 7.225 1.268 10.378 3.77.174.138.39.214.612.216 2.024.02 2.92.015 4.29.01.89-.005 1.982-.01 3.72-.01 1.46 0 1.98 1.08 1.98 2.007S39.46 48.02 38 48.02H24c-.553 0-1 .448-1 1s.447 1 1 1h14c1.394 0 2.422-.582 3.088-1.42l10.674-3.54c1.91-.55 3.45-.103 5.513 1.708-3.925 1.974-7.198 3.686-9.88 5.088z"/></g></svg>