<svg xmlns="http://www.w3.org/2000/svg" width="60" height="60" viewBox="0 0 60 60"><g fill="#010101"><path d="M51.172 43.15l-9.208 3.053c.003-.063.016-.126.016-.19 0-1.99-1.367-4.007-3.98-4.007-1.74 0-2.835.005-3.727.01-1.285.004-2.148.008-3.926-.007-3.444-2.648-7.26-3.99-11.347-3.99h-7v-1c0-.552-.447-1-1-1H1c-.553 0-1 .448-1 1v18c0 .552.447 1 1 1h10c.553 0 1-.448 1-1v-.763c2.466.832 4.63 1.587 6.52 2.25 6.397 2.237 10.01 3.477 13.368 3.477 4.218 0 8.03-1.958 16.435-6.354 2.96-1.548 6.643-3.475 11.124-5.715.287-.144.488-.417.54-.734.05-.316-.053-.64-.28-.866-2.265-2.265-4.864-4.215-8.535-3.165zM10 54.02H2v-16h8v16zm37.396-2.162c-14.47 7.57-14.468 7.57-28.215 2.76-2.058-.72-4.434-1.55-7.18-2.472V40.02h7c3.732 0 7.225 1.27 10.378 3.77.174.14.39.215.612.217 2.024.02 2.92.014 4.29.01.89-.005 1.982-.01 3.72-.01 1.46 0 1.98 1.08 1.98 2.007S39.46 48.02 38 48.02H24c-.553 0-1 .448-1 1s.447 1 1 1h14c1.394 0 2.422-.582 3.088-1.42l10.674-3.54c1.913-.548 3.45-.103 5.513 1.708-3.925 1.975-7.198 3.688-9.88 5.09zM18.257 32.005c.477-.28.636-.892.356-1.37-2.568-4.376-3.28-9.492-2-14.403 1.28-4.91 4.395-9.03 8.77-11.598 3.445-2.02 7.342-2.872 11.24-2.53-2.303.896-4.558 2.284-4.373 4.27.114 1.22.675 2.17 1.578 2.67.836.465 1.888.487 2.945.078.116.65.104 1.933-.036 3.264-.415.07-.855.17-1.312.277-1.43.332-3.033.704-3.92.086-.11-.293-.31-.604-.632-.868-.93-.762-2.51-.905-4.84-.438-5.132 1.024-5.19 7.712-5.19 7.996 0 1.56.76 4.51 3.63 4.51.472 0 .942-.026 1.4-.053 1.078-.06 2.1-.12 2.5.26.3.282.363.93.363 1.423 0 .265.105.52.293.707.71.71 1.408 1.646 1.462 1.926 0 .2-.177.554-.334.866-.256.51-.546 1.088-.546 1.763 0 .936 1.813 5.386 3.633 5.386 3.655 0 5.938-1.75 6.23-4.72.584-.29 1.48-.826 2.368-1.713.492-.49.732-1.013.714-1.55-.027-.812-.624-1.33-1.018-1.674-.04-.033-.085-.073-.13-.113.21-.244.53-.58.79-.846 1.678-1.746 4.488-4.67 2.276-6.88-.305-.306-.77-.378-1.154-.19-.364.184-.98.346-1.315.268-.4-1.485-.818-2.403-1.207-2.97.972-.52 2.756-1.13 4.48-.695.23.057.474.03.69-.076 2.4-1.197 3.69-3.582 4.34-5.3.382.524.742 1.067 1.075 1.634 5.303 9.036 2.266 20.702-6.77 26.004-.478.28-.637.892-.357 1.37.187.316.52.493.863.493.173 0 .347-.043.506-.137 4.84-2.84 8.28-7.392 9.694-12.82 1.414-5.43.628-11.084-2.21-15.92-.676-1.152-1.455-2.217-2.313-3.202-.09-.188-.226-.346-.413-.45-2.433-2.63-5.5-4.58-8.97-5.69-.126-.078-.27-.118-.423-.133-.235-.07-.462-.158-.7-.22C34.863-.716 29.21.07 24.372 2.91c-4.84 2.838-8.28 7.39-9.695 12.82-1.413 5.427-.628 11.082 2.21 15.92.28.476.892.634 1.37.355zm30.54-24.032c-.313 1.157-1.25 3.874-3.422 5.148-3.176-.6-6.136 1.104-6.814 1.93-.46.562-.298 1.067-.208 1.26.147.31.422.52.762.593.288.377.767 1.627 1.056 2.78.044.176.135.337.264.465.838.837 2.004.753 2.822.54-.05.997-1.594 2.6-2.495 3.54-.965 1.003-1.497 1.557-1.497 2.228 0 .784.56 1.27.966 1.625.08.07.185.162.262.24-.017.018-.036.038-.06.06-1.112 1.115-2.232 1.51-2.238 1.513-.408.136-.684.518-.684.95 0 2.2-1.377 3.338-4.094 3.383-.58-.487-1.752-2.77-1.802-3.384 0-.202.178-.555.334-.867.256-.51.546-1.088.546-1.763 0-.995-1.006-2.246-1.768-3.05-.063-1.094-.386-1.9-.98-2.46-1.027-.972-2.532-.887-3.987-.802-.42.024-.853.05-1.285.05-1.595 0-1.63-2.412-1.63-2.51 0-.052.06-5.332 3.583-6.036 2.457-.494 3.102-.044 3.196.04.03.212.13.41.282.563 1.62 1.616 4.137 1.03 5.972.603.688-.16 1.337-.31 1.754-.31.498 0 .92-.367.99-.86.337-2.36.49-5.354-.703-6.214-.465-.333-1.054-.364-1.614-.083-.597.3-1.144.354-1.507.153-.397-.22-.522-.724-.558-1.107-.096-1.025 3.318-2.52 6.55-3.243 3.087.985 5.82 2.707 8.005 5.026z"/></g></svg>