<svg xmlns="http://www.w3.org/2000/svg" width="60" height="60" viewBox="0 0 60 60"><g fill="#231F20"><path d="M29 0c-6.205 0-7 3.74-7 7v3.26H9c-.552 0-1 .45-1 1V59c0 .552.448 1 1 1h42c.552 0 1-.448 1-1V11.26c0-.55-.448-1-1-1H36V7c0-3.26-.795-7-7-7zm-5 7c0-3.243.797-5 5-5s5 1.757 5 5v11H24V7zM10 58v-8h40v8H10zm13.008-26.065c2.25.794 5.325.56 7.64-1.13.798.87 1.908 1.447 3.18 1.634.29.042.58.063.865.063.505 0 .982-.082 1.43-.208-.087 3.916-2.992 7.073-6.558 7.073-3.62 0-6.565-3.252-6.565-7.25 0-.062.007-.122.008-.183zm.303-2.017c.847-2.924 3.33-5.048 6.255-5.048 3.038 0 5.593 2.293 6.34 5.392-.423.192-1.046.308-1.785.198-.51-.075-1.762-.38-2.413-1.59-.15-.28-.422-.47-.735-.516-.313-.047-.628.06-.853.282-2.01 2.007-5.063 2.08-6.81 1.282zm2.69 10.6c1.087.54 2.292.85 3.565.85.846 0 1.662-.138 2.435-.386v2.835l8.638 1.756c.82.234 1.693.972 1.678 2.068l.006.36H16.807l.006-.373c0-.898.722-1.78 1.635-2.042L26 43.79v-3.272zM50 12.26V48h-5.678l-.005-.36c.025-1.815-1.262-3.456-3.204-4.008L34 42.182v-2.166c2.47-1.624 4.13-4.552 4.13-7.898 0-5.1-3.842-9.25-8.565-9.25-4.723 0-8.565 4.15-8.565 9.25 0 2.806 1.167 5.32 3 7.017v3.075l-6.057 1.44c-1.813.517-3.13 2.19-3.13 3.96l-.006.39H10V12.26h12V19c0 .552.448 1 1 1h12c.552 0 1-.448 1-1v-6.74h14zM29 4c-1.654 0-3 1.346-3 3s1.346 3 3 3 3-1.346 3-3-1.346-3-3-3zm0 4c-.55 0-1-.45-1-1s.45-1 1-1 1 .45 1 1-.45 1-1 1zM35 54h10v2H35z"/></g></svg>