<svg xmlns="http://www.w3.org/2000/svg" width="60" height="60" viewBox="0 0 60 60"><g fill="#010101"><path d="M59.793 36.366L47.878 14.52c-.175-.32-.512-.52-.878-.52H18V3c0-.55.45-1 1-1h1c.83 0 2.12.534 2.707 1.12l.86.86C23.215 4.577 23 5.26 23 6c0 2.206 1.794 4 4 4s4-1.794 4-4-1.794-4-4-4c-.74 0-1.424.216-2.02.567l-.86-.86C23.15.734 21.377 0 20 0h-1c-1.654 0-3 1.346-3 3v11h-2c-.354 0-.68.187-.86.49l-13 22c-.016.026-.022.055-.035.08-.013.03-.025.056-.036.085-.042.11-.07.225-.07.342V43c0 .552.448 1 1 1h28v14h-4c-.552 0-1 .448-1 1s.448 1 1 1h10c.552 0 1-.448 1-1s-.448-1-1-1h-4V44h28c.552 0 1-.448 1-1v-5.9c.004-.035.02-.065.02-.1 0-.24-.085-.462-.227-.634zM29 6c0 1.103-.897 2-2 2s-2-.897-2-2c0-.55.224-1.05.585-1.412h.002v-.003C25.95 4.225 26.45 4 27 4c1.103 0 2 .897 2 2zM14.57 16H16v3c0 .552.448 1 1 1s1-.448 1-1v-3h28.406l10.91 20H2.75l11.82-20zM58 42H2v-4h56v4zM49.852 30.445l-4.93-11.83C44.77 18.243 44.405 18 44 18H24c-.46 0-.86.312-.97.757l-3 12c-.075.3-.007.615.182.858.19.243.48.385.788.385h28.02c.552 0 1-.448 1-1 0-.205-.062-.396-.168-.555zM22.282 30l2.5-10h18.552L47.5 30H22.28z"/></g></svg>