<svg xmlns="http://www.w3.org/2000/svg" width="60" height="60" viewBox="0 0 60 60"><path fill="#010101" d="M56.137 2.87c-.105.01-10.66 1.19-22.178 4.716C18.332 12.37 8.444 18.97 4.566 27.2 1.31 34.112 2.465 42.024 7.974 50.72l-2.436 2.437c-.39.39-.39 1.023 0 1.414.195.196.45.294.707.294s.512-.098.707-.293l2.446-2.445c5.368 3.314 10.478 5.012 15.194 5.012 11.027 0 20.177-9.267 26.46-26.8C55.72 17.31 57.223 4.105 57.238 3.973c.033-.3-.072-.602-.287-.817-.215-.215-.514-.32-.816-.287zM24.592 55.136c-4.223 0-8.842-1.515-13.74-4.468l5.808-5.808h11.585c.552 0 1-.448 1-1s-.448-1-1-1H18.66l8-8h9.585c.552 0 1-.447 1-1s-.448-1-1-1H28.66l8-8h3.585c.552 0 1-.447 1-1s-.448-1-1-1h-3v-3c0-.55-.448-1-1-1s-1 .45-1 1v3.587l-8 8v-7.587c0-.552-.448-1-1-1s-1 .448-1 1v9.586l-8 8V31.86c0-.552-.448-1-1-1s-1 .448-1 1V43.45l-5.82 5.82c-4.914-7.927-5.948-15.063-3.05-21.218C14.21 11.426 48.084 5.976 55.086 5.02c-1.1 7.914-8.03 50.117-30.493 50.117z"/></svg>