<svg xmlns="http://www.w3.org/2000/svg" width="60" height="60" viewBox="0 0 60 60"><g fill="#010101"><path d="M29 0C16.317 0 6 10.318 6 23c0 9.653 5.998 18.23 15 21.564V47c0 .552.447 1 1 1h14c.553 0 1-.448 1-1v-2.436C46.002 41.23 52 32.654 52 23 52 10.318 41.683 0 29 0zm6.682 42.908c-.408.137-.682.52-.682.948V46h-5.172c-.356-1.953-1.233-7.253-1.417-12.913 2.048 1.42 3.925 2.148 5.596 2.148 2.922 0 5.04-2.132 5.967-6.002 1.405-5.87-3.512-16.888-9.396-21.05-.245-.173-.558-.226-.852-.145-.29.083-.528.293-.646.572-1.37 3.24-3.546 5.32-5.65 7.334-2.353 2.253-4.577 4.38-5.402 7.823-.714 2.987-.467 5.273.735 6.796 1.028 1.303 2.687 1.964 4.93 1.964.804 0 1.72-.11 2.69-.28.102 5.83.98 11.368 1.41 13.752H23v-2.145c0-.43-.274-.812-.682-.948C13.754 40.035 8 32.034 8 23 8 11.42 17.42 2 29 2s21 9.42 21 21c0 9.034-5.754 17.035-14.318 19.908zm-11.99-12.38c-1.6 0-2.73-.405-3.36-1.203-1-1.268-.747-3.47-.36-5.092.69-2.87 2.613-4.71 4.842-6.844 1.904-1.822 4.032-3.86 5.558-6.825 4.753 4.143 8.788 13.476 7.656 18.202-.487 2.038-1.58 4.467-4.02 4.467-1.527 0-3.47-.93-5.627-2.67.04-4.6.646-9.14 2.467-12.032.295-.467.154-1.084-.312-1.38-.468-.292-1.085-.152-1.38.314-1.998 3.174-2.695 7.956-2.773 12.762-1 .197-1.904.3-2.69.3zM36 50H22c-.553 0-1 .448-1 1s.447 1 1 1h14c.553 0 1-.448 1-1s-.447-1-1-1zM36 54H22c-.553 0-1 .448-1 1s.447 1 1 1h6v3c0 .552.447 1 1 1s1-.448 1-1v-3h6c.553 0 1-.448 1-1s-.447-1-1-1z"/></g></svg>