<svg baseProfile="tiny" xmlns="http://www.w3.org/2000/svg" viewBox="0 0 24 24"><g fill="#231F20"><path d="M12 16.2l-3.2 3.2c-.9.9-2.6.9-3.5 0l-.7-.7c-1-1-1-2.6 0-3.5l4.6-4.6c.9-.9 2.6-.9 3.5 0l.7.7c.2.2.5.2.7 0s.2-.5 0-.7l-.7-.7c-1.3-1.3-3.6-1.3-4.9 0l-4.6 4.6c-1.4 1.4-1.4 3.6 0 4.9l.7.7c.7.7 1.5 1 2.5 1 .9 0 1.8-.4 2.5-1l3.2-3.2c.2-.2.2-.5 0-.7-.3-.2-.6-.2-.8 0zM20.1 4.6l-.7-.7c-1.3-1.3-3.6-1.3-4.9 0L11.3 7c-.2.2-.2.5 0 .7.2.2.5.2.7 0l3.2-3.2c.9-.9 2.6-.9 3.5 0l.7.7c.5.5.7 1.1.7 1.8s-.3 1.3-.7 1.8l-4.6 4.6c-.9.9-2.6.9-3.5 0-.2-.2-.5-.2-.7 0-.2.2-.2.5 0 .7.7.7 1.5 1 2.5 1 .9 0 1.8-.4 2.5-1l4.6-4.6c.7-.7 1-1.5 1-2.5 0-.9-.4-1.8-1.1-2.4z"/></g></svg>