<svg xmlns="http://www.w3.org/2000/svg" width="60" height="60" viewBox="0 0 60 60"><g fill="#010101"><path d="M30 60c.316 0 .614-.15.803-.404C31.628 58.484 51 32.246 51 21 51 9.42 41.58 0 30 0S9 9.42 9 21c0 11.247 19.372 37.484 20.197 38.596.19.254.487.404.803.404zm0-58c10.477 0 19 8.523 19 19 0 9.352-15.288 31.147-19 36.3-3.712-5.153-19-26.948-19-36.3 0-10.477 8.523-19 19-19zM39 21c0-4.962-4.037-9-9-9s-9 4.038-9 9 4.037 9 9 9 9-4.038 9-9zm-16 0c0-3.86 3.14-7 7-7s7 3.14 7 7-3.14 7-7 7-7-3.14-7-7z"/></g></svg>