<svg xmlns="http://www.w3.org/2000/svg" width="60" height="60" viewBox="0 0 60 60"><path fill="#010101" d="M59 58h-5.695C56.14 56.008 58 52.72 58 49V27c0-6.065-4.935-11-11-11H28.357l2.167-6.128c.09-.25.074-.525-.04-.765s-.32-.423-.57-.512l-2.624-.927 1.015-2.87 1.435.506c.11.04.223.058.333.058.412 0 .798-.257.942-.667.185-.52-.09-1.092-.61-1.276l-3.073-1.087-4.06-1.435h-.003l-2.376-.84c-.523-.185-1.093.09-1.275.61-.186.52.088 1.092.608 1.276l1.436.507-1.015 2.872-2.625-.927c-.523-.185-1.092.09-1.275.61L9.185 26.398c-.09.25-.074.524.04.764.114.24.32.423.57.512l1.436.508-2.187 6.19c-.185.52.088 1.09.608 1.275l4.75 1.682c.11.04.223.058.335.058.147 0 .295-.033.43-.098.24-.114.425-.32.513-.57l2.19-6.192 3.816 1.35c.11.038.223.057.333.057.412 0 .798-.257.942-.667l3.628-10.267 6.705 6.705c.187.187.44.292.707.292h5c4.71 0 7 2.944 7 9v5c0 5.383-2.29 8-7 8H19.555l-3.75-6H23c.553 0 1-.448 1-1s-.447-1-1-1H1c-.553 0-1 .448-1 1s.447 1 1 1h5v14H1c-.553 0-1 .448-1 1s.447 1 1 1h58c.553 0 1-.448 1-1s-.447-1-1-1zM14.126 35.112l-2.864-1.015 1.854-5.247 2.864 1.013-1.854 5.25zM23.55 3.117l2.727.964.143.05-1.015 2.872-1.435-.507-1.435-.507 1.014-2.87zM21.406 29.66l-10.004-3.537L18.3 6.613l2.622.927h.002l2.378.84 5.002 1.77-6.897 19.51zM45 58H8V44h5.446l4.706 7.53c.183.292.503.47.848.47h20c5.804 0 9-3.55 9-10v-5c0-7.093-3.196-11-9-11h-4.586l-7.087-7.087.323-.913H47c4.963 0 9 4.038 9 9v22c0 4.962-4.037 9-9 9h-2z"/></svg>