<svg xmlns="http://www.w3.org/2000/svg" width="60" height="60" viewBox="0 0 60 60"><path d="M55 10c2.757 0 5-2.243 5-5s-2.243-5-5-5-5 2.243-5 5c0 1.017.31 1.962.833 2.753l-9.8 9.8C39.126 15.96 36.674 15 34 15c-4.22 0-7.89 2.393-9.733 5.89L9.904 14.947c.06-.307.096-.623.096-.947 0-2.757-2.243-5-5-5s-5 2.243-5 5 2.243 5 5 5c1.722 0 3.243-.875 4.142-2.203l14.352 5.938C23.174 23.767 23 24.865 23 26c0 2.673.96 5.125 2.552 7.034l-17.8 17.8C6.963 50.308 6.018 50 5 50c-2.757 0-5 2.243-5 5s2.243 5 5 5 5-2.243 5-5c0-1.017-.31-1.962-.833-2.753l17.8-17.8C28.874 36.04 31.326 37 34 37v13.1c-2.28.466-4 2.486-4 4.9 0 2.757 2.243 5 5 5s5-2.243 5-5c0-2.414-1.72-4.434-4-4.9V36.81c3.166-.586 5.854-2.53 7.447-5.204l6.714 3.197c-.095.386-.16.782-.16 1.197 0 2.757 2.243 5 5 5s5-2.243 5-5-2.243-5-5-5c-1.627 0-3.06.793-3.974 2l-6.717-3.198c.438-1.187.69-2.464.69-3.802 0-2.673-.96-5.125-2.552-7.034l9.8-9.8c.79.525 1.735.834 2.752.834zM5 17c-1.654 0-3-1.346-3-3s1.346-3 3-3 3 1.346 3 3-1.346 3-3 3zm33 38c0 1.654-1.346 3-3 3s-3-1.346-3-3 1.346-3 3-3 3 1.346 3 3zm17-22c1.654 0 3 1.346 3 3s-1.346 3-3 3-3-1.346-3-3 1.346-3 3-3zm0-31c1.654 0 3 1.346 3 3s-1.346 3-3 3-3-1.346-3-3 1.346-3 3-3zM5 58c-1.654 0-3-1.346-3-3s1.346-3 3-3 3 1.346 3 3-1.346 3-3 3zm29-23c-4.963 0-9-4.038-9-9s4.037-9 9-9 9 4.038 9 9-4.037 9-9 9z"/></svg>