<svg baseProfile="tiny" xmlns="http://www.w3.org/2000/svg" viewBox="0 0 110 152.7"><path fill="#626265" d="M98.5 15.3s-1.2-2.9-1.9-4.3c-1.6.6-4.5 1.6-4.5 1.6-6.5 2.4-12.6 5-18.2 7.8C69.5 14.9 64.6 9.2 59 3.6c-1.1-1.1-2.5-2.3-4-3.6-1.5 1.3-2.9 2.5-4 3.6-5.6 5.6-10.5 11.2-14.8 16.8-5.7-2.7-11.7-5.4-18.2-7.8 0 0-2.9-1.1-4.5-1.6-.7 1.4-1.9 4.3-1.9 4.3C2.8 37.6 0 57.8 0 74.5c0 30.2 9.2 49.1 9.4 49.4 8.2 18.1 26.2 28.8 45.1 28.7h1c18.9 0 36.9-10.7 45.1-28.7.2-.3 9.4-19.2 9.4-49.4 0-16.7-2.8-36.9-11.5-59.2zm-8.4 49.1C83.9 56 74.6 45.8 61.5 35.9c3.2-2.1 6.6-4.1 10.2-6.1C80.4 42 86.3 53.9 90.1 64.4zM58.7 97.8V85.4c5.8-.3 11.1-1.1 15.7-2.3 1.1 5.1 1.7 10 1.9 14.7H58.7zm17.5 7.3c-.2 5.2-.9 10.1-2 14.6-4.5-1.1-9.8-2-15.5-2.3v-12.3h17.5zm-17.5-27V46.4C65.3 56.5 69.8 66.5 72.5 76c-4 1.1-8.7 1.9-13.8 2.1zm13-23.8c6.1 6.1 10.8 11.8 14.3 16.8-1.5.8-3.5 1.7-6 2.6-.1.1-.3.1-.4.2-2-6.4-4.6-13-7.9-19.6zM90 77.2c6.4 9.5 7.7 20.7 7.7 20.7H83.5c-.2-5.4-.9-11.1-2.2-16.9 3.7-1.4 6.7-2.8 8.7-3.8zM55 9.9c4.6 4.7 8.6 9.3 12.3 14-4.3 2.4-8.4 4.9-12.1 7.4l-.2.1-.1-.1c-3.8-2.6-7.8-5-12.1-7.4 3.6-4.7 7.6-9.3 12.2-14zM38.3 29.8c3.6 2 7 4 10.2 6.1C35.4 45.8 26.1 56 19.9 64.4c3.8-10.5 9.7-22.4 18.4-34.6zM24.1 71c3.5-4.9 8.1-10.7 14.3-16.8-3.4 6.6-6 13.2-7.8 19.6-.2-.1-.3-.1-.4-.2-2.6-.9-4.6-1.8-6.1-2.6zm4.6 9.9c-1.3 5.8-2 11.5-2.2 16.9H12.3s.8-10.6 7.7-20.7c2 1.1 5 2.5 8.7 3.8zm-21.2-.2c-.1-2-.2-4-.2-6.2 0-15.3 2.5-33.7 10.2-54.3 5.1 1.9 9.8 4 14.3 6.2C17.3 47 10.6 66.6 7.5 80.7zm11.8 45.4c-4-6.1-6.5-13.2-7-21h14.3c.2 6 1 11.6 2.3 16.7-4.3 1.6-7.6 3.2-9.6 4.3zm16.6 14.6l-2.7-1.5c-3.4-2-6.5-4.5-9.3-7.4 1.7-.9 4.1-2 7.1-3.1 1.2 3.3 2.6 6.3 4.1 9.1.7 1.2 1.5 2.4 2.3 3.5-.5-.1-1-.3-1.5-.6zm15.5 4.2c-3.1-1.6-6.8-5.1-9.9-10.7-1.3-2.2-2.4-4.8-3.4-7.6 3.9-1 8.4-1.7 13.4-1.9v20.2zm0-27.4c-5.8.2-11 1.1-15.5 2.3-1.1-4.4-1.8-9.3-2-14.6h17.5v12.3zm0-19.7H33.8c.2-4.7.8-9.6 1.9-14.7 4.6 1.2 9.8 2.1 15.7 2.3v12.4zm0-19.7c-5.2-.2-9.8-1.1-13.9-2.1 2.8-9.5 7.2-19.5 13.9-29.7v31.8zm17.2 56.2c-3.1 5.6-6.8 9.1-9.9 10.7v-20.2c4.9.2 9.4.9 13.4 1.9-1.1 2.8-2.3 5.4-3.5 7.6zm8.2 5l-2.7 1.5c-.5.2-.9.5-1.4.7.8-1.1 1.5-2.3 2.3-3.5 1.5-2.7 2.9-5.8 4.1-9.1 3 1.1 5.3 2.2 7 3.1-2.8 2.8-5.9 5.2-9.3 7.3zm13.9-13.2c-2-1.1-5.3-2.7-9.6-4.2 1.3-5.1 2.1-10.7 2.3-16.7h14.3c-.5 7.7-3 14.8-7 20.9zM78.2 26.4c4.5-2.2 9.2-4.3 14.3-6.2 7.7 20.5 10.2 38.9 10.2 54.3 0 2.1-.1 4.2-.2 6.2-3.1-14.1-9.8-33.7-24.3-54.3zM94.2 141.2c0-1.7 1.3-3 3-3s3 1.2 3 3c0 1.7-1.4 2.9-3 2.9s-3-1.2-3-2.9zm5.4 0c0-1.5-1-2.4-2.4-2.4s-2.4.9-2.4 2.4c0 1.4 1 2.4 2.4 2.4 1.4-.1 2.4-1 2.4-2.4zm-1 1.5h-.8l-.4-.8h-.5v.8h-.7v-3.1h1.1c.9 0 1.3.6 1.3 1.2 0 .4-.2.8-.6 1l.6.9zm-1.3-1.4c.3 0 .6-.2.6-.6 0-.3-.2-.5-.6-.5h-.4v1.1h.4z"/></svg>