<svg baseProfile="tiny" xmlns="http://www.w3.org/2000/svg" viewBox="0 0 60 60"><path d="M21.5 35.1c1.8 2.5 3.1 5 3.8 6.5H14.8c-.4 0-.8.2-1.1.5-.2.3-.3.8-.2 1.2L18.7 59c.2.5.7.9 1.2.9H33c.6 0 1.1-.4 1.2-.9l5.2-15.7c.1-.4.1-.8-.2-1.2-.2-.3-.6-.5-1.1-.5H29c.7-2.5 2.4-7.5 5.7-13.4 1.9 3.3 4.3 5 7.1 5 2.9 0 6.2-1.9 9.2-5.5 4.5-5.3 6.4-19.4 2.3-27.1-.2-.4-.5-.6-.9-.7-.4-.1-.8 0-1.1.3-3.2 2.8-6.7 3.9-10.2 4.9-3.9 1.2-7.6 2.3-10.3 5.5-2.9 3.4-4.1 6.7-3.4 9.6.6 2.4 2.4 4.5 5.4 6.2-3 5.2-4.8 9.8-5.8 12.8-.9-1.8-2.3-4.1-4-6.3 2.5-2 3-4.1 3-5.5 0-2.4-1.5-4.7-4-6.4-2.2-1.5-4.5-2.1-6.7-2.6-2.5-.6-5-1.3-7.7-3.3-.3-.2-.7-.3-1.1-.2-.4.1-.7.4-.9.7C3 21.4 5 31.7 8.5 35.4c2.1 2.2 4.7 3.5 7 3.5 1.8 0 4.1-.7 6-3.8zm-4.8 9.2h19.9l-4.4 13.1H21l-4.3-13.1zm4.7-13.5c-1.9-2.1-4.2-4.1-6.9-5.5-.6-.3-1.4-.1-1.8.6-.3.6-.1 1.4.6 1.8 2.5 1.2 4.6 3.1 6.4 5.2-1.1 2.2-2.5 3.4-4.2 3.4-1.6 0-3.5-1-5.1-2.7-2.6-2.7-4.2-10.5-2.9-15.5 2.5 1.6 5 2.2 7.2 2.8 2.1.5 4 1 5.9 2.3 1.8 1.2 2.8 2.8 2.9 4.2 0 1.4-1.1 2.6-2.1 3.4zm14.9-5.1c2.6-4.2 6.1-8.7 10.6-12.7.5-.5.6-1.3.1-1.9-.5-.5-1.3-.6-1.8-.1-4.7 4.2-8.3 8.8-11 13.1-2.4-1.3-3.9-2.8-4.3-4.5-.6-2.6 1.2-5.4 2.8-7.3 2.2-2.6 5.4-3.6 9.1-4.7 3.1-.9 6.6-2 9.8-4.3 2.7 7 1 18.5-2.6 22.8-2.5 2.9-5.1 4.6-7.2 4.6-2.1 0-4-1.7-5.5-5z"/></svg>