<svg baseProfile="tiny" xmlns="http://www.w3.org/2000/svg" viewBox="0 0 60 60"><path d="M14.8 41.7c-.4 0-.8.2-1.1.5-.2.3-.3.8-.2 1.2l5.2 15.7c.2.5.7.9 1.2.9H33c.6 0 1.1-.4 1.2-.9l5.2-15.7c.1-.4.1-.8-.2-1.2-.2-.3-.6-.5-1.1-.5H29c.7-2.5 2.4-7.5 5.7-13.4 1.9 3.3 4.3 5 7.1 5 2.9 0 6.2-1.9 9.2-5.5 4.5-5.3 6.4-19.4 2.3-27.1-.2-.4-.5-.6-.9-.7-.4-.1-.8 0-1.1.3-3.2 2.7-6.7 3.8-10.2 4.8-3.9 1.2-7.6 2.3-10.3 5.5-2.9 3.4-4.1 6.7-3.4 9.6.6 2.4 2.4 4.5 5.4 6.2-3 5.2-6.5 15.3-6.5 15.3H14.8zm1.9 2.6h19.9l-4.4 13.1H21l-4.3-13.1zm19.6-18.6c2.6-4.2 6.1-8.7 10.6-12.7.5-.5.6-1.3.1-1.9-.5-.5-1.3-.6-1.8-.1-4.7 4.2-8.3 8.8-11 13.1-2.4-1.3-3.9-2.8-4.3-4.5-.6-2.6 1.2-5.4 2.8-7.3 2.2-2.6 5.4-3.6 9.1-4.7 3.1-.9 6.6-2 9.8-4.3 2.7 7 1 18.5-2.6 22.8-2.5 2.9-5.1 4.6-7.2 4.6-2.1 0-4-1.7-5.5-5z"/></svg>