<svg xmlns="http://www.w3.org/2000/svg" width="60" height="60" viewBox="0 0 60 60"><path fill="#010101" d="M38 39c0 6.065 4.935 11 11 11s11-4.935 11-11-4.935-11-11-11c-1.255 0-2.456.22-3.58.61l-2.176-11.422 5.612.802c.83.12 1.41.896 1.293 1.724-.113.77-1.12 1.42-2.008 1.297-.546-.077-1.054.302-1.132.848-.08.547.3 1.054.847 1.133 1.99.286 3.997-1.105 4.27-2.99.272-1.92-1.066-3.71-2.986-3.988l-7-1c-.325-.046-.642.066-.864.3s-.32.56-.26.876L42.127 22H21.32l-2.758-6.942 3.163.904c.092.026.184.038.276.038.436 0 .836-.287.962-.726.15-.53-.156-1.084-.688-1.236l-7-2c-.526-.15-1.084.155-1.236.687-.15.53.156 1.084.688 1.236l1.408.403 3.397 8.547-3.738 6.203C14.342 28.408 12.72 28 11 28 4.935 28 0 32.935 0 39s4.935 11 11 11c5.728 0 10.443-4.403 10.95-10l4.987-.002c.27.02.55-.078.763-.284l15-14.7.846 4.446C40.238 31.36 38 34.92 38 39zm-27 9c-4.963 0-9-4.038-9-9s4.037-9 9-9c1.342 0 2.61.303 3.756.832l-4.612 7.652c-.187.31-.19.694-.015 1.008.177.314.51.508.87.508h8.94c-.498 4.492-4.315 8-8.94 8zm8.94-10h-7.17l3.698-6.133c1.892 1.455 3.195 3.638 3.473 6.132zm2.01 0c-.293-3.22-1.98-6.033-4.447-7.85l2.956-4.904 5.066 12.752H21.95zm5.424-.767L22.114 24h18.76l-13.5 13.233zM49 30c4.963 0 9 4.038 9 9s-4.037 9-9 9-9-4.038-9-9c0-3.09 1.566-5.82 3.945-7.44l1.072 5.627c.05.264.204.496.428.645l3 2c.17.114.364.168.554.168.322 0 .64-.156.832-.445.307-.46.183-1.08-.277-1.387l-2.65-1.767-1.105-5.8c.995-.382 2.07-.6 3.2-.6z"/></svg>