<svg xmlns="http://www.w3.org/2000/svg" width="60" height="60" viewBox="0 0 60 60"><g fill="#010101"><path d="M1 60h10c.552 0 1-.448 1-1v-1h37c.552 0 1-.448 1-1 0-4.766-9.76-6.936-19.57-6.997l-.078-.08C28.822 48.303 24.752 44 17 44h-5v-1c0-.552-.448-1-1-1H1c-.552 0-1 .448-1 1v16c0 .552.448 1 1 1zm16-14c5.374 0 8.684 2.254 10.595 4H17c-.552 0-1 .448-1 1s.448 1 1 1h13c9.583 0 16.018 1.928 17.613 4H12V46h5zM2 44h8v14H2V44z"/><circle cx="5" cy="55" r="1"/><path d="M59 32h-4.025c-.478-12.063-9.538-21.956-21.232-23.72C34.515 7.4 35 6.26 35 5c0-2.757-2.243-5-5-5s-5 2.243-5 5c0 1.26.485 2.4 1.257 3.28C14.563 10.045 5.502 19.94 5.025 32H1c-.552 0-1 .45-1 1s.448 1 1 1h1.564l5.27 5.68c.187.204.453.32.73.32H51c.265 0 .52-.105.707-.293L57.414 34H59c.552 0 1-.448 1-1s-.448-1-1-1zM27 5c0-1.654 1.346-3 3-3s3 1.346 3 3-1.346 3-3 3-3-1.346-3-3zm3 5c12.347 0 22.45 9.78 22.975 22H7.025C7.55 19.78 17.653 10 30 10zm20.586 28H9.002l-3.71-4h49.294l-4 4zM30 16c.552 0 1-.448 1-1s-.448-1-1-1c-6.355 0-12.262 3.157-15.8 8.444-.308.46-.185 1.08.274 1.387.17.115.364.17.555.17.322 0 .638-.156.83-.444C19.03 18.826 24.314 16 30 16z"/></g></svg>