<svg xmlns="http://www.w3.org/2000/svg" width="60" height="60" viewBox="0 0 60 60"><g fill="#231F20"><path d="M7.737 36.88c.175.26.463.425.778.44l.052.003c.295 0 .577-.13.768-.36l8.08-9.677c.355-.424.298-1.055-.126-1.41-.425-.353-1.056-.296-1.41.127L9.11 34.11c-.828-4.78.083-9.68 2.647-13.976 3.01-5.046 7.945-8.698 13.537-10.02 7.34-1.737 15.01.697 20.016 6.35.366.414.998.452 1.412.085.413-.367.452-1 .085-1.413C41.312 8.93 32.89 6.26 24.834 8.167 18.72 9.612 13.327 13.6 10.04 19.108 7.67 23.08 6.584 27.52 6.844 31.96l-4.476-6.666c-.308-.458-.928-.583-1.388-.273-.458.308-.58.93-.272 1.388l7.03 10.47zM42.71 36.68c.423.353 1.055.296 1.41-.128l6.575-7.87c.615 9.504-6.28 18.908-15.996 21.204-6.888 1.63-14.016-.368-19.066-5.347-.393-.388-1.026-.384-1.414.01-.388.393-.383 1.026.01 1.414 4.273 4.21 9.9 6.48 15.716 6.48 1.73 0 3.48-.202 5.213-.612 10.163-2.402 17.513-11.922 17.575-21.87l4.896 7.296c.194.288.51.443.833.443.19 0 .385-.054.556-.168.457-.308.58-.93.272-1.388l-7.025-10.47c-.176-.26-.464-.424-.778-.44-.313-.023-.62.116-.82.357l-8.086 9.68c-.355.424-.298 1.055.126 1.41z"/></g></svg>