<svg baseProfile="tiny" xmlns="http://www.w3.org/2000/svg" viewBox="0 0 24 24"><g fill="#231F20"><path d="M7.9 2.1c-.1 0-.3-.1-.4-.1h-7c-.3 0-.5.2-.5.5v7c0 .1.1.3.1.4l14 14c.1.1.2.1.4.1s.3 0 .4-.1l7-7c.2-.2.2-.5 0-.7L7.9 2.1zm6.6 20.7L1 9.3V3h6.3l13.5 13.5-6.3 6.3zM23.9 13.1l-13-13c-.1 0-.3-.1-.4-.1h-7c-.3 0-.5.2-.5.5s.2.5.5.5h6.8l12.5 12.5-.6.6c-.2.2-.2.5 0 .7.1.1.2.1.4.1.1 0 .3 0 .4-.1l1-1c0-.1 0-.5-.1-.7zM5 5c-1.1 0-2 .9-2 2s.9 2 2 2 2-.9 2-2-.9-2-2-2zm0 3c-.6 0-1-.4-1-1s.4-1 1-1 1 .4 1 1-.4 1-1 1z"/></g></svg>