<svg xmlns="http://www.w3.org/2000/svg" width="60" height="60" viewBox="0 0 60 60"><g fill="#010101"><path d="M3 23H1c-.553 0-1 .448-1 1s.447 1 1 1h2c.553 0 1-.448 1-1s-.447-1-1-1zM9.293 6.293c-.39.39-.39 1.023 0 1.414l3 3c.195.195.45.293.707.293.256 0 .512-.098.707-.293.39-.39.39-1.023 0-1.414l-3-3c-.39-.39-1.023-.39-1.414 0zM28 2v4c0 .552.447 1 1 1 .553 0 1-.448 1-1V2c0-.552-.447-1-1-1-.553 0-1 .448-1 1zM46.293 6.293l-3 3c-.39.39-.39 1.023 0 1.414.195.195.45.293.707.293.256 0 .512-.098.707-.293l3-3c.39-.39.39-1.023 0-1.414-.39-.39-1.023-.39-1.414 0zM57 23h-2c-.553 0-1 .448-1 1s.447 1 1 1h2c.553 0 1-.448 1-1s-.447-1-1-1zM53 29h-1.052c-.52-4.937-4.99-5.896-10.007-5.992C41.364 18.245 36.617 15 30 15c-5.934 0-12.22 2.797-12.933 8.003C13.35 23.04 6.78 23.505 6.07 29H5c-.553 0-1 .448-1 1v28c0 .552.447 1 1 1h48c.553 0 1-.448 1-1V30c0-.552-.447-1-1-1zm-35-4c.553 0 1-.448 1-1 0-4.382 5.593-7 11-7 4.816 0 10 2.19 10 7 0 .552.447 1 1 1 6 0 8.496 1.074 8.925 4H8.102c.555-2.787 3.6-4 9.898-4zm34 32H6V31h46v26zM47 35H33c-.553 0-1 .448-1 1v5h-6v-5c0-.552-.447-1-1-1H11c-.553 0-1 .448-1 1v16c0 .552.447 1 1 1h36c.553 0 1-.448 1-1V36c0-.552-.447-1-1-1zm-1 16H12V37h12v5c0 .552.447 1 1 1h8c.553 0 1-.448 1-1v-5h12v14zM29 39c.553 0 1-.448 1-1v-2c0-.552-.447-1-1-1-.553 0-1 .448-1 1v2c0 .552.447 1 1 1z"/></g></svg>