<svg baseProfile="tiny" xmlns="http://www.w3.org/2000/svg" viewBox="0 0 60 60"><path d="M51.7 18.8v1.5c0 14.8-11.3 32-32 32-6.4 0-12.3-1.8-17.2-5.1.9.2 1.8.2 2.7.2 5.3 0 10.1-1.8 13.9-4.8-4.9-.2-9.1-3.3-10.4-7.9.7.2 1.5.2 2.2.2 1.1 0 2-.2 2.9-.4-5.1-1.1-9-5.7-9-11v-.2c1.5.9 3.3 1.3 5.1 1.5-3.1-2-4.9-5.5-4.9-9.3 0-2 .5-4 1.5-5.7 5.5 6.8 13.9 11.3 23.2 11.7-.2-.9-.4-1.6-.4-2.6 0-6.2 5.1-11.3 11.3-11.3C44 7.7 47 9 49 11.2c2.6-.5 4.9-1.5 7.1-2.7-.9 2.6-2.6 4.8-4.9 6.2 2.2-.2 4.4-.9 6.4-1.8-1.7 2.3-3.7 4.3-5.9 5.9z"/></svg>