<svg xmlns="http://www.w3.org/2000/svg" width="60" height="60" viewBox="0 0 60 60"><g fill="#010101"><path d="M49.242 43.878L37 39.306V33.68c3.754-2.876 6.25-7.87 6.25-13.55 0-.132-.014-.26-.017-.394-.898.1-1.87.185-2.88.185-3.005 0-6.315-.752-8.813-4.13-2.05 2.342-5.93 4.08-9.464 4.08-1.606 0-4.145-.815-5.946-1.596-.06.61-.098 1.23-.098 1.858 0 6.036 2.815 11.3 6.967 14.066v5.108l-12.318 4.57C7.284 45.087 5 48.355 5 52v5h50v-5c0-3.627-2.32-6.893-5.758-8.122zM30.685 13.54l.847-1.622.908 1.59c2.743 4.798 6.86 4.66 10.644 4.232C42.104 9.978 36.458 4 29.64 4c-6.366 0-11.71 5.216-13.188 12.227 1.6.75 4.213 1.642 5.624 1.642 3.383 0 7.406-2.023 8.61-4.33z"/></g></svg>