<svg xmlns="http://www.w3.org/2000/svg" xml:space="preserve" style="enable-background:new 0 0 320 320" viewBox="0 0 320 320"><style>.st1{fill:#111}</style><path id="_x32_92928" d="M0 0h320v320H0z" style="fill:#292928"/><g id="Campus_00000125602676945687166810000007760780534934866819_"><path d="M70 149c.1.1.3.1.4.1.2 0 .4-.1.5-.2.3-.2.4-.5.3-.8l-3.4-20 14.5-14.2c.2-.2.3-.6.2-.9-.1-.3-.4-.5-.7-.6l-20.1-2.9-9-18.2c-.1-.3-.4-.5-.8-.5-.3 0-.6.2-.8.5l-9 18.2-20.1 2.9c-.3 0-.6.3-.7.6-.1.3 0 .7.2.9L36 128.1l-3.4 20c-.1.3.1.6.3.8.3.2.6.2.9.1l18-9.5L70 149zm-35.3-2.3 3.2-18.8c0-.3 0-.6-.2-.8l-13.6-13.3 18.8-2.7c.3 0 .5-.2.6-.5l8.5-17 8.4 17.1c.1.3.4.4.6.5l18.8 2.7-13.6 13.3c-.2.2-.3.5-.2.8l3.2 18.8-16.8-8.9c-.1-.1-.3-.1-.4-.1-.1 0-.3 0-.4.1l-16.9 8.8zM284.2 36.9c.2.1.4.2.6.2.2 0 .5-.1.6-.3l5-5.6c.7.8 1.4 1.7 2 2.7.3.4.8.5 1.2.2.4-.3.5-.8.2-1.2-.9-1.2-1.8-2.4-2.8-3.5-2.5-2.8-5.6-5.1-8.9-6.9-2.4-1.3-4.9-2.3-7.5-2.9-2.7-.7-5.5-1-8.2-1-4.5 0-8.9.9-13 2.6-4 1.7-7.5 4.1-10.6 7.1-3.1 3.1-5.5 6.6-7.1 10.6-1.7 4.1-2.6 8.5-2.6 13s.9 8.9 2.6 13c1.7 4 4.1 7.5 7.1 10.6 3.1 3.1 6.6 5.5 10.6 7.1 4.1 1.7 8.5 2.6 13 2.6 4 0 8-.7 11.7-2.1 3.6-1.4 6.9-3.3 9.9-5.8 6-5.1 10-12.1 11.3-19.7.1-.5-.2-.9-.7-1-.5-.1-.9.2-1 .7-1.2 7.3-5 13.9-10.7 18.7-2.8 2.4-6 4.2-9.4 5.5-3.5 1.3-7.3 2-11.1 2-4.3 0-8.4-.8-12.3-2.5-3.8-1.6-7.2-3.9-10.1-6.8-2.9-2.9-5.2-6.3-6.8-10.1-1.6-3.9-2.5-8-2.5-12.3s.8-8.4 2.5-12.3c1.6-3.8 3.9-7.2 6.8-10.1 2.9-2.9 6.3-5.2 10.1-6.8 3.9-1.6 8-2.5 12.3-2.5 1.9 0 3.7.2 5.5.5L260.5 27c-.4.2-.6.8-.3 1.2l2.3 4.2-5.2 8.8-13.8 4.1c-.2.1-.4.2-.5.4-.1.2-.1.4-.1.7l5.7 18.4c.1.3.3.5.5.5l15 5.4v6.5c0 .5.4.9.9.9s.9-.4.9-.9v-7.1c0-.4-.2-.7-.6-.8l-15.1-5.5-5.3-17.1 13.3-4c.2-.1.4-.2.5-.4l5.7-9.5c.2-.3.2-.6 0-.9l-2.2-3.9 12.2-6.9c2.4.6 4.7 1.5 6.9 2.7 2.9 1.6 5.6 3.6 7.9 6l-5.1 5.8c-.3.4-.3 1 .1 1.3z" class="st1"/><path d="m293.3 39.8-10 4-11.1-7c-.3-.2-.6-.2-.8 0l-5.7 3c-.3.1-.4.4-.5.7 0 .3.1.6.4.8l9.1 6-9.3 3.7-7.2-3.2c-.3-.1-.5-.1-.8 0l-5.7 3.3c-.3.1-.4.4-.4.7 0 .3.1.6.4.7l12.9 8.3c.2.1.5.2.8.1l11-4.3-4.7 12.3c-.1.3 0 .7.2.9.2.1.4.2.6.2.1 0 .3 0 .4-.1l6.4-3.3c.1-.1.3-.2.4-.3l7.7-14 9.5-4.2c1.1-.5 1.9-1.4 2.4-2.5.4-1.1.4-2.4-.1-3.4-1.2-2.3-3.7-3.3-5.9-2.4zm-25.7.8 4-2.1 9.7 6.1-4.8 1.9-8.9-5.9zm29.8 2.2c.3.7.3 1.4.1 2.1-.3.7-.8 1.2-1.5 1.5l-9.8 4.3c-.2.1-.3.2-.4.4l-7.7 14.1-4.2 2.2 4.6-12c.1-.3 0-.7-.2-.9-.2-.2-.4-.2-.6-.2-.1 0-.2 0-.3.1L265 59.2l-11.3-7.3 4.1-2.3 7.1 3.2c.2.1.4.1.7 0l11.1-4.4h.1l6.8-2.7 10.4-4.1c1.3-.7 2.8-.1 3.4 1.2zM29.6 190h8c.5 0 .9-.4.9-.9v-5.2c0-.5-.4-.9-.9-.9h-8c-.5 0-.9.4-.9.9v5.2c.1.5.5.9.9.9zm.9-5.2h6.3v3.5h-6.3v-3.5zM138.2 307.4c.2.2.4.3.6.3s.4-.1.6-.3c2.9-2.9 4.5-6.8 4.5-11s-1.6-8-4.5-11c-.3-.3-.9-.3-1.2 0s-.3.9 0 1.2c2.6 2.6 4 6.1 4 9.8 0 3.7-1.4 7.2-4 9.8-.3.3-.3.8 0 1.2zM156.6 309.1c.1.4.5.6.8.6h.3l10.4-3.5c.4-.1.7-.6.5-1.1-.1-.4-.6-.7-1.1-.5l-10.4 3.5c-.4.1-.6.6-.5 1zM150.5 302.8c.4 0 .7-.2.8-.6l3.5-10.4c.1-.4-.1-.9-.5-1.1s-.9.1-1.1.5l-3.5 10.4c-.1.4.1.9.5 1.1.1.1.2.1.3.1zM151.7 307.2c-.9-.9-2.4-.9-3.3 0-.9.9-.9 2.4 0 3.3.4.4 1 .7 1.6.7.6 0 1.2-.2 1.6-.7 1-.9 1-2.4.1-3.3zm-1.2 2.1c-.1.1-.3.2-.4.2-.2 0-.3-.1-.4-.2-.2-.2-.2-.6 0-.9.1-.1.3-.2.4-.2s.3.1.4.2c.2.3.2.7 0 .9zM126.4 298.6c-.4.4-.7 1-.7 1.6s.2 1.2.7 1.6c.4.4 1 .7 1.7.7.6 0 1.2-.2 1.6-.7.4-.4.7-1 .7-1.6 0-.6-.2-1.2-.7-1.6-.4-.4-1-.7-1.6-.7-.7 0-1.3.2-1.7.7zm2.3 1.6c0 .2-.1.3-.2.4-.1.1-.3.2-.4.2-.2 0-.3-.1-.4-.2-.1-.1-.2-.3-.2-.4 0-.2.1-.3.2-.4.1-.1.3-.2.4-.2.2 0 .3.1.4.2s.2.2.2.4zM164.5 298.2c.9-.9.9-2.4 0-3.3-.4-.4-1-.7-1.6-.7-.6 0-1.2.2-1.6.7-.9.9-.9 2.4 0 3.3.5.5 1.1.7 1.6.7.6 0 1.2-.2 1.6-.7zm-2.1-1.2c-.2-.2-.2-.6 0-.9.1-.1.3-.2.4-.2.2 0 .3.1.4.2.2.2.2.6 0 .9-.1.2-.5.2-.8 0zM119.4 82.6l-.9-10.2c0-.4-.3-.7-.7-.8-.4-.1-.8.1-.9.5l-4 8.1-2.7 2.7-2-25.4c-.2-2.8-1.4-5.4-3.5-7.3-2.1-1.9-4.7-3-7.6-3-2.8 0-5.5 1.1-7.6 3-2.1 1.9-3.3 4.5-3.5 7.3l-1.9 25.2-2.4-3c-1.1-1.3-3.2-2.7-4.9-3l-11-2.2c-.4-.1-.7.1-.9.4-.2.3-.1.7.1 1l4 4 15 24.2c1.2 2 3.2 3.8 5.7 5.2 2.5 1.4 5.1 2.2 7.4 2.2h4.1c2.6 0 5.6-1.7 6.9-3.9l9.1-15.5c1.5-2.5 2.4-6.7 2.2-9.5zM93.9 94.9V81.5h6.5v11.1l-4.6 4.7-1.9-2.4zm-7.1-24.3h5.4v9.2h-6.1l.7-9.2zm.8-11h4.6v9.2h-5.3l.7-9.2zm20.6 20.2h-6.1v-9.2h5.4l.7 9.2zm-.8-10.9h-5.3v-9.2h4.6l.7 9.2zm-7 0h-6.5v-9.2h6.5v9.2zm-6.5 1.7h6.5v9.2h-6.5v-9.2zm8.2 10.9h6.2l.2 2.9-6.5 6.5v-9.4zm4.4-24v.5h-4.4v-7.8c.5.3 1 .7 1.4 1.1 1.8 1.6 2.8 3.8 3 6.2zm-6.1-8.2v8.6h-6.5v-8.6c1-.4 2.1-.6 3.2-.6 1.2 0 2.3.2 3.3.6zm-12.6 8.2c.2-2.4 1.2-4.6 2.9-6.2.4-.4.9-.8 1.4-1.1V58h-4.4l.1-.5zm-1.8 24h6.2v11.2l-6.5-8.2.3-3zm11.2 28.3c-2 0-4.4-.7-6.6-1.9-2.2-1.3-4-2.9-5.1-4.6L70.6 78.8c0-.1-.1-.1-.1-.2l-2.1-2.1 8.2 1.6c1.3.3 3.1 1.4 3.9 2.4l18.6 23.6 1.1 5.6-3 .1zm9.5-3.1c-.9 1.5-2.9 2.8-4.7 3.1l-1.2-6.1c0-.1-.1-.3-.2-.4l-3.7-4.7 17.3-17.3.2-.2 2.8-5.5.7 7.3c.2 2.4-.6 6.3-1.9 8.4l-9.3 15.4zM23.1 249.3c0-.5-.4-.9-.9-.9s-.9.4-.9.9v6c0 .5.4.9.9.9s.9-.4.9-.9v-6zM22.3 261.9c-.5 0-.9.4-.9.9v6c0 .5.4.9.9.9s.9-.4.9-.9v-6c-.1-.5-.4-.9-.9-.9zM32.9 259c0-.5-.4-.9-.9-.9h-6c-.5 0-.9.4-.9.9s.4.9.9.9h6c.5 0 .9-.4.9-.9zM12.6 258.2c-.5 0-.9.4-.9.9s.4.9.9.9h6c.5 0 .9-.4.9-.9s-.4-.9-.9-.9h-6zM49.2 153.7c0-.5-.4-.9-.9-.9s-.9.4-.9.9v6c0 .5.4.9.9.9s.9-.4.9-.9v-6zM49.2 167.2c0-.5-.4-.9-.9-.9s-.9.4-.9.9v6c0 .5.4.9.9.9s.9-.4.9-.9v-6zM52.1 164.3h6c.5 0 .9-.4.9-.9s-.4-.9-.9-.9h-6c-.5 0-.9.4-.9.9s.4.9.9.9zM44.6 164.3c.5 0 .9-.4.9-.9s-.4-.9-.9-.9h-6c-.5 0-.9.4-.9.9s.4.9.9.9h6zM297.8 170.2c0-.5-.4-.9-.9-.9s-.9.4-.9.9v6c0 .5.4.9.9.9s.9-.4.9-.9v-6zM296.9 182.8c-.5 0-.9.4-.9.9v6c0 .5.4.9.9.9s.9-.4.9-.9v-6c0-.5-.4-.9-.9-.9zM300.7 179.1c-.5 0-.9.4-.9.9s.4.9.9.9h6c.5 0 .9-.4.9-.9s-.4-.9-.9-.9h-6zM293.2 180.8c.5 0 .9-.4.9-.9s-.4-.9-.9-.9h-6c-.5 0-.9.4-.9.9s.4.9.9.9h6zM82.2 29.9c.5 0 .9-.4.9-.9v-6c0-.5-.4-.9-.9-.9s-.9.4-.9.9v6c0 .5.4.9.9.9zM81.3 42.5c0 .5.4.9.9.9s.9-.4.9-.9v-6c0-.5-.4-.9-.9-.9s-.9.4-.9.9v6zM91.9 33.6c.5 0 .9-.4.9-.9s-.4-.9-.9-.9h-6c-.5 0-.9.4-.9.9s.4.9.9.9h6zM78.4 33.6c.5 0 .9-.4.9-.9s-.4-.9-.9-.9h-6c-.5 0-.9.4-.9.9s.4.9.9.9h6zM213 23.9c.5 0 .9-.4.9-.9v-6c0-.5-.4-.9-.9-.9s-.9.4-.9.9v6c.1.5.4.9.9.9zM212.2 36.5c0 .5.4.9.9.9s.9-.4.9-.9v-6c0-.5-.4-.9-.9-.9s-.9.4-.9.9v6zM222.8 27.7c.5 0 .9-.4.9-.9s-.4-.9-.9-.9h-6c-.5 0-.9.4-.9.9s.4.9.9.9h6zM209.3 27.7c.5 0 .9-.4.9-.9s-.4-.9-.9-.9h-6c-.5 0-.9.4-.9.9s.4.9.9.9h6zM112.3 191c0-.4-.2-.7-.6-.8l-7.2-2.4-2.4-7.2c-.1-.3-.4-.6-.8-.6s-.7.2-.8.6l-2.4 7.2-7.2 2.4c-.3.1-.6.4-.6.8s.2.7.6.8l7.2 2.4 2.4 7.2c.1.3.4.6.8.6s.7-.2.8-.6l2.4-7.2 7.2-2.4c.3-.1.6-.5.6-.8zm-8.8 1.7c-.3.1-.4.3-.5.5l-1.8 5.2-1.8-5.2c-.1-.3-.3-.4-.5-.5l-5.2-1.8 5.2-1.8c.3-.1.4-.3.5-.5l1.8-5.2 1.8 5.2c.1.3.3.4.5.5l5.2 1.8-5.2 1.8zM205.2 133.3l-2.4-7.2c-.1-.3-.4-.6-.8-.6s-.7.2-.8.6l-2.4 7.2-7.2 2.4c-.3.1-.6.4-.6.8s.2.7.6.8l7.2 2.4 2.4 7.2c.1.3.4.6.8.6s.7-.2.8-.6l2.4-7.2 7.2-2.4c.3-.1.6-.4.6-.8s-.2-.7-.6-.8l-7.2-2.4zm-.9 5c-.3.1-.4.3-.5.5L202 144l-1.8-5.2c-.1-.3-.3-.4-.5-.5l-5.2-1.8 5.2-1.8c.3-.1.4-.3.5-.5l1.8-5.2 1.8 5.2c.1.3.3.4.5.5l5.2 1.8-5.2 1.8zM294.6 290.7l-7.2-2.4-2.4-7.2c-.1-.3-.4-.6-.8-.6s-.7.2-.8.6l-2.4 7.2-7.2 2.4c-.3.1-.6.4-.6.8s.2.7.6.8l7.2 2.4 2.4 7.2c.1.3.4.6.8.6s.7-.2.8-.6l2.4-7.2 7.2-2.4c.3-.1.6-.4.6-.8 0-.3-.3-.7-.6-.8zm-8.2 2.6c-.3.1-.4.3-.5.5l-1.8 5.2-1.8-5.2c-.1-.3-.3-.4-.5-.5l-5.2-1.8 5.2-1.8c.3-.1.4-.3.5-.5l1.8-5.2 1.8 5.2c.1.3.3.4.5.5l5.2 1.8-5.2 1.8zM133.9 43.5c0-.4-.2-.7-.6-.8l-7.2-2.4-2.4-7.2c-.1-.3-.4-.6-.8-.6s-.7.2-.8.6l-2.4 7.2-7.2 2.4c-.3.1-.6.4-.6.8s.2.7.6.8l7.2 2.4L122 54c.1.3.4.6.8.6s.7-.2.8-.6l2.4-7.2 7.2-2.4c.4-.2.7-.5.7-.9zm-8.8 1.8c-.3.1-.4.3-.5.5l-1.8 5.2-1.8-5.2c-.1-.3-.3-.4-.5-.5l-5.2-1.8 5.2-1.8c.3-.1.4-.3.5-.5l1.8-5.2 1.8 5.2c.1.3.3.4.5.5l5.2 1.8-5.2 1.8zM303.9 256c0-3-2.2-5.4-5.1-5.9v-1.7c0-3.3-2.7-5.9-5.9-5.9h-.4c-.1-2.2-.6-4.3-1.4-6.4-.9-2.2-2.3-4.2-4-5.9-1.7-1.7-3.7-3-5.9-4-2.3-1-4.7-1.5-7.2-1.5s-4.9.5-7.2 1.5c-2.2.9-4.2 2.3-5.9 4-1.7 1.7-3 3.7-4 5.9-.9 2-1.3 4.2-1.4 6.4h-.5c-3.3 0-5.9 2.7-5.9 5.9v1.7c-2.9.4-5.1 2.9-5.1 5.9 0 3 2.2 5.4 5.1 5.9v1.7c0 3.3 2.7 5.9 5.9 5.9h5.1c.5 0 .9-.4.9-.9v-25.3c0-.5-.4-.9-.9-.9h-2.9c.2-4.2 1.9-8.1 4.9-11.1 3.2-3.2 7.4-4.9 11.9-4.9s8.7 1.8 11.9 4.9c3 3 4.7 6.9 4.9 11.1h-2.9c-.5 0-.9.4-.9.9v25.3c0 .5.4.9.9.9h5.1c3.3 0 5.9-2.7 5.9-5.9v-1.7c2.8-.4 5-2.9 5-5.9zm-58.2 0c0-2 1.4-3.7 3.4-4.1v8.3c-2-.4-3.4-2.1-3.4-4.2zm13.5 11.8H255c-2.3 0-4.2-1.9-4.2-4.2v-15.2c0-2.3 1.9-4.2 4.2-4.2h4.2v23.6zm37.9-4.2c0 2.3-1.9 4.2-4.2 4.2h-4.2v-23.6h4.2c2.3 0 4.2 1.9 4.2 4.2v15.2zm1.7-3.4v-8.3c1.9.4 3.4 2.1 3.4 4.1 0 2.1-1.4 3.8-3.4 4.2zM18.5 32.9c-.5 0-.9.4-.9.9v25.1L8.4 33.5c-.1-.4-.5-.6-.9-.5-.5 0-.8.4-.8.8v29.9c0 .5.4.9.9.9s.9-.4.9-.9V38.6L17.7 64c.1.3.4.6.8.6h.1c.4-.1.7-.4.7-.8v-30c.1-.5-.3-.9-.8-.9zM37.2 33c-.5 0-.9.4-.9.9v24c0 2.8-2.2 5-5 5s-5-2.2-5-5v-24c0-.5-.4-.9-.9-.9s-.9.4-.9.9v24a6.7 6.7 0 0 0 13.4 0v-24c.2-.5-.2-.9-.7-.9zM312.3 30.6c-.5 0-.9.4-.9.9v3.3c0 .5.4.9.9.9s.9-.4.9-.9v-3.3c0-.5-.4-.9-.9-.9zM312.3 60.2c-.5 0-.9.4-.9.9v3.3c0 .5.4.9.9.9s.9-.4.9-.9v-3.3c0-.5-.4-.9-.9-.9zM162.5 7.8c.1 0 0 0 0 0 .9-.9.9-2.4 0-3.3-.9-.9-2.4-.9-3.3 0-.4.4-.7 1-.7 1.6s.2 1.2.7 1.6c.4.4 1 .7 1.6.7s1.3-.1 1.7-.6zm-2.2-1.6c0-.2.1-.3.2-.4.1-.1.3-.2.4-.2s.3.1.4.2c.2.2.2.6 0 .9-.1.1-.3.2-.4.2-.2 0-.3-.1-.4-.2-.2-.2-.2-.4-.2-.5zM20.9 93.7l7.2 2.4 2.4 7.2c.1.3.4.6.8.6s.7-.2.8-.6l2.4-7.2 7.2-2.4c.3-.1.6-.4.6-.8s-.2-.7-.6-.8l-7.2-2.4-2.4-7.2c-.1-.3-.4-.6-.8-.6s-.7.2-.8.6l-2.4 7.2-7.2 2.4c-.3.1-.6.4-.6.8.1.4.3.7.6.8zm8.2-2.6c.3-.1.4-.3.5-.5l1.8-5.2 1.8 5.2c.1.3.3.4.5.5l5.2 1.8-5.2 1.8c-.3.1-.4.3-.5.5l-1.8 5.2-1.8-5.2c-.1-.3-.3-.4-.5-.5l-5.2-1.8 5.2-1.8zM168.8 20.5l-1.3-1.3c-.4-.4-1-.4-1.3 0l-7.9 7.9c-.4.4-.4 1 0 1.3l1.3 1.3-14.4 14.4-1.3-1.3c-.4-.4-1-.4-1.3 0l-7.9 7.9c-.4.4-.4 1 0 1.3l1.3 1.3-1.3 1.3c-2.8 2.8-4.3 6.5-4.3 10.5s1.5 7.7 4.3 10.5 6.5 4.4 10.5 4.4 7.7-1.5 10.5-4.4l1.3-1.3 1.3 1.3c.2.2.4.3.7.3s.5-.1.7-.3l7.9-7.9c.4-.4.4-1 0-1.3l-1.3-1.3 14.4-14.4L182 52c.2.2.4.3.7.3s.5-.1.7-.3l7.9-7.9c.2-.2.3-.4.3-.7s-.1-.5-.3-.7l-1.3-1.3 1.3-1.3c2.8-2.8 4.3-6.5 4.3-10.5s-1.5-7.7-4.3-10.5-6.5-4.3-10.5-4.3-7.7 1.5-10.5 4.3l-1.5 1.4zm11.8-3.7c3.5 0 6.7 1.3 9.2 3.8 2.4 2.5 3.8 5.7 3.8 9.2s-1.3 6.7-3.8 9.2l-1.3 1.3-3.3-3.3c-.4-.4-1-.4-1.3 0l-3.3 3.3-10.5-10.5 3.3-3.3c.2-.2.3-.4.3-.7 0-.3-.1-.5-.3-.7l-3.3-3.3 1.3-1.3c2.4-2.4 5.7-3.7 9.2-3.7zm.6 31.9-3.3-3.3 6.5-6.5 3.3 3.3 1.3 1.3-6.5 6.5-1.3-1.3zm-23.6 23.6-3.3-3.3 6.5-6.5 4.6 4.6-6.5 6.5-1.3-1.3zm-12.4 5.8c-3.5 0-6.7-1.3-9.2-3.8-2.4-2.4-3.8-5.7-3.8-9.2 0-3.5 1.3-6.7 3.8-9.2l1.3-1.3 3.3 3.3c.2.2.4.3.7.3.3 0 .5-.1.7-.3l3.3-3.3 10.5 10.5-3.3 3.3c-.2.2-.3.4-.3.7 0 .3.1.5.3.7l3.3 3.3-1.3 1.3c-2.6 2.3-5.9 3.7-9.3 3.7zm-.7-32 3.3 3.3-3.3 3.3-3.3 3.3-3.3-3.3-1.3-1.3 6.5-6.5 1.4 1.2zm17.1 14.4c-.2-.2-.4-.3-.7-.3-.3 0-.5.1-.7.3l-3.3 3.3-10.5-10.5 3.3-3.3c.2-.2.3-.4.3-.7 0-.3-.1-.5-.3-.7l-3.3-3.3 14.4-14.4 3.3 3.3c.2.2.4.3.7.3.3 0 .5-.1.7-.3l3.3-3.3 10.5 10.5-3.3 3.3c-.2.2-.3.4-.3.7 0 .3.1.5.3.7l3.3 3.3-14.4 14.4-3.3-3.3zm6.5-38 3.3 3.3-6.5 6.5-4.6-4.6 6.5-6.5 1.3 1.3zM108.8 222.9c.3-2.9-.5-5.2-2.3-6.3-1.4-.9-3.3-1-5.2-.1-2 .9-3.8 2.6-5.4 4.9-2.9 4.4-5.7 6.5-7.6 7.4-2.3 1.2-4.3 1.3-5.8.4-1.6-.9-2.4-3-2.4-5.8.1-3.4 1.5-7.8 4-12.5 1.8-3.3 2.8-6.4 3-9 .2-2.5-.4-4.5-1.6-5.9-1.9-2.1-5.1-2.6-8.7-1.2-2.2.9-4.5 2.4-6.6 4.5-2.3 2.3-4.4 5.2-6.1 8.6-1.9 3.8-3.4 8.1-4.4 12.9-1.1 5.2-1.6 10.9-1.5 17h-1.7c-.5 0-.9.4-.9.9v15.5c0 .5.4.9.9.9h5.2c.5 0 .9-.4.9-.9v-9.1c1.6 2.1 4.1 3.5 6.9 3.5 4.7 0 8.6-3.9 8.6-8.6 0-4.8-3.9-8.6-8.6-8.6-4 0-7.4 2.8-8.3 6.5H60c-.1-6 .4-11.6 1.5-16.6 1-4.6 2.4-8.8 4.2-12.5 3.1-6.1 7.4-10.6 11.8-12.3 2.9-1.1 5.4-.8 6.8.7.9 1.1 1.4 2.7 1.2 4.7-.2 2.4-1.1 5.2-2.8 8.3-2.7 5-4.2 9.6-4.2 13.3-.1 3.4 1.1 6 3.2 7.3 2 1.2 4.7 1.1 7.5-.3 2.9-1.5 5.8-4.2 8.2-8 2.9-4.4 6.4-5.6 8.3-4.4 1.2.8 1.7 2.4 1.5 4.7-.4 3.7-2.6 7.8-4.3 10.6 0 0 0 .1-.1.1-.3.8-.4 1.8-.1 2.7.3 1 1 1.7 1.8 2.1.8.4 1.7.4 2.5.2.9-.3 1.5-.9 1.9-1.7.2-.4 0-.9-.5-1.1-.4-.2-.9 0-1.1.5-.4 1-1.4.9-2.1.6-.8-.3-1.2-1.6-.8-2.5 2.6-4.3 4.1-8.2 4.4-11.4zm-39.3 10.2c3.8 0 6.9 3.1 6.9 6.9s-3.1 6.9-6.9 6.9c-3.8 0-6.9-3.1-6.9-6.9s3.1-6.9 6.9-6.9zm-8.6 20.3h-3.5v-13.8h3.5v13.8z" class="st1"/><path d="M69.5 243.5c1.9 0 3.4-1.5 3.4-3.4s-1.5-3.4-3.4-3.4-3.4 1.5-3.4 3.4 1.5 3.4 3.4 3.4zm0-5.2c1 0 1.7.8 1.7 1.7 0 1-.8 1.7-1.7 1.7-1 0-1.7-.8-1.7-1.7 0-.9.8-1.7 1.7-1.7zM199.4 293.4s.1 0 0 0c.1 0 .1 0 0 0 .1 0 .1 0 .2-.1h.2l.1-.1L230 263l7.8-7.8c1.1-1.1 1.7-2.6 1.7-4.2s-.6-3.1-1.7-4.2l-4.2-4.2c-2.3-2.3-6.1-2.3-8.4 0l-4 4-3.8 3.8-30.2 30.2-.1.1v.4l-5 16.3c-.1.3 0 .7.2.9.2.2.4.3.7.3h.3l16.1-5.2zm-13.2-3.8 2-6.6 1.4 1.4c.2.2.4.3.7.3h5.3v5.3c0 .3.1.5.3.7l1.4 1.4-6.6 2-4.5-4.5zm45.6-31-2.4 2.4-10-10 2.4-2.4 10 10zm-35.6 24.2h-5.5l-1.6-1.6 28.8-28.9 4.3 4.3-26 26.2zm1.4 6.8v-5.5l26.1-26.1 4.3 4.3-28.8 28.9-1.6-1.6zm35.5-32.4-10-10 3.3-3.3c1.6-1.6 4.2-1.6 5.8 0l4.2 4.2c.8.8 1.2 1.8 1.2 2.9 0 1.1-.4 2.1-1.2 2.9l-3.3 3.3zm-47.5 34.4 3.1 3.1-4.5 1.4 1.4-4.5zM231.7 226.4h.2l53.2-14.6h.1s.1 0 .1-.1l9.6-2.6c.3-.1.6-.4.6-.7 0-.2 0-.3-.1-.4-1.2-3.9-2.7-7.6-4.6-11.2-1.9-3.7-4.2-7.3-6.7-10.6-5.4-7-11.9-12.8-19.5-17.2-.4-.2-.9-.1-1.2.3l-4.4 7.5c-.1.1-.1.1-.1.2s-.1.1-.1.2l-21.1 36.1-7 11.9c-.2.3-.1.7.1.9.4.2.6.3.9.3zm13.6-19.3c1.9 1.1 2.6 3.6 1.5 5.5-.8 1.3-2.1 2-3.5 2-.7 0-1.4-.2-2-.5l-1.4-.8 4.1-7 1.3.8zm-4.9 8.5c.9.5 1.9.8 2.9.8 2 0 3.9-1 5-2.8 1.6-2.7.7-6.3-2.1-7.9l-1.4-.8 15.4-26.3c5.4 3.3 10.5 8.1 14.8 14.1 4.1 5.6 7.3 11.9 9 17.7l-12.2 3.3-.7-2.1c-.5-2-2-3.9-4-5-2-1.2-4.3-1.5-6.4-1-2 .5-3.9 2-5.1 4-1.2 2-1.5 4.3-1 6.4l.7 2.3-21.9 6 5.5-9.4 1.5.7zm15.9-.2c-.4-1.6-.1-3.5.8-5.1.9-1.6 2.4-2.8 4-3.2 1.6-.4 3.5-.1 5.1.8 1.6.9 2.8 2.4 3.2 4v.1l.7 2.1-13.1 3.6-.7-2.3zm29.3-5.5c-1.7-6.1-5-12.5-9.2-18.3-4.5-6.1-9.8-11.1-15.4-14.6l3.6-6.2c7.1 4.2 13.2 9.7 18.3 16.3 2.5 3.2 4.7 6.7 6.5 10.3 1.7 3.3 3.1 6.7 4.2 10.2l-8 2.3z" class="st1"/><path d="M258.6 200c1.2.7 2.5 1 3.8 1 2.6 0 5.1-1.3 6.5-3.7 2.1-3.6.9-8.2-2.7-10.3-3.6-2.1-8.2-.9-10.3 2.7-1 1.7-1.3 3.8-.8 5.7s1.8 3.6 3.5 4.6zm3.8-.7c-1 0-2-.3-2.9-.8-1.3-.8-2.3-2.1-2.7-3.6-.4-1.5-.2-3.1.6-4.4 1.1-1.9 3.1-2.9 5.1-2.9 1 0 2 .3 2.9.8 2.8 1.6 3.7 5.2 2.1 8-1.1 1.9-3.1 2.9-5.1 2.9zM153.4 88.6h-16.7c-.5 0-.9.4-.9.9V97h-10.3c-.5 0-.9.4-.9.9v55.8c0 .5.4.9.9.9H170.1c.5 0 .9-.4.9-.9v-36.5l9.5 36.7c.1.4.4.6.8.6h.2l8.1-2.1c.5-.1.7-.6.6-1l-14-54.1c-.1-.5-.6-.7-1-.6l-8.1 2.1c-.2.1-.4.2-.5.4-.1.2-.1.4-.1.7l2.9 11.1h-15.1V89.5c0-.5-.4-.9-.9-.9zm15.9 64.3h-15v-40.2h15v40.2zm-31.8-55v-7.5h15v62.5h-15v-55zm-1.7 55h-9.5V98.7h9.5v54.2zm39.1-54.3 13.5 52.4-6.5 1.7-13.5-52.4 6.5-1.7z" class="st1"/><path d="M159 149h5.6c.5 0 .9-.4.9-.9s-.4-.9-.9-.9H159c-.5 0-.9.4-.9.9s.4.9.9.9zM145 132.2c.5 0 .9-.4.9-.9V95.1c0-.5-.4-.9-.9-.9s-.9.4-.9.9v36.3c.1.4.5.8.9.8zM147.8 136.1h-5.6c-.5 0-.9.4-.9.9v11.2c0 .5.4.9.9.9h5.6c.5 0 .9-.4.9-.9V137c0-.5-.4-.9-.9-.9zm-4.7 11.2v-9.5h3.9v9.5h-3.9zM161.8 143.4c.5 0 .9-.4.9-.9v-25.1c0-.5-.4-.9-.9-.9s-.9.4-.9.9v25.1c0 .5.4.9.9.9zM131.1 146.2c.5 0 .9-.4.9-.9v-39.1c0-.5-.4-.9-.9-.9s-.9.4-.9.9v39.1c0 .5.4.9.9.9zM226.6 116.4c-1.1 2.5-1.6 5.2-1.6 8s.5 5.5 1.6 8c1 2.4 2.5 4.6 4.4 6.5 1.9 1.9 4.1 3.4 6.5 4.4 2.5 1.1 5.2 1.6 8 1.6s5.5-.5 8-1.6c2.4-1 4.6-2.5 6.5-4.4 1.9-1.9 3.4-4.1 4.4-6.5 1.1-2.5 1.6-5.2 1.6-8s-.5-5.5-1.6-8c-1-2.4-2.5-4.6-4.4-6.5-1.9-1.9-4.1-3.4-6.5-4.4-2.5-1.1-5.2-1.6-8-1.6s-5.5.5-8 1.6c-2.4 1-4.6 2.5-6.5 4.4-1.8 1.9-3.3 4.1-4.4 6.5zm19-10.8c5 0 9.8 2 13.3 5.5 3.6 3.6 5.5 8.3 5.5 13.3s-2 9.8-5.5 13.3c-3.6 3.6-8.3 5.5-13.3 5.5s-9.8-2-13.3-5.5c-3.6-3.6-5.5-8.3-5.5-13.3s2-9.8 5.5-13.3c3.5-3.6 8.2-5.5 13.3-5.5zM244.7 149.7v5.6c0 .5.4.9.9.9s.9-.4.9-.9v-5.6c0-.5-.4-.9-.9-.9s-.9.5-.9.9zM264.5 142.1c-.3-.3-.9-.3-1.2 0-.3.3-.3.9 0 1.2l4.2 4.2c.2.2.4.3.6.3.2 0 .4-.1.6-.3.3-.3.3-.9 0-1.2l-4.2-4.2zM270.9 123.6c-.5 0-.9.4-.9.9s.4.9.9.9h5.6c.5 0 .9-.4.9-.9s-.4-.9-.9-.9h-5.6zM268.7 101.3c-.3-.3-.9-.3-1.2 0l-4.2 4.2c-.3.3-.3.9 0 1.2.2.2.4.3.6.3.2 0 .4-.1.6-.3l4.2-4.2c.3-.3.3-.9 0-1.2zM244.7 93.5v5.6c0 .5.4.9.9.9s.9-.4.9-.9v-5.6c0-.5-.4-.9-.9-.9s-.9.4-.9.9zM223.7 101.3c-.3-.3-.9-.3-1.2 0s-.3.9 0 1.2l4.2 4.2c.2.2.4.3.6.3.2 0 .4-.1.6-.3.3-.3.3-.9 0-1.2l-4.2-4.2zM214.6 123.6c-.5 0-.9.4-.9.9s.4.9.9.9h5.6c.5 0 .9-.4.9-.9s-.4-.9-.9-.9h-5.6zM226.7 142.1l-4.2 4.2c-.3.3-.3.9 0 1.2.2.2.4.3.6.3.2 0 .4-.1.6-.3l4.2-4.2c.3-.3.3-.9 0-1.2-.3-.3-.9-.3-1.2 0zM189.9 50.4c-1.9 1.9-3.5 4.1-4.5 6.6-1.1 2.6-1.7 5.3-1.7 8.1v6.1c0 3 2.5 5.5 5.6 5.5.3 0 .6 0 .9-.1l13.9 39.2c.1.3.4.6.8.6s.7-.2.8-.6l13.9-39.2c.3 0 .6.1.9.1 3.1 0 5.6-2.4 5.6-5.5v-6.1c0-2.8-.6-5.5-1.7-8.1-1.1-2.5-2.6-4.7-4.5-6.6-1.9-1.9-4.2-3.4-6.7-4.4-2.6-1.1-5.4-1.6-8.2-1.6-2.9 0-5.6.5-8.2 1.6-2.7 1-4.9 2.5-6.9 4.4zm34.5 20.8c0 2-1.7 3.7-3.8 3.7-.4 0-.8-.1-1.1-.2h-.2c-1.5-.5-2.5-1.9-2.5-3.5 0-2.2-1.8-3.9-4-3.9s-4 1.8-4 3.9v3.1c0 2-1.7 3.7-3.8 3.7-2.1 0-3.8-1.7-3.8-3.7v-3.1c0-2.2-1.8-3.9-4-3.9s-4 1.8-4 3.9c0 1.5-1 2.9-2.4 3.4h-.3c-.1 0-.2.1-.2.1-.3.1-.6.1-.9.1-2.1 0-3.8-1.7-3.8-3.7V65c0-5.1 2-9.8 5.7-13.4 3.7-3.6 8.6-5.6 13.8-5.6 5.2 0 10.1 2 13.8 5.6 3.7 3.6 5.7 8.4 5.7 13.4l-.2 6.2zm-29.6 0c0-1.2 1-2.2 2.3-2.2 1.2 0 2.3 1 2.3 2.2v3.1c0 3 2.5 5.5 5.6 5.5 3.1 0 5.6-2.4 5.6-5.5v-3.1c0-1.2 1-2.2 2.3-2.2 1.2 0 2.3 1 2.3 2.2 0 2.1 1.2 3.9 3 4.8l-13.1 36.9L191.8 76c1.8-.9 3-2.7 3-4.8zM112.4 160.4V121.8c0-.3-.1-.5-.4-.7-.2-.2-.5-.2-.8-.1L82 133c-.3.1-.5.4-.5.8v31.1h-7.1c-4.9 0-8.8 4-8.8 8.8 0 4.9 4 8.8 8.8 8.8 2.3 0 4.5-1 6.3-2.8 1.6-1.7 2.6-3.9 2.6-6.1v-30l27.6-11.3v21.8h-7.1c-4.9 0-8.8 4-8.8 8.8 0 4.9 4 8.8 8.8 8.8 2.3 0 4.5-1 6.3-2.8 1.6-1.7 2.6-3.9 2.6-6.1l-.3-2.4zm-31 13.3c0 1.7-.8 3.5-2.1 4.9-1.4 1.4-3.2 2.2-5 2.2-3.9 0-7.1-3.2-7.1-7.1s3.2-7.1 7.1-7.1h7.1v7.1zm1.7-31.9v-7.5l27.6-11.3v7.5l-27.6 11.3zm27.6 21.2c0 1.7-.8 3.5-2.1 4.9-1.4 1.4-3.2 2.2-5 2.2-3.9 0-7.1-3.2-7.1-7.1s3.2-7.1 7.1-7.1h7.1v7.1zM215.2 173.1c-4.5 0-8.2 3.7-8.2 8.2 0 4.5 3.7 8.2 8.2 8.2s8.2-3.7 8.2-8.2c.1-4.5-3.6-8.2-8.2-8.2zm0 14.7c-3.6 0-6.5-2.9-6.5-6.5s2.9-6.5 6.5-6.5 6.5 2.9 6.5 6.5-2.9 6.5-6.5 6.5z" class="st1"/><path d="M230 201.7c2.2-1.6 3.7-4 4.1-6.8.4-2.7-.2-5.5-1.9-7.7-.1-.1-.2-.3-.3-.4.2 0 .4-.1.5-.2 5.4-1.8 8.4-7.6 6.6-13-.9-2.6-2.7-4.8-5.2-6-2.5-1.3-5.3-1.5-7.9-.6-.2.1-.3.1-.5.2v-.5c0-5.7-4.6-10.4-10.4-10.4-5.7 0-10.4 4.6-10.4 10.4v.5c-.2-.1-.3-.1-.5-.2-5.4-1.8-11.3 1.2-13 6.7-.9 2.6-.6 5.4.6 7.9 1.3 2.5 3.4 4.3 6 5.1.2.1.3.1.5.2-.1.1-.2.3-.3.4-3.4 4.6-2.3 11.1 2.3 14.5 1.8 1.3 3.9 2 6.1 2 .5 0 1.1 0 1.6-.1 2.7-.4 5.1-1.9 6.8-4.1.1-.1.2-.3.3-.5.1.2.2.3.3.5 1.6 2.2 4 3.7 6.8 4.1 2.9.2 5.7-.4 7.9-2zm-13.1-3.3c-.4-.5-.7-1-.9-1.6-.1-.3-.4-.5-.8-.5-.3 0-.6.2-.8.5-.3.6-.6 1.1-.9 1.6-1.4 1.9-3.4 3.1-5.6 3.5-2.3.4-4.6-.2-6.4-1.5-3.9-2.8-4.7-8.2-1.9-12.1.3-.5.8-.9 1.2-1.4.3-.2.3-.6.2-.9s-.4-.5-.7-.6c-.6-.1-1.2-.2-1.8-.4-2.2-.7-4-2.2-5-4.3-1.1-2.1-1.2-4.4-.5-6.6 1.2-3.7 4.6-6 8.2-6 .9 0 1.8.1 2.7.4.6.2 1.1.4 1.7.7.3.2.7.1.9 0 .3-.2.4-.5.3-.9-.1-.6-.2-1.2-.2-1.8 0-4.8 3.9-8.7 8.6-8.7 4.8 0 8.6 3.9 8.6 8.7 0 .6-.1 1.2-.2 1.8-.1.3.1.7.3.9.3.2.6.2.9 0 .5-.3 1.1-.6 1.7-.7 4.5-1.5 9.4 1 10.9 5.6 1.5 4.5-1 9.4-5.6 10.9-.6.2-1.2.3-1.8.4-.3 0-.6.3-.7.6-.1.3 0 .7.2.9.5.4.9.9 1.2 1.4 1.4 1.9 1.9 4.2 1.5 6.4-.4 2.3-1.6 4.3-3.5 5.6a8.25 8.25 0 0 1-6.4 1.5c-2-.3-4-1.6-5.4-3.4zM172.7 199.3c3.5 0 6.4-2.9 6.4-6.4v-22.2c0-3.5-2.9-6.4-6.4-6.4h-44.3c-3.5 0-6.4 2.9-6.4 6.4v22.2c0 3.5 2.9 6.4 6.4 6.4h12.1v10.2c0 .3.2.7.5.8.1 0 .2.1.3.1.2 0 .4-.1.6-.3l10.8-10.8h20zm-20.9-1.5-9.6 9.6v-9c0-.5-.4-.9-.9-.9h-12.9c-2.6 0-4.7-2.1-4.7-4.7v-22.2c0-2.6 2.1-4.7 4.7-4.7h44.3c2.6 0 4.7 2.1 4.7 4.7v22.2c0 2.6-2.1 4.7-4.7 4.7h-20.3c-.3.1-.5.1-.6.3z" class="st1"/><path d="M150.5 179.1c-1.5 0-2.7 1.2-2.7 2.7s1.2 2.7 2.7 2.7 2.7-1.2 2.7-2.7-1.2-2.7-2.7-2.7zm0 3.6c-.5 0-.9-.4-.9-.9s.4-.9.9-.9.9.4.9.9-.4.9-.9.9zM161.6 179.1c-1.5 0-2.7 1.2-2.7 2.7s1.2 2.7 2.7 2.7c1.5 0 2.7-1.2 2.7-2.7s-1.2-2.7-2.7-2.7zm0 3.6c-.5 0-.9-.4-.9-.9s.4-.9.9-.9.9.4.9.9-.4.9-.9.9zM139.5 179.1c-1.5 0-2.7 1.2-2.7 2.7s1.2 2.7 2.7 2.7c1.5 0 2.7-1.2 2.7-2.7s-1.2-2.7-2.7-2.7zm0 3.6c-.5 0-.9-.4-.9-.9s.4-.9.9-.9.9.4.9.9-.3.9-.9.9zM144.6 256c-.8-7-4.3-13.1-7.1-18l-.3-.5c-.1-.1-.1-.3-.2-.4v-.1c-.3-.8-.3-1.7-.3-2.6v-.4c0-.3.2-1.2.4-2.2.1-.4.2-.9.3-1.4.6-3.1.8-5.8.8-8.2 0-3.7-.8-6.5-2.3-8.3-1.3-1.6-3.2-2.4-5.6-2.4-2.4 0-4.2.8-5.6 2.4-1.5 1.8-2.3 4.6-2.3 8.3 0 2.4.2 5.2.8 8.2.1.5.2 1 .3 1.4.2 1 .4 1.9.4 2.2v.4c0 .8 0 1.7-.3 2.5v.1c-.1.1-.1.3-.2.4l-.3.5c-2.8 4.9-6.3 11-7.1 18-.4 3.8 0 7.6 1.2 11.1 1.5 4.1 4.1 8.1 7.8 11.9.2.2.4.3.6.3h9.4c.2 0 .4-.1.6-.3 3.7-3.8 6.4-7.8 7.8-11.9 1.2-3.4 1.6-7.2 1.2-11zm-19.2-21.6v-.4c0-.5-.2-1.4-.4-2.6-.1-.4-.2-.9-.3-1.4 0-.3-.1-.5-.1-.8h11.2c0 .3-.1.5-.1.8-.1.5-.2 1-.3 1.4-.2 1.2-.4 2-.4 2.5v.4c0 .6 0 1.3.1 2.1h-9.8c.1-.7.1-1.4.1-2zm-1.4-12.2c0-3.3.7-5.8 1.9-7.3 1-1.2 2.4-1.8 4.3-1.8s3.3.6 4.3 1.8c1.2 1.5 1.9 3.9 1.9 7.2 0 1.6-.1 3.4-.4 5.4h-11.7c-.2-1.9-.4-3.7-.3-5.3zm17.7 44.4c-1.3 3.8-3.8 7.5-7.2 11h-8.7c-3.4-3.6-5.9-7.3-7.2-11-1.2-3.4-1.6-6.7-1.2-10.4.8-6.6 4.2-12.6 6.9-17.4l.3-.5.1-.1h10.9l.1.1.3.5c2.7 4.8 6.1 10.7 6.9 17.4.4 3.6 0 7-1.2 10.4z" class="st1"/><path d="M180.7 247.5c-1.2-2.7-2.8-5.2-4.9-7.3-2.1-2.1-4.6-3.8-7.3-4.9-2.8-1.2-5.8-1.8-8.9-1.8-5.7 0-11.1 2.1-15.3 5.9-.4.3-.4.9-.1 1.2.3.4.9.4 1.2.1 3.9-3.5 8.9-5.5 14.2-5.5 2.9 0 5.6.6 8.2 1.7 2.5 1.1 4.8 2.6 6.7 4.5 1.9 1.9 3.5 4.2 4.5 6.7 1.1 2.6 1.7 5.4 1.7 8.3 0 2.9-.6 5.6-1.7 8.3-1.1 2.5-2.6 4.8-4.5 6.7-1.9 1.9-4.2 3.5-6.7 4.5-2.6 1.1-5.4 1.7-8.2 1.7-4.6 0-9-1.5-12.7-4.2-.4-.3-.9-.2-1.2.2-.3.4-.2.9.2 1.2 4 3 8.7 4.6 13.7 4.6 3.1 0 6.1-.6 8.9-1.8 2.7-1.2 5.2-2.8 7.3-4.9 2.1-2.1 3.8-4.6 4.9-7.3 1.2-2.8 1.8-5.8 1.8-8.9 0-3.2-.6-6.2-1.8-9z" class="st1"/><path d="M156.6 240.9c-2.1 0-3.8 1.7-3.8 3.8 0 2.1 1.7 3.8 3.8 3.8 2.1 0 3.8-1.7 3.8-3.8 0-2.1-1.7-3.8-3.8-3.8zm0 5.8c-1.2 0-2.1-.9-2.1-2.1s.9-2.1 2.1-2.1c1.1 0 2.1.9 2.1 2.1s-.9 2.1-2.1 2.1zM172.2 247.6c0-2.1-1.7-3.8-3.8-3.8-2.1 0-3.8 1.7-3.8 3.8 0 2.1 1.7 3.8 3.8 3.8 2.1 0 3.8-1.7 3.8-3.8zm-5.9 0c0-1.2.9-2.1 2.1-2.1 1.1 0 2.1.9 2.1 2.1s-.9 2.1-2.1 2.1c-1.2 0-2.1-1-2.1-2.1zM155.8 256.4c0 2.1 1.7 3.8 3.8 3.8s3.8-1.7 3.8-3.8-1.7-3.8-3.8-3.8-3.8 1.7-3.8 3.8zm3.8-2.1c1.2 0 2.1.9 2.1 2.1 0 1.1-.9 2.1-2.1 2.1s-2.1-.9-2.1-2.1c0-1.1.9-2.1 2.1-2.1zM193 254.1c0 1.3.5 2 1.4 2.9 1.1 1.1 2.5 1.7 3.9 1.7 1.3 0 2.7-.5 3.7-1.5l16.5-15.5c1.9-1.8 3-4.3 3.1-6.9.1-2.6-.9-5.2-2.7-7.1l-8.7-9.3 2.7-2.5c.2-.2.3-.4.3-.6 0-.2-.1-.4-.2-.6l-6.2-6.6c-.2-.2-.4-.3-.6-.3-.2 0-.4.1-.6.2l-2.7 2.5-7.2-7.6c-1.8-1.9-4.3-3-6.9-3.1-2.6-.1-5.2.9-7.1 2.7L165.2 218c-1 1-1.6 2.3-1.7 3.8 0 1.4.5 2.8 1.5 3.8.8.8 1.4 1.5 2.7 1.5 1 0 2.5-.3 5.4-1.1 2.4-.6 6.1-1.6 11.4-2.7l13.3 14.1c-1.5 5.3-2.7 8.9-3.4 11.3-.9 2.9-1.3 4.3-1.4 5.4zm13-44.1 5 5.3-2 1.9-2.7-2.8-2.4-2.5 2.1-1.9zm-11.3 44.2c0-.8.5-2.2 1.3-4.8.8-2.5 2-6.2 3.6-11.8.1-.3 0-.6-.2-.8L185.5 222c-.2-.2-.4-.3-.6-.3h-.2c-5.6 1.2-9.4 2.2-12 2.8-2.7.7-4.1 1.1-4.9 1-.6 0-.8-.2-1.5-1-.7-.7-1-1.6-1-2.6s.4-1.9 1.2-2.6l16.5-15.5c1.6-1.5 3.7-2.3 5.9-2.2 2.2.1 4.2 1 5.7 2.6l7.8 8.2 2.8 3 12.7 13.5c3.1 3.3 2.9 8.5-.3 11.6L200.9 256c-1.5 1.4-3.8 1.3-5.2-.2-.8-.8-1-1.1-1-1.6z" class="st1"/><path d="M211.7 233.3c.1 0 .1 0 0 0 .6 0 1-.2 1.4-.5.4-.4.6-.9.6-1.4 0-.5-.2-1-.5-1.4-.4-.4-.9-.6-1.4-.6-.5 0-1 .2-1.4.5-.4.4-.6.9-.6 1.4s.2 1 .5 1.4c.4.4.9.6 1.4.6zm-.1-2.2s.1-.1.2-.1.2.1.2.1.1.1.1.2-.1.2-.1.2-.1.1-.2.1-.2-.1-.2-.1-.1-.1-.1-.2.1-.2.1-.2zM211.6 239.7c1.1 0 2-.9 2-1.9 0-1.1-.8-2-1.9-2h-.1c-1.1 0-2 .9-2 1.9 0 .5.2 1 .5 1.4.4.4.9.6 1.5.6zm0-2.3c.2 0 .3.1.3.3 0 .1-.1.2-.1.2s-.1.1-.2.1-.2-.1-.2-.1-.1-.1-.1-.2.2-.3.3-.3zM205.3 233.1c.1 0 .1 0 0 0 1.1 0 2-.9 2-1.9 0-.5-.2-1-.5-1.4s-.9-.6-1.4-.6c-.5 0-1 .2-1.4.5-.4.4-.6.9-.6 1.4 0 .5.2 1 .5 1.4.4.4.9.6 1.4.6zm-.1-2.2s.1-.1.2-.1.2 0 .2.1c0 0 .1.1.1.2s-.1.3-.3.3c-.1 0-.2-.1-.2-.1s-.1-.1-.1-.2.1-.1.1-.2zM205.2 239.5c1.1 0 2-.9 2-1.9 0-1.1-.8-2-1.9-2-1.1 0-2 .8-2 1.9-.1 1.1.8 2 1.9 2zm-.2-2.2s.1-.1.2-.1c.2 0 .3.1.3.3 0 .1-.1.2-.1.2s-.1.1-.2.1-.2-.1-.2-.1-.1-.1-.1-.2.1-.2.1-.2zM191.5 217.2c.2 0 .4-.1.6-.2.3-.3.4-.9 0-1.2l-2.5-2.7 2.7-2.5c.3-.3.4-.9 0-1.2-.3-.3-.9-.4-1.2 0l-2.7 2.5-2.5-2.7c-.3-.3-.9-.4-1.2 0-.3.3-.4.9 0 1.2l2.5 2.7-2.7 2.5c-.3.3-.4.9 0 1.2.2.2.4.3.6.3.2 0 .4-.1.6-.2l2.7-2.5 2.5 2.7c.1 0 .3.1.6.1zM192.7 222.9c-.3-.3-.9-.4-1.2 0-.3.3-.4.9 0 1.2l1.6 1.6c.2.2.4.3.6.3.2 0 .4-.1.6-.2.3-.3.4-.9 0-1.2l-1.6-1.7zM197.3 227.9c-.3-.3-.9-.4-1.2 0-.3.3-.4.9 0 1.2l1.6 1.6c.2.2.4.3.6.3.2 0 .4-.1.6-.2.3-.3.4-.9 0-1.2l-1.6-1.7zM9.2 309.1H0v1.7h9.2c.5 0 .9-.4.9-.9-.1-.4-.5-.8-.9-.8zM49.1 215.6s0-.1 0 0v-.6l-.1-.1-5.1-5.1v-23.6c0-4.9-4-8.8-8.8-8.8H0v1.7h12.8v6.4c-2.4 1.6-4 4.3-4 7.4 0 3.1 1.6 5.8 4 7.4v9H0v1.7h42.6l3.6 3.6H0v1.7h47.4v8.4c0 1.7-1.4 3.1-3.1 3.1H37c0-.2-.1-.3-.1-.5-.7-2.5-.9-4.7-.9-5.8h8.4c.5 0 .9-.4.9-.9s-.4-.9-.9-.9H0v8.2c.1-.3.2-.5.2-.8.7-2.5.9-4.6 1-5.7h32.9c.1 1.2.3 3.5 1 6.2.5 1.9 1.2 3.8 2 5.4H0v1.7h38c.8 1.3 1.7 2.5 2.7 3.6H0v1.7h42.9c.4 0 .7-.2.8-.6.1-.3 0-.7-.3-.9-1.4-1.2-2.7-2.6-3.7-4.3 0-.1.1-.2.1-.3 0-.4-.3-.8-.8-.8-.6-1.1-1.1-2.3-1.6-3.6h6.8c2.7 0 4.8-2.2 4.8-4.8v-9.1c.1.1.1 0 .1 0zm-34.6-36.2h6.3v5.5c-1-.4-2-.6-3.1-.6s-2.2.2-3.1.6l-.1-5.5zm-3.9 13.7c0-3.9 3.2-7.1 7.1-7.1s7.1 3.2 7.1 7.1-3.2 7.1-7.1 7.1-7.1-3.2-7.1-7.1zm10.2 16.4h-6.3v-8.2c1 .4 2 .6 3.1.6s2.2-.2 3.1-.6v8.2zm21.3 0H22.5v-9c2.4-1.6 4-4.3 4-7.4 0-3.1-1.6-5.8-4-7.4v-6.4H35c3.9 0 7.1 3.2 7.1 7.1v23.1z" class="st1"/><path d="M1.1 200.3c-.4 0-.8.2-1.1.4v2.2c.3.3.7.4 1.1.4.8 0 1.5-.7 1.5-1.5s-.7-1.5-1.5-1.5zm0 1.7c-.1 0-.2-.1-.2-.2s.1-.2.2-.2.2.1.2.2-.1.2-.2.2zM14.5 138.3h-4v-17.6c1.8-.4 3.2-2 3.2-4V97.5c0-2.8-1.1-5.4-3.1-7.4S6 87 3.2 87H0v1.7h3.2c4.8 0 8.8 3.9 8.8 8.8v19.3c0 1.3-1.1 2.4-2.4 2.4H4.1v-8.8c0-.5-.4-.9-.9-.9H0v1.7h2.4v14.3H0v1.7h3.2c.5 0 .9-.4.9-.9v-5.6h4.7v40H4.1V144c0-2.6-1.7-4.7-4.1-5.4v1.8c1.4.6 2.4 2 2.4 3.6v4H0v1.7h2.4v11.1H0v1.7h16c2.2 0 4.1-1.8 4.1-4.1V144c0-3.1-2.5-5.7-5.6-5.7zm3.9 20.2c0 1.3-1.1 2.4-2.4 2.4h-5.6v-11.1h7.9v8.7zm0-10.5h-7.9v-7.9h4c2.2 0 4 1.8 4 4v3.9zM55.1 38.8l12.4-23.7c.1-.3.1-.6 0-.8-.2-.3-.4-.4-.7-.4H37.1v8.5H0v1.7h47.5v46.4H0v1.7h48.3c.5 0 .9-.4.9-.9v-8.2h17.5c.3 0 .6-.2.7-.4.2-.3.2-.6 0-.8L55.1 38.8zM38 23v-6.5l7.9 6.4H38zm11.2 39V23.5l-.1-.1-9.3-7.6h25.7l-12 22.8c-.1.3-.1.5 0 .8l12 22.8-16.3-.2zM17.4 0l-.7 10.6H0v1.7h17.5c.4 0 .8-.4.9-.8L19.1 0h-1.7zM39.3 0l-1.5 4.4L36.3 0H34l.5.2L37 7.4c.1.3.4.6.8.6s.7-.2.8-.6L41 .2l.5-.2h-2.2zM102 0c-4.1 2.5-9.3 3.3-14.3 3.8H69.8c.2-1.5 1.2-2.3 3.1-2.5 1-.1 1.9-.1 3.1-.1h.3c.4 0 .7-.3.8-.7V0h-6.2c-1.6.7-2.6 2-2.8 3.8h-9.3c0-.2.1-.4.1-.7V3c.2-1.1.8-1.8 1.8-2.2 1-.4 2.3-.4 3.7-.4.3 0 .6-.2.7-.4h-6.4c-.8.6-1.3 1.5-1.5 2.7v.1c-.3 1.4-.3 2 .1 2.4.2.2.5.4.8.4H88c6.1-.6 12.3-1.7 17-5.4l.1-.1L102 0zM146.8 0h-2.1c1.7 2.1 3 4.4 3.8 6.4 1 2.7.9 4.9-.2 6.1-.3.3-.8.6-1.3.7-.1 0-.2 0-.3.1-1.2.2-2.7 0-4.4-.6-3-1.1-6.2-3.3-9.2-6.2-2.1-2.1-3.8-4.3-5-6.4h-1.9c1.3 2.6 3.3 5.2 5.7 7.7 3.1 3.1 6.6 5.4 9.8 6.6.7.3 1.4.5 2 .6L110 32.8c-1 .5-2.1.3-2.9-.4-.8-.8-.9-2-.4-2.9L122.3 0h-1.9l-15.3 28.6c-.4.8-.6 1.7-.4 2.6s.5 1.7 1.2 2.3c.6.6 1.5 1.1 2.3 1.2h.6c.7 0 1.4-.2 2-.5L147.1 15c.9-.2 1.7-.6 2.3-1.2 1.6-1.6 1.8-4.4.6-7.9-.7-1.9-1.8-3.9-3.2-5.9zM152 0c-.3.3-.3.9 0 1.2.3.3.9.3 1.2 0 .4-.4.9-.8 1.4-1.2H152zM171.4 0c.5.4.9.8 1.4 1.2.2.2.4.3.6.3s.4-.1.6-.3c.3-.3.3-.9 0-1.2h-2.6zM276.6 0c-.7 1.9-1.8 3.6-3.3 5.1-2.7 2.7-6.3 4.2-10.1 4.2-6.1 0-11.3-3.9-13.4-9.3H248c.8 2.3 2.1 4.5 3.9 6.3 3 3 7 4.7 11.3 4.7 4.3 0 8.3-1.7 11.3-4.7 1.8-1.8 3.1-3.9 3.9-6.3h-1.8zM219.9 0c-.7 1.9-1.8 3.6-3.3 5.1-2.7 2.7-6.3 4.2-10.1 4.2-6.1 0-11.3-3.9-13.4-9.3h-1.8c.8 2.3 2.1 4.5 3.9 6.3 3 3 7 4.7 11.3 4.7 4.3 0 8.3-1.7 11.3-4.7 1.8-1.8 3.1-3.9 3.9-6.3h-1.8zM320 10.6h-10.9L308.5 0h-1.7l.7 11.5c0 .4.4.8.9.8H320v-1.7zM320 71.1h-3.6V24.7h3.6V23h-10.8c-.5 0-.9.4-.9.9 0 .4-.1 39.2-.1 48.1 0 .5.4.9.9.9H320v-1.8zm-5.4 0H310c0-9.4.1-40.8.1-46.4h4.6l-.1 46.4zM320 160.8h-25.4v-11.1H320V148h-25.4v-4c0-2.2 1.8-4 4-4h19.3c.8 0 1.5.2 2.1.6v-1.9c-.7-.3-1.4-.4-2.1-.4h-19.3c-3.1 0-5.7 2.5-5.7 5.7v16.8h-4.7v-40h4.7v5.6c0 .5.4.9.9.9h6.4c.5 0 .9-.4.9-.9v-5.6h14.3v5.6c0 .5.4.9.9.9h3.7v-1.7h-2.9v-14.3h2.9v-1.7h-3.7c-.5 0-.9.4-.9.9v8.8h-14.3v-8.8c0-.5-.4-.9-.9-.9h-6.4c-.5 0-.9.4-.9.9v8.8h-5.6c-1.3 0-2.4-1.1-2.4-2.4V97.5c0-4.8 3.9-8.8 8.8-8.8H320V87h-26.2c-5.8 0-10.5 4.7-10.5 10.5v19.3c0 1.9 1.4 3.6 3.2 4v17.6h-4c-3.1 0-5.7 2.5-5.7 5.7v14.4c0 2.2 1.8 4.1 4.1 4.1H320v-1.8zm-25.4-49.6h4.7v14.3h-4.7v-14.3zm-8.1 49.6h-5.6c-1.3 0-2.4-1.1-2.4-2.4v-8.8h7.9v11.2zm0-12.8h-7.9v-4c0-2.2 1.8-4 4-4h4l-.1 8zM320 238.8h-6.1c1-1.1 1.8-2.3 2.6-3.6h3.5v-1.7h-2.6c.6-1.2 1.2-2.5 1.6-3.8.2-.2.4-.4.4-.7v-.3l.3-1.2.3-1.2v-6.2h-9.4c-.5 0-.9.4-.9.9s.4.9.9.9h8.4c-.1 1-.3 2.9-.9 5.2-.1.3-.2.7-.3 1h-7.2c-1.7 0-3.1-1.4-3.1-3.1v-8.4H320v-1.7h-11.4l3.6-3.6h7.7v-1.7h-7.2v-23.1c0-3.9 3.2-7.1 7.1-7.1h.1v-1.7h-.1c-4.9 0-8.8 4-8.8 8.8V210l-5.1 5.1-.1.1v10c0 2.7 2.2 4.8 4.8 4.8h6.6c-.4 1.1-.9 2.1-1.4 3.1-.1.2-.2.4-.4.7-.2.1-.3.4-.4.6-1.1 1.8-2.3 3.4-3.7 4.8-.2.2-.3.6-.2.9.1.3.4.5.8.5h8.1v-1.8z" class="st1"/><path d="M320 200.4c-.6.2-1 .8-1 1.4 0 .7.4 1.2 1 1.4v-2.8zM320 309.1h-3.3c-.5 0-.9.4-.9.9s.4.9.9.9h3.3v-1.8zM17.4 320h1.7l.2-2.6c0-.1.1-.2.1-.3v-.2l1.4-22.8h1.6c.5 0 .9-.4.9-.9v-9.6c0-.5-.4-.9-.9-.9h-1.8l-2.2-6.6c-.1-.3-.4-.6-.8-.6H0v1.7h16.9l1.8 5.5H0v1.7h21.4v7.9H0v1.7h19l-.5 7.9H0v1.7h18.4l-.8 12.6H0v1.7h17.5l-.1 2.1zM27.3 317.7 34 320h2.3l-.3-.8c-.1-.3-.3-.4-.5-.5l-5.2-1.8 5.2-1.8c.3-.1.4-.3.5-.5l1.8-5.2 1.8 5.2c.1.3.3.4.5.5l5.2 1.8-5.2 1.8c-.3.1-.4.3-.5.5l-.3.8h2.3l6.7-2.3c.3-.1.6-.4.6-.8s-.2-.7-.6-.8l-7.2-2.4-2.4-7.2c-.1-.3-.4-.6-.8-.6s-.7.2-.8.6l-2.4 7.2-7.2 2.4c-.3.1-.6.4-.6.8-.2.4.1.7.4.8zM37.5 291.2c2.2 2.1 4.6 3.5 7 4.2 2.9.8 5.9.5 8.3-.8l.1-.1c.2-.1.5-.3.6-.3 1.1.1 3 1.4 3.5 2.4.1.2.2.8.3 1.3h-6c-1.8 0-3.3 1.5-3.3 3.3 0 .9.3 1.7 1 2.3.6.6 1.5 1 2.3 1h10.9c-.7 2.1-1.1 4.5-1.1 7.3 0 1.5.2 2.9.7 4.3.3.9.7 1.8 1.1 2.6-1 0-1.9.1-2.8.5-.5.2-1 .5-1.4.8h6.4c.1-.3.1-.6 0-.8-1.5-2.7-2.3-4.7-2.3-7.3 0-2.9.4-5.3 1.2-7.3h3.8c0 .2-.1.3-.1.5-.4 1.6-.8 3.5-.7 5.4.1 2 .8 3.9 2 5.7 1 1.4 2.3 2.6 3.8 3.5-.7.1-1.3.2-1.8.4h6.2c-.1-.2-.2-.4-.4-.5l-2.3-1.1c-1.5-.7-2.9-1.9-4-3.3-1-1.5-1.6-3.1-1.7-4.8-.1-1.7.3-3.4.6-4.9.4-1.9 1.4-3 3-3.6 1.5-.6 3.5-.6 5.5-.6.5 0 .9-.4.9-.9s-.4-.9-.9-.9c-2.2 0-4.3.1-6.1.8-1.4.5-2.5 1.4-3.2 2.7H51.3c-.4 0-.8-.2-1.1-.5-.3-.3-.5-.7-.5-1.1 0-.9.7-1.6 1.6-1.6h7c.3 0 .5-.2.7-.4.2-.3.1-.5.1-.9 0-.2-.1-.5-.1-.8-.2-1.3-.3-1.4-.4-1.5-.8-1.5-3.3-3.2-5-3.4-.7 0-1.2.3-1.6.5h-.1c-1.9 1.1-4.5 1.4-7 .7-1.9-.5-3.7-1.5-5.5-3.1.4-.6.8-1.5 1.3-2.6.6-1.4 1.1-2.8 1.1-3 .7-2.4 2-4.5 3.7-6.1 1.9-1.9 4.5-2.6 7-3.3 0 1 .1 2.3.4 4.3.1.4.4.7.8.7h.2c.5-.1.8-.5.7-1-.5-2.9-.5-4.2-.2-5.2.3-1.3 1-2.4 2.2-3.7.3.3.7.8 1.3 1.6.8 1 1.3 1.9 1.4 2.1.4 1.1.3 2.5.3 3.9v1.5c0 .5.4.9.9.9s.9-.4.9-.9v-2.8c2.7 1.8 3 4.1 3.3 7.2.1.8.2 1.7.3 2.6.1.4.4.7.8.7h.1c.5-.1.8-.5.7-1-.1-.9-.2-1.7-.3-2.5v-.3c3.4-1.5 6.5-2.6 10.5-1.7 3.8.9 7.3 3.1 9.6 6.2 2.8 3.6 4.1 7.7 4 12.6-.1 4.7-1.4 9.5-2.7 13.5-.1.4.1.9.6 1.1h.3c.4 0 .7-.2.8-.6 3-9.4 4.9-19.3-1.6-27.7-2.6-3.4-6.4-5.8-10.6-6.8-2.1-.5-4.1-.5-6.1-.1-.3.1-.6.1-.9.2-.7-4.3-1.4-8.4-.9-12.8.4-3.6 1.6-6.8 3.4-9.1 1.3-1.7 3.1-3 5.3-3.9 2.1-.9 4.4-1.4 6.9-1.6 4.9-.3 10 .9 13.6 3.2 3.4 2.2 5.9 5.4 7.6 9.7 1.1 2.9 1.9 6.1 2.1 9.6l-.6-.6c-.3-.3-.5-.5-.6-.7-.3-.4-.7-.8-1-1.2-2.6-3.2-5.8-7.3-10.4-7.4-1.8-.1-3.2.5-4.1 1.6-1.1 1.4-1.4 3.6-.8 6.3.5 2.3 1.7 4.4 3.6 6.5 1.6 1.8 3.6 3.3 5.4 4.7.4.3.7.6 1.1.9 5.1 4 7.5 8.4 8 14.5.4 4.1.2 7.5-.4 10.3-.8 3.6-2.5 6.3-5 8.4-.6.5-1.1.9-1.8 1.2h2.9c6.4-5.3 6.5-14 5.9-20.1-.3-3.4-1.2-6.3-2.6-8.9-1.4-2.5-3.4-4.7-6.1-6.8-.4-.3-.7-.6-1.1-.9-3.6-2.8-7.4-5.7-8.4-10.2-.5-2.1-.3-3.9.5-4.9.6-.7 1.5-1 2.7-1 1.6 0 3.3.8 4.9 2.2 1.5 1.3 2.9 3 4.1 4.6.4.4.7.9 1 1.3l.7.7c.4.4.9.9 1.3 1.4.5.6.6.9.6 1 0 .5.4.8.8.8.5 0 .8-.4.9-.8 0-4.7-.8-9.3-2.3-13.1-1.8-4.6-4.6-8.1-8.3-10.5-3.8-2.5-9.3-3.8-14.6-3.4-2.7.2-5.3.8-7.5 1.7-2.5 1.1-4.5 2.6-6 4.4-2 2.6-3.4 6-3.8 10-.5 4.7.2 8.9 1 13.4-.9.3-1.7.6-2.5 1-.4-2.7-1.4-5.1-4.9-6.9-.1-.4-.2-.7-.3-1.1-.2-.6-1.7-2.5-1.7-2.6-.3-.4-.8-1-1.2-1.5-.5-.6-.9-.9-1.2-.9-.3-.1-.7 0-.9.2-1.8 1.7-2.7 3.2-3.2 4.8h-.1c-2.8.7-5.9 1.5-8.3 3.8-1.9 1.8-3.3 4.2-4.1 6.9-.1.2-.5 1.4-1 2.6-.7 1.6-1.1 2.3-1.2 2.5-.2 0-.4.1-.6.3.2 0 .2.6.5.9zM122.3 320l2.2-4.2c.1.7.3 1.3.6 2l.9 2.1h1.9c-.5-.9-.9-1.8-1.3-2.7-1-2.7-.9-4.9.2-6.1.6-.6 1.5-.9 2.6-.9 1 0 2.2.2 3.5.7 3 1.1 6.2 3.3 9.2 6.2.9.9 1.7 1.8 2.4 2.7h2.1c-1-1.3-2.1-2.7-3.4-3.9-3.1-3.1-6.6-5.4-9.8-6.6-3.4-1.3-6.2-1.1-7.9.6-.6.6-1 1.4-1.2 2.3l-4.1 7.7h2.1zM154.6 320c2.4-1.9 5.3-2.9 8.4-2.9s6 1 8.4 2.9h2.6c-2.9-2.9-6.8-4.5-11-4.5-4.1 0-8 1.6-11 4.5h2.6zM193.2 320c-.6-1.6-.9-3.2-.9-5 0-7.9 6.4-14.3 14.3-14.3 3.3 0 6.4 1.1 8.9 3.1l-9.5 10.6c-.2.3-.3.6-.1.9.1.3.4.5.8.5h14.2c-.1 1.4-.4 2.8-.9 4.1h1.8c.4-1.3.7-2.7.8-4.1h8.6c.3 0 .5-.1.7-.3l20.5-27.6 4.6 12.4c-1.8.8-3.5 1.9-5 3.4-3 3-4.7 7-4.7 11.3 0 1.7.3 3.4.8 5h1.8c-.6-1.6-.9-3.2-.9-5 0-5.8 3.5-10.9 8.5-13.1l4.9 13.4c.1.3.5.6.8.6.1 0 .2 0 .3-.1.4-.2.7-.7.5-1.1l-4.9-13.4c1.3-.4 2.7-.6 4.1-.6 3.8 0 7.4 1.5 10.1 4.2 2.7 2.7 4.2 6.3 4.2 10.1 0 1.7-.3 3.4-.9 5h1.8c.5-1.6.8-3.3.8-5 0-4.3-1.7-8.3-4.7-11.3s-7-4.7-11.3-4.7c-1.6 0-3.2.2-4.7.7l-7.4-20 6.6-1.7c.5-.1.7-.6.6-1-.1-.5-.6-.7-1-.6l-7.6 1.9c-.2.1-.4.2-.5.4s-.1.5 0 .7l2.3 6.2-27.6 9.5-3.8-9.5h5.3c.5 0 .9-.4.9-.9s-.4-.9-.9-.9h-11.3c-.5 0-.9.4-.9.9s.4.9.9.9h4.1l4.2 10.4-5.9 6.6c-2.8-2.3-6.3-3.5-10-3.5-4.3 0-8.3 1.7-11.3 4.7s-4.7 7-4.7 11.3c0 1.7.3 3.4.8 5l1.9-.1zm57-32.2-18.9 25.5-6.8-16.6 25.7-8.9zm-27 10 6.6 16.4h-7.3c-.2-3.9-1.8-7.6-4.6-10.4l5.3-6zm-6.5 7.2c2.4 2.5 3.9 5.7 4.1 9.2h-12.3l8.2-9.2z" class="st1"/><path d="M303.5 294h1.6l1.6 25.9h1.7l-.1-2H320v-1.7h-11.8l-.8-12.6H320v-1.7h-12.7l-.5-7.9H320v-1.7h-15.6v-7.9H320v-1.7h-12.9l1.8-5.5H320v-1.7h-11.7c-.4 0-.7.2-.8.6l-2.2 6.6h-1.8c-.5 0-.9.4-.9.9v9.6c.1.5.5.8.9.8z" class="st1"/></g></svg>