<svg xmlns="http://www.w3.org/2000/svg" xml:space="preserve" style="enable-background:new 0 0 320 320" viewBox="0 0 320 320"><style>.st1{fill:#d9d9d6}</style><path id="ebebea" d="M0 0h320v320H0z" style="fill:#ebebea"/><g id="Landmarks_00000120550358870171217540000009447661896185465006_"><path d="m12.8 44.8.3.3c.9.7 1.8 1.5 2.7 2.2.3.2.6.5.9.7.1.1.2.1.4.1h.2c.2-.1.3-.2.4-.4.1-.4.9-1.6 1.3-2.2.6-.9 1.4-1.6 2.4-2.3 2.8-1.9 6.7-1.9 10.1-1.9h.5c1.1 0 2.4-.2 3.6-.6-.3.2-.6.3-.8.5-.2.1-.4.3-.6.4-.5.3-1.2.4-1.9.5-.2 0-.5.1-.7.1-2 .4-4.1.9-6.1 1.6-2.2.7-4.2 1.8-5.8 3.3-1.4 1.3-2.4 2.9-3.4 4.4-.3.4-.6.9-.8 1.3l-.1.2c-1.3 1.9-2.6 3.9-3.7 6-.4.8-.8 1.7-1.2 2.5l-1.8 3.6c-.1.3-.1.6.1.8.2 0 .3.1.5.1.1 0 .2 0 .3-.1.3-.2.6-.3.9-.5.3-.1.5-.3.6-.3.4-.3.9-.6 1.3-.8.6-.4 1.2-.8 1.8-1.1 1.1-.6 2.4-1 3.6-1.1 1.2-.1 2.4 0 3.9.2 2.6.3 5.2.8 7.6 1.4 1.3.3 2.5.7 3.7 1.1.5.2 1 .3 1.6.6.2.1.4.2.7.2.1.1.3.3.5.4.1.1.2.1.3.1.1 0 .3-.1.4-.2.2-.2.1-.5-.1-.7l-.1-.1v-.2l.1-.4c.3.4.6.7.9.9.3.2.7.3 1 .3.4 0 .8-.1 1.1-.5.3-.2.4-.6.4-1 .1-1.1-.6-1.8-1.2-2.4l-.1-.1-1-.8.1-.4c.2.3.5.6.7.9.7.8 1.5 1.6 2.4 2.2.1.1.2.1.3.2.2.1 1 .3 1.7.2.4-.1.7-.3.9-.6.2-.4.3-.9.1-1.5-.3-1.1-1-2-1.9-2.6-.8-.6-1.9-.9-3.2-1h-.3l.1-.5.1-.1c.3-.3.8-.5 1.3-.6.4.4 1 .8 1.6 1.2.8.5 1.7.8 2.5.9 0 0 1.3.1 1.9-.5.2-.2.2-.5.2-.7-.2-1-1.3-1.3-2-1.6-.9-.3-2-.5-3-.4-.2 0-.4 0-.6.1l-.3-.3c-.2-.3-.4-.5-.6-.8l.7-2.1c.2-.1.4-.1.6-.1.1.1.3.1.4.2.8.4 2 .8 3.2.8.4 0 .8 0 1.2-.1.4-.1.7-.4.7-.8s-.2-.8-.6-.9c-.4-.2-.8-.2-1.1-.2-1.3-.1-2.5-.1-3.6.1-.1-.1-.2-.1-.3-.2l.9-2.7c.5.3 1 .5 1.6.6 1.4.3 2.8 0 3.9-.7.5-.3.5-.7.5-.9-.1-.5-.6-.9-1.1-1-.5-.2-1-.1-1.5-.1-1 .1-2 .3-2.9.5.2-.6.3-1.1.5-1.7l.4-1.5c.3.1.6.1.9.2.9.2 1.9.3 3.1.1.2 0 .5-.1.8-.3.2-.2.3-.5.3-.8 0-.4-.2-.8-.5-1.1.7-.2 1.3-.7 1.5-1.4h.6c.4 0 .8 0 1.2-.1 1.5-.3 2.5-1.7 2.3-3.2-.1-.5-.2-1-.5-1.4l.1-.1c.3-.3.5-.6.7-1 .4-.8.4-1.6-.1-2.6s-1.5-1.7-3.2-1.9c-1.6-.2-3.2.2-4.4 1.1-.4.3-.8.7-1.1 1.1l.2-2.1.5-.5c.8-.7 1.8-1.2 3-1.5.5-.1 1.1-.2 1.8-.4.2 0 .4-.1.6-.1.4-.1.7-.2 1-.2.3 0 .5-.2.5-.5s-.2-.5-.5-.5h-1.9c-1.5 0-3.2 0-4.6-.3l.4-4.1c.7-.1 1.4-.2 2.1-.4.1 0 .3-.1.4-.1.6-.1 1.4-.3 1.9-.7.3-.3.5-.7.4-1.1-.1-.4-.4-.7-.8-.8h-.5c-.3 0-.6.1-.9.1-.1 0-.3 0-.4.1l-1.7.2 1.8-3.6c.4-.1.7-.3 1.1-.4l.1-.1c.3-.1.4-.4.4-.6 0-.3-.1-.6-.4-.7-.1 0-.2-.1-.3-.1l2.9-5.6c0-.1.1-.2 0-.3.3-.7.1-1.5-.1-2.1 0-.2-.1-.4-.1-.5 0-.2-.2-.4-.4-.4s-.4.1-.5.3l-1.6 3.4-3 .5c-.2 0-.4.1-.6.1-.9.1-1.8.3-2.7.7-.7.4-1.1.9-1.4 1.5l-.1.1-1.1 4.2c-.8-.2-1.7-.3-2.5-.5l-1.2-.3c-.2 0-.3-.1-.5-.1l-.2-.2c-.9-.7-1.6-1.6-2-2.6-1-2.4-2.3-5.5-2.8-9 0-.3-.1-.7-.3-1-.3-.4-.8-.6-1.3-.4-.3.1-.4.4-.5.5-.8 1.5-1.3 2.8-1.6 4.1-1.1-.9-2.5-1.7-4-1.8-.2 0-.4.1-.6.3-.1.2-.1.4-.1.6.1.2.2.6.3.9.1.1.1.2.1.3.8 1.7.6 3.5.5 5.4 0 .5-.1 1-.1 1.5-.1 1.2.2 2.1.8 2.7l2.3 4c-.6.3-1.1.5-1.7.9-.7.4-1.4 1-2.2 1.7-3.8 3.3-6.6 7.9-8.3 13.5-.2.6-.4 1.2-.6 1.9-.6 1.9-1.2 3.8-1.1 5.6.1.1.1.3.2.5zm28.7 15.3c.7.5 1.3 1.2 1.5 2.1.1.3.1.6 0 .7 0 0-.1.1-.2.1-.3.1-.7 0-1.1-.2-.1 0-.1-.1-.2-.1-.8-.5-1.5-1.1-2.2-2-.4-.5-.9-1-.9-1.6h.4c1.1.2 2 .5 2.7 1zm2.3-2.9c.5.2 1.2.4 1.4.8-.2.1-.7.1-1 .1-.7-.1-1.4-.4-2.1-.8-.2-.1-.5-.3-.8-.5.9.1 1.7.2 2.5.4zm.8-4.6c.2 0 .5.1.8.2-.2 0-.5.1-.8 0-.5 0-1-.1-1.5-.3.4 0 .9 0 1.5.1zm-1.2-19.4c0-.4.1-.8.3-1.2l-.2 2c0-.2-.1-.5-.1-.8zm4.9 6.4c-.1 0-.2 0-.3-.1-1-.3-1.8-.8-2.3-1.3-.4-.5-.9-1.1-1.2-1.6.9.5 2.1.7 3.2.8.4.5.6 1.3.6 2.2zM45.7 36c.1 0 .3.1.4.1-.1 0-.3 0-.4-.1zm1.4-.5c-.8-.5-1.7-.5-2.4-.5.9-.7 1.7-1.1 2.8-1.1 1 0 1.9.4 2.8 1 .3.2.7.5 1 .8-.1 0-.2.1-.3.1-.9.3-1.9.5-2.8.5-.4-.3-.7-.5-1.1-.8zm-4.8 6.8c-.2 0-.3.1-.5.2-.6-.3-1.1-.8-1.5-1.3-.1-.1-.2-.2-.2-.3.1 0 .3-.1.4-.1.6.1 1.1.3 1.7.4.1 0 .2.1.3.1l-.2 1zM29.5 62.6c-2.5-.6-5.1-1.1-7.7-1.5-1.5-.1-2.8-.2-4.1-.1-1.4.1-2.7.6-4 1.2-.6.4-1.3.8-1.8 1.2-.4.3-.8.6-1.2.8-.1.1-.3.2-.6.3.5-.9.9-1.8 1.3-2.7.4-.8.8-1.7 1.2-2.5 1-2 2.3-4 3.6-5.8l.1-.2c.3-.4.6-.9.9-1.3 1-1.5 1.9-3 3.3-4.2 1.5-1.4 3.4-2.5 5.4-3.1 2-.6 4-1.1 6-1.5.2 0 .4-.1.7-.1.7-.1 1.5-.2 2.2-.7.2-.1.4-.3.6-.4.5-.3.9-.6 1.4-.7h.8c.3 0 .7 0 1-.1.2 0 .4-.1.5-.1.1.2.2.4.4.6.3.5.8.9 1.2 1.3-.1.1-.2.1-.3.2-1.2 1-1.4 2.8-.6 4 .1.2.3.4.4.5-.4.2-.7.4-.9.6 0-.4-.2-.8-.7-1-.6-.2-1.1-.1-1.3.3-.2.4.1.9.7 1.1.2.1.4.1.6.1.1 0 .3 0 .4-.1-.1.3-.2.5-.2.7-.1.7.2 1.3.5 1.7.1.2.3.4.4.5l-.1.3c-.5.2-1 .6-1.2 1.2-.2.5 0 1 .2 1.5 0 .1 0 .1.1.2v.1l-.7 2.3c-.3.3-.4.7-.4 1.1l-.6.3c-1.3.8-1.5 2.5-1.2 3.9.1.3.2.5.3.8l-.3.9c-.3-.4-.6-.9-.7-1.3l.3-.3c.2-.4-.1-.9-.7-1.1-.6-.2-1.1-.1-1.3.3-.2.4.1.9.7 1.1.1.4.3.8.5 1.2-.4-.1-.7-.2-1-.3-1.5-.4-2.8-.8-4.1-1.2zm10.4-11.9c-.2-.3-.3-.7-.3-.9.1-.5.5-.9.9-1.1l-.6 2zm-3.5 10.9c0-.8.1-1.6.7-2l-.7 2zm1.6.8.1.1c.6.6.9 1 .9 1.6 0 .1-.1.3-.1.3-.3.3-.7.2-.9 0-.3-.2-.6-.5-.9-1-.1-.1-.1-.2-.2-.3l.4-1.4.7.7zm1.4-6.1c-.1 0-.2.1-.3.1l.1-.3c.1 0 .1.1.2.2zm5.7-8.7c.4 0 .8-.1 1.1 0 .2.1.3.1.4.2-.9.6-2 .8-3.2.5-.4-.1-.7-.2-1.1-.3.9-.2 1.8-.4 2.8-.4zm-3.5-2.4c-.2.7-.3 1.3-.5 2-.2-.2-.3-.3-.4-.5-.6-.8-.4-2.1.4-2.7.2-.2.4-.3.7-.4.1 0 .1.1.2.1l-.4 1.5zm1.9-3.9c.1-.1.2-.2.2-.3v-.3c.1.2.2.4.4.5.2.2.4.4.7.5-.5.1-1 .2-1.5.4l.2-.8zm3.5 1.9s-.1.1-.3.1c-1 .1-1.9 0-2.7-.1-.2 0-.4-.1-.7-.1.9-.3 1.7-.4 2.4-.5.4 0 .8 0 1 .2.2.1.3.4.3.4zm.3-2c-.3.1-.7 0-1.1-.1-.6-.1-1-.4-1.3-.6-.3-.3-.5-.8-.6-1.2 0-.1-.1-.2-.1-.3-.1-.2-.1-.3-.2-.5l.1-.9c.3.4.6.8.9 1.1.8.9 1.9 1.5 3.1 1.7-.2.4-.5.7-.8.8zm4.9-3.7c.1 1.1-.5 1.9-1.5 2.2-.4.1-.9.1-1.4.1.1-.9-.1-1.7-.5-2.5.9-.1 1.7-.3 2.5-.5l.6-.3c.1.3.2.6.3 1zm-5.9-5.3c1-.7 2.4-1.1 3.7-.9 1.6.2 2.3.8 2.5 1.3.3.7.3 1.3.1 1.8-.1.2-.3.5-.5.7-.4-.5-.9-.8-1.3-1.1-1-.7-2.1-1.1-3.3-1.1-.9 0-1.7.2-2.4.6.4-.5.7-.9 1.2-1.3zm1.1-4.4c-.9.3-1.7.7-2.4 1.3l.2-1.5c.7 0 1.5.1 2.2.2zm.6-7.4c.1 0 .3 0 .4-.1.3 0 .5-.1.8-.1h.3s.1 0 .1.1v.1c-.3.3-1 .4-1.5.5-.2 0-.3.1-.4.1-.6.2-1.2.3-1.7.3l.1-.9H48zm-6.4-6 .1.3c0 .2.1.3.1.5-.2.1-.3.2-.5.3l.3-1.1zm1.2 2.3.2.2c-.5-.1-.9-.2-1.4-.3.2-.1.5-.3.7-.4.2.1.4.3.5.5zm-2.3.6c1.2.2 2.4.5 3.5.8.3.1.6.2.8.4l.3.3c.1.1.2.4-.4.9-.3.3-.9.4-1.5.5-.3-.2-.6-.3-.9-.5-.8-.5-1.7-1-2.5-1.3 0-.5.3-.8.7-1.1zm.4 2.8h-.4c-.2 0-.4-.1-.6-.1-.1-.1-.1-.3-.1-.4.3 0 .7.3 1.1.5zm2.1 1.2c.6 0 1.4-.1 2-.5l-.1.8h-1.6c-.8-.1-1.6-.1-2.3-.5.6.1 1.3.2 2 .2zm2.8-3.1c-.1-.1-.2-.3-.4-.4-.2-.2-.4-.3-.5-.5-.4-.4-.8-.8-1.2-1.1l-.2-.2-.3-.3c.3-.1.6-.2.8-.3 1.4-.4 2.5-.6 3.4-.5l-.2.4c-.5.1-1 .2-1.5.2-.3 0-.5.2-.5.5s.2.5.5.5.7 0 1-.1l-.9 1.8zM51 7.1c0 .3 0 .6-.1.9-.1.2-.3.4-.5.5l.6-1.4zm-7.7 4c.7-.4 1.5-.5 2.4-.6.2 0 .4-.1.7-.1l3.6-.7h.2L48 14H47.7c-1-.1-2.3 0-3.9.5-.4.1-.7.3-1.1.4 0-.1 0-.1-.1-.2l-.4-2.4c.4-.6.6-1 1.1-1.2zM28.1 7.7c.1-1.4.6-2.9 1.5-4.5 0 0 .1-.1.1-.2 0 0 .1 0 .1.1.1.1.1.3.2.6.6 3.6 1.8 6.8 2.9 9.2.3.7.7 1.3 1.1 1.8-.4-.1-.9-.3-1.3-.4-1.5-.5-2.7-1.3-3.4-2.2-1-1.1-1.4-2.7-1.2-4.4zm-1 .3c-.1 1.8.4 3.5 1.4 4.7.9 1.1 2.2 1.9 3.9 2.5 1.3.4 2.6.8 3.9 1.1l1.2.3c.7.2 1.3.3 2 .4-.3.3-.5.6-.6 1.1-1.4-.4-2.8-.6-4.3-.7-.8 0-1.7 0-2.5.1-.9 0-1.7.1-2.6.1-1.5-.1-2.7-.3-3.7-.9-.3-.2-.5-.3-.7-.5l-.3-.5c0-.1-.1-.1-.1-.1-.2-.4-.2-.9-.2-1.5 0-.5.1-1 .1-1.5.1-1.9.3-3.9-.5-5.9 0 0-.1-.1-.1-.2s-.1-.3-.1-.4c1.1.2 2.3 1.1 3.2 1.9zM26 17.9c1 .4 2.1.6 3.4.7.9 0 1.8 0 2.7-.1.8 0 1.6-.1 2.4-.1 1.4 0 2.8.3 4.2.7 0 .2 0 .4.1.7-2.3-.3-4.4-.5-6.3-.4-1.9.1-3.6.4-5.1 1L26 17.9zm-11.3 21c.2-.7.4-1.3.6-1.9 1.7-5.4 4.4-9.8 8-13.1.8-.7 1.4-1.2 2.1-1.6 4.3-2.6 9.8-2.3 13.9-1.6.2.3.4.5.6.7.9.8 2.1 1 3.3 1h1.6l-.4 3.8c-1-.3-2-.8-2.7-1.6-.3-.3-.4-.5-.5-.9.3-.1.5-.3.5-.6 0-.5-.4-.8-1-.9-.2 0-.5 0-.7.1-.3.1-.5.3-.5.6s.1.5.4.7c.1.1.2.1.3.1.1.6.3 1 .8 1.5.9.9 2.1 1.5 3.3 1.9L44 30c-.9 1-1.4 2.1-1.5 3.2 0 .5.1 1.8.7 2.4l.2.2-.4 2.8-.2 1.7c-.1 0-.2-.1-.4-.1-.9-.2-1.8-.5-2.7-.6 0-.4.3-.7.6-1.1.2 0 .4 0 .5-.1.3-.1.5-.3.5-.6s-.1-.5-.4-.7c-.2-.1-.4-.2-.6-.2-.6 0-1.1.2-1.1.7 0 .2 0 .4.2.5-.3.4-.5.8-.6 1.4-1.1-.1-2.2-.1-3.4.3-1.2.4-2.4.6-3.5.6h-.5c-3.6 0-7.6 0-10.7 2.1-1.1.7-1.9 1.6-2.6 2.5 0 0-.8 1.2-1.3 2-.2-.1-.3-.3-.5-.4-.9-.7-1.8-1.5-2.7-2.2v-.1c-.1-1.8.5-3.6 1.1-5.4z" class="st1"/><path d="M40.5 30h.1c.2 0 .4 0 .5-.1.3-.1.5-.3.5-.6s-.1-.5-.4-.7c-.2-.1-.4-.2-.6-.2-.6 0-1.1.2-1.1.7-.1.5.4.9 1 .9zM40.3 34.6h.1c.6 0 1-.3 1-.7 0-.5-.4-.8-1-.9-.6 0-1.1.2-1.1.7-.1.5.4.9 1 .9zM36.4 53.7c.2.1.4.1.6.1h.1c.3 0 .5-.2.7-.4.2-.4-.1-.9-.7-1.1-.6-.2-1.1-.1-1.3.3-.1.2 0 .5.2.8 0 0 .2.2.4.3zM35 58.3c.2.1.4.1.6.1.3 0 .6-.1.7-.4.2-.4-.1-.9-.7-1.1-.6-.2-1.1-.1-1.3.3-.1.2 0 .5.2.8.1 0 .3.2.5.3zM228.2 90.7c-3.8 3.3-6.6 7.9-8.3 13.5-.2.6-.4 1.2-.6 1.9-.6 1.9-1.2 3.8-1.1 5.6 0 .1 0 .3.1.5l.3.3c.9.7 1.8 1.5 2.7 2.2.3.2.6.5.9.7.1.1.2.1.4.1h.2c.2-.1.3-.2.4-.4.1-.4.9-1.6 1.3-2.2.6-.9 1.4-1.6 2.4-2.3 2.8-1.9 6.7-1.9 10.1-1.9h.5c1.1 0 2.4-.2 3.6-.6-.3.2-.6.3-.8.5-.2.1-.4.3-.6.4-.5.3-1.2.4-1.9.5-.2 0-.5.1-.7.1-2 .4-4.1.9-6.1 1.6-2.2.7-4.2 1.8-5.8 3.3-1.4 1.3-2.4 2.9-3.4 4.4-.3.4-.6.9-.8 1.3l-.1.2c-1.3 1.9-2.6 3.9-3.7 6-.4.8-.8 1.7-1.2 2.5l-1.8 3.6c-.1.3-.1.6.1.8.1.1.3.2.4.2.1 0 .2 0 .3-.1.3-.2.6-.3.9-.5.3-.1.5-.3.6-.3.4-.3.9-.6 1.3-.8.6-.4 1.2-.8 1.8-1.1 1.1-.6 2.4-1 3.6-1.1 1.2-.1 2.4 0 3.9.2 2.6.3 5.2.8 7.6 1.4 1.3.3 2.5.7 3.7 1.1.5.2 1 .3 1.6.6.2.1.4.2.7.2.1.1.3.3.5.4.1.1.2.1.3.1.1 0 .3-.1.4-.2.2-.2.1-.5-.1-.7l-.1-.1v-.2l.1-.4c.3.4.6.7.9.9s.7.3 1 .3c.4 0 .8-.1 1.1-.5.3-.2.4-.6.4-1 .1-1.1-.6-1.8-1.2-2.4l-.1-.1-1-.8.1-.4c.2.3.5.6.7.9.7.8 1.5 1.6 2.4 2.2.1.1.2.1.3.2.2.1 1 .3 1.7.2.4-.1.7-.3.9-.6.2-.4.3-.9.1-1.5-.3-1.1-1-2-1.9-2.6-.8-.6-1.9-.9-3.2-1h-.3l.1-.5.1-.1c.3-.3.8-.5 1.3-.6.4.4 1 .8 1.6 1.2.8.5 1.7.8 2.5.9 0 0 1.3.1 1.9-.5.2-.2.2-.5.2-.7-.2-1-1.3-1.3-2-1.6-.9-.3-2-.5-3-.4-.2 0-.4 0-.6.1l-.3-.3c-.2-.3-.4-.5-.6-.8l.7-2.1c.2-.1.4-.1.6-.1.1.1.3.1.4.2.8.4 2 .8 3.2.8.4 0 .8 0 1.2-.1.4-.1.7-.4.7-.8s-.2-.8-.6-.9c-.4-.2-.8-.2-1.1-.2-1.3-.1-2.5-.1-3.6.1-.1-.1-.2-.1-.3-.2l.9-2.7c.5.3 1 .5 1.6.6 1.4.3 2.8 0 3.9-.7.5-.3.5-.7.5-.9-.1-.5-.6-.9-1.1-1-.5-.2-1-.1-1.5-.1-1 .1-2 .3-2.9.5.2-.6.3-1.1.5-1.7l.4-1.5c.3.1.6.1.9.2.9.2 1.9.3 3.1.1.2 0 .5-.1.8-.3.2-.2.3-.5.3-.8 0-.4-.2-.8-.5-1.1.7-.2 1.3-.7 1.5-1.4h.6c.4 0 .8 0 1.2-.1 1.5-.3 2.5-1.7 2.3-3.2-.1-.5-.2-1-.5-1.4l.1-.1c.3-.3.5-.6.7-1 .4-.8.4-1.6-.1-2.6s-1.5-1.7-3.2-1.9c-1.6-.2-3.2.2-4.4 1.1-.4.3-.8.7-1.1 1.1l.2-2.1.5-.5c.8-.7 1.8-1.2 3-1.5.5-.1 1.1-.2 1.8-.4.2 0 .4-.1.6-.1.4-.1.7-.2 1-.2.3 0 .5-.2.5-.5s-.2-.5-.5-.5h-1.9c-1.5 0-3.2 0-4.6-.3l.4-4.1c.7-.1 1.4-.2 2.1-.4.1 0 .3-.1.4-.1.6-.1 1.4-.3 1.9-.7.3-.3.5-.7.4-1.1-.1-.4-.4-.7-.8-.8h-.5c-.3 0-.6.1-.9.1-.1 0-.3 0-.4.1l-1.7.2 1.8-3.6c.4-.1.7-.3 1.1-.4l.1-.1c.3-.1.4-.4.4-.6 0-.3-.1-.6-.4-.7-.1 0-.2-.1-.3-.1l2.9-5.6c0-.1.1-.2 0-.3.3-.7.1-1.5-.1-2.1 0-.2-.1-.4-.1-.5 0-.2-.2-.4-.4-.4s-.4.1-.5.3l-1.6 3.4-3 .5c-.2 0-.4.1-.6.1-.9.1-1.8.3-2.7.7-.7.4-1.1.9-1.4 1.5l-.1.1-1.1 4.2c-.8-.2-1.7-.3-2.5-.5l-1.2-.3c-.2 0-.3-.1-.5-.1l-.2-.2c-.9-.7-1.6-1.6-2-2.6-1-2.4-2.3-5.5-2.8-9 0-.3-.1-.7-.3-1-.3-.4-.8-.6-1.3-.4-.3.1-.4.4-.5.5-.8 1.5-1.3 2.8-1.6 4.1-1.1-.9-2.5-1.7-4-1.8-.2 0-.4.1-.6.3s-.1.4-.1.6c.1.2.2.6.3.9.1.2.1.3.1.3.8 1.7.6 3.5.5 5.4 0 .5-.1 1-.1 1.5-.1 1.2.2 2.1.8 2.7l2.3 4c-.6.3-1.1.5-1.7.9-.5.4-1.2.9-2 1.6zm18.8 36.8c.7.5 1.3 1.2 1.5 2.1.1.3.1.6 0 .7 0 0-.1.1-.2.1-.3.1-.7 0-1.1-.2-.1 0-.1-.1-.2-.1-.8-.5-1.5-1.1-2.2-2-.4-.5-.9-1-.9-1.6h.4c1.2.3 2.1.6 2.7 1zm2.4-2.8c.5.2 1.2.4 1.4.8-.2.1-.7.1-1 .1-.7-.1-1.4-.4-2.1-.8-.2-.1-.5-.3-.8-.5.9.1 1.7.2 2.5.4zm.7-4.6c.2 0 .5.1.8.2-.2 0-.5.1-.8 0-.5 0-1-.1-1.5-.3.5 0 1 0 1.5.1zm-1.1-19.4c0-.4.1-.8.3-1.2l-.2 2c-.1-.2-.1-.5-.1-.8zm4.9 6.4c-.1 0-.2 0-.3-.1-1-.3-1.8-.8-2.3-1.3-.4-.5-.9-1.1-1.2-1.6.9.5 2.1.7 3.2.8.4.5.6 1.3.6 2.2zm-2.6-3.6c.1 0 .3.1.4.1-.1 0-.3-.1-.4-.1zm1.4-.5c-.8-.5-1.7-.6-2.4-.5.9-.7 1.7-1.1 2.8-1.1 1 0 1.9.4 2.8 1 .3.2.7.5 1 .8-.1 0-.2.1-.3.1-.9.3-1.9.5-2.8.5-.4-.3-.7-.6-1.1-.8zm-4.8 6.8c-.2 0-.3.1-.5.2-.6-.3-1.1-.8-1.5-1.3-.1-.1-.2-.2-.2-.3.1 0 .3-.1.4-.1.6.1 1.1.3 1.7.4.1 0 .2.1.3.1l-.2 1zm-12.8 20.3c-2.5-.6-5.1-1.1-7.7-1.5-1.5-.2-2.8-.3-4.1-.2-1.4.1-2.7.6-4 1.2-.6.4-1.3.8-1.8 1.2-.4.3-.8.6-1.2.8-.1.1-.3.2-.6.3.5-.9.9-1.8 1.3-2.7.4-.8.8-1.7 1.2-2.5 1-2 2.3-4 3.6-5.8l.1-.2c.3-.4.6-.9.9-1.3 1-1.5 1.9-3 3.3-4.2 1.5-1.4 3.4-2.5 5.4-3.1 2-.6 4-1.1 6-1.5.2 0 .4-.1.7-.1.7-.1 1.5-.2 2.2-.7.2-.1.4-.3.6-.4.5-.3.9-.6 1.4-.7h.8c.3 0 .7 0 1-.1.2 0 .4-.1.5-.1.1.2.2.4.4.6.3.5.8.9 1.2 1.3-.1.1-.2.1-.3.2-1.2 1-1.4 2.8-.6 4 .1.2.3.4.4.5-.4.2-.7.4-.9.6 0-.4-.2-.8-.7-1-.2-.1-.4-.1-.6-.1-.3 0-.5.2-.7.4s0 .5.2.8c.1.2.3.3.5.4.2.1.4.1.6.1h.1c.1 0 .2 0 .3-.1-.1.3-.2.5-.2.7-.1.7.2 1.3.5 1.7.1.2.3.4.4.5l-.1.3c-.5.2-1 .6-1.2 1.2-.2.5 0 1 .2 1.5 0 .1 0 .1.1.2v.1l-.7 2.3c-.3.3-.4.7-.4 1.1l-.6.3c-1.3.8-1.5 2.5-1.2 3.9.1.3.2.5.3.8l-.3.9c-.3-.4-.6-.9-.7-1.3l.3-.3c.2-.4-.1-.9-.7-1.1-.6-.2-1.1-.1-1.3.3-.2.4.1.9.7 1.1.1.4.3.8.5 1.2-.4-.1-.7-.2-1-.3-1.5-.5-2.8-.8-4.1-1.2zm10.4-11.9c-.2-.3-.3-.7-.3-.9.1-.5.5-.9.9-1.1l-.6 2zm-3.5 10.9c0-.8.1-1.6.7-2l-.7 2zm1.6.8.1.1c.6.6.9 1 .9 1.6 0 .1-.1.3-.1.3-.3.3-.7.2-.9 0-.3-.2-.6-.5-.9-1-.1-.1-.1-.2-.2-.3l.4-1.4.7.7zm1.4-6.1c-.1 0-.2.1-.3.1l.1-.3c.1 0 .1.1.2.2zm5.7-8.8c.4 0 .8-.1 1.1 0 .2.1.3.1.4.2-.9.6-2 .8-3.2.5-.4-.1-.7-.2-1.1-.3.9-.1 1.8-.3 2.8-.4zm-3.5-2.3c-.2.7-.3 1.3-.5 2-.2-.2-.3-.3-.4-.5-.6-.8-.4-2.1.4-2.7.2-.2.4-.3.7-.4.1 0 .1.1.2.1l-.4 1.5zm1.9-3.9c.1-.1.2-.2.2-.3v-.3c.1.2.2.4.4.5.2.2.4.4.7.5-.5.1-1 .2-1.5.4l.2-.8zm3.5 1.9s-.1.1-.3.1c-1 .1-1.9 0-2.7-.1-.2 0-.4-.1-.7-.1.9-.3 1.7-.4 2.4-.5.4 0 .8 0 1 .2.2 0 .3.3.3.4zm.2-2c-.3.1-.7 0-1.1-.1-.6-.1-1-.4-1.3-.6-.3-.3-.5-.8-.6-1.2 0-.1-.1-.2-.1-.3-.1-.2-.1-.3-.2-.5l.1-.9c.3.4.6.8.9 1.1.8.9 1.9 1.5 3.1 1.7-.1.4-.4.7-.8.8zm5-3.7c.1 1.1-.5 1.9-1.5 2.2-.4.1-.9.1-1.4.1.1-.9-.1-1.7-.5-2.5.9-.1 1.7-.3 2.5-.5l.6-.3c.1.3.2.6.3 1zm-5.9-5.3c1-.7 2.4-1.1 3.7-.9 1.6.2 2.3.8 2.5 1.3.3.7.3 1.3.1 1.8-.1.2-.3.5-.5.7-.4-.5-.9-.8-1.3-1.1-1-.7-2.1-1.1-3.3-1.1-.9 0-1.7.2-2.4.6.4-.5.7-.9 1.2-1.3zm1.1-4.5c-.9.3-1.7.7-2.4 1.3l.2-1.5c.7.1 1.5.2 2.2.2zm.5-7.3c.1 0 .3 0 .4-.1.3 0 .5-.1.8-.1h.3s.1 0 .1.1v.1c-.3.3-1 .4-1.5.5-.2 0-.3.1-.4.1-.6.2-1.2.3-1.7.3l.1-.9h1.9zm-6.3-6 .1.3c0 .2.1.3.1.5-.2.1-.3.2-.5.3l.3-1.1zm1.2 2.2.2.2c-.5-.1-.9-.2-1.4-.3.2-.1.5-.3.7-.4l.5.5zm-2.3.7c1.2.2 2.4.5 3.5.8.3.1.6.2.8.4l.3.3c.1.1.2.4-.4.9-.3.3-.9.4-1.5.5-.3-.2-.6-.3-.9-.5-.8-.5-1.7-1-2.5-1.3 0-.5.3-.8.7-1.1zm.4 2.8h-.4c-.2 0-.4-.1-.6-.1-.1-.1-.1-.3-.1-.4.3 0 .7.2 1.1.5zm2.1 1.1c.6 0 1.4-.1 2-.5l-.1.8h-1.6c-.8-.1-1.6-.1-2.3-.5.6.2 1.3.3 2 .2zm2.8-3c-.1-.1-.2-.3-.4-.4-.2-.2-.4-.3-.5-.5-.4-.4-.8-.8-1.2-1.1l-.2-.2-.3-.3c.3-.1.6-.2.8-.3 1.4-.4 2.5-.6 3.4-.5l-.2.4c-.5.1-1 .2-1.5.2-.3 0-.5.2-.5.5s.2.5.5.5.7 0 1-.1l-.9 1.8zm5.2-11.1c0 .3 0 .6-.1.9-.1.2-.3.4-.5.5l.6-1.4zm-7.7 4c.7-.4 1.5-.5 2.4-.6.2 0 .4-.1.7-.1l3.7-.6h.2l-2.2 4.3H253.4c-1-.1-2.3 0-3.9.5-.4.1-.7.3-1.1.4 0-.1 0-.1-.1-.2l-.4-2.4c.3-.7.5-1.1 1-1.3zm-15.2-3.4c.1-1.4.6-2.9 1.5-4.5 0 0 .1-.1.1-.2 0 0 .1 0 .1.1.1.1.1.3.2.6.6 3.6 1.8 6.8 2.9 9.2.3.7.7 1.3 1.1 1.8-.4-.1-.9-.3-1.3-.4-1.5-.5-2.7-1.3-3.4-2.2-1-1.1-1.4-2.7-1.2-4.4zm-1 .2c-.1 1.8.4 3.5 1.4 4.7.9 1.1 2.2 1.9 3.9 2.5 1.3.4 2.6.8 3.9 1.1l1.2.3c.7.2 1.3.3 2 .4-.3.3-.5.6-.6 1.1-1.4-.4-2.8-.6-4.3-.7-.8 0-1.7 0-2.5.1-.9 0-1.7.1-2.6.1-1.5-.1-2.7-.3-3.7-.9-.3-.2-.5-.3-.7-.5l-.3-.5c0-.1-.1-.1-.1-.1-.2-.4-.2-.9-.2-1.5 0-.5.1-1 .1-1.5.1-1.9.3-3.9-.5-5.9 0 0-.1-.1-.1-.2s-.1-.3-.1-.4c1.1.3 2.3 1.2 3.2 1.9zm-1.1 10c1 .4 2.1.6 3.4.7.9 0 1.8 0 2.7-.1.8 0 1.6-.1 2.4-.1 1.4 0 2.8.3 4.2.7 0 .2 0 .4.1.7-2.3-.3-4.4-.5-6.3-.4-1.9.1-3.6.4-5.1 1l-1.4-2.5zm13.2 2.8c.2.3.4.5.6.7.9.8 2.1 1 3.3 1h1.6l-.4 3.8c-1-.3-2-.8-2.7-1.6-.3-.3-.4-.5-.5-.9.3-.1.5-.3.5-.6 0-.5-.4-.8-1-.9-.2 0-.5 0-.7.1-.3.1-.5.3-.5.6 0 .4.2.7.7.8.1.6.3 1 .8 1.5.9.9 2.1 1.5 3.3 1.9l-.3 2.7c-.9 1-1.4 2.1-1.5 3.2 0 .5.1 1.8.7 2.4l.2.2-.3 2.8-.2 1.7c-.1 0-.2-.1-.4-.1-.9-.2-1.8-.5-2.7-.6 0-.4.3-.7.6-1.1.2 0 .4 0 .5-.1.3-.1.5-.3.5-.6 0-.5-.4-.8-1-.9-.2 0-.5 0-.7.1-.3.1-.5.3-.5.6 0 .2 0 .4.2.5-.3.4-.5.8-.6 1.4-1.1-.1-2.2-.1-3.4.3-1.2.4-2.4.6-3.5.6h-.5c-3.6 0-7.6 0-10.7 2.1-1.1.7-1.9 1.6-2.6 2.5 0 0-.8 1.2-1.3 2-.2-.1-.3-.3-.5-.4-.9-.7-1.8-1.5-2.7-2.2v-.1c-.1-1.6.5-3.5 1-5.2.2-.7.4-1.3.6-1.9 1.7-5.4 4.4-9.8 8-13.1.8-.7 1.4-1.2 2.1-1.6 4.5-2.6 10-2.2 14-1.6z" class="st1"/><path d="M246.1 97.5h.1c.2 0 .4 0 .5-.1.3-.1.5-.3.5-.6 0-.5-.4-.8-1-.9s-1.1.2-1.1.7c-.1.5.4.9 1 .9zM245.9 102.1h.1c.2 0 .4 0 .5-.1.3-.1.5-.3.5-.6s-.1-.5-.4-.7c-.2-.1-.4-.2-.6-.2-.6 0-1.1.2-1.1.7-.1.5.4.9 1 .9zM242 121.1c.2.1.4.1.6.1h.1c.3 0 .5-.2.7-.4.2-.4-.1-.9-.7-1.1-.6-.2-1.1-.1-1.3.3-.2.4 0 .9.6 1.1zM240.6 125.8c.2.1.4.1.6.1.3 0 .6-.1.7-.4.2-.4-.1-.9-.7-1.1-.2-.1-.4-.1-.6-.1-.3 0-.5.2-.7.4-.2.3.1.8.7 1.1zM86.8 157.8c.3 0 .5-.2.5-.5v-15.4c0-.3-.2-.5-.5-.5h-7.9c-1.9-7.2-14.3-12.6-29.1-12.6s-27.2 5.4-29.1 12.6h-7.9c-.3 0-.5.2-.5.5v15.4c0 .3.2.5.5.5h74zm-57.3-14.5h1.3l.1 12h-1.5l.1-12zm-.4 13h2.2v.6h-2.2v-.6zm2.6-15.4h-3.4v-3h42.9v3H31.7zm38.4 14.4h-1.5l.1-12H70l.1 12zm-1.9 1h2.2v.6h-2.2v-.6zm-4.6-1H62l.1-12h1.3l.2 12zm-1.9 1h2.2v.6h-2.2v-.6zm2.2-13.9h-2.2v-.5h2.2v.5zM57 155.3h-1.5l.1-12h1.3l.1 12zm-1.8 1h2.2v.6h-2.2v-.6zm2.1-13.9h-2.2v-.5h2.2v.5zm-6.8 12.9H49l.1-12h1.3l.1 12zm-1.9 1h2.2v.6h-2.2v-.6zm2.2-13.9h-2.2v-.5h2.2v.5zM44 155.3h-1.5l.1-12h1.3l.1 12zm-1.9 1h2.2v.6h-2.2v-.6zm2.2-13.9h-2.2v-.5h2.2v.5zm-8.2.9h1.3l.1 12H36l.1-12zm-.5 13h2.2v.6h-2.2v-.6zm2.2-14.4v.5h-2.2v-.5h2.2zm.6 13.5-.1-12c.2 0 .4-.2.4-.5v-1h2.4v1c0 .3.2.5.5.5l-.1 12c-.2.1-.3.2-.3.5v1.1h-2.4v-1.1c-.1-.3-.2-.5-.4-.5zm6.6 0-.1-12c.2 0 .4-.2.4-.5v-1h2.4v1c0 .3.2.5.5.5l-.1 12c-.2.1-.3.2-.3.5v1.1h-2.4v-1.1c-.1-.3-.3-.5-.4-.5zm6.5 0-.1-12c.2 0 .4-.2.4-.5v-1h2.4v1c0 .3.2.5.5.5l-.1 12c-.2.1-.3.2-.3.5v1.1h-2.4v-1.1c-.1-.3-.2-.5-.4-.5zm6.5 0-.1-12c.2 0 .4-.2.4-.5v-1h2.4v1c0 .3.2.5.5.5l-.1 12c-.2.1-.3.2-.3.5v1.1h-2.4v-1.1c-.1-.3-.2-.5-.4-.5zm6.5 0-.1-12c.2 0 .4-.2.4-.5v-1h2.4v1c0 .3.2.5.5.5l-.1 12c-.2.1-.3.2-.3.5v1.1h-2.4v-1.1c-.1-.3-.2-.5-.4-.5zm5.9-13h-2.2v-.5h2.2v.5zm-39.1-.5v.5h-2.2v-.5h2.2zm.6 13.5-.1-12c.2 0 .4-.2.4-.5v-1h2.4v1c0 .3.2.5.5.5l-.1 12c-.2.1-.3.2-.3.5v1.1h-2.4v-1.1c-.1-.3-.2-.5-.4-.5zm-18.7-13H21c.2 0 .4-.2.5-.4.7-3.3 3.9-6.3 9.1-8.6 5.3-2.3 12.1-3.6 19.2-3.6s13.9 1.3 19.2 3.6c5.1 2.3 8.4 5.3 9.1 8.6 0 .2.2.4.5.4h7.8v14.5h-15v-1.1c0-.2-.1-.4-.3-.4l-.1-12c.2 0 .4-.2.4-.5v-1h.3c.3 0 .5-.2.5-.5v-3.5h.1c.3 0 .5-.2.5-.5s-.2-.5-.5-.5h-45c-.3 0-.5.2-.5.5s.2.5.5.5h.1v3.5c0 .3.2.5.5.5h.3v1c0 .3.2.5.5.5l-.1 12c-.2.1-.3.2-.3.5v1.1h-15v-14.6z" class="st1"/><path d="M79.9 153h3.6c.3 0 .5-.2.5-.5v-5.2c0-.3-.2-.5-.5-.5h-3.6c-.3 0-.5.2-.5.5v5.2c.1.3.3.5.5.5zm.5-5.1h2.7v4.2h-2.7v-4.2zM74 153h3.6c.3 0 .5-.2.5-.5v-5.2c0-.3-.2-.5-.5-.5H74c-.3 0-.5.2-.5.5v5.2c0 .3.3.5.5.5zm.5-5.1h2.7v4.2h-2.7v-4.2zM25.5 146.9h-3.6c-.3 0-.5.2-.5.5v5.2c0 .3.2.5.5.5h3.6c.3 0 .5-.2.5-.5v-5.2c0-.3-.2-.5-.5-.5zm-.5 5.2h-2.7v-4.2H25v4.2zM19.6 146.9H16c-.3 0-.5.2-.5.5v5.2c0 .3.2.5.5.5h3.6c.3 0 .5-.2.5-.5v-5.2c-.1-.3-.3-.5-.5-.5zm-.5 5.2h-2.7v-4.2h2.7v4.2zM315.2 285h-7.9c-1.9-7.2-14.3-12.6-29.1-12.6S251 277.8 249 285h-7.9c-.3 0-.5.2-.5.5v15.4c0 .3.2.5.5.5h74.1c.3 0 .5-.2.5-.5v-15.4c0-.3-.2-.5-.5-.5zm-57.2 1.9h1.3l.1 12h-1.5l.1-12zm-.5 12.9h2.2v.6h-2.2v-.6zm2.7-15.3h-3.5v-3h42.9v3H260.2zm38.3 14.4H297l.1-12h1.3l.1 12zm-1.9.9h2.2v.6h-2.2v-.6zm-4.6-.9h-1.5l.1-12h1.3l.1 12zm-1.9.9h2.2v.6h-2.2v-.6zm2.2-13.8h-2.2v-.5h2.2v.5zm-6.8 12.9H284l.1-12h1.3l.1 12zm-1.9.9h2.2v.6h-2.2v-.6zm2.2-13.8h-2.2v-.5h2.2v.5zm-6.9 12.9h-1.5l.1-12h1.3l.1 12zm-1.8.9h2.2v.6h-2.2v-.6zm2.1-13.8H277v-.5h2.2v.5zm-6.8 12.9h-1.5l.1-12h1.3l.1 12zm-1.9.9h2.2v.6h-2.2v-.6zm2.2-13.8h-2.2v-.5h2.2v.5zm-8.2.9h1.3l.1 12h-1.5l.1-12zm-.5 12.9h2.2v.6H264v-.6zm2.2-14.3v.5H264v-.5h2.2zm.7 13.4-.1-12c.2 0 .4-.2.4-.5v-1h2.4v1c0 .3.2.5.5.5l-.1 12c-.2.1-.3.2-.3.5v1.1h-2.4v-1.1c-.1-.2-.3-.4-.4-.5zm6.5 0-.1-12c.2 0 .4-.2.4-.5v-1h2.4v1c0 .3.2.5.5.5l-.1 12c-.2.1-.3.2-.3.5v1.1h-2.4v-1.1c-.1-.2-.2-.4-.4-.5zm6.5 0-.1-12c.2 0 .4-.2.4-.5v-1h2.4v1c0 .3.2.5.5.5l-.1 12c-.2.1-.3.2-.3.5v1.1h-2.4v-1.1c-.1-.2-.2-.4-.4-.5zm6.5 0-.1-12c.2 0 .4-.2.4-.5v-1h2.4v1c0 .3.2.5.5.5l-.1 12c-.2.1-.3.2-.3.5v1.1h-2.4v-1.1c-.1-.2-.2-.4-.4-.5zm6.6 0-.1-12c.2 0 .4-.2.4-.5v-1h2.4v1c0 .3.2.5.5.5l-.1 12c-.2.1-.3.2-.3.5v1.1h-2.4v-1.1c-.2-.2-.3-.4-.4-.5zm5.8-12.9h-2.2v-.5h2.2v.5zm-39.1-.5v.5h-2.2v-.5h2.2zm.6 13.4-.1-12c.2 0 .4-.2.4-.5v-1h2.4v1c0 .3.2.5.5.5l-.1 12c-.2.1-.3.2-.3.5v1.1h-2.4v-1.1c-.1-.2-.2-.4-.4-.5zm54.4 1.5h-15v-1.1c0-.2-.1-.4-.3-.4l-.1-12c.2 0 .4-.2.4-.5v-1h.3c.3 0 .5-.2.5-.5v-3.5h.1c.3 0 .5-.2.5-.5s-.2-.5-.5-.5h-45c-.3 0-.5.2-.5.5s.2.5.5.5h.1v3.5c0 .3.2.5.5.5h.3v1c0 .3.2.5.5.5l-.1 12c-.2.1-.3.2-.3.5v1.1h-15V286h7.8c.2 0 .4-.2.5-.4.7-3.3 3.9-6.3 9.1-8.6 5.3-2.3 12.1-3.6 19.2-3.6s13.9 1.3 19.2 3.6c5.1 2.3 8.4 5.3 9.1 8.6 0 .2.2.4.5.4h7.8l-.1 14.4z" class="st1"/><path d="M308.4 296.6h3.6c.3 0 .5-.2.5-.5V291c0-.3-.2-.5-.5-.5h-3.6c-.3 0-.5.2-.5.5v5.2c0 .2.2.4.5.4zm.4-5.2h2.7v4.2h-2.7v-4.2zM306.1 290.5h-3.6c-.3 0-.5.2-.5.5v5.2c0 .3.2.5.5.5h3.6c.3 0 .5-.2.5-.5V291c-.1-.3-.3-.5-.5-.5zm-.5 5.1h-2.7v-4.2h2.7v4.2zM253.9 290.5h-3.6c-.3 0-.5.2-.5.5v5.2c0 .3.2.5.5.5h3.6c.3 0 .5-.2.5-.5V291c0-.3-.2-.5-.5-.5zm-.5 5.1h-2.7v-4.2h2.7v4.2zM248 290.5h-3.6c-.3 0-.5.2-.5.5v5.2c0 .3.2.5.5.5h3.6c.3 0 .5-.2.5-.5V291c0-.3-.3-.5-.5-.5zm-.5 5.1h-2.7v-4.2h2.7v4.2zM61.7 115.7c0 .3.2.5.5.5H76.8c.3 0 .5-.2.5-.5v-48c0-.2-.1-.3-.2-.4l-4.2-2.4h-6.3c-.1 0-.2 0-.2.1l-4.2 2.4c-.1.1-.2.2-.2.4v47.9zm14.6-.5h-3.2V69.3l3.2 1.7v44.2zm-4.2 0h-5.3V69h5.3v46.2zm0-47.1h-5.3v-2.2h5.3v2.2zm-6.2 47.1h-3.2V71.1l3.2-1.8v45.9zM76.3 70l-3.2-1.7v-2.1l3.2 1.9V70zm-10.4-3.8v2.1L62.6 70v-2l3.3-1.8z" class="st1"/><path d="M68.6 85.3h1.9c.3 0 .5-.2.5-.5V71.3c0-.3-.2-.5-.5-.5h-1.9c-.3 0-.5.2-.5.5v13.5c0 .3.2.5.5.5zm.5-13.5h.9v12.5h-.9V71.8zM64.2 86.2c.3 0 .5-.2.5-.5V72.1c0-.3-.2-.5-.5-.5s-.5.2-.5.5v13.6c0 .3.3.5.5.5zM74.7 86.2c.3 0 .5-.2.5-.5V72.1c0-.3-.2-.5-.5-.5s-.5.2-.5.5v13.6c.1.3.3.5.5.5zM215.3 288.6c0 .3.2.5.5.5H230.4c.3 0 .5-.2.5-.5v-47.9c0-.2-.1-.3-.2-.4l-4.2-2.4H220c-.1 0-.2 0-.2.1l-4.2 2.4c-.1.1-.2.2-.2.4v3.1l-.1 44.7zm14.7-.5h-3.2v-45.8l3.2 1.7v44.1zm-4.2 0h-5.3V242h5.3v46.1zm0-47.1h-5.3v-2.2h5.3v2.2zm-6.3 47.1h-3.2V244l3.2-1.8v45.9zm10.5-45.2-3.2-1.7v-2.1l3.2 1.9v1.9zm-10.5-3.8v2.1l-3.2 1.8v-2l3.2-1.9z" class="st1"/><path d="M222.2 258.2h1.9c.3 0 .5-.2.5-.5v-13.5c0-.3-.2-.5-.5-.5h-1.9c-.3 0-.5.2-.5.5v13.5c0 .3.3.5.5.5zm.5-13.5h.9v12.5h-.9v-12.5zM217.9 259.1c.3 0 .5-.2.5-.5V245c0-.3-.2-.5-.5-.5s-.5.2-.5.5v13.6c0 .3.2.5.5.5zM228.4 259.1c.3 0 .5-.2.5-.5V245c0-.3-.2-.5-.5-.5s-.5.2-.5.5v13.6c0 .3.2.5.5.5zM61 24h.7v34.9c0 .3.2.5.5.5h92c.3 0 .5-.2.5-.5V24h.8c.3 0 .5-.2.5-.5s-.2-.5-.5-.5h-27.2v-1.2h.4c.3 0 .5-.2.5-.5s-.2-.5-.5-.5H87.4c-.3 0-.5.2-.5.5s.2.5.5.5h.4V23H61c-.3 0-.5.2-.5.5 0 .2.2.5.5.5zm40.5 3.9V29c0 .3.2.5.5.5l-.1 15.5c-.2 0-.4-.1-.6-.1h-.1c-.9-.2-1.9-.3-2.9-.5-.5-.1-1.1-.2-1.6-.3l-.1-14.5c.2 0 .4-.2.4-.5V28l4.5-.1zm8.7 0V29c0 .3.2.5.5.5l-.1 12.5c-.2 0-.5.1-.7.2-.1 0-.2.1-.3.1-.1.1-.3.2-.4.2-.1 0-.2-.2-.3-.3l-.2-.2c-.3-.4-.7-.5-1.2-.5h-.1c-.6 0-1.2 0-1.7.5l-.2.2-.1-12.7c.2 0 .4-.2.4-.5v-1.1h4.4zm8.8 0V29c0 .3.2.5.5.5l-.1 25.9-.2-.6c-.1-.2-.2-.4-.5-.4h-.1l.1-2.5c0-.3 0-.7.1-1 .1-.8.1-1.7.1-2.5-.1-1.3-.7-2.5-1.7-3.4-.5-.4-1.1-.7-1.7-.9-.1 0-.2 0-.4-.1-.3-.1-.6-.1-.8-.3l-.1-.1-.1-14.1c.2 0 .4-.2.4-.5v-1.1h4.5zm8.6 0v30.4h-4.3v-1.2c0-.2-.1-.4-.3-.4l-.1-27.2c.2 0 .4-.2.4-.5v-1.1h4.3zm-23.1 15.6c-.1.1-.1.3-.2.4-.1.2-.1.4-.2.5-.3.4-.7.5-1.2.5l.1-15.4h1.5v14zm-2.2 2.4s.1 0 0 0c1 .1 2 0 2.6-.9.2-.2.3-.5.3-.7l.3-.6.1-.1c.3-.4.5-.7.8-1 .3-.2.6-.3 1.1-.3h.1c.2 0 .3 0 .5.2l.1.1c.2.3.6.7 1.1.7.3 0 .6-.2.8-.3.1 0 .2-.1.2-.1 1.1-.4 2.2-.1 2.9.8l.1.1c.1.1.2.3.4.4.4.4.9.4 1.3.5.1 0 .2 0 .3.1.5.1.9.3 1.3.6.8.7 1.3 1.7 1.4 2.7 0 .8 0 1.6-.1 2.4 0 .4-.1.7-.1 1.1l-.1 2.6h-.4V51c0-.2-.1-.3-.2-.4l-1-.6c-.1-.1-.3-.1-.5 0s-.3.2-.3.4c0 1.3-.3 2.6-.5 3.9v.2h-.4c.3-1 .4-1.9.5-3 0-.3-.2-.5-.5-.7-.1-.1-.3-.2-.4-.3-.4-.2-.9-.2-1.4-.2h-1.3c-.1 0-.3.1-.4.1-.1.1-.2.3-.3 1.4-.1.5-.1 1.1-.1 1.2 0 .5.1 1 .2 1.4h-.4v-.1c-.2-.5-.3-1-.3-1.5 0-.2 0-.5.1-.7 0-.3 0-.5.1-.8v-.2l-.3-.8c0-.1-.1-.1-.1-.2V50c-.2-.4-.4-.8-.7-1.2v-.1c-.4-.5-1-.7-1.6-.6h-.1c-.4.1-.8 0-1.1-.1.4-.4.7-.8.8-.9.2-.2.1-.5-.1-.7-.2-.2-.5-.1-.7.1-.1.2-.5.6-1 1.1-.5-.2-1.1-.4-1.7-.5l-7-1.6h-.1s-.1 0-.1-.1l-.3-.4v-.1h.1c.6.1 1.3.2 2 .3 1 .2 1.9.3 2.8.5h.1c.4.1.8.2 1.2.2zm11-3.4c-.5-.4-1-.6-1.6-.6l.1-12.3h1.5v12.9zm8.6-12.9.1 27h-1.8l.1-27h1.6zm-2.8 28.6h-13l.7-2.9H118.4l.7 2.9zm-16.2-8c.6-.2 1.2-.6 1.7-1l.1 7.4h-1.8v-6.4zm.3-2.2c.4.1.7.2 1.1.3-.1.1-.3.2-.4.3l-.9.6v-1.3l.2.1zm6 3.4c0 .2 0 .4-.1.6 0 .2 0 .5-.1.7v.1c0-.1-.1-.2-.1-.2-.2-.5-.4-.9-.4-1.4.1-.1.3-.2.5-.3l.2.5zm-1.1 1.6-.5.2c0-.2 0-.4-.1-.5-.1-.2-.1-.3-.2-.5s-.2-.3-.2-.5c-.1-.6 0-1 .5-1.3l.2-.1c.2-.1.4-.3.7-.4.1.1.1.2.2.3-.5.2-1 .6-1 1.1-.2.5.1 1.2.4 1.7zm-.9-3.6-.2.1c-.9.6-1.2 1.4-.9 2.4.1.3.2.5.3.7.1.1.1.3.2.4.1.2 0 .4 0 .6v.3c0 .2.1.3.2.4.1.1.2.1.3.1h.2l1.6-.6c.1 0 .2-.1.2-.2.1.3.1.6.2.9h-2.9c-.2 0-.4.1-.5.4l-.4 1.6-.1-7.6c.5.3 1.2.4 1.8.2h.4c0 .1-.2.2-.4.3zm4.4 4.8c-.1-.4-.2-.9-.2-1.3 0-.2.1-1.3.2-1.8H112.5c.3 0 .7 0 .9.1.1 0 .3.2.4.3-.1 1.1-.3 2-.5 2.9h-1.6s-.1-.1-.1-.2zm4.7.2h-.5c.2-1 .4-2.1.5-3.2v3.2zM95.7 29.6l.1 14.4c-.1.1-.3.1-.4.2-.3.3-.4.6-.3 1l.1.3c.1.3.3.6.6.8v10.3H94l.1-27h1.6zm-2 28.6v-.6h2.5v.6h-2.5zm3.1-1.6V46.5l5.1 1.1v1.8c-.3.1-.5.1-.7 0-.6-.1-1.1-.5-1.5-1.3-.1-.2-.4-.3-.6-.2-.2.1-.3.4-.2.6.5 1.1 1.3 1.7 2.2 1.8h.8v6.1c-.2 0-.4.2-.4.5v1.2h-4.4v-1.2s-.1-.2-.3-.3zm5.6 1.6v-.6h2.5v.6h-2.5zm17.7 0-.1-.6h2.4v.6h-2.3zm2.3-30.3v.6h-2.5v-.6h2.5zm-8.8 0v.6h-2.5v-.6h2.5zm-8.7 0v.6h-2.5v-.6h2.5zm-8.7 0v.6h-2.5v-.6h2.5zm-3 1.5-.1 27.2c-.2 0-.4.2-.4.5v1.2h-4V27.9h4V29c.1.2.3.4.5.4zm60.6-5.4h.2v34.4h-25.5V24h25.3zm-26.2-2.2V27H88.7v-5.2h38.9zM62.9 24h24.9v34.3H62.6V24h.3z" class="st1"/><path d="M69.4 35.4h4c.3 0 .5-.2.5-.5v-5.6c0-.3-.2-.5-.5-.5h-4c-.3 0-.5.2-.5.5v5.6c0 .3.2.5.5.5zm.5-5.6h3v4.7h-3v-4.7zM76.8 35.4h4c.3 0 .5-.2.5-.5v-5.6c0-.3-.2-.5-.5-.5h-4c-.3 0-.5.2-.5.5v5.6c0 .3.3.5.5.5zm.5-5.6h3v4.7h-3v-4.7zM69.4 44.5h4c.3 0 .5-.2.5-.5v-5.6c0-.3-.2-.5-.5-.5h-4c-.3 0-.5.2-.5.5V44c0 .3.2.5.5.5zm.5-5.6h3v4.7h-3v-4.7zM76.8 44.5h4c.3 0 .5-.2.5-.5v-5.6c0-.3-.2-.5-.5-.5h-4c-.3 0-.5.2-.5.5V44c0 .3.3.5.5.5zm.5-5.6h3v4.7h-3v-4.7zM69.4 53.5h4c.3 0 .5-.2.5-.5v-5.6c0-.3-.2-.5-.5-.5h-4c-.3 0-.5.2-.5.5V53c0 .3.2.5.5.5zm.5-5.6h3v4.7h-3v-4.7zM76.8 53.5h4c.3 0 .5-.2.5-.5v-5.6c0-.3-.2-.5-.5-.5h-4c-.3 0-.5.2-.5.5V53c0 .3.3.5.5.5zm.5-5.6h3v4.7h-3v-4.7zM135.7 35.4h4c.3 0 .5-.2.5-.5v-5.6c0-.3-.2-.5-.5-.5h-4c-.3 0-.5.2-.5.5v5.6c0 .3.2.5.5.5zm.5-5.6h3v4.7h-3v-4.7zM143.1 35.4h4c.3 0 .5-.2.5-.5v-5.6c0-.3-.2-.5-.5-.5h-4c-.3 0-.5.2-.5.5v5.6c0 .3.2.5.5.5zm.5-5.6h3v4.7h-3v-4.7zM135.7 44.5h4c.3 0 .5-.2.5-.5v-5.6c0-.3-.2-.5-.5-.5h-4c-.3 0-.5.2-.5.5V44c0 .3.2.5.5.5zm.5-5.6h3v4.7h-3v-4.7zM143.1 44.5h4c.3 0 .5-.2.5-.5v-5.6c0-.3-.2-.5-.5-.5h-4c-.3 0-.5.2-.5.5V44c0 .3.2.5.5.5zm.5-5.6h3v4.7h-3v-4.7zM135.7 53.5h4c.3 0 .5-.2.5-.5v-5.6c0-.3-.2-.5-.5-.5h-4c-.3 0-.5.2-.5.5V53c0 .3.2.5.5.5zm.5-5.6h3v4.7h-3v-4.7zM143.1 53.5h4c.3 0 .5-.2.5-.5v-5.6c0-.3-.2-.5-.5-.5h-4c-.3 0-.5.2-.5.5V53c0 .3.2.5.5.5zm.5-5.6h3v4.7h-3v-4.7zM109.8 46.6c-.3 0-.6-.1-.9-.3-.2-.1-.5 0-.6.2-.1.2 0 .5.2.6.5.2.9.4 1.4.4.6 0 1-.7 1.2-2.1.1-.5 0-.9-.3-1.1-.2-.2-.5-.4-.9-.4-.6 0-.9.1-1.4.4-.2.1-.3.4-.2.6.1.2.4.3.6.2.4-.2.6-.3 1-.3h.2s.1.1 0 .4c-.1.9-.2 1.3-.3 1.4zM4.7 177.3h.7c.3 0 .5-.2.5-.5s-.2-.5-.5-.5h-.2v-.4c0-.3-.2-.5-.5-.5s-.5.2-.5.5v.9c0 .3.2.5.5.5zM179.5 5.7h.7c.3 0 .5-.2.5-.5s-.2-.5-.5-.5h-.2v-.3c0-.3-.2-.5-.5-.5s-.5.2-.5.5v.9c0 .2.2.4.5.4zM3.4 250.8h3.3c.3 0 .5-.2.5-.5v-4.1c0-.3-.2-.5-.5-.5H3.4c-.3 0-.5.2-.5.5v4.1c0 .3.3.5.5.5zm.5-4.1h2.3v3.2H3.9v-3.2zM54.4 228.8h-3.3c-.3 0-.5.2-.5.5v4.1c0 .3.2.5.5.5h3.3c.3 0 .5-.2.5-.5v-4.1c0-.3-.2-.5-.5-.5zm-.5 4.2h-2.3v-3.2h2.3v3.2zM54.4 236.5h-3.3c-.3 0-.5.2-.5.5v4.1c0 .3.2.5.5.5h3.3c.3 0 .5-.2.5-.5V237c0-.3-.2-.5-.5-.5zm-.5 4.2h-2.3v-3.2h2.3v3.2zM54.4 244.2h-3.3c-.3 0-.5.2-.5.5v4.1c0 .3.2.5.5.5h3.3c.3 0 .5-.2.5-.5v-4.1c0-.2-.2-.5-.5-.5zm-.5 4.2h-2.3v-3.2h2.3v3.2zM54.4 251.9h-3.3c-.3 0-.5.2-.5.5v4.1c0 .3.2.5.5.5h3.3c.3 0 .5-.2.5-.5v-4.1c0-.2-.2-.5-.5-.5zm-.5 4.2h-2.3v-3.2h2.3v3.2zM8.8 250.8H12c.3 0 .5-.2.5-.5v-4.1c0-.3-.2-.5-.5-.5H8.8c-.3 0-.5.2-.5.5v4.1c0 .3.2.5.5.5zm.4-4.1h2.3v3.2H9.2v-3.2zM14.1 250.8h3.3c.3 0 .5-.2.5-.5v-4.1c0-.3-.2-.5-.5-.5h-3.3c-.3 0-.5.2-.5.5v4.1c0 .3.2.5.5.5zm.5-4.1h2.3v3.2h-2.3v-3.2zM3.4 257.7h3.3c.3 0 .5-.2.5-.5V253c0-.3-.2-.5-.5-.5H3.4c-.3 0-.5.2-.5.5v4.1c0 .3.3.6.5.6zm.5-4.2h2.3v3.2H3.9v-3.2zM8.8 257.7H12c.3 0 .5-.2.5-.5V253c0-.3-.2-.5-.5-.5H8.8c-.3 0-.5.2-.5.5v4.1c0 .3.2.6.5.6zm.4-4.2h2.3v3.2H9.2v-3.2zM14.1 257.7h3.3c.3 0 .5-.2.5-.5V253c0-.3-.2-.5-.5-.5h-3.3c-.3 0-.5.2-.5.5v4.1c0 .3.2.6.5.6zm.5-4.2h2.3v3.2h-2.3v-3.2zM31.3 245.7H28c-.3 0-.5.2-.5.5v4.1c0 .3.2.5.5.5h3.3c.3 0 .5-.2.5-.5v-4.1c0-.3-.3-.5-.5-.5zm-.5 4.2h-2.3v-3.2h2.3v3.2zM31.3 252.5H28c-.3 0-.5.2-.5.5v4.1c0 .3.2.5.5.5h3.3c.3 0 .5-.2.5-.5V253c0-.2-.3-.5-.5-.5zm-.5 4.2h-2.3v-3.2h2.3v3.2zM85.2 295.8l-2-.5V290c0-.2-.1-.4-.3-.5l-2.4-.9v-5.5c0-.2-.1-.3-.3-.4l-2.3-1.2V279c0-.3-.2-.5-.5-.5H34.2v-5c0-.3-.2-.5-.5-.5H7.5c-.3 0-.5.2-.5.5v36.1c0 .3.2.5.5.5H85c.3 0 .5-.2.5-.5v-13.5c0-.1-.1-.3-.3-.3zM77 281.1l-3-1.5h3v1.5zm-5.7 28.1h-9.6v-6.9h9.6v6.9zm-10.1-7.8H49.4V284l16.4.2v17.2h-4.6zm-17.3 1h10v6.9h-10v-6.9zm7.8-19.3h-1.2v-.8h1.2v.8zm5.4.1h-1.2v-.8h1.2v.8zm5.3 0h-1.2v-.9h1.2v.9zm4.1.1v-1h1.2v1.4l-1.2-.4zm1.7-1.9H66c-.3 0-.5.2-.5.5v1.4h-2.2v-1.4c0-.3-.2-.5-.5-.5h-2.1c-.3 0-.5.2-.5.5v1.4H58V282c0-.3-.2-.5-.5-.5h-2.1c-.3 0-.5.2-.5.5v1.3h-2.4V282c0-.3-.2-.5-.5-.5h-2c-.3 0-.5.2-.5.5v1.3h-.7l-1.4.4v-1.6c0-.3-.2-.5-.5-.5h-2.1c-.3 0-.5.2-.5.5v2.5l-3.1.8v-5.6h30.3v5.5l-2.8-1v-2.2c-.1-.5-.3-.7-.5-.7zm-21.8 2.3-1.2.3v-1.7h1.2v1.4zm-15.3-1.5v27.1h-4.5v-29.7h11.3l-6.4 2.2c-.3 0-.4.2-.4.4zM8 274.1h25.2v4.5h-7.1c-.3 0-.5.2-.5.5v30.2H8v-35.2zm24 35.1v-26.7l8.2-2.8v6c0 .1.1.3.2.4.1.1.3.1.4.1l7.6-2v17.3h-5c-.3 0-.5.2-.5.5v7.2H32zm22.9 0v-6.9h5.9v6.9h-5.9zm29.7 0H72.3v-7.3c0-.3-.2-.5-.5-.5h-5v-17l5 1.7c.1 0 .3 0 .4-.1.1-.1.2-.2.2-.4v-5.9l7.1 3.6v5.6c0 .2.1.4.3.5l2.4.9v5.3c0 .2.1.4.4.5l2 .5v12.6z" class="st1"/><path d="M36.1 287.3c-.1-.1-.3-.1-.4-.1l-2.1.6c-.2.1-.4.2-.4.5v2.5c0 .1.1.3.2.4.1.1.2.1.3.1h.1l2.1-.6c.2-.1.4-.2.4-.5v-2.5c0-.2-.1-.3-.2-.4zm-.7 2.5-1.2.3v-1.5l1.2-.3v1.5zM36.1 291.4c-.1-.1-.3-.1-.4-.1l-2.1.6c-.2.1-.4.2-.4.5v2.5c0 .1.1.3.2.4.1.1.2.1.3.1h.1l2.1-.6c.2-.1.4-.2.4-.5v-2.5c0-.2-.1-.3-.2-.4zm-.7 2.5-1.2.3v-1.5l1.2-.3v1.5zM36.1 295.5c-.1-.1-.3-.1-.4-.1l-2.1.6c-.2.1-.4.2-.4.5v2.5c0 .1.1.3.2.4.1.1.2.1.3.1h.1l2.1-.6c.2-.1.4-.2.4-.5v-2.5c0-.2-.1-.3-.2-.4zm-.7 2.5-1.2.3v-1.5l1.2-.3v1.5zM72.5 287.8l-2.1-.6c-.1 0-.3 0-.4.1s-.2.2-.2.4v2.5c0 .2.1.4.4.5l2.1.6h.1c.1 0 .2 0 .3-.1.1-.1.2-.2.2-.4v-2.5c-.1-.3-.2-.5-.4-.5zm-.6 2.4-1.2-.3v-1.5l1.2.3v1.5zM72.5 291.9l-2.1-.6c-.1 0-.3 0-.4.1s-.2.2-.2.4v2.5c0 .2.1.4.4.5l2.1.6h.1c.1 0 .2 0 .3-.1.1-.1.2-.2.2-.4v-2.5c-.1-.3-.2-.5-.4-.5zm-.6 2.4-1.2-.3v-1.5l1.2.3v1.5zM72.5 296l-2.1-.6c-.1 0-.3 0-.4.1s-.2.2-.2.4v2.5c0 .2.1.4.4.5l2.1.6h.1c.1 0 .2 0 .3-.1.1-.1.2-.2.2-.4v-2.5c-.1-.3-.2-.5-.4-.5zm-.6 2.4-1.2-.3v-1.5l1.2.3v1.5zM11 93.8h3.1c.3 0 .5-.2.5-.5v-4.4c0-.3-.2-.5-.5-.5H11c-.3 0-.5.2-.5.5v4.4c0 .3.2.5.5.5zm.5-4.4h2.1v3.5h-2.1v-3.5zM16 93.8h3.1c.3 0 .5-.2.5-.5v-4.4c0-.3-.2-.5-.5-.5H16c-.3 0-.5.2-.5.5v4.4c.1.3.3.5.5.5zm.5-4.4h2.1v3.5h-2.1v-3.5zM11 104.2h3.1c.3 0 .5-.2.5-.5v-4.4c0-.3-.2-.5-.5-.5H11c-.3 0-.5.2-.5.5v4.4c0 .3.2.5.5.5zm.5-4.4h2.1v3.5h-2.1v-3.5zM16 104.2h3.1c.3 0 .5-.2.5-.5v-4.4c0-.3-.2-.5-.5-.5H16c-.3 0-.5.2-.5.5v4.4c.1.3.3.5.5.5zm.5-4.4h2.1v3.5h-2.1v-3.5zM11 114.6h3.1c.3 0 .5-.2.5-.5v-4.4c0-.3-.2-.5-.5-.5H11c-.3 0-.5.2-.5.5v4.4c0 .2.2.5.5.5zm.5-4.5h2.1v3.5h-2.1v-3.5zM16 114.6h3.1c.3 0 .5-.2.5-.5v-4.4c0-.3-.2-.5-.5-.5H16c-.3 0-.5.2-.5.5v4.4c.1.2.3.5.5.5zm.5-4.5h2.1v3.5h-2.1v-3.5zM27.3 93.8h3.1c.3 0 .5-.2.5-.5v-4.4c0-.3-.2-.5-.5-.5h-3.1c-.3 0-.5.2-.5.5v4.4c0 .3.2.5.5.5zm.5-4.4h2.1v3.5h-2.1v-3.5zM32.4 93.8h3.1c.3 0 .5-.2.5-.5v-4.4c0-.3-.2-.5-.5-.5h-3.1c-.3 0-.5.2-.5.5v4.4c0 .3.2.5.5.5zm.5-4.4H35v3.5h-2.1v-3.5zM37.4 93.8h3.1c.3 0 .5-.2.5-.5v-4.4c0-.3-.2-.5-.5-.5h-3.1c-.3 0-.5.2-.5.5v4.4c.1.3.3.5.5.5zm.5-4.4H40v3.5h-2.1v-3.5zM42.5 93.8h3.1c.3 0 .5-.2.5-.5v-4.4c0-.3-.2-.5-.5-.5h-3.1c-.3 0-.5.2-.5.5v4.4c0 .3.2.5.5.5zm.5-4.4h2.1v3.5H43v-3.5zM27.3 104.2h3.1c.3 0 .5-.2.5-.5v-4.4c0-.3-.2-.5-.5-.5h-3.1c-.3 0-.5.2-.5.5v4.4c0 .3.2.5.5.5zm.5-4.4h2.1v3.5h-2.1v-3.5zM32.4 104.2h3.1c.3 0 .5-.2.5-.5v-4.4c0-.3-.2-.5-.5-.5h-3.1c-.3 0-.5.2-.5.5v4.4c0 .3.2.5.5.5zm.5-4.4H35v3.5h-2.1v-3.5zM37.4 104.2h3.1c.3 0 .5-.2.5-.5v-4.4c0-.3-.2-.5-.5-.5h-3.1c-.3 0-.5.2-.5.5v4.4c.1.3.3.5.5.5zm.5-4.4H40v3.5h-2.1v-3.5zM42.5 104.2h3.1c.3 0 .5-.2.5-.5v-4.4c0-.3-.2-.5-.5-.5h-3.1c-.3 0-.5.2-.5.5v4.4c0 .3.2.5.5.5zm.5-4.4h2.1v3.5H43v-3.5zM27.3 114.6h3.1c.3 0 .5-.2.5-.5v-4.4c0-.3-.2-.5-.5-.5h-3.1c-.3 0-.5.2-.5.5v4.4c0 .2.2.5.5.5zm.5-4.5h2.1v3.5h-2.1v-3.5zM32.4 114.6h3.1c.3 0 .5-.2.5-.5v-4.4c0-.3-.2-.5-.5-.5h-3.1c-.3 0-.5.2-.5.5v4.4c0 .2.2.5.5.5zm.5-4.5H35v3.5h-2.1v-3.5zM37.4 114.6h3.1c.3 0 .5-.2.5-.5v-4.4c0-.3-.2-.5-.5-.5h-3.1c-.3 0-.5.2-.5.5v4.4c.1.2.3.5.5.5zm.5-4.5H40v3.5h-2.1v-3.5zM42.5 114.6h3.1c.3 0 .5-.2.5-.5v-4.4c0-.3-.2-.5-.5-.5h-3.1c-.3 0-.5.2-.5.5v4.4c0 .2.2.5.5.5zm.5-4.5h2.1v3.5H43v-3.5zM110.1 75.1H93.2c-.3 0-.5.2-.5.5v5.6c0 .3.2.5.5.5h16.9c.3 0 .5-.2.5-.5v-5.6c0-.3-.2-.5-.5-.5zm-.5 5.6H93.7V76h15.9v4.7zM140.6 87.6h3.3c.3 0 .5-.2.5-.5V83c0-.3-.2-.5-.5-.5h-3.3c-.3 0-.5.2-.5.5v4.1c0 .3.3.5.5.5zm.5-4.1h2.3v3.2h-2.3v-3.2zM191.6 65.6h-3.3c-.3 0-.5.2-.5.5v4.1c0 .3.2.5.5.5h3.3c.3 0 .5-.2.5-.5v-4.1c0-.3-.2-.5-.5-.5zm-.5 4.2h-2.3v-3.2h2.3v3.2zM191.6 73.3h-3.3c-.3 0-.5.2-.5.5v4.1c0 .3.2.5.5.5h3.3c.3 0 .5-.2.5-.5v-4.1c0-.3-.2-.5-.5-.5zm-.5 4.2h-2.3v-3.2h2.3v3.2zM191.6 81h-3.3c-.3 0-.5.2-.5.5v4.1c0 .3.2.5.5.5h3.3c.3 0 .5-.2.5-.5v-4.1c0-.3-.2-.5-.5-.5zm-.5 4.2h-2.3V82h2.3v3.2zM191.6 88.7h-3.3c-.3 0-.5.2-.5.5v4.1c0 .3.2.5.5.5h3.3c.3 0 .5-.2.5-.5v-4.1c0-.3-.2-.5-.5-.5zm-.5 4.2h-2.3v-3.2h2.3v3.2zM146 87.6h3.3c.3 0 .5-.2.5-.5V83c0-.3-.2-.5-.5-.5H146c-.3 0-.5.2-.5.5v4.1c0 .3.2.5.5.5zm.4-4.1h2.3v3.2h-2.3v-3.2zM151.3 87.6h3.3c.3 0 .5-.2.5-.5V83c0-.3-.2-.5-.5-.5h-3.3c-.3 0-.5.2-.5.5v4.1c0 .3.2.5.5.5zm.5-4.1h2.3v3.2h-2.3v-3.2zM140.6 94.4h3.3c.3 0 .5-.2.5-.5v-4.1c0-.3-.2-.5-.5-.5h-3.3c-.3 0-.5.2-.5.5v4.1c0 .3.3.5.5.5zm.5-4.1h2.3v3.2h-2.3v-3.2zM146 94.4h3.3c.3 0 .5-.2.5-.5v-4.1c0-.3-.2-.5-.5-.5H146c-.3 0-.5.2-.5.5v4.1c0 .3.2.5.5.5zm.4-4.1h2.3v3.2h-2.3v-3.2zM151.3 94.4h3.3c.3 0 .5-.2.5-.5v-4.1c0-.3-.2-.5-.5-.5h-3.3c-.3 0-.5.2-.5.5v4.1c0 .3.2.5.5.5zm.5-4.1h2.3v3.2h-2.3v-3.2zM168.5 82.5h-3.3c-.3 0-.5.2-.5.5v4.1c0 .3.2.5.5.5h3.3c.3 0 .5-.2.5-.5V83c0-.3-.3-.5-.5-.5zm-.5 4.2h-2.3v-3.2h2.3v3.2zM168.5 89.3h-3.3c-.3 0-.5.2-.5.5v4.1c0 .3.2.5.5.5h3.3c.3 0 .5-.2.5-.5v-4.1c0-.3-.3-.5-.5-.5zm-.5 4.2h-2.3v-3.2h2.3v3.2z" class="st1"/><path d="m131.9 75.1-1.8-2.3c0-.3-.2-.5-.5-.5H90.2c-.3 0-.5.2-.5.5v19.7h-.9c-.3 0-.5.2-.5.5v8.9c0 .3.2.5.5.5H130.2c.3 0 .5-.2.5-.4l2.4-2.7H157l4.6.7c.1 0 .1.1.2.1h9.5l2.5.8h20.9c.3 0 .5-.2.5-.5V56.6c0-.1-.1-.3-.2-.4s-.3-.1-.4-.1L174 61.8 164.2 75h-.2l-32.1.1zm5.6 8.6v14.5h-4.4v-4.3c0-.2-.1-.4-.3-.4l-2.7-1.1V74.3l7.4 9.4zm-7.6 17.6h-11.2l2.7-2.3v-5.3H129.7l2.3.9v4.5l-2.1 2.2zm-9.3-7.9v5.1l-2.7 2.3v-7.4h2.7zM90.7 73.2h38.5v19.2H90.7V73.2zm-1.3 20.2h27.5v7.9H89.4v-7.9zm67.3 4.8h-18.3V83.6c0-.1 0-.2-.1-.3l-2.4-3.1h20.8v18zm1 .1V80.1l3.8-.9v19.7l-3.8-.6zm15.9-34.6v35.8l-1.9-.6V78.4c0-.1-.1-.3-.1-.3-.1-.1-.2-.1-.3-.1l-8.4.1 10.7-14.4zM162.4 79l8.4-.1V99h-8.4V79zm12.2-16.4 19.8-5.4v42.5h-19.8V62.6zm-12.9 15.5-4.5 1.1h-22l-2.5-3.2h30.5l-1.5 2.1zM196.2 286.2c-.1-1-.2-2-.5-2.9-.2-.7-.8-2.7-2.2-2.7H181c0-.2.1-.3.1-.5-.1-.9-1.4-1.2-2-1.3h-.1c-.8-.2-1.6-.2-2.4-.2-.8 0-1.5 0-2.2.1-.4 0-1.2.1-1.6.7-.2.3-.3.5-.2.7v.1h-.2c-.5.1-.9.2-1.4.3-1.1.2-2.2.4-3.2.9-2.8 1.4-4.9 3.8-5.9 6.7-.8 2.4-1 5.2-.7 7.7.3 2.8 1.4 5.3 2.9 7.2 1.7 2.1 4.2 3.4 7.6 3.9 1.4.2 2.8.3 4.1.3 1.6 0 3.2-.1 4.4-.2 2.8-.2 5.7-.5 8.1-2 1.5-.9 2.7-1.9 3.7-3.1h.4c.8 0 1.7 0 2.4-.6s1.1-1.5 1.3-2.1c.4-1.2.4-2.4.4-3.6v-.7c0-2.4.1-5.2-.3-8.1.1-.3 0-.5 0-.6zm-.6 8.6v.8c0 1.1 0 2.3-.3 3.4-.2.7-.6 1.3-1 1.6-.3.3-.9.3-1.4.4.9-1.4 1.6-2.9 1.8-4.4.3-1.9.1-3.8-.5-5.6-.7-1.9-2-3.1-3.5-4.5-.2-.2-.5-.2-.7 0-.2.2-.2.5 0 .7 1.5 1.3 2.6 2.5 3.3 4.2.6 1.6.8 3.4.5 5-.6 3.2-2.6 6-5.8 7.9-2.3 1.4-5 1.6-7.7 1.8-2.3.1-5.5.4-8.4-.1-3.2-.5-5.5-1.6-7-3.6-1.4-1.7-2.4-4.1-2.7-6.7-.3-2.4-.1-5 .7-7.3.8-2.7 2.8-4.9 5.4-6.1.9-.4 1.9-.6 3-.8l1.5-.3h.1c.8-.2.9-.2 1.1-.4.1-.1.1-.2.1-.4 0-.1-.1-.3-.2-.4-.1 0-.1-.1-.2-.1 0 0-.1 0-.1-.1.2-.2.7-.3.9-.3.6 0 1.3-.1 2.1-.1.7 0 1.4 0 2.1.2h.1c1 .2 1.2.4 1.2.4 0 .2-.1.4-.4.4-.3 0-.4.3-.4.5s.2.4.5.4h13.7c.3 0 .8.3 1.3 2 .3.9.4 1.8.5 2.8 0 .2 0 .4.1.5.4 3 .4 5.8.3 8.2z" class="st1"/><path d="M178 293.5c1.8 0 3.3-1.7 3.3-3.9 0-2.1-1.5-3.9-3.3-3.9s-3.3 1.7-3.3 3.9 1.4 3.9 3.3 3.9zm2.3-3.9c0 1.4-.8 2.6-1.9 2.8v-5.7c1.1.3 1.9 1.5 1.9 2.9zm-2.8-2.8v5.7c-1.1-.3-1.9-1.4-1.9-2.8s.8-2.7 1.9-2.9zM178 297.4c-1.7 0-3.1 1.6-3.1 3.6s1.4 3.6 3.1 3.6 3.1-1.6 3.1-3.6-1.4-3.6-3.1-3.6zm-2.2 3.6c0-1.3.7-2.3 1.7-2.6v5.2c-1-.2-1.7-1.3-1.7-2.6zm2.7 2.6v-5.2c1 .3 1.7 1.3 1.7 2.6-.1 1.3-.8 2.4-1.7 2.6zM187.3 295.6c0-1.4.1-2.9.3-4.6 0-.3-.2-.5-.4-.5s-.5.2-.5.4c-.2 1.7-.3 3.3-.3 4.7 0 1.5.1 3 .7 4.5.1.2.3.3.4.3h.2c.2-.1.4-.4.2-.6-.5-1.3-.5-2.7-.6-4.2z" class="st1"/><path d="M183.3 292.3c-.8-.4-1.2-.2-1.8.2-.8.5-1.3.9-2.2 1h-.4c-1.1.1-2 .3-2.7-.3-.2-.2-.5-.1-.7.1s-.1.5.1.7c.7.5 1.4.7 2.1.7.5 0 .9-.1 1.4-.1h.4c1.1-.1 1.8-.6 2.6-1.1.5-.3.5-.3.9-.1.2.1.5 0 .6-.2 0-.5-.1-.8-.3-.9zM182.9 297.7c-.4.2-.4.2-.9-.1-.8-.5-1.5-1-2.6-1.1h-.4c-1.1-.1-2.4-.3-3.5.5-.2.2-.2.5-.1.7s.5.2.7.1c.8-.6 1.7-.5 2.7-.3h.4c.8.1 1.4.5 2.2 1 .4.2.6.4 1 .4.2 0 .5-.1.8-.2.2-.1.3-.4.2-.6 0-.4-.3-.5-.5-.4zM173.5 292.2c-.2.2-.2.5-.1.7.3.4.5.9.4 1.2 0 .1-.1.2-.5.3-.5.1-1 .1-1.5 0h-.8c-.3 0-.5.2-.5.5s.2.5.5.5h1.5c.3 0 .7 0 1-.1.7-.2 1-.6 1.1-1 .2-.6 0-1.4-.6-2.1 0-.1-.3-.1-.5 0zM173.6 295.9c-.6-.2-1.2-.1-1.8-.1h-.7c-.3 0-.5.2-.5.5s.2.5.5.5h.8c.5 0 1-.1 1.5 0 .4.1.4.3.5.3.1.3-.1.8-.4 1.2-.2.2-.1.5.1.7.1.1.2.1.3.1.1 0 .3-.1.4-.2.6-.7.8-1.5.6-2.1-.3-.2-.5-.7-1.3-.9z" class="st1"/><path d="M182.5 294.4c.1-.3-.1-.5-.3-.6s-.5.1-.6.3l-.1.3c-.2.7-.2 1.4 0 2.1l.1.5c.1.2.3.3.5.3h.1c.3-.1.4-.3.3-.6l-.1-.5c-.1-.5-.2-1.1 0-1.6l.1-.2zM2.5 24.7c.1.2.3.3.5.3h.2c.2-.1.4-.4.2-.6-.6-1.3-.6-2.7-.6-4.1 0-1.4.1-2.9.3-4.6 0-.3-.2-.5-.4-.5-.3 0-.5.2-.5.4-.2 1.7-.3 3.3-.3 4.7-.1 1.4 0 2.9.6 4.4zM231.8 4c-.1-.1-.3-.1-.4-.1l-2.1.6c-.2.1-.4.2-.4.5v2.5c0 .1.1.3.2.4.1.1.2.1.3.1h.1l2.1-.6c.2-.1.4-.2.4-.5V4.4c0-.1-.1-.3-.2-.4zm-.8 2.6-1.2.3V5.4l1.2-.3v1.5zM231.8 8.1c-.1-.1-.3-.1-.4-.1l-2.1.6c-.2.1-.4.2-.4.5v2.5c0 .1.1.3.2.4.1.1.2.1.3.1h.1l2.1-.6c.2-.1.4-.2.4-.5V8.5c0-.1-.1-.3-.2-.4zm-.8 2.6-1.2.3V9.5l1.2-.3v1.5zM268.2 4.6 266 4c-.1 0-.3 0-.4.1-.1.1-.2.2-.2.4V7c0 .2.1.4.4.5l2.1.6h.1c.1 0 .2 0 .3-.1.1-.1.2-.2.2-.4V5c0-.2-.1-.4-.3-.4zm-.6 2.3-1.2-.3V5.1l1.2.3v1.5zM268.2 8.7l-2.2-.6c-.1 0-.3 0-.4.1-.1.1-.2.2-.2.4v2.5c0 .2.1.4.4.5l2.1.6h.1c.1 0 .2 0 .3-.1.1-.1.2-.2.2-.4V9.1c0-.2-.1-.4-.3-.4zm-.6 2.3-1.2-.3V9.2l1.2.3V11zM269.9 148.4h3.6c.3 0 .5-.2.5-.5v-5.2c0-.3-.2-.5-.5-.5h-3.6c-.3 0-.5.2-.5.5v5.2c0 .3.2.5.5.5zm.4-5.1h2.7v4.2h-2.7v-4.2zM277.6 148.4h3.6c.3 0 .5-.2.5-.5v-5.2c0-.3-.2-.5-.5-.5h-3.6c-.3 0-.5.2-.5.5v5.2c0 .3.2.5.5.5zm.4-5.1h2.7v4.2H278v-4.2zM261.8 148.4h3.6c.3 0 .5-.2.5-.5v-5.2c0-.3-.2-.5-.5-.5h-3.6c-.3 0-.5.2-.5.5v5.2c.1.3.3.5.5.5zm.5-5.1h2.7v4.2h-2.7v-4.2zM239.6 150.8h3.6c.3 0 .5-.2.5-.5v-5.2c0-.3-.2-.5-.5-.5h-3.6c-.3 0-.5.2-.5.5v5.2c0 .3.3.5.5.5zm.5-5.1h2.7v4.2h-2.7v-4.2zM245.5 150.8h3.6c.3 0 .5-.2.5-.5v-5.2c0-.3-.2-.5-.5-.5h-3.6c-.3 0-.5.2-.5.5v5.2c.1.3.3.5.5.5zm.5-5.1h2.7v4.2H246v-4.2zM293.9 150.8h3.6c.3 0 .5-.2.5-.5v-5.2c0-.3-.2-.5-.5-.5h-3.6c-.3 0-.5.2-.5.5v5.2c0 .3.2.5.5.5zm.4-5.1h2.7v4.2h-2.7v-4.2zM299.8 150.8h3.6c.3 0 .5-.2.5-.5v-5.2c0-.3-.2-.5-.5-.5h-3.6c-.3 0-.5.2-.5.5v5.2c0 .3.2.5.5.5zm.5-5.1h2.7v4.2h-2.7v-4.2zM243.3 162.2h-3.6c-.3 0-.5.2-.5.5v5.2c0 .3.2.5.5.5h3.6c.3 0 .5-.2.5-.5v-5.2c-.1-.3-.3-.5-.5-.5zm-.5 5.1h-2.7v-4.2h2.7v4.2zM249.2 162.2h-3.6c-.3 0-.5.2-.5.5v5.2c0 .3.2.5.5.5h3.6c.3 0 .5-.2.5-.5v-5.2c0-.3-.3-.5-.5-.5zm-.5 5.1H246v-4.2h2.7v4.2zM297.5 162.2h-3.6c-.3 0-.5.2-.5.5v5.2c0 .3.2.5.5.5h3.6c.3 0 .5-.2.5-.5v-5.2c0-.3-.2-.5-.5-.5zm-.5 5.1h-2.7v-4.2h2.7v4.2zM303.4 162.2h-3.6c-.3 0-.5.2-.5.5v5.2c0 .3.2.5.5.5h3.6c.3 0 .5-.2.5-.5v-5.2c0-.3-.2-.5-.5-.5zm-.5 5.1h-2.7v-4.2h2.7v4.2z" class="st1"/><path d="M308.3 142.1h.7c.3 0 .5-.2.5-.5s-.2-.5-.5-.5h-.8l-3.7-3.7c-.1-.1-.2-.1-.3-.1h-15.6l-3.7-4c-.1-.1-.2-.1-.4-.1h-2.1c-.3-1.5-1.6-2.6-3.1-2.6-1.6 0-2.8 1.1-3.1 2.6h-1.5c-.3-1.5-1.6-2.6-3.1-2.6s-2.8 1.1-3.1 2.6H267c-.3-1.5-1.6-2.6-3.1-2.6-1.6 0-2.8 1.1-3.1 2.6h-1.6c-.1 0-.3.1-.3.1l-4 4h-15.6c-.1 0-.3 0-.3.1l-3.7 3.7h-.9c-.3 0-.5.2-.5.5s.2.5.5.5h.6V174c0 .3.2.5.5.5H308c.3 0 .5-.2.5-.5V142.1zm-72.2 0h16.8v11h-17.1v-11h.3zm71.1 0h.2v11h-17.1v-11h16.9zm-17.8 11h-35.5v-1.6h35.5v1.6zm0-13v10.5h-35.5v-10.5h35.5zm-53.6 14h17.1v1.3h-17.1v-1.3zm54.5 0h17.1v1.3h-17.1v-1.3zm13.7-15.9 2.9 2.9h-16.5V140h.4c.3 0 .5-.2.5-.5s-.2-.5-.5-.5h-.5l-.8-.8H304zm-24.7-6.7c1.2 0 2.2 1 2.2 2.2v1.8h-4.4v-1.8c0-1.2 1-2.2 2.2-2.2zm-7.7 0c1.2 0 2.2 1 2.2 2.2v1.8h-4.4v-1.8c0-1.2 1-2.2 2.2-2.2zm-7.7 0c1.2 0 2.2 1 2.2 2.2v1.7h-4.4v-1.7c0-1.2 1-2.2 2.2-2.2zm-4.5 2.6h1.4v1.8c0 .1.1.3.1.3.1.1.2.1.3.1H266.6c.2 0 .4-.2.4-.5V134h1.4v2c.1.2.2.4.5.4h5.3c.2 0 .4-.1.5-.4v-2h1.4v2c.1.2.2.4.5.4h5.3c.2 0 .4-.1.5-.4v-2h1.8l3.6 3.9c0 .1.1.2.2.2l.9.9h-34.6l5.1-4.9zm-19.9 4.1H254l-.8.8h-.5c-.3 0-.5.2-.5.5s.2.5.5.5h.2v1.1h-16.3l2.9-2.9zm-3.7 18.2h17.1v17.1h-17.1v-17.1zm18.1 12.4h2.5c.3 0 .5-.2.5-.5s-.2-.5-.5-.5h-2.5v-3.5h2.5c.3 0 .5-.2.5-.5s-.2-.5-.5-.5h-2.5v-3.5h2.5c.3 0 .5-.2.5-.5s-.2-.5-.5-.5h-2.5V154h35.5v4.8h-2.5c-.3 0-.5.2-.5.5s.2.5.5.5h2.5v3.5h-2.5c-.3 0-.5.2-.5.5s.2.5.5.5h2.5v3.5h-2.5c-.3 0-.5.2-.5.5s.2.5.5.5h2.5v4.7h-6.7V161c0-1.7-1.4-3.2-3.2-3.2s-3.2 1.4-3.2 3.2v12.5H275V161c0-1.7-1.4-3.2-3.2-3.2s-3.2 1.4-3.2 3.2v12.5h-1.4V161c0-1.7-1.4-3.2-3.2-3.2-1.7 0-3.2 1.4-3.2 3.2v12.5h-7.1v-4.7zm27.9-7.2h-4.4v-.6c0-1.2 1-2.2 2.2-2.2s2.2 1 2.2 2.2v.6zm-4.5 1h4.4v10.8h-4.4v-10.8zm-3.2-1h-4.4v-.6c0-1.2 1-2.2 2.2-2.2s2.2 1 2.2 2.2v.6zm-4.5 1h4.4v10.8h-4.4v-10.8zm-3.3-1h-4.4v-.6c0-1.2 1-2.2 2.2-2.2 1.2 0 2.2 1 2.2 2.2v.6zm-4.4 1h4.4v10.8h-4.4v-10.8zm28.4 10.8v-17.1h17.1v17.1h-17.1zM201.5 38.1h.7v23.8c0 .3.2.5.5.5h112.6c.3 0 .5-.2.5-.5V38.1h.7c.3 0 .5-.2.5-.5s-.2-.5-.5-.5h-1.1L293 33.7v-3.8c0-.3-.2-.5-.5-.5h-3c-.3 0-.5.2-.5.5v3.2l-1.4-.2h-57.2l-27.7 4.3h-1.1c-.3 0-.5.2-.5.5-.1.2.1.4.4.4zm1.7 0h45.1v3.2c0 .3.2.5.5.5h.5v.7c0 .2.1.5.3.6.1.1.2.1.2.1v18.2h-46.6V38.1zm47.8-2c.3 0 .5-.2.5-.5v-.3h18.8v.3c0 .3.2.5.5.5h1.4v1.1h-23v-1.1h1.8zm20.4 6.1c-.6-.2-1.2-.2-1.8 0v-.4h1.8v.4zm-22.2-4.1h23v2.7h-23v-2.7zm1 4.1v-.4h1.8v.4c-.6-.2-1.3-.2-1.8 0zm2.2 1.1c.1 0 .2-.1.2-.1.2-.1.3-.4.3-.6v-.7h2.7v.7c0 .2.1.5.3.6.1.1.2.1.2.1v18.2h-3.8l.1-18.2zm4.2-1.1v-.4h1.8v.4c-.5-.2-1.2-.2-1.8 0zm2.3 1.1c.1 0 .2-.1.2-.1.2-.1.3-.4.3-.6v-.7h2.7v.7c0 .2.1.5.3.6.1.1.2.1.2.1v18.2h-3.8l.1-18.2zm4.2-1.1v-.4h1.8v.4c-.6-.2-1.2-.2-1.8 0zm2.3 1.1c.1 0 .2-.1.2-.1.2-.1.3-.4.3-.6v-.7h2.7v.7c0 .2.1.5.3.6.1.1.2.1.2.1v18.2h-3.8l.1-18.2zm-14.7 18.1V43.1h.8v18.4h-.8zm6.5 0V43.1h.8v18.4h-.8zm6.4 0V43.1h.8v18.4h-.8zm6.5 0V43.1h.8v18.4h-.8zm44.7 0h-43V43.3c.1 0 .2-.1.2-.1.2-.1.3-.4.3-.6v-.7h.3c.3 0 .5-.2.5-.5v-3.2h41.6v23.2zm-24.9-31h2.1v3.2l-2.1-.3v-2.9zm-59.4 3.4h57l21.6 3.4h-35.9v-1.6c0-.3-.2-.5-.5-.5h-1.4v-.3c0-.3-.2-.5-.5-.5H251c-.3 0-.5.2-.5.5v.3h-1.8c-.3 0-.5.2-.5.5v1.6h-39.3l21.6-3.4z" class="st1"/><path d="M276.9 58.6h4.9c.3 0 .5-.2.5-.5V42.5c0-.3-.2-.5-.5-.5h-4.9c-.3 0-.5.2-.5.5v15.6c0 .3.2.5.5.5zm.5-1V51h4v6.7h-4zm4-14.6v7h-4v-7h4zM286.8 58.6h4.9c.3 0 .5-.2.5-.5V42.5c0-.3-.2-.5-.5-.5h-4.9c-.3 0-.5.2-.5.5v15.6c0 .3.2.5.5.5zm.5-1V51h4v6.7h-4zm4-14.6v7h-4v-7h4zM296.7 58.6h4.9c.3 0 .5-.2.5-.5V42.5c0-.3-.2-.5-.5-.5h-4.9c-.3 0-.5.2-.5.5v15.6c0 .3.2.5.5.5zm.5-1V51h4v6.7h-4zm4-14.6v7h-4v-7h4zM306.6 58.6h4.9c.3 0 .5-.2.5-.5V42.5c0-.3-.2-.5-.5-.5h-4.9c-.3 0-.5.2-.5.5v15.6c0 .3.2.5.5.5zm.5-1V51h4v6.7h-4zm4-14.6v7h-4v-7h4zM213.7 42h-4.9c-.3 0-.5.2-.5.5v15.6c0 .3.2.5.5.5h4.9c.3 0 .5-.2.5-.5V42.5c0-.3-.3-.5-.5-.5zm-.5 1v7h-4v-7h4zm-4 14.6V51h4v6.7h-4zM223.6 42h-4.9c-.3 0-.5.2-.5.5v15.6c0 .3.2.5.5.5h4.9c.3 0 .5-.2.5-.5V42.5c0-.3-.3-.5-.5-.5zm-.5 1v7h-4v-7h4zm-4 14.6V51h4v6.7h-4zM233.5 42h-4.9c-.3 0-.5.2-.5.5v15.6c0 .3.2.5.5.5h4.9c.3 0 .5-.2.5-.5V42.5c0-.3-.3-.5-.5-.5zm-.5 1v7h-4v-7h4zm-4 14.6V51h4v6.7h-4zM243.4 42h-4.9c-.3 0-.5.2-.5.5v15.6c0 .3.2.5.5.5h4.9c.3 0 .5-.2.5-.5V42.5c0-.3-.3-.5-.5-.5zm-.5 1v7h-4v-7h4zm-4 14.6V51h4v6.7h-4zM254.3 243c0-.3-.2-.5-.5-.5s-.5.2-.5.5v3.3c0 .3.2.5.5.5s.5-.2.5-.5V243zM253.8 249.8c-.3 0-.5.2-.5.5v3.3c0 .3.2.5.5.5s.5-.2.5-.5v-3.3c0-.2-.2-.5-.5-.5zM255.9 247.8c-.3 0-.5.2-.5.5s.2.5.5.5h3.3c.3 0 .5-.2.5-.5s-.2-.5-.5-.5h-3.3zM252.3 248.3c0-.3-.2-.5-.5-.5h-3.3c-.3 0-.5.2-.5.5s.2.5.5.5h3.3c.3 0 .5-.2.5-.5zM111.7 212.7c0-.3-.2-.5-.5-.5s-.5.2-.5.5v3.3c0 .3.2.5.5.5s.5-.2.5-.5v-3.3zM111.2 219.6c-.3 0-.5.2-.5.5v3.3c0 .3.2.5.5.5s.5-.2.5-.5V220c0-.2-.2-.4-.5-.4zM113.3 217.5c-.3 0-.5.2-.5.5s.2.5.5.5h3.3c.3 0 .5-.2.5-.5s-.2-.5-.5-.5h-3.3zM105.9 217.5c-.3 0-.5.2-.5.5s.2.5.5.5h3.3c.3 0 .5-.2.5-.5s-.2-.5-.5-.5h-3.3zM246.1 263.6l-1.3-3.9c-.1-.2-.3-.3-.5-.3s-.4.1-.5.3l-1.3 3.9-3.9 1.3c-.2.1-.3.3-.3.5s.1.4.3.5l3.9 1.3 1.3 3.9c.1.2.3.3.5.3s.4-.1.5-.3l1.3-3.9 3.9-1.3c.2-.1.3-.3.3-.5s-.1-.4-.3-.5l-3.9-1.3zm-.6 2.7c-.1 0-.3.2-.3.3l-.9 2.8-.9-2.8c0-.1-.2-.3-.3-.3l-2.8-.9 2.8-.9c.1 0 .3-.2.3-.3l.9-2.8.9 2.8c0 .1.2.3.3.3l2.8.9-2.8.9zM218.7 81.4l-3.9-1.3-1.3-3.9c-.1-.2-.3-.3-.5-.3s-.4.1-.5.3l-1.3 3.9-3.9 1.3c-.2.1-.3.3-.3.5s.1.4.3.5l3.9 1.3 1.3 3.9c.1.2.3.3.5.3s.4-.1.5-.3l1.3-3.9 3.9-1.3c.2-.1.3-.3.3-.5.1-.3-.1-.4-.3-.5zm-4.4 1.4c-.1 0-.3.2-.3.3l-.9 2.8-.9-2.8c0-.1-.2-.3-.3-.3l-2.8-.9 2.8-.9c.1 0 .3-.2.3-.3l.9-2.8.9 2.8c0 .1.2.3.3.3l2.8.9-2.8.9zM219 155.5l-1.3-3.9c-.1-.2-.3-.3-.5-.3s-.4.1-.5.3l-1.3 3.9-3.9 1.3c-.2.1-.3.3-.3.5s.1.4.3.5l3.9 1.3 1.3 3.9c.1.2.3.3.5.3s.4-.1.5-.3l1.3-3.9 3.9-1.3c.2-.1.3-.3.3-.5s-.1-.4-.3-.5l-3.9-1.3zm-.6 2.8c-.1 0-.3.2-.3.3l-.9 2.8-.9-2.8c0-.1-.2-.3-.3-.3l-2.8-.9 2.8-.9c.1 0 .3-.2.3-.3l.9-2.8.9 2.8c0 .1.2.3.3.3l2.8.9-2.8.9zM80.1 5.7c.3 0 .5-.2.5-.5V2c0-.3-.2-.5-.5-.5s-.5.2-.5.5v3.3c0 .2.2.4.5.4zM80.1 13.1c.3 0 .5-.2.5-.5V9.3c0-.3-.2-.5-.5-.5s-.5.2-.5.5v3.3c0 .3.2.5.5.5zM82.2 7.8h3.3c.3 0 .5-.2.5-.5s-.2-.5-.5-.5h-3.3c-.3 0-.5.2-.5.5s.2.5.5.5zM74.8 7.8h3.3c.3 0 .5-.2.5-.5s-.2-.5-.5-.5h-3.3c-.3 0-.5.2-.5.5s.3.5.5.5zM5.4 139.1c.3 0 .5-.2.5-.5s-.2-.5-.5-.5H2.2c-.3 0-.5.2-.5.5s.2.5.5.5h3.2zM90.2 118.8c.3 0 .5-.2.5-.5V115c0-.3-.2-.5-.5-.5s-.5.2-.5.5v3.3c.1.3.3.5.5.5zM89.8 125.7c0 .3.2.5.5.5s.5-.2.5-.5v-3.3c0-.3-.2-.5-.5-.5s-.5.2-.5.5v3.3zM95.6 120.9c.3 0 .5-.2.5-.5s-.2-.5-.5-.5h-3.3c-.3 0-.5.2-.5.5s.2.5.5.5h3.3zM88.2 120.9c.3 0 .5-.2.5-.5s-.2-.5-.5-.5H85c-.3 0-.5.2-.5.5s.2.5.5.5h3.2zM292.8 238.3h-16.9c-.3 0-.5.2-.5.5v5.6c0 .3.2.5.5.5h16.9c.3 0 .5-.2.5-.5v-5.6c0-.3-.2-.5-.5-.5zm-.4 5.6h-15.9v-4.7h15.9v4.7zM303.9 88.4h-3.1c-.3 0-.5.2-.5.5v4.4c0 .3.2.5.5.5h3.1c.3 0 .5-.2.5-.5v-4.4c-.1-.3-.3-.5-.5-.5zm-.5 4.4h-2.1v-3.5h2.1v3.5zM308.9 88.4h-3.1c-.3 0-.5.2-.5.5v4.4c0 .3.2.5.5.5h3.1c.3 0 .5-.2.5-.5v-4.4c0-.3-.2-.5-.5-.5zm-.5 4.4h-2.1v-3.5h2.1v3.5zM303.9 98.8h-3.1c-.3 0-.5.2-.5.5v4.4c0 .3.2.5.5.5h3.1c.3 0 .5-.2.5-.5v-4.4c-.1-.3-.3-.5-.5-.5zm-.5 4.4h-2.1v-3.5h2.1v3.5zM308.9 98.8h-3.1c-.3 0-.5.2-.5.5v4.4c0 .3.2.5.5.5h3.1c.3 0 .5-.2.5-.5v-4.4c0-.3-.2-.5-.5-.5zm-.5 4.4h-2.1v-3.5h2.1v3.5zM303.9 109.2h-3.1c-.3 0-.5.2-.5.5v4.4c0 .3.2.5.5.5h3.1c.3 0 .5-.2.5-.5v-4.4c-.1-.3-.3-.5-.5-.5zm-.5 4.4h-2.1v-3.5h2.1v3.5zM308.9 109.2h-3.1c-.3 0-.5.2-.5.5v4.4c0 .3.2.5.5.5h3.1c.3 0 .5-.2.5-.5v-4.4c0-.3-.2-.5-.5-.5zm-.5 4.4h-2.1v-3.5h2.1v3.5zM277.4 88.4h-3.1c-.3 0-.5.2-.5.5v4.4c0 .3.2.5.5.5h3.1c.3 0 .5-.2.5-.5v-4.4c0-.3-.2-.5-.5-.5zm-.5 4.4h-2.1v-3.5h2.1v3.5zM282.5 88.4h-3.1c-.3 0-.5.2-.5.5v4.4c0 .3.2.5.5.5h3.1c.3 0 .5-.2.5-.5v-4.4c-.1-.3-.3-.5-.5-.5zm-.5 4.4h-2.1v-3.5h2.1v3.5zM287.5 88.4h-3.1c-.3 0-.5.2-.5.5v4.4c0 .3.2.5.5.5h3.1c.3 0 .5-.2.5-.5v-4.4c0-.3-.2-.5-.5-.5zm-.5 4.4h-2.1v-3.5h2.1v3.5zM292.6 88.4h-3.1c-.3 0-.5.2-.5.5v4.4c0 .3.2.5.5.5h3.1c.3 0 .5-.2.5-.5v-4.4c0-.3-.2-.5-.5-.5zm-.5 4.4H290v-3.5h2.1v3.5zM277.4 98.8h-3.1c-.3 0-.5.2-.5.5v4.4c0 .3.2.5.5.5h3.1c.3 0 .5-.2.5-.5v-4.4c0-.3-.2-.5-.5-.5zm-.5 4.4h-2.1v-3.5h2.1v3.5zM282.5 98.8h-3.1c-.3 0-.5.2-.5.5v4.4c0 .3.2.5.5.5h3.1c.3 0 .5-.2.5-.5v-4.4c-.1-.3-.3-.5-.5-.5zm-.5 4.4h-2.1v-3.5h2.1v3.5zM287.5 98.8h-3.1c-.3 0-.5.2-.5.5v4.4c0 .3.2.5.5.5h3.1c.3 0 .5-.2.5-.5v-4.4c0-.3-.2-.5-.5-.5zm-.5 4.4h-2.1v-3.5h2.1v3.5zM292.6 98.8h-3.1c-.3 0-.5.2-.5.5v4.4c0 .3.2.5.5.5h3.1c.3 0 .5-.2.5-.5v-4.4c0-.3-.2-.5-.5-.5zm-.5 4.4H290v-3.5h2.1v3.5zM277.4 109.2h-3.1c-.3 0-.5.2-.5.5v4.4c0 .3.2.5.5.5h3.1c.3 0 .5-.2.5-.5v-4.4c0-.3-.2-.5-.5-.5zm-.5 4.4h-2.1v-3.5h2.1v3.5zM282.5 109.2h-3.1c-.3 0-.5.2-.5.5v4.4c0 .3.2.5.5.5h3.1c.3 0 .5-.2.5-.5v-4.4c-.1-.3-.3-.5-.5-.5zm-.5 4.4h-2.1v-3.5h2.1v3.5zM287.5 109.2h-3.1c-.3 0-.5.2-.5.5v4.4c0 .3.2.5.5.5h3.1c.3 0 .5-.2.5-.5v-4.4c0-.3-.2-.5-.5-.5zm-.5 4.4h-2.1v-3.5h2.1v3.5zM292.6 109.2h-3.1c-.3 0-.5.2-.5.5v4.4c0 .3.2.5.5.5h3.1c.3 0 .5-.2.5-.5v-4.4c0-.3-.2-.5-.5-.5zm-.5 4.4H290v-3.5h2.1v3.5zM313.3 18.1c1.8 0 3.3-1.7 3.3-3.9 0-2.1-1.5-3.9-3.3-3.9S310 12 310 14.2c0 2.1 1.5 3.9 3.3 3.9zm2.4-3.9c0 1.4-.8 2.6-1.9 2.8v-5.7c1.1.3 1.9 1.5 1.9 2.9zm-2.9-2.9V17c-1.1-.3-1.9-1.4-1.9-2.8.1-1.4.9-2.6 1.9-2.9zM313.3 22c-1.7 0-3.1 1.6-3.1 3.6s1.4 3.6 3.1 3.6 3.1-1.6 3.1-3.6-1.3-3.6-3.1-3.6zm-2.1 3.6c0-1.3.7-2.3 1.7-2.6v5.2c-1-.3-1.7-1.3-1.7-2.6zm2.6 2.6V23c1 .3 1.7 1.3 1.7 2.6s-.7 2.3-1.7 2.6z" class="st1"/><path d="M314.3 18.1c-1.1.1-2 .3-2.7-.3-.2-.2-.5-.1-.7.1-.2.2-.1.5.1.7.7.5 1.4.7 2.1.7.5 0 .9-.1 1.4-.1h.4c1.1-.1 1.8-.6 2.6-1.1.5-.3.5-.3.9-.1.2.1.5 0 .6-.2.1-.2 0-.5-.2-.6-.8-.4-1.2-.2-1.8.2-.8.5-1.3.9-2.2 1-.3-.3-.4-.3-.5-.3zM318.2 22.3c-.4.2-.4.2-.9-.1-.8-.5-1.5-1-2.6-1.1h-.4c-1.1-.1-2.4-.3-3.5.5-.2.2-.2.5-.1.7.2.2.5.2.7.1.8-.6 1.7-.5 2.7-.3h.4c.8.1 1.4.5 2.2 1 .4.2.6.4 1 .4.2 0 .5-.1.8-.2.2-.1.3-.4.2-.6 0-.4-.2-.5-.5-.4zM306.4 20h1.5c.3 0 .7 0 1-.1.7-.2 1-.6 1.1-1 .2-.6 0-1.4-.6-2.1-.2-.2-.5-.2-.7-.1-.2.2-.2.5-.1.7.3.4.5.9.4 1.2 0 .1-.1.2-.5.3-.5.1-1 .1-1.5 0h-.8c-.3 0-.5.2-.5.5.2.3.5.6.7.6zM306.4 21.4h.8c.5 0 1-.1 1.5 0 .4.1.4.3.5.3.1.3-.1.8-.4 1.2-.2.2-.1.5.1.7.1.1.2.1.3.1.1 0 .3-.1.4-.2.6-.7.8-1.5.6-2.1-.1-.3-.4-.8-1.1-1-.6-.2-1.2-.1-1.8-.1h-.7c-.3 0-.5.2-.5.5s.1.6.3.6z" class="st1"/><path d="M317.9 18.9c.1-.3-.1-.5-.3-.6-.3-.1-.5.1-.6.3l-.1.3c-.2.7-.2 1.4 0 2.1l.1.5c.1.2.3.3.5.3h.1c.3-.1.4-.3.3-.6l-.1-.5c-.1-.5-.2-1.1 0-1.6l.1-.2zM318.5 138.6c0-.3-.2-.5-.5-.5h-3.3c-.3 0-.5.2-.5.5s.2.5.5.5h3.3c.3 0 .5-.2.5-.5zM117.9 204.4h17.6c0 .2.2.4.5.4h2.7c.3 0 .5-.2.5-.5v-.5h4.3c.2 0 .3-.1.4-.2.1-.1.3-.2.3-.4v-30.7l4.5-3c.1-.1.2-.2.2-.4s0-.3-.1-.4c-3.4-3.1-6.5-5.9-10.2-8-4.5-2.6-9.8-4.4-15.7-5.4-1.4-.2-2.9-.4-4.4-.5-.1 0-.4 0-.6-.1-1.8-.2-2.4-.2-2.7 0-3.7 2.3-7.9 5-11.4 8.3-1.8 1.7-3.4 3.4-4.8 5.2l-.1.2c-1.3 1.7-2.9 3.9-2.5 6.3.3 1.9 2 3 3.4 3.8v6.9H81c-.1-.1-.1-.1-.2-.1l-12.7-4-.8-.3c-1.7-.6-3.5-1.2-5.2-1.8-6.4-2.3-13-4.6-19.9-5.2-4-.3-8.6-.4-12.7 1.7-1.6.8-4.6 3.7-4.8 5.8-.2 3.2 2.2 4.7 4 5.8.4.2.8.5 1 .7 0 0 .1 0 .1.1v18.3c0 .4.5.5.6.6.2.1.5.1.8.2.6.1 1.3.2 2.3.3 1.7.2 3.5.3 3.7.3.9.1 1.9.1 2.8.1 1.4 0 2.8-.1 4.2-.2 1.8-.2 3.6-.6 5.3-.9.5-.1.9-.2 1.4-.3 5.7-1.2 12.7-2.1 17.5-2.7H113v.5c0 .3.2.5.5.5h2.7c.2 0 .4-.2.5-.4h1.2c-.1 0 0 0 0 0zm-2.7-23.1v-3.5c3-1.7 6.4-2.9 9.8-3.4 3.9-.7 8-.6 11.9.3v3.6c-.8.2-1.3.9-1.3 1.7v23.6h-.9V176c0-.2-.2-.4-.4-.5-5.3-1-10.9-.3-16.3 2l-.5.2c-.2.1-.3.2-.3.4v25.4h-.6V183c0-.8-.6-1.5-1.4-1.7zm9.7-8.7c4.8-.8 9.8-.5 14.4.9l1.6.5v.7l-1.3-.4c-4.7-1.4-9.8-1.8-14.7-.9-4.9.8-9.6 2.8-13.6 5.8l-2.1 1.6-.1-.7 2.5-1.9a31 31 0 0 1 13.3-5.6zm8.9 30.8h-15.7v-25l.3-.1c5.1-2.2 10.4-2.9 15.4-2v27.1zm4.5.5h-1.8v-24c0-.5.4-.9.9-.9s.9.4.9.9v24zm-.4-25.7v-3.3c.5.1.9.3 1.4.4l1.9.6c.1 0 .3 0 .4-.1.1-.1.2-.2.2-.4v-1.7c0-.2-.1-.4-.3-.4l-1.9-.6c-4.8-1.5-9.9-1.8-14.9-.9-2.6.4-5.1 1.2-7.5 2.2v-16.6c1.8.1 4.4.4 5.5.6 5.3.8 10.6 2.8 15.5 5.7 1.7 1 3.3 2.2 5 3.7V203h-4v-23c0-.9-.5-1.6-1.3-1.8zm6.3-10.1c.7.6 1.4 1.2 2.1 1.9l-2.1 1.4v-3.3zm-26.4-12.3c.3 0 .5.1.6.1 1.5.1 2.9.3 4.3.5 5.8.9 10.9 2.7 15.3 5.2 3.5 2 6.4 4.6 9.6 7.5l-.6.4c-3.2-2.9-5.7-5.1-8.4-6.7-5-2.9-10.4-4.9-15.8-5.8-.8-.1-2.6-.3-4.1-.5-1.5-.1-2.4-.2-2.8-.2v-.7c.5 0 1.4.1 1.9.2zm-20.5 18.9c-.3-2 1.2-4 2.4-5.6l.1-.2c1.3-1.7 2.9-3.5 4.6-5.1 3.3-3 7.2-5.6 10.6-7.8v.5c-1.1.7-2.4 1.5-3.8 2.4-2.5 1.7-4.6 3.3-6.5 5.2-1.7 1.6-3.4 3.5-5.3 6.1-.8 1-1.6 2.4-1.6 3.9 0 1.6.9 2.3 2 2.9v.5c-1.2-.6-2.3-1.5-2.5-2.8zm2.4 1.2c-.7-.5-1.1-1-1.1-1.8 0-1 .5-1.9 1.1-2.8v4.6zm1-5.8c1.6-2.2 3.1-3.8 4.6-5.2 1.9-1.8 4-3.4 6.4-5.1 1.4-.9 2.8-1.8 3.9-2.5h.7v17.1c-1.9.9-3.7 1.9-5.3 3.2l-2.7 2c-.1.1-.2.3-.2.5l.3 1.7c0 .2.1.3.3.4h.2c.1 0 .2 0 .3-.1l2.7-2c.8-.6 1.6-1.1 2.5-1.6v3c-.8.2-1.3.9-1.3 1.7v2.4h-12.3l-.1-15.5zM68.1 203c-.3 0-.7.1-1.1.1v-6.8c0-.3-.2-.5-.5-.5h-3.7c-.3 0-.5.2-.5.5v7.4c-.5.1-1.1.1-1.6.2v-10.6H68l.1 9.7zm-2 .2c-.9.1-1.8.2-2.7.4v-6.8h2.7v6.4zm-5.3-10.8v-10.5c.5.2 1 .4 1.6.6 1.7.6 3.5 1.2 5.2 1.8l.8.3 3.5.9h-3.4c-.3 0-.5.2-.5.5v6.5l-7.2-.1zm8.2-6h44v6H69v-6zm6.4-.9c-.1-.1-.1-.1-.2-.1l-6-1.6.5-.9 8.4 2.6h-2.7zM67 182l.8.3.9.3-.5 1-.5-.2c-1.7-.6-3.5-1.2-5.2-1.8-2.8-1-5.6-2-8.5-2.8l.5-1c2.4.8 4.8 1.6 7.1 2.4 1.9.6 3.7 1.2 5.4 1.8zm-37-5.3c3.8-2 8.3-1.9 12.2-1.6 3.9.3 7.8 1.3 11.6 2.4l-.5 1c-3.4-1-6.9-1.8-10.5-2.1-4-.3-8.6-.4-12.7 1.7-.3.2-.6.4-.9.5l-.8-.8c.5-.4 1.1-.9 1.6-1.1zm-.2 10.4c-1.7-1.3-3-2.7-2.5-4.4.4-1.1 1.1-2.1 2-2.9.1 0 .1-.1.1-.1.1-.1.2-.1.3-.2l.1 7.6zm-4.1-5.4c.1-.9 1-2.2 2-3.2l.8.8c-.9.9-1.6 1.9-2 3.1-.2.7-.2 1.4 0 2.1-.6-.9-.9-1.8-.8-2.8zm25.2 23.9c-.5.1-1 .2-1.4.3-1.8.4-3.4.7-5.2.9-2.3.2-4.6.3-6.9.1-1.5-.1-5.6-.5-6.6-.7v-27.4c3.8-1.9 8.1-1.8 11.9-1.5 5.8.5 11.6 2.3 17.1 4.3v22.5c-3 .4-6.1.9-8.9 1.5zm18.1-2.7v-9.5h44v9.5H69zm44.9-19.8c0-.5.4-.9.9-.9s.9.4.9.9v20.8H114v-20.8z" class="st1"/><path d="M105 194.4h-6.8c-.3 0-.5.2-.5.5v6.5c0 .3.2.5.5.5h6.8c.3 0 .5-.2.5-.5v-6.5c0-.3-.2-.5-.5-.5zm-.4 6.5h-5.9v-5.6h5.9v5.6zM93.7 194.4h-6.8c-.3 0-.5.2-.5.5v6.5c0 .3.2.5.5.5h6.8c.3 0 .5-.2.5-.5v-6.5c0-.3-.2-.5-.5-.5zm-.4 6.5h-5.9v-5.6h5.9v5.6zM82.7 194.4h-6.8c-.3 0-.5.2-.5.5v6.5c0 .3.2.5.5.5h6.8c.3 0 .5-.2.5-.5v-6.5c0-.3-.3-.5-.5-.5zm-.5 6.5h-5.9v-5.6h5.9v5.6zM110.5 167.6c.1 0 .1.1.2.1s.2 0 .3-.1l4-2.8c.1-.1.2-.2.2-.4v-4c0-.2-.1-.3-.3-.4-.2-.1-.3-.1-.5 0l-4 2.8c-.1.1-.2.2-.2.4v4c0 .1.1.3.3.4zm.7-4.2 3-2.2v2.8l-3 2.2v-2.8zM108.3 168.6v-3.7c0-.2-.1-.3-.3-.4s-.4 0-.5.1l-2 1.7c-.1.1-.2.2-.2.4v3.7c0 .2.1.3.3.4h.2c.1 0 .2 0 .3-.1l2-1.7c.2-.2.2-.3.2-.4zm-.9-.3-1.1.9v-2.5l1.1-.9v2.5zM137.2 226.9H134c-.3 0-.5.2-.5.5v4.5c0 .3.2.5.5.5h3.2c.3 0 .5-.2.5-.5v-4.5c0-.3-.2-.5-.5-.5zm-.4 4.5h-2.3v-3.5h2.3v3.5zM107.1 254.3c.3 0 .5-.2.5-.5s-.2-.5-.5-.5h-8.9c-.3 0-.5.2-.5.5s.2.5.5.5h8.9zM100.9 249h3.9c.3 0 .5-.2.5-.5V243c0-.3-.2-.5-.5-.5h-3.9c-.3 0-.5.2-.5.5v5.5c.1.3.3.5.5.5zm.5-5.5h3v4.6h-3v-4.6zM79 246h-3.9c-.3 0-.5.2-.5.5v5.5c0 .3.2.5.5.5H79c.3 0 .5-.2.5-.5v-5.5c0-.2-.2-.5-.5-.5zm-.4 5.6h-3V247h3v4.6zM87.3 246h-3.9c-.3 0-.5.2-.5.5v5.5c0 .3.2.5.5.5h3.9c.3 0 .5-.2.5-.5v-5.5c0-.2-.2-.5-.5-.5zm-.4 5.6h-3V247h3v4.6zM125.2 246h-3.9c-.3 0-.5.2-.5.5v5.5c0 .3.2.5.5.5h3.9c.3 0 .5-.2.5-.5v-5.5c-.1-.2-.3-.5-.5-.5zm-.5 5.6h-3V247h3v4.6zM133.5 246h-3.9c-.3 0-.5.2-.5.5v5.5c0 .3.2.5.5.5h3.9c.3 0 .5-.2.5-.5v-5.5c-.1-.2-.3-.5-.5-.5zm-.5 5.6h-3V247h3v4.6zM141.7 246h-3.9c-.3 0-.5.2-.5.5v5.5c0 .3.2.5.5.5h3.9c.3 0 .5-.2.5-.5v-5.5c0-.2-.2-.5-.5-.5zm-.4 5.6h-3V247h3v4.6zM150 246h-3.9c-.3 0-.5.2-.5.5v5.5c0 .3.2.5.5.5h3.9c.3 0 .5-.2.5-.5v-5.5c0-.2-.2-.5-.5-.5zm-.4 5.6h-3V247h3v4.6zM125.2 256.9h-3.9c-.3 0-.5.2-.5.5v5.5c0 .3.2.5.5.5h3.9c.3 0 .5-.2.5-.5v-5.5c-.1-.3-.3-.5-.5-.5zm-.5 5.5h-3v-4.6h3v4.6zM133.5 256.9h-3.9c-.3 0-.5.2-.5.5v5.5c0 .3.2.5.5.5h3.9c.3 0 .5-.2.5-.5v-5.5c-.1-.3-.3-.5-.5-.5zm-.5 5.5h-3v-4.6h3v4.6zM141.7 256.9h-3.9c-.3 0-.5.2-.5.5v5.5c0 .3.2.5.5.5h3.9c.3 0 .5-.2.5-.5v-5.5c0-.3-.2-.5-.5-.5zm-.4 5.5h-3v-4.6h3v4.6zM150 256.9h-3.9c-.3 0-.5.2-.5.5v5.5c0 .3.2.5.5.5h3.9c.3 0 .5-.2.5-.5v-5.5c0-.3-.2-.5-.5-.5zm-.4 5.5h-3v-4.6h3v4.6zM79 256.9h-3.9c-.3 0-.5.2-.5.5v5.5c0 .3.2.5.5.5H79c.3 0 .5-.2.5-.5v-5.5c0-.3-.2-.5-.5-.5zm-.4 5.5h-3v-4.6h3v4.6zM87.3 256.9h-3.9c-.3 0-.5.2-.5.5v5.5c0 .3.2.5.5.5h3.9c.3 0 .5-.2.5-.5v-5.5c0-.3-.2-.5-.5-.5zm-.4 5.5h-3v-4.6h3v4.6zM187.7 246h-3.9c-.3 0-.5.2-.5.5v5.5c0 .3.2.5.5.5h3.9c.3 0 .5-.2.5-.5v-5.5c-.1-.2-.3-.5-.5-.5zm-.5 5.6h-3V247h3v4.6zM196 246h-4c-.3 0-.5.2-.5.5v5.5c0 .3.2.5.5.5h3.9c.3 0 .5-.2.5-.5v-5.5c0-.2-.2-.5-.4-.5zm-.5 5.6h-3V247h3v4.6zM187.7 256.9h-3.9c-.3 0-.5.2-.5.5v5.5c0 .3.2.5.5.5h3.9c.3 0 .5-.2.5-.5v-5.5c-.1-.3-.3-.5-.5-.5zm-.5 5.5h-3v-4.6h3v4.6zM196 256.9h-4c-.3 0-.5.2-.5.5v5.5c0 .3.2.5.5.5h3.9c.3 0 .5-.2.5-.5v-5.5c0-.3-.2-.5-.4-.5zm-.5 5.5h-3v-4.6h3v4.6zM173.1 254.3c.3 0 .5-.2.5-.5s-.2-.5-.5-.5h-8.9c-.3 0-.5.2-.5.5s.2.5.5.5h8.9zM166.9 249h3.9c.3 0 .5-.2.5-.5V243c0-.3-.2-.5-.5-.5h-3.9c-.3 0-.5.2-.5.5v5.5c0 .3.2.5.5.5zm.5-5.5h3v4.6h-3v-4.6z" class="st1"/><path d="M201.8 236.8h-4v-1.3h.5c.3 0 .5-.2.5-.5s-.2-.5-.5-.5H197.5l-16.7-6.1h-.3l-15.8 4.5c-.1 0-.2.1-.2.1h-5.7c-.3 0-.5.2-.5.5v.8h-17.7v-9.1h.3c.3 0 .5-.2.5-.5s-.2-.5-.5-.5h-.5l-.7-1.3c-.3-.6-.5-1.2-.5-1.8-.1-1.3-1.3-2.3-2.6-2.3h-.5v-5.1c0-.3-.2-.5-.5-.5s-.5.2-.5.5v5.1h-.5c-1.3 0-2.4 1-2.6 2.3-.1.6-.3 1.2-.5 1.8l-.7 1.3h-.5c-.3 0-.5.2-.5.5s.2.5.5.5h.3v9.1H113v-.8c0-.3-.2-.5-.5-.5h-5.4c-.1-.1-.1-.1-.2-.1l-15.8-4.5h-.3l-16.7 6.1H73.3c-.3 0-.5.2-.5.5s.2.5.5.5h.5v1.3h-3.4c-.3 0-.5.2-.5.5v34.1c0 .3.2.5.5.5h130.4c.3 0 .5-.2.5-.5v-33.6h.5c.3 0 .5-.2.5-.5s-.3-.5-.5-.5zm-70.1-11.5h8v8.9h-8v-8.9zm.7-1.8c.3-.7.6-1.4.6-2.1.1-.9.8-1.5 1.7-1.5h1.9c.9 0 1.6.6 1.7 1.5.1.7.3 1.5.6 2.1l.4.9H132l.4-.9zm64.4 13.3h-17.5v-1.3h17.5v1.3zm-16.2-7.4 14.2 5.1h-15.5v-1c0-.3-.2-.5-.5-.5h-11.3l13.1-3.6zm-21.4 4.7h19.1v1.4h-19.1v-1.4zm-.9 1.2v1.5H113v-1.4h45.3zm-46.2-.4v.5H93v-1.3h19.1v.8zm-21-5.5 13 3.7H92.5c-.3 0-.5.2-.5.5v1H76.9l14.2-5.2zm-16.3 6.1H92V236.7H74.8v-1.2zm-3.8 2.2h21v33.2H71v-33.2zm22 27.4h2c.3 0 .5-.2.5-.5s-.2-.5-.5-.5h-2v-4.5h2c.3 0 .5-.2.5-.5s-.2-.5-.5-.5h-2v-4.5h2c.3 0 .5-.2.5-.5s-.2-.5-.5-.5h-2v-4.5h2c.3 0 .5-.2.5-.5s-.2-.5-.5-.5h-2v-4.5h2c.3 0 .5-.2.5-.5s-.2-.5-.5-.5h-2V236h19.1v6.1h-1.8c-.3 0-.5.2-.5.5s.2.5.5.5h1.8v4.5h-1.8c-.3 0-.5.2-.5.5s.2.5.5.5h1.8v4.5h-1.8c-.3 0-.5.2-.5.5s.2.5.5.5h1.8v4.5h-1.8c-.3 0-.5.2-.5.5s.2.5.5.5h1.8v4.5h-1.8c-.3 0-.5.2-.5.5s.2.5.5.5h1.8v5.8h-6v-12.2c0-.3-.2-.5-.5-.5h-5.8c-.3 0-.5.2-.5.5v12.2H93v-5.8zm7.3 5.7v-11.7h4.9v11.7h-4.9zm12.7-33.1h45.3v33.2H113v-33.2zm46.2 27.4h1.8c.3 0 .5-.2.5-.5s-.2-.5-.5-.5h-1.8v-4.5h1.8c.3 0 .5-.2.5-.5s-.2-.5-.5-.5h-1.8v-4.5h1.8c.3 0 .5-.2.5-.5s-.2-.5-.5-.5h-1.8v-4.5h1.8c.3 0 .5-.2.5-.5s-.2-.5-.5-.5h-1.8v-4.5h1.8c.3 0 .5-.2.5-.5s-.2-.5-.5-.5h-1.8V236h19.1v6.1h-2.1c-.3 0-.5.2-.5.5s.2.5.5.5h2.1v4.5h-2.1c-.3 0-.5.2-.5.5s.2.5.5.5h2.1v4.5h-2.1c-.3 0-.5.2-.5.5s.2.5.5.5h2.1v4.5h-2.1c-.3 0-.5.2-.5.5s.2.5.5.5h2.1v4.5h-2.1c-.3 0-.5.2-.5.5s.2.5.5.5h2.1v5.8h-6v-12.2c0-.3-.2-.5-.5-.5H166c-.3 0-.5.2-.5.5v12.2h-6.4l.1-5.8zm7.4 5.7v-11.7h4.9v11.7h-4.9zm33.7.1h-21v-33.2H200.4l-.1 33.2zM265.7 225.9h36.1c.3 0 .5-.2.5-.5v-43.5c0-.3-.2-.5-.5-.5H283c-.3 0-.5.2-.5.5v4.8l-1.4-1c-.1-.1-.2-.1-.3-.1h-43.7c-.1 0-.2 0-.3.1l-9.1 6.5h-.1c-.1 0-.2 0-.2.1h-.9c-.3 0-.5.2-.5.5s.2.5.5.5h.7v2.2h-.7c-.3 0-.5.2-.5.5s.2.5.5.5h.7v5.9h-.7c-.3 0-.5.2-.5.5s.2.5.5.5h.7v22.2c0 .3.2.5.5.5H262.5l3.2-.2zm-18-25.2h22.4v4h-22.3l-.1-4zm42.1 24.2h-17.9v-1.1c0-.2-.1-.4-.3-.4l-.4-16.2h.1c.3 0 .5-.2.5-.5v-1.4c0-.3-.2-.5-.5-.5h-.2v-1.5h18.6v21.6zm-24.4-18.7h-2.2v-.5h2.2v.5zm-1.6 1h.7l.4 16.2h-1.5l.4-16.2zm2.1 16.2-.4-16.2h.3c.3 0 .5-.2.5-.5v-1h1.3v1c0 .3.2.5.5.5h.3l-.4 16.2c-.2.1-.3.2-.3.5v1.1h-1.5v-1.1c0-.2-.1-.4-.3-.5zm4.9-17.7v.5h-2.1v-.5h2.1zm-1.4 1.5h.7l.4 16.2H269l.4-16.2zm-14.3-1H253v-.5h2.2v.5zm-6 0h-2.2v-.5h2.2v.5zm-1.4 1h.7l.4 16.2h-1.5l.4-16.2zm2.1 16.2-.4-16.2h.1c.3 0 .5-.2.5-.5v-1h2v1c0 .3.2.5.5.5h.1l-.4 16.2c-.2.1-.3.2-.3.5v1.1h-1.8v-1.1c0-.2-.1-.4-.3-.5zm3.8-16.2h.7l.4 16.2h-1.5l.4-16.2zm2.1 16.2-.4-16.2h.3c.3 0 .5-.2.5-.5v-1h6.1v1c0 .3.2.5.5.5h.1l-.4 16.2c-.2.1-.3.2-.3.5v1.1H256v-1.1c0-.2-.2-.4-.3-.5zm7.4 1.5v-.6h2.2v.6h-2.2zm5.6 0v-.6h2.2v.6h-2.2zm29.5 0h-4.4v-10.7h4.4v10.7zm-14.7-42.5h17.8V225h-2.1v-11.2c0-.3-.2-.5-.5-.5h-5.4c-.3 0-.5.2-.5.5V225h-2.1l.1-21.7h.8c.3 0 .5-.2.5-.5s-.2-.5-.5-.5h-.8v-5.9h.8c.3 0 .5-.2.5-.5s-.2-.5-.5-.5h-.8v-2.2h.8c.3 0 .5-.2.5-.5s-.2-.5-.5-.5h-1l-7.1-5v-4.8zm-46.2 4.1h43.4l7.9 5.6h-59.2l7.9-5.6zm-9.2 6.7h61.6v2.2h-61.6v-2.2zm0 3.2h61.6v5.9h-18.6v-1.5h.3c.3 0 .5-.2.5-.5s-.2-.5-.5-.5h-24.7c-.3 0-.5.2-.5.5s.2.5.5.5h.1v1.5h-18.6l-.1-5.9zm0 6.8h18.6v1.5h-.4c-.3 0-.5.2-.5.5v1.4c0 .3.2.5.5.5h.3l-.4 16.2c-.2.1-.4.2-.4.5v1.1h-17.9l.2-21.7zm18.9 21.7v-.6h2.2v.6H247zm5.8 0v-.6h2.2v.6h-2.2z" class="st1"/><path d="M235.5 206.9h-3.6c-.3 0-.5.2-.5.5v5.2c0 .3.2.5.5.5h3.6c.3 0 .5-.2.5-.5v-5.2c0-.2-.3-.5-.5-.5zm-.5 5.2h-2.7v-4.2h2.7v4.2zM242 206.9h-3.6c-.3 0-.5.2-.5.5v5.2c0 .3.2.5.5.5h3.6c.3 0 .5-.2.5-.5v-5.2c0-.2-.2-.5-.5-.5zm-.5 5.2h-2.7v-4.2h2.7v4.2zM235.5 214.9h-3.6c-.3 0-.5.2-.5.5v5.2c0 .3.2.5.5.5h3.6c.3 0 .5-.2.5-.5v-5.2c0-.2-.3-.5-.5-.5zm-.5 5.2h-2.7v-4.2h2.7v4.2zM242 214.9h-3.6c-.3 0-.5.2-.5.5v5.2c0 .3.2.5.5.5h3.6c.3 0 .5-.2.5-.5v-5.2c0-.2-.2-.5-.5-.5zm-.5 5.2h-2.7v-4.2h2.7v4.2zM276 213.1h3.6c.3 0 .5-.2.5-.5v-5.2c0-.3-.2-.5-.5-.5H276c-.3 0-.5.2-.5.5v5.2c0 .2.2.5.5.5zm.5-5.2h2.7v4.2h-2.7v-4.2zM282.5 213.1h3.6c.3 0 .5-.2.5-.5v-5.2c0-.3-.2-.5-.5-.5h-3.6c-.3 0-.5.2-.5.5v5.2c0 .2.3.5.5.5zm.5-5.2h2.7v4.2H283v-4.2zM276 221.1h3.6c.3 0 .5-.2.5-.5v-5.2c0-.3-.2-.5-.5-.5H276c-.3 0-.5.2-.5.5v5.2c0 .2.2.5.5.5zm.5-5.2h2.7v4.2h-2.7v-4.2zM282.5 221.1h3.6c.3 0 .5-.2.5-.5v-5.2c0-.3-.2-.5-.5-.5h-3.6c-.3 0-.5.2-.5.5v5.2c0 .2.3.5.5.5zm.5-5.2h2.7v4.2H283v-4.2zM238 197.8h-2.3c-.3 0-.5.2-.5.5v2.3c0 .3.2.5.5.5h2.3c.3 0 .5-.2.5-.5v-2.3c0-.3-.2-.5-.5-.5zm-.5 2.3h-1.3v-1.4h1.3v1.4zM242.5 197.8h-2.3c-.3 0-.5.2-.5.5v2.3c0 .3.2.5.5.5h2.3c.3 0 .5-.2.5-.5v-2.3c0-.3-.3-.5-.5-.5zm-.5 2.3h-1.3v-1.4h1.3v1.4zM233.6 197.8h-2.3c-.3 0-.5.2-.5.5v2.3c0 .3.2.5.5.5h2.3c.3 0 .5-.2.5-.5v-2.3c0-.3-.3-.5-.5-.5zm-.5 2.3h-1.3v-1.4h1.3v1.4zM279.9 201.1h2.3c.3 0 .5-.2.5-.5v-2.3c0-.3-.2-.5-.5-.5h-2.3c-.3 0-.5.2-.5.5v2.3c0 .3.3.5.5.5zm.5-2.3h1.3v1.4h-1.3v-1.4zM284.4 201.1h2.3c.3 0 .5-.2.5-.5v-2.3c0-.3-.2-.5-.5-.5h-2.3c-.3 0-.5.2-.5.5v2.3c0 .3.2.5.5.5zm.4-2.3h1.3v1.4h-1.3v-1.4zM275.5 201.1h2.3c.3 0 .5-.2.5-.5v-2.3c0-.3-.2-.5-.5-.5h-2.3c-.3 0-.5.2-.5.5v2.3c0 .3.2.5.5.5zm.5-2.3h1.3v1.4H276v-1.4zM103.5 283.7l-3.9-1.3-1.3-3.9c-.1-.2-.3-.3-.5-.3s-.4.1-.5.3l-1.3 3.9-3.9 1.3c-.2.1-.3.3-.3.5s.1.4.3.5L96 286l1.3 3.9c.1.2.3.3.5.3s.4-.1.5-.3l1.3-3.9 3.9-1.3c.2-.1.3-.3.3-.5s-.1-.4-.3-.5zm-4.4 1.4c-.1 0-.3.2-.3.3l-.9 2.8-.9-2.8c0-.1-.2-.3-.3-.3l-2.8-.9 2.8-.9c.1 0 .3-.2.3-.3l.9-2.8.9 2.8c0 .1.2.3.3.3l2.8.9-2.8.9zM78.9 169.7l-1.3-3.9c-.1-.2-.3-.3-.5-.3s-.4.1-.5.3l-1.3 3.9-3.9 1.3c-.2.1-.3.3-.3.5s.1.4.3.5l3.9 1.3 1.3 3.9c.1.2.3.3.5.3s.4-.1.5-.3l1.3-3.9 3.9-1.3c.2-.1.3-.3.3-.5s-.1-.4-.3-.5l-3.9-1.3zm-.6 2.7c-.1 0-.3.2-.3.3l-.9 2.8-.9-2.8c0-.1-.2-.3-.3-.3l-2.8-.9 2.8-.9c.1 0 .3-.2.3-.3l.9-2.8.9 2.8c0 .1.2.3.3.3l2.8.9-2.8.9zM181.7 191.4h10c.3 0 .5-.2.5-.5v-8.8c0-3-2.4-5.4-5.4-5.4-3 0-5.4 2.4-5.4 5.4v8.8c-.2.3 0 .5.3.5zm.5-9.2c0-2.5 2-4.5 4.5-4.5s4.5 2 4.5 4.5v8.3h-9v-8.3z" class="st1"/><path d="M172.7 217.7H200.9c.3 0 .5-.2.5-.5v-4.5H216c.2 0 .4-.2.4-.5v-32l1.2-1.2v-.1h-15.9V171l1.1-1.1c.1-.1.2-.3.1-.5s-.2-.3-.4-.3h-30.8c-.2 0-.4.1-.4.3-.1.2 0 .4.1.5l1.3 1.2v7.7h-15.9v.1l1.2 1.2v32c0 .2.2.4.4.5H173v4.5c-.8.4-.6.6-.3.6zm27.7-.9h-3.7v-20.1l1.2-1.2c.1-.1.2-.3.1-.5s-.2-.3-.4-.3h-.9v-.7c0-.3-.2-.5-.5-.5H177c-.3 0-.5.2-.5.5v.6h-.9c-.2 0-.4.1-.4.3s0 .4.1.5l1.2 1.2v20.2H173v-46h27.2l.2 46zm-4.6-22.2h-18.2v-.1h18.2v.1zm-18.5 1.3-.4-.4h19.5l-.4.4h-18.7zm.3 1h18.2v19.9h-2v-11.1c0-3.6-3-6.6-6.6-6.6-3.6 0-6.6 3-6.6 6.6v11.1h-3v-19.9zm15.2 19.8h-11.3v-11.1c0-3.1 2.5-5.7 5.7-5.7 3.1 0 5.7 2.5 5.7 5.7l-.1 11.1zm8.5-36.2h14.1v31.3h-14.1v-31.3zm14.8-1.3-.4.4h-14.4v-.4h14.8zm-15.1-9.8-.4.4h-27.8l-.4-.4H201zm-28.8 10.2h-14.4l-.4-.4h14.8v.4zm-14.1 32.2v-31.3h14.1v31.3h-14.1z" class="st1"/><path d="M208.4 185c-1.5 0-2.8 1.2-2.8 2.8v5.4c0 .3.2.5.5.5h4.6c.3 0 .5-.2.5-.5v-5.4c0-1.6-1.3-2.8-2.8-2.8zm1.8 7.6h-3.7v-4.9c0-1 .8-1.8 1.8-1.8s1.8.8 1.8 1.8l.1 4.9zM210.7 197h-4.6c-.3 0-.5.2-.5.5v7.7c0 .3.2.5.5.5h4.6c.3 0 .5-.2.5-.5v-7.7c0-.3-.2-.5-.5-.5zm-.5 7.7h-3.7V198h3.7v6.7zM165.1 185c-1.5 0-2.8 1.2-2.8 2.8v5.4c0 .3.2.5.5.5h4.6c.3 0 .5-.2.5-.5v-5.4c0-1.6-1.2-2.8-2.8-2.8zm1.9 7.6h-3.7v-4.9c0-1 .8-1.8 1.8-1.8s1.8.8 1.8 1.8l.1 4.9zM167.4 197h-4.6c-.3 0-.5.2-.5.5v7.7c0 .3.2.5.5.5h4.6c.3 0 .5-.2.5-.5v-7.7c0-.3-.2-.5-.5-.5zm-.4 7.7h-3.7V198h3.7v6.7zM158.1 130.7c0-.3-.2-.5-.5-.5h-5.9c-.3 0-.5.2-.5.5v4.7c0 .3.2.5.5.5h5.9c.3 0 .5-.2.5-.5v-4.7zm-.9 4.3h-5v-3.8h5v3.8zM151.7 129.2h5.9c.3 0 .5-.2.5-.5v-5.4c0-1.9-1.5-3.4-3.4-3.4s-3.4 1.5-3.4 3.4v5.4c-.1.3.1.5.4.5zm.5-5.9c0-1.4 1.1-2.5 2.5-2.5s2.5 1.1 2.5 2.5v5h-5v-5z" class="st1"/><path d="M162.6 147c.1 0 .2 0 .3-.1h41.5c.3 0 .5-.2.5-.5V117h.6c.3 0 .5-.2.5-.5s-.2-.5-.5-.5h-1l-24.5-5.8h-12.4c0-1.6-1.3-2.9-2.9-2.9-1.6 0-2.9 1.3-2.9 2.9h-4.1c0-1.6-1.3-2.9-2.9-2.9-1.6 0-2.9 1.3-2.9 2.9h-4.3c0-1.6-1.3-2.9-2.9-2.9s-2.9 1.3-2.9 2.9H129.5L105 116h-1c-.3 0-.5.2-.5.5s.2.5.5.5h.6v29.4c0 .3.2.5.5.5h41.5c.1.1.2.1.3.1s.2 0 .3-.1h15.4c-.3.1-.2.1 0 .1zm-10.6-1.2v-8.2h5v8.2h-5zm5.5-9.1h-5.9c-.3 0-.5.2-.5.5v8.8H147v-29h15.1v29H158v-8.8c0-.3-.2-.5-.5-.5zm46.4 9.3H163v-29h40.9v29zm-41.4-35.8c0-1.1.9-2 2-2s2 .9 2 2v2.5h-4v-2.5zm-10 0c0-1.1.9-2 2-2s2 .9 2 2v2.5h-4v-2.5zm-8.1-2c1.1 0 2 .9 2 2v2.5h-4v-2.5c0-1.1.9-2 2-2zm-15.1 3h12.1v2c0 .3.2.5.5.5h4.9c.3 0 .5-.2.5-.5v-2h4.3v2c0 .3.2.5.5.5h4.9c.3 0 .5-.2.5-.5v-2h4.1v2c0 .3.2.5.5.5h4.9c.3 0 .5-.2.5-.5v-2h12.2l20.7 4.9h-91.7l20.6-4.9zm-24.1 5.8H146v29h-40.9v-29z" class="st1"/><path d="M139.3 122.1h-5.7c-.3 0-.5.2-.5.5v7.4c0 .3.2.5.5.5h5.7c.3 0 .5-.2.5-.5v-7.4c0-.3-.2-.5-.5-.5zm-.4 7.4h-4.8V123h4.8v6.5zM139.3 132.7h-5.7c-.3 0-.5.2-.5.5v7.4c0 .3.2.5.5.5h5.7c.3 0 .5-.2.5-.5v-7.4c0-.3-.2-.5-.5-.5zm-.4 7.5h-4.8v-6.5h4.8v6.5zM128.2 122.1h-5.7c-.3 0-.5.2-.5.5v7.4c0 .3.2.5.5.5h5.7c.3 0 .5-.2.5-.5v-7.4c0-.3-.2-.5-.5-.5zm-.5 7.4H123V123h4.8v6.5zM128.2 132.7h-5.7c-.3 0-.5.2-.5.5v7.4c0 .3.2.5.5.5h5.7c.3 0 .5-.2.5-.5v-7.4c0-.3-.2-.5-.5-.5zm-.5 7.5H123v-6.5h4.8v6.5zM117.1 122.1h-5.7c-.3 0-.5.2-.5.5v7.4c0 .3.2.5.5.5h5.7c.3 0 .5-.2.5-.5v-7.4c-.1-.3-.3-.5-.5-.5zm-.5 7.4h-4.8V123h4.8v6.5zM117.1 132.7h-5.7c-.3 0-.5.2-.5.5v7.4c0 .3.2.5.5.5h5.7c.3 0 .5-.2.5-.5v-7.4c-.1-.3-.3-.5-.5-.5zm-.5 7.5h-4.8v-6.5h4.8v6.5zM192.2 130.5h5.7c.3 0 .5-.2.5-.5v-7.4c0-.3-.2-.5-.5-.5h-5.7c-.3 0-.5.2-.5.5v7.4c.1.2.3.5.5.5zm.5-7.5h4.8v6.5h-4.8V123zM192.2 141.1h5.7c.3 0 .5-.2.5-.5v-7.4c0-.3-.2-.5-.5-.5h-5.7c-.3 0-.5.2-.5.5v7.4c.1.3.3.5.5.5zm.5-7.4h4.8v6.5h-4.8v-6.5zM181.1 130.5h5.7c.3 0 .5-.2.5-.5v-7.4c0-.3-.2-.5-.5-.5h-5.7c-.3 0-.5.2-.5.5v7.4c0 .2.3.5.5.5zm.5-7.5h4.8v6.5h-4.8V123zM181.1 141.1h5.7c.3 0 .5-.2.5-.5v-7.4c0-.3-.2-.5-.5-.5h-5.7c-.3 0-.5.2-.5.5v7.4c0 .3.3.5.5.5zm.5-7.4h4.8v6.5h-4.8v-6.5zM170 130.5h5.7c.3 0 .5-.2.5-.5v-7.4c0-.3-.2-.5-.5-.5H170c-.3 0-.5.2-.5.5v7.4c0 .2.2.5.5.5zm.4-7.5h4.8v6.5h-4.8V123zM170 141.1h5.7c.3 0 .5-.2.5-.5v-7.4c0-.3-.2-.5-.5-.5H170c-.3 0-.5.2-.5.5v7.4c0 .3.2.5.5.5zm.4-7.4h4.8v6.5h-4.8v-6.5zM290.1 5.8c.3 0 .5-.2.5-.5V2.1c0-.3-.2-.5-.5-.5s-.5.2-.5.5v3.3c0 .2.3.4.5.4zM290.1 314.2c-.3 0-.5.2-.5.5v3.3c0 .3.2.5.5.5s.5-.2.5-.5v-3.3c0-.3-.2-.5-.5-.5zM155.6 0v9.2h-4.5V0h-1v9.2h-1.3V0h-1v9.2h-4.4V0h-1v9.2h-1.3V0h-1v9.2h-4.4V0h-1v9.2h-1.3V0h-1v9.2H128V0h-1v9.2h-1V0h-1v9.2h-4.4V0h-1v9.2h-1.3V0h-1v9.2H113V0h-1v9.2h-1.3V0h-1v9.2h-4.3V0h-1v9.7c0 .3.2.5.5.5h51.5c.3 0 .5-.2.5-.5V0h-1.3zM186.4 0v4l-3-4h-1.2l4.2 5.6v5.7H180V8.7c1.6-.2 2.8-1.6 2.8-3.3s-1.2-3-2.8-3.3V0h-1v2.1c-1.6.2-2.8 1.6-2.8 3.3s1.2 3 2.8 3.3v2.6h-6.4V5.6l4.1-5.6h-1.2l-2.9 4V0h-1v50.1c0 .3.2.5.5.5h14.7c.3 0 .5-.2.5-.5V0h-.9zm-9.2 5.4c0-1.3 1-2.3 2.3-2.3 1.3 0 2.3 1 2.3 2.3 0 1.3-1 2.3-2.3 2.3-1.3 0-2.3-1-2.3-2.3zm8.3 6.8-6 5.3-6-5.3h12zm-12 24.6 6-5.3 6 5.3h-12zm12 .9-6 5.3-6-5.3h12zm-12-12.7h12l-6 5.3-6-5.3zm0-1 6-5.3 6 5.3h-12zm-.9-11.2 6.1 5.4-6.1 5.4V12.8zm0 12.7 6.1 5.4-6.1 5.4V25.5zm0 12.7 6.1 5.4-6.1 5.4V38.2zm.8 11.4 6.1-5.4 6.1 5.4h-12.2zm13-.6-6.1-5.4 6.1-5.4V49zm0-12.7-6.1-5.4 6.1-5.4v10.8zm0-12.8-6.1-5.4 6.1-5.4v10.8zM280.8 8.5l-2-.5V2.7c0-.2-.1-.4-.3-.5l-2.4-.9V0h-1v1.7c0 .2.1.4.3.5l2.4.9v5.3c0 .2.1.4.4.5l2 .5V22h-12.3v-7.3c0-.3-.2-.5-.5-.5h-5V0h-1v14.1H245V0h-1v14.1h-5c-.3 0-.5.2-.5.5v7.2h-11V0h-1v21.9H222V0h-1v21.9h-17.6V0h-1v22.4c0 .3.2.5.5.5H280.4c.3 0 .5-.2.5-.5V8.9c.3-.2.2-.4-.1-.4zm-31.2 13.4h-10V15h10v6.9zm6.8 0h-5.9V15h5.9v6.9zm10.6 0h-9.6V15h9.6v6.9z" class="st1"/><path d="m230.9 0-1.7.5c-.2.1-.4.2-.4.5v2.5c0 .1.1.3.2.4.1.1.2.1.3.1h.1l2.1-.6c.2-.1.4-.2.4-.5V.3c0-.1 0-.2-.1-.3h-.9zm.1 2.5-1.2.3V1.3L231 1v1.5zM268.2.5l-1.7-.5h-1c-.1.1-.1.2-.1.3v2.5c0 .2.1.4.4.5l2.1.6h.1c.1 0 .2 0 .3-.1.1-.1.2-.2.2-.4V.9c0-.2-.1-.4-.3-.4zm-.6 2.3-1.2-.3V1l1.2.3v1.5zM291.7 0c0 .3.2.5.5.5h3.3c.3 0 .5-.2.5-.5h-4.3zM284.4 0c0 .3.2.5.5.5h3.3c.3 0 .5-.2.5-.5h-4.3zM320 30c-1.4.3-2.9.4-4.4.5-2.3.1-5.5.4-8.4-.1-3.2-.5-5.5-1.6-7-3.6-1.4-1.7-2.4-4.1-2.7-6.7-.3-2.4-.1-5 .7-7.3.8-2.7 2.8-4.9 5.4-6.1.9-.4 1.9-.6 3-.8l1.5-.3h.1c.8-.2.9-.2 1.1-.4.1-.1.1-.2.1-.4 0-.1-.1-.3-.2-.4-.1 0-.1-.1-.2-.1 0 0-.1 0-.1-.1.2-.2.7-.3.9-.3.6 0 1.3-.1 2.1-.1.7 0 1.4 0 2.1.2h.1c1 .2 1.2.4 1.2.4 0 .2-.1.4-.4.4-.3 0-.4.3-.4.5 0 .3.2.4.5.4h4.9v-1h-3.7c0-.2.1-.3.1-.5-.1-.9-1.4-1.2-2-1.3h-.1c-.7.1-1.5.1-2.2.1-.8 0-1.5 0-2.2.1-.4 0-1.2.1-1.6.7-.2.3-.3.5-.2.7v.1h-.2c-.5.1-.9.2-1.4.3-1.1.2-2.2.4-3.2.9-2.8 1.4-4.9 3.8-5.9 6.7-.8 2.4-1 5.2-.7 7.7.3 2.8 1.4 5.3 2.9 7.2 1.7 2.1 4.2 3.4 7.6 3.9 1.4.2 2.8.3 4.1.3 1.6 0 3.2-.1 4.4-.2 1.4-.1 2.9-.2 4.3-.5l.1-.9zM320 118h-4v-.8h4v-1h-4v-.8h4v-1h-2.5v-5.2c0-1.3 1.1-2.4 2.4-2.4h.1v-1h-.1c-1.9 0-3.4 1.5-3.4 3.4v5.2h-.5v-1.3c0-.3-.2-.5-.5-.5h-.3v-7.9h4.8v-1h-8.6v-3.1h8.6v-1h-7.8V76.4h2c.1 0 .2 0 .3-.1l5.5-3.4h.1v-1.1c-.1 0-.2 0-.3.1l-5.6 3.5h-2.4c-.3 0-.5.2-.5.5v.3h-13.5L271.5 83h-.9c-.3 0-.5.2-.5.5s.2.5.5.5h.5v34.5c0 .3.2.5.5.5H320.2l-.2-1zm-24.9 0h-23.2V84h23.2v34zm2.7 0h-1.7V84h1.7v34zm13.4-18.2h-.3c-.3 0-.5.2-.5.5v4.1c0 .3.2.5.5.5h.3v13.2h-12.5V84h12.5v15.8zm0-16.7h-36l22.6-5.9h13.4v5.9zm2.5 21.7h.6v7.9h-.6v-7.9zm-1.5 0h.6v7.9h-.6v-7.9zM315 118h-2.8v-4.4h2.8v4.4zM320 221.2h-1.5l1.5-1.3v-1.3l-2.2 1.9v-10.8l2.2 1.9v-1.3l-1.3-1.2h1.3v-1h-1.3l1.3-1.2v-1.3l-2.2 1.9v-10.8l2.2 1.9v-1.3l-1.3-1.2h1.3v-1h-1.3l1.3-1.2v-1.3l-2.2 1.9v-10.8l2.2 1.9v-.6l-1.3-1.2h1.3v-1h-2.2v-5.7l2.2-3v-1.6l-2.2 3v-5.7h2.2v-1h-2.7c-.3 0-.5.2-.5.5v52.3c0 .3.2.5.5.5h2.7v-.9z" class="st1"/><path d="M320 80.9h-1.1v-3.5h1.1v-1h-1.6c-.3 0-.5.2-.5.5v4.4c0 .3.2.5.5.5h1.6v-.9zM320 84.1h-6c-.3 0-.5.2-.5.5s.2.5.5.5h6v-1zM320 96.5h-4.8v-8.6h4.8v-1h-5.3c-.3 0-.5.2-.5.5v9.1h-.2c-.3 0-.5.2-.5.5s.2.5.5.5h6.1v-1zM320 101.8h-6c-.3 0-.5.2-.5.5s.2.5.5.5h6v-1zM320 132.8c-.2 0-.4.2-.4.5v3.3c0 .2.2.4.4.5v-4.3zM320 140.1c-.2 0-.4.2-.4.5v3.3c0 .2.2.4.4.5v-4.3zM320 261.4h-4.2v-4.3c0-.2-.1-.4-.3-.4l-2.7-1.1v-18.1l7.1 9.1V245l-1.3-1.7h1.3v-1h-2.1l-2.5-3.2h4.6v-1h-5.3l-1.8-2.3c0-.3-.2-.5-.5-.5H273c-.3 0-.5.2-.5.5v19.7h-.9c-.3 0-.5.2-.5.5v8.9c0 .3.2.5.5.5H313c.3 0 .5-.2.5-.4l2.4-2.7h4.1v-.9zm-20.4 3.1h-27.5v-7.9h27.5v7.9zm.5-8.8h-26.6v-19.2H312v19.2h-11.9zm.5.9h2.7v5.1l-2.7 2.3v-7.4zm12 7.9h-11.2l2.7-2.3v-5.3H312.4l2.3.9v4.5l-2.1 2.2zM104.3 299.9h.3V320h1v-20.1h3.6v4.3c0 .3.1.5.3.7.1.1.2.1.4.1v15h1v-15.3c.4-.1.9-.1 1.3 0V320h1v-15c.1 0 .3-.1.4-.1.2-.1.3-.4.3-.7v-1h3v1c0 .3.1.5.3.7.1.1.2.1.4.1v15h1v-15.3c.4-.1.9-.1 1.3 0V320h1v-15c.1 0 .3-.1.4-.1.2-.1.3-.4.3-.7v-1h3v1c0 .3.1.5.3.7.1.1.2.1.4.1v15h1v-15.3c.4-.1.9-.1 1.3 0V320h1v-15c.1 0 .3-.1.4-.1.2-.1.3-.4.3-.7v-1h3v1c0 .3.1.5.3.7.1.1.2.1.4.1v15h1v-15.3c.4-.1.9-.1 1.3 0V320h1v-15c.1 0 .3-.1.4-.1.2-.1.3-.4.3-.7v-1h3v1c0 .3.1.5.3.7.1.1.2.1.4.1v15h1v-15.3c.4-.1.9-.1 1.3 0V320h1v-15c.1 0 .3-.1.4-.1.2-.1.3-.4.3-.7v-1h3v1c0 .3.1.5.3.7.1.1.2.1.4.1v15h1v-15.3c.4-.1.9-.1 1.3 0V320h1v-15c.1 0 .3-.1.4-.1.2-.1.3-.4.3-.7v-4.3h3.8V320h1v-20.1h.1c.3 0 .5-.2.5-.5s-.2-.5-.5-.5h-4.9v-.8h.4c.3 0 .5-.2.5-.5s-.2-.5-.5-.5h-1.5V296c0-.3-.2-.5-.5-.5h-13c-.1-.6-.6-1-1.2-1.1h-.7c-.9 0-1.7-.2-2.5-.5l-1-.3h-.2c-.3-.2-.6-.4-1-.4s-.8.2-1.1.5l-.9.3c-.8.3-1.7.4-2.5.5h-.7c-.6 0-1.1.5-1.2 1.1h-13c-.3 0-.5.2-.5.5v1.2h-2.1c-.3 0-.5.2-.5.5s.2.5.5.5h.4v.8h-4.9c-.3 0-.5.2-.5.5s-.2.3.1.3zm16.1 4-.2-.1c-.8-.2-1.6-.3-2.3 0l-.2.1v-.8h2.7v.8zm7.6 0-.2-.1c-.8-.2-1.6-.3-2.3 0l-.2.1v-.8h2.7v.8zm7.6 0-.2-.1c-.8-.2-1.6-.3-2.3 0l-.2.1v-.8h2.7v.8zm7.7 0-.2-.1c-.8-.2-1.6-.3-2.3 0l-.2.1v-.8h2.7v.8zm7.6 0-.2-.1c-.8-.2-1.6-.3-2.3 0l-.2.1v-.8h2.7v.8zm-18.7-8.6v-.6l.4.1c.9.3 1.8.5 2.8.5h.7c.1 0 .2.1.3.1h-4.1c-.2 0-.1-.1-.1-.1zm-2.1-.6c0-.1 0-.3.1-.3.1-.1.3-.2.4-.2.3 0 .6.3.6.6v.6c0 .3-.3.6-.6.6s-.6-.3-.6-.6l.1-.7zm-4.6.7h.7c.9 0 1.9-.2 2.8-.5l.2-.1v.8h-3.9c.1-.1.1-.2.2-.2zm-13.8 1.1h18c.3.2.6.3.9.3.3 0 .7-.1.9-.3h18.3v.7h-38.1v-.7zm-1.6 1.6h40.8v4.1h-40.8v-4.1zm0 5h2.7v.8l-.2-.1c-.8-.2-1.6-.3-2.3 0l-.2.1v-.8zM172.6 320v-1.8h4.1l-1.3 1.8h1.2l2.4-3.3v3.3h1v-3.1l2.3 3.1h1.2l-1.3-1.8h4.2v1.8h1v-2.3c0-.3-.2-.5-.5-.5h-5.4l-1.5-2c0-.2-.2-.4-.5-.4-.2 0-.3.1-.4.2l-1.6 2.2h-5.3c-.3 0-.5.2-.5.5v2.3h.9zM203.7 320v-13.4h25.2v4.5h-7.1c-.3 0-.5.2-.5.5v8.4h1v-7.9h11.3l-6.4 2.2c-.2.1-.3.3-.3.5v5.2h1v-4.9l8.2-2.8v6c0 .1.1.3.2.4s.3.1.4.1l7.6-2v3.3h1v-3.4l16.4.2v3.2h1v-3l5 1.7c.1 0 .3 0 .4-.1.1-.1.2-.2.2-.4v-5.9l7.1 3.6v4h1v-4.3c0-.2-.1-.3-.3-.4l-2.3-1.2v-2.5c0-.3-.2-.5-.5-.5H230v-5c0-.3-.2-.5-.5-.5h-26.2c-.3 0-.5.2-.5.5V320h.9zm68.9-7.9v1.5l-3-1.5h3zm-30.5 4.2-1.2.3v-1.7h1.2v1.4zm5.3-.6h-1.2v-.8h1.2v.8zm5.4 0h-1.2v-.8h1.2v.8zm5.3.1h-1.2v-.9h1.2v.9zm5.3.5-1.2-.4v-1h1.2v1.4zm-26.5-4.2h30.3v5.5l-2.8-1v-2.2c0-.3-.2-.5-.5-.5h-2.1c-.3 0-.5.2-.5.5v1.4h-2.2v-1.4c0-.3-.2-.5-.5-.5h-2.1c-.3 0-.5.2-.5.5v1.4h-2.2v-1.3c0-.3-.2-.5-.5-.5h-2.1c-.3 0-.5.2-.5.5v1.3h-2.4v-1.3c0-.3-.2-.5-.5-.5h-2.1c-.3 0-.5.2-.5.5v1.3h-.7l-1.5.2v-1.6c0-.3-.2-.5-.5-.5h-2.1c-.3 0-.5.2-.5.5v2.5l-3.1.8.1-5.6z" class="st1"/><path d="M231.9 320c0-.1-.1-.1-.1-.2-.1-.1-.3-.1-.4-.1l-.9.2h1.4zM266.9 320l-.9-.2c-.1 0-.3 0-.4.1-.1 0-.1.1-.1.2h1.4zM288.6 320c0-.3-.2-.5-.5-.5h-3.3c-.3 0-.5.2-.5.5h4.3zM295.9 320c0-.3-.2-.5-.5-.5h-3.3c-.3 0-.5.2-.5.5h4.3zM57.9 219.4c-.1-.1-.3-.1-.4-.1L36.8 225 27 238.2H0v1h26l-1.5 2.1-4.5 1.1H0v1h19.5v18H1.2v-14.6c0-.1 0-.2-.1-.3L0 245.1v1.6l.3.4v14.5H0v1h20l4.6.7c.1 0 .1.1.2.1h9.5l2.5.8h20.9c.3 0 .5-.2.5-.5v-43.6c-.1-.4-.1-.6-.3-.7zm-33.6 42.7-3.8-.6v-18.2l3.8-.9v19.7zm9.3.1h-8.4v-19.9l8.4-.1v20zm2.8.5-1.9-.6v-20.6c0-.1-.1-.3-.1-.3s-.2-.1-.3-.1l-8.4.1 10.7-14.4v35.9zm20.8.2H37.4v-37.1l19.8-5.4v42.5zM12 168.9H6.6l-1.5-2c0-.2-.2-.4-.5-.4-.2 0-.3.1-.4.2l-1.6 2.2H0v1h2l-2 2.7v1.6l4.2-5.8v5.3c-1.6.2-2.8 1.6-2.8 3.3 0 1.7 1.2 3 2.8 3.3v2.6H0v1h10.7l-6 5.3-4.7-4.3v1.3l4 3.5-4 3.5v1.3l4.7-4.1 6 5.3H0v1h10.7l-6 5.3-4.7-4.3v1.3l4 3.5-4 3.5v1.3l4.7-4.1 6 5.3H0v1h10.7l-6 5.3-4.7-4.4v1.3l4 3.5-4 3.5v1.3l4.7-4.1 6.1 5.4H0v1h12c.3 0 .5-.2.5-.5V169.5c0-.4-.2-.6-.5-.6zM2.4 177c0-1.3 1-2.3 2.3-2.3s2.3 1 2.3 2.3-1 2.3-2.3 2.3-2.3-1.1-2.3-2.3zm9.2 43.6-6.1-5.4 6.1-5.4v10.8zm0-12.8-6.1-5.4 6.1-5.4v10.8zm0-12.7-6.1-5.4 6.1-5.4v10.8zm0-12.3H5.2v-2.6C6.8 180 8 178.6 8 177c0-1.7-1.2-3-2.8-3.3v-5.1l6.4 8.6v5.6zm0-7.2-4.2-5.7h4.2v5.7zM11.7 11.3c0-.2 0-.4-.1-.5-.1-1-.2-2-.5-2.9-.2-.7-.8-2.7-2.2-2.7H0v1h8.9c.3 0 .8.3 1.3 2 .3.9.4 1.8.5 2.8 0 .2 0 .4.1.5.3 2.8.3 5.6.3 8v.7c0 1.1 0 2.3-.3 3.4-.2.7-.6 1.3-1 1.6-.3.3-.9.3-1.4.4.9-1.4 1.6-2.9 1.8-4.4.3-1.9.1-3.8-.5-5.6-.7-1.9-2-3.1-3.5-4.5-.2-.2-.5-.2-.7 0-.2.2-.2.5 0 .7 1.4 1.2 2.5 2.3 3.2 4 .6 1.6.8 3.4.5 5-.6 3.2-2.6 6-5.8 7.9-1 .6-2.2 1-3.4 1.3v1c1.4-.3 2.7-.7 3.9-1.5 1.5-.9 2.7-1.9 3.7-3.1H8c.8 0 1.7 0 2.4-.6s1.1-1.5 1.3-2.1c.4-1.2.4-2.4.4-3.6v-.7c-.1-2.4-.1-5.3-.4-8.1zM49.5 83.1h-1l-26.3-6.8H8.7V76c0-.3-.2-.5-.5-.5H5.7L.2 72c-.1 0-.2-.1-.2-.1V73l5.3 3.4c.1 0 .2.1.3.1h2.2v23.4H0v1h8.5v3.1H0v1h4.7v7.9h-.3c-.3 0-.5.2-.5.5v1.3h-.5v-5.2c0-1.9-1.5-3.4-3.4-3.4v1c1.3 0 2.4 1.1 2.4 2.4v5.2H0v1h3.9v.8H0v1h3.9v.8H0v1h48.5c.3 0 .5-.2.5-.5V84h.5c.3 0 .5-.2.5-.5 0-.2-.2-.4-.5-.4zM5.7 104.8h.6v7.9h-.6v-7.9zm2 13.2H4.9v-4.4h2.8v4.4zm0-5.3h-.5v-7.9h.6v7.9zm1-35.5h13.4l22.6 5.9h-36v-5.9zM21.5 118H8.7v-13.2H9c.3 0 .5-.2.5-.5v-4.1c0-.3-.2-.5-.5-.5h-.3V84h12.8v34zm2.7 0h-1.7V84h1.7v34zm23.8 0H25.2V84H48v34z" class="st1"/><path d="M1.5 76.5H0v1h1.1V81H0v1h1.5c.3 0 .5-.2.5-.5V77c0-.3-.2-.5-.5-.5zM5.9 84.1H0v1h5.9c.3 0 .5-.2.5-.5s-.2-.5-.5-.5zM5.9 96.5h-.2v-9.1c0-.3-.2-.5-.5-.5H0v1h4.7v8.6H0v1h6c.3 0 .5-.2.5-.5-.1-.3-.3-.5-.6-.5zM5.9 101.8H0v1h5.9c.3 0 .5-.2.5-.5s-.2-.5-.5-.5zM.1 132.8H0v4.2h.1c.3 0 .5-.2.5-.5v-3.3c0-.2-.2-.4-.5-.4zM.1 140.1H0v4.2h.1c.3 0 .5-.2.5-.5v-3.3c0-.1-.2-.4-.5-.4z" class="st1"/></g></svg>