<svg xmlns="http://www.w3.org/2000/svg" xml:space="preserve" style="enable-background:new 0 0 320 320" viewBox="0 0 320 320"><style>.st1{fill:#131313}</style><path id="_x32_e2e2d" d="M0 0h320v320H0z" style="fill:#2e2e2d"/><g id="Majors_00000085208679259217641580000008721256152853713807_"><path d="M3.4 266.1c-1.6 0-2.9 1.3-2.9 2.9s1.3 2.9 2.9 2.9 2.9-1.3 2.9-2.9-1.3-2.9-2.9-2.9zm0 4.1c-.7 0-1.2-.5-1.2-1.2s.5-1.2 1.2-1.2 1.2.5 1.2 1.2-.5 1.2-1.2 1.2zM213.2 95.8v43.7h-3.8c-.6 0-1 .5-1 1s.5 1 1 1h68.7c.6 0 1-.5 1-1s-.5-1-1-1H275V84.7c0-.6-.5-1-1-1h-15.5c-.6 0-1 .5-1 1v54.7h-4.6v-30.6c0-.6-.5-1-1-1h-15.5c-.6 0-1 .5-1 1v30.6h-4.7V95.8c0-.6-.5-1-1-1h-15.5c-.5-.1-1 .4-1 1zm46.4-10.1H273v53.7h-13.4V85.7zm-22.1 24.1h13.4v29.6h-13.4v-29.6zm-8.8 29.6h-13.4V96.8h13.4v42.6z" class="st1"/><path d="M220.3 70.6c-1.7.5-3.2 1.6-4.1 3.1-.9 1.5-1.1 3.3-.7 5.1s1.6 3.2 3.1 4.1c1 .6 2.2.9 3.3.9.6 0 1.2-.1 1.7-.2 1.3-.4 2.5-1.1 3.4-2.1l10.6 8.6c-.5 2.7.7 5.6 3.2 7.1 1 .6 2.2.9 3.3.9.6 0 1.2-.1 1.7-.2 1.7-.5 3.2-1.6 4.1-3.1 1.2-2.1 1.1-4.7 0-6.7l13.8-17.7c.8.3 1.7.5 2.5.5.6 0 1.2-.1 1.7-.2 1.7-.5 3.2-1.6 4.1-3.1.9-1.5 1.1-3.3.7-5.1-.5-1.7-1.6-3.2-3.1-4.1-1.5-.9-3.3-1.1-5.1-.7-1.7.5-3.2 1.6-4.1 3.1-1.6 2.8-.9 6.4 1.5 8.5l-13.4 17.1c-.3-.3-.7-.6-1.1-.8-3.2-1.8-7.3-.7-9.1 2.4l-10.2-8.3c.6-1.4.7-2.9.3-4.3-.5-1.7-1.6-3.2-3.1-4.1-1.5-.9-3.3-1.2-5-.7zm5.8 8.6c-.1.1-.2.3-.2.4-.6 1-1.6 1.7-2.7 2-1.2.3-2.4.2-3.5-.5-1.1-.6-1.8-1.6-2.2-2.8-.3-1.2-.2-2.4.5-3.5.6-1.1 1.6-1.8 2.8-2.2.4-.1.8-.2 1.2-.2.8 0 1.6.2 2.3.6 1.1.6 1.8 1.6 2.2 2.8.3 1.2.1 2.3-.4 3.4zm13.7 10.6c.1-.3.2-.6.4-.9.9-1.5 2.4-2.3 4-2.3.8 0 1.6.2 2.3.6 2.2 1.3 3 4.1 1.7 6.3s-4.1 3-6.3 1.7c-1.9-1.1-2.7-3.3-2.1-5.3v-.1zm26.5-30.4c.8 0 1.6.2 2.3.6 2.2 1.3 3 4.1 1.7 6.3-.6 1.1-1.6 1.8-2.8 2.2-1.1.3-2.3.2-3.4-.4-.1-.1-.1-.1-.2-.1-2.1-1.3-2.8-4.1-1.6-6.3.6-1.1 1.6-1.8 2.8-2.2.4-.1.8-.1 1.2-.1zM94 67.8l5.4 22.8c.1.4.4.7.8.7h.2c.5-.1.7-.6.6-1l-5.4-22.8c-.6-2.4.7-4.8 2.9-5.8l4.5 19 11.9 52.3c0 .2.2.4.4.5.1.1.3.1.5.1h.2l.9-.2c-.2.3-.4.5-.6.8-1.1 1.8-1.5 4-1 6.1.4 1.8 2.4 4.5 5.7 8.1 2.4 2.5 4.7 4.6 4.9 4.8H126.7v-.4c.1-.2 1.2-3.1 2.2-6.5 1.4-4.7 1.9-8 1.5-9.8-.5-2.1-1.8-3.9-3.6-5-.3-.2-.6-.3-.9-.5l.9-.2c.5-.1.7-.6.6-1l-11.9-52.3-5.4-22.8c-.1-.2-.2-.4-.4-.5-.2-.1-.4-.2-.6-.1l-11.4 2.7c-.5.1-.7.6-.6 1l.5 2.1c-2.6 1.3-4.4 4.6-3.6 7.9zm35.3 69.3c.6 2.4-1.3 8.5-2.7 12.6l-2.1-8.6c-.1-.5-.6-.7-1-.6-.5.1-.7.6-.6 1l2.1 8.6c-3.1-3-7.5-7.7-8.1-10-.4-1.7-.1-3.4.8-4.8s2.3-2.5 4-2.9c.5-.1 1-.2 1.5-.2 1.2 0 2.3.3 3.3.9 1.4.9 2.4 2.3 2.8 4zm-12.9-5.3-11.5-50.7 9.7-2.3 11.5 50.7-9.7 2.3zM109.2 56l5 21.1-9.7 2.3-4.5-19-.5-2 9.7-2.4zM91.5 202.1h-1.4c-.5 0-.9.4-.9.9s.4.9.9.9h1.4c.5 0 .9-.4.9-.9s-.4-.9-.9-.9zM109.8 202.1h-3c-.5 0-.9.4-.9.9s.4.9.9.9h3c.5 0 .9-.4.9-.9-.1-.5-.4-.9-.9-.9zM97.6 202.1c-.5 0-.9.4-.9.9s.4.9.9.9h3c.5 0 .9-.4.9-.9s-.4-.9-.9-.9h-3zM115.9 202.1c-.5 0-.9.4-.9.9s.4.9.9.9h3c.5 0 .9-.4.9-.9s-.4-.9-.9-.9h-3zM125 202.1c-.5 0-.9.4-.9.9s.4.9.9.9h1.4c.5 0 .9-.4.9-.9s-.4-.9-.9-.9H125z" class="st1"/><path d="M78.4 202.3c-1.6-2.6-4.5-4.4-7.9-4.4-5.1 0-9.2 4.1-9.2 9.2s4.1 9.2 9.2 9.2 9.2-4.1 9.2-9.2c0-4.4.9-9.1 2.6-13.6.5-1.4 1.1-2.8 1.8-4.1 1.8 3.2 4 6.1 6.5 8.6.2.2.4.3.6.3.2 0 .4-.1.6-.2.3-.3.3-.9 0-1.2-2.2-2.3-4.2-4.9-5.9-7.7l23.4 9.1c.4.2.9 0 1.1-.5.2-.4 0-.9-.5-1.1l-23.1-9 39.9-15.7c.3-.1.5-.4.5-.8 0-.3-.2-.7-.5-.8-4.5-2.1-9.3-3.1-14.3-3.1-4.6 0-9.1 1.2-13.5 3.6-4 2.2-7.7 5.4-10.9 9.3-1.4 1.8-2.8 3.7-3.9 5.7-.4-.8-.8-1.6-1.1-2.4-2.1-5.1-3.3-10.4-3.3-15.4 0-5.1-4.1-9.2-9.2-9.2s-9.2 4.1-9.2 9.2 4.1 9.2 9.2 9.2c3.3 0 6.2-1.8 7.9-4.4.5 3.7 1.5 7.5 3.1 11.2.5 1.2 1.1 2.4 1.7 3.5-.9 1.7-1.7 3.5-2.4 5.3-1.2 3.1-2 6.3-2.4 9.4zm-7.8 12.4c-4.1 0-7.5-3.4-7.5-7.5s3.4-7.5 7.5-7.5 7.5 3.4 7.5 7.5-3.4 7.5-7.5 7.5zm18.8-33.5c3.1-3.8 6.6-6.8 10.4-8.9 4.1-2.3 8.3-3.4 12.6-3.4 4.1 0 8 .7 11.7 2.2l-38.1 15c1-1.7 2.2-3.4 3.4-4.9zm-18.8-5.6c-4.1 0-7.5-3.4-7.5-7.5s3.4-7.5 7.5-7.5 7.5 3.4 7.5 7.5-3.4 7.5-7.5 7.5zM127.5 271.7c2.6 2.5 5.6 4.8 8.5 6.4 2.7 1.6 5.2 2.4 6.8 2.4 1.6 0 4-.9 6.8-2.4 2.8-1.6 5.9-3.9 8.5-6.4 3.1-3 5.6-6.2 7.3-9.5 2.1-3.9 3.2-7.9 3.2-11.8v-24.9c0-.3-.2-.7-.5-.8s-.7-.1-.9.2c-1.6 1.6-4.9 2.9-9.4 3.9-4.2.9-9.5 1.4-14.9 1.4s-10.6-.5-14.9-1.4c-4.6-.9-7.8-2.3-9.4-3.9-.2-.2-.6-.3-.9-.2-.3.1-.5.4-.5.8v24.9c0 3.9 1.1 7.9 3.2 11.8 1.5 3.3 4 6.5 7.1 9.5zm-8.8-44.5c2 1.3 5 2.4 8.8 3.2 4.4.9 9.7 1.4 15.2 1.4 5.6 0 10.8-.5 15.2-1.4 3.9-.8 6.8-1.9 8.8-3.2v23.1c0 3.6-1 7.3-3 11-1.7 3.2-4.1 6.2-7 9.1-2.5 2.4-5.4 4.6-8.1 6.2-2.5 1.4-4.6 2.2-5.9 2.2-1.3 0-3.5-.8-5.9-2.2-2.7-1.6-5.6-3.7-8.1-6.2-3-2.9-5.3-5.9-7-9.1-2-3.7-3-7.4-3-11v-23.1z" class="st1"/><path d="M125.2 218.6c5.6 0 10.8-.5 15.2-1.4 3.9-.8 6.8-1.9 8.8-3.2v8.5c0 .5.4.9.9.9s.9-.4.9-.9v-10.3c0-.3-.2-.7-.5-.8s-.7-.1-.9.2c-1.6 1.6-4.9 2.9-9.4 3.9-4.2.9-9.5 1.4-14.9 1.4s-10.6-.5-14.9-1.4c-4.6-.9-7.8-2.3-9.4-3.9-.2-.2-.6-.3-.9-.2-.3.1-.5.4-.5.8v24.9c0 3.5.9 7.1 2.6 10.7 1.5 3.1 3.6 6.1 6.3 8.9.2.2.4.3.6.3.2 0 .4-.1.6-.2.3-.3.4-.9 0-1.2-2.5-2.7-4.5-5.6-6-8.5-1.6-3.3-2.4-6.7-2.4-9.9V214c2 1.3 5 2.4 8.8 3.2 4.2.9 9.5 1.4 15.1 1.4-.1 0-.1 0 0 0zM134.8 259.2c0-.5-.4-.9-.9-.9s-.9.4-.9.9c0 5.3 4.3 9.6 9.6 9.6s9.6-4.3 9.6-9.6c0-.5-.4-.9-.9-.9s-.9.4-.9.9c0 4.4-3.6 7.9-7.9 7.9s-7.7-3.6-7.7-7.9zM148.6 246.8c.5 0 .9-.4.9-.9 0-2 1.6-3.5 3.5-3.5s3.5 1.6 3.5 3.5c0 .5.4.9.9.9s.9-.4.9-.9c0-2.9-2.4-5.2-5.2-5.2-2.9 0-5.2 2.4-5.2 5.2-.2.5.2.9.7.9zM128.1 246.8c.5 0 .9-.4.9-.9 0-2 1.6-3.5 3.5-3.5 2 0 3.5 1.6 3.5 3.5 0 .5.4.9.9.9s.9-.4.9-.9c0-2.9-2.4-5.2-5.2-5.2-2.9 0-5.2 2.4-5.2 5.2-.2.5.2.9.7.9zM188.2 4.9v27c0 .5.4.9.9.9h18.2l14.9 13.3c.2.1.4.2.6.2.1 0 .2 0 .4-.1.3-.1.5-.4.5-.8V32.8h5.9c.5 0 .9-.4.9-.9v-27c0-.5-.4-.9-.9-.9h-40.5c-.5.1-.9.4-.9.9zm1.7.9h38.8v25.3h-5.9c-.5 0-.9.4-.9.9v11.6l-13.8-12.2c-.2-.1-.4-.2-.6-.2h-17.7l.1-25.4zM63.4 64.2c-2.4 0-4.8.5-7 1.4-2.1.9-4.1 2.2-5.7 3.9-1.7 1.7-3 3.6-3.9 5.7-.9 2.2-1.4 4.6-1.4 7v24.1c0 2.4.5 4.8 1.4 7 .9 2.1 2.2 4.1 3.9 5.7 1.7 1.7 3.6 3 5.7 3.9 2.2.9 4.6 1.4 7 1.4h6v5.2c-3.6.2-6.9 1.7-9.5 4.3-2.8 2.8-4.3 6.4-4.3 10.3 0 .5.4.9.9.9H84c.5 0 .9-.4.9-.9 0-3.9-1.5-7.6-4.3-10.3-2.6-2.6-5.9-4.1-9.5-4.3v-5.2h2.6c2.4 0 4.8-.5 7-1.4 2.1-.9 4.1-2.2 5.7-3.9 1.7-1.7 3-3.6 3.9-5.7.9-2.2 1.4-4.6 1.4-7v-24c0-2.4-.5-4.8-1.4-7-.9-2.1-2.2-4.1-3.9-5.7-1.7-1.7-3.6-3-5.7-3.9-2.2-.9-4.6-1.4-7-1.4l-10.3-.1zm19.8 79.2H57.4c.2-3.1 1.5-6 3.8-8.3 2.4-2.4 5.7-3.8 9.1-3.8s6.7 1.3 9.1 3.8c2.3 2.2 3.6 5.1 3.8 8.3zm2.1-72.7c2.9 2.9 4.6 6.7 4.8 10.7h-6c-.5 0-.9.4-.9.9s.4.9.9.9h6v5.2h-6c-.5 0-.9.4-.9.9s.4.9.9.9h6v5.2h-6c-.5 0-.9.4-.9.9s.4.9.9.9h6v9.5c0 4.4-1.7 8.5-4.8 11.6-3.1 3.1-7.2 4.8-11.6 4.8h-2.6v-5.2c3.9-.4 6.9-3.7 6.9-7.7 0-4.3-3.5-7.7-7.7-7.7s-7.7 3.5-7.7 7.7c0 4 3 7.3 6.9 7.7v5.2h-6c-4.4 0-8.5-1.7-11.6-4.8s-4.8-7.2-4.8-11.6v-9.5h19.8c.5 0 .9-.4.9-.9s-.4-.9-.9-.9H47.1V90h19.8c.5 0 .9-.4.9-.9s-.4-.9-.9-.9H47.1V83h19.8c.5 0 .9-.4.9-.9s-.4-.9-.9-.9H47.1c.2-4 1.9-7.8 4.8-10.7 3.1-3.1 7.2-4.8 11.6-4.8h10.3c4.3.2 8.4 1.9 11.5 5zm-15 45.1c-3.3 0-6-2.7-6-6s2.7-6 6-6 6 2.7 6 6-2.7 6-6 6zM284 233.5c3.3 0 5.9-2.7 5.9-5.9 0-1.3-.9-3.6-2.6-7.1-1.3-2.5-2.6-4.6-2.6-4.6-.2-.3-.4-.4-.7-.4s-.6.2-.7.4c0 0-1.3 2.2-2.6 4.6-1.8 3.4-2.6 5.8-2.6 7.1 0 3.3 2.7 5.9 5.9 5.9zm-1.7-12.2c.7-1.3 1.3-2.4 1.8-3.3.5.8 1.1 2 1.8 3.3 2.1 4.1 2.4 5.7 2.4 6.3 0 2.3-1.9 4.2-4.2 4.2-2.3 0-4.2-1.9-4.2-4.2-.1-.6.2-2.2 2.4-6.3zM289.9 209.4v-6.7c0-4.9-1.2-9.1-3.4-12.6-2-3-4.8-5.5-8.3-7.4-2.9-1.6-6.3-2.7-10.1-3.4-3.2-.6-6.2-.8-8.3-.8-.4-5.3-4.7-9.6-10-10v-5.1l17.6.1c.5 0 .9-.4.9-.8 0-.5-.4-.9-.8-.9l-17.6-.1v-5.8c0-.5-.4-.9-.9-.9h-10c-.5 0-.9.4-.9.9v5.8h-17.6c-.5 0-.9.4-.9.9s.4.9.9.9h17.6v5c-5.3.4-9.6 4.7-10 10h-12.6c-.5 0-.9.4-.9.9v16.7c0 .5.4.9.9.9h12.6c.4 5.6 5.1 10 10.9 10h10c5.7 0 10.4-4.4 10.9-10h9.2c3.2 0 5.8 2.6 5.8 5.8v6.7c0 .5.4.9.9.9H289c.5-.2.9-.6.9-1zm-50.3-52.8h8.3v11.7h-8.3v-11.7zm-23.4 23.5h11.7v15h-11.7v-15zm32.6 25h-10c-5.1 0-9.2-4.1-9.2-9.2v-16.7c0-5.1 4.1-9.2 9.2-9.2h10c5.1 0 9.2 4.1 9.2 9.2V196c0 5-4.1 9.1-9.2 9.1zm39.4 3.4h-11.7v-5.8c0-4.2-3.4-7.6-7.6-7.6h-9.2v-15c2 0 4.8.2 7.9.8 3.6.7 6.9 1.8 9.6 3.3 7.2 3.8 10.9 10.1 10.9 18.5l.1 5.8zM36.7 306.8c3.7 0 6.8-3 6.8-6.8 0-2.8 2.3-5.1 5.1-5.1h41.5c4.5 0 8.3-3.5 8.7-7.9h15c.5 0 .9-.4.9-.9s-.4-.9-.9-.9h-11v-11c0-5.2-.9-10.4-2.8-15.2-1.8-4.7-4.4-9-7.8-12.8-6.8-7.7-16-12.6-26.1-14-3.5-.5-7.1.6-9.8 2.8l-8.3 7c-.3.1-.6.2-.9.4-4.1 1.7-7.8 4.2-10.9 7.4-3.2 3.2-5.6 6.8-7.4 10.9-1.7 4-2.6 8.3-2.7 12.6-2.3.4-4 2.4-4 4.7v4c0 2.7 2.2 4.8 4.8 4.8H30v13c-.1 4 3 7 6.7 7zm53.4-13.5H48.6c-3.7 0-6.8 3-6.8 6.8 0 2.8-2.3 5.1-5.1 5.1s-5.1-2.3-5.1-5.1v-13H97c-.4 3.4-3.4 6.2-6.9 6.2zm-66.4-11v-4c0-1.7 1.4-3.1 3.1-3.1h39.5c.5 0 .9-.4.9-.9s-.4-.9-.9-.9H27.7c.1-4.1 1-8.1 2.6-11.9 1.6-3.9 4-7.4 7-10.4s6.5-5.4 10.4-7c.2-.1.5-.2.7-.3.1 0 .3-.1.4-.1 3.7-1.4 7.6-2.1 11.6-2.1 6 0 11.9 1.7 17.1 4.8 5 3.1 9.1 7.4 11.8 12.5.2.4.7.6 1.2.4.4-.2.6-.7.4-1.2-2.9-5.4-7.2-10-12.4-13.2-5.4-3.3-11.6-5-17.9-5-2.8 0-5.6.3-8.3 1l5.2-4.4c2.4-2 5.5-2.9 8.5-2.4 9.7 1.3 18.6 6.1 25 13.4 3.2 3.6 5.7 7.8 7.4 12.3 1.8 4.7 2.7 9.6 2.7 14.6v11H26.9c-1.8 0-3.2-1.4-3.2-3.1zM38.2 25.3H11.8c-3.6 0-6.5 2.9-6.5 6.5s2.9 6.5 6.5 6.5 6.5-2.9 6.5-6.5c0-1.9-.8-3.6-2.1-4.8h17.6c-1.3 1.2-2.1 2.9-2.1 4.8 0 3.6 2.9 6.5 6.5 6.5s6.5-2.9 6.5-6.5-2.9-6.5-6.5-6.5zm-21.6 6.5c0 2.6-2.2 4.8-4.8 4.8S7 34.4 7 31.8 9.1 27 11.8 27s4.8 2.1 4.8 4.8zm21.6 4.8c-2.6 0-4.8-2.2-4.8-4.8s2.2-4.8 4.8-4.8 4.8 2.2 4.8 4.8-2.2 4.8-4.8 4.8zM202.7 161.3c0-3.5-.8-6.8-2.4-9.8-1.4-2.7-3.5-5.2-6.1-7.2-4.8-3.8-11.3-5.9-17.7-5.9-7.5 0-14.4 2.8-19.5 8-5.1 5.1-7.9 12.1-7.9 19.5 0 10 3.8 17.3 11.2 21.9v15.6c0 .5.4.9.9.9h27.9c.5 0 .9-.4.9-.9v-8.8c2.7 0 4.4-.1 5.9-.4 1.8-.4 3.2-1.1 4.3-2.1 1.2-1.2 2-3.8 2.3-8 .2-2 .2-3.8.2-4.8h3.4c.9 0 1.8-.5 2.3-1.2.4-.6.4-1.2.4-1.8v-.4c.2-2.9-2.1-6.9-3.9-10.1-1.1-1.9-2.2-3.8-2.2-4.5zm4.3 14.3v.5c0 .4 0 .6-.1.8-.2.3-.6.5-.9.5-1.7.1-4.1 0-4.1 0-.2 0-.5.1-.6.2-.2.2-.3.4-.3.6 0 0 .1 2.6-.2 5.5-.4 4.9-1.3 6.4-1.8 6.9-.8.8-1.9 1.4-3.4 1.7-1.4.3-3.3.4-6.4.4-.2 0-.4.1-.6.3-.2.2-.3.4-.3.6v8.8h-26.2v-15.2c0-.3-.2-.6-.4-.7-3.8-2.2-6.6-5.3-8.4-9-1.6-3.3-2.4-7.2-2.4-11.7 0-7 2.6-13.5 7.4-18.3 4.8-4.8 11.3-7.5 18.3-7.5 6 0 12.1 2 16.6 5.6 2.4 1.9 4.3 4.1 5.6 6.6 1.4 2.7 2.2 5.7 2.2 9 0 1.1.8 2.6 2.3 5.2 1.7 3.1 3.8 6.8 3.7 9.2z" class="st1"/><path d="M184.5 152.5c-1.9-.2-3.7.3-5.2 1.5-1.1.9-2 2-2.7 3.5-.7-1.5-1.6-2.6-2.7-3.5-1.5-1.2-3.4-1.7-5.2-1.5-1.9.2-3.6 1.1-4.8 2.6-1.4 1.6-2.1 3.6-2.1 5.8 0 3.3 2.4 7.4 7.2 12.1 3.5 3.4 6.9 5.9 7.1 6 .1.1.3.2.5.2s.4-.1.5-.2c.1-.1 3.6-2.6 7.1-6 4.8-4.7 7.2-8.8 7.2-12.1 0-2.3-.7-4.3-2.1-5.8-1.3-1.4-3-2.3-4.8-2.6zm-1.6 19.4c-2.6 2.6-5.3 4.7-6.4 5.5-1.1-.8-3.7-2.9-6.4-5.5-4.4-4.3-6.7-8.1-6.7-10.9 0-1.8.6-3.5 1.7-4.7 1-1.1 2.3-1.8 3.7-2h.7c1.2 0 2.3.4 3.3 1.2 1.4 1 2.4 2.8 2.9 5 .1.4.4.7.8.7s.7-.3.8-.7c.5-2.2 1.5-3.9 2.9-5 1.2-.9 2.5-1.3 4-1.1 1.4.2 2.8.9 3.7 2 1.1 1.2 1.7 2.9 1.7 4.7.1 2.7-2.3 6.4-6.7 10.8zM228.2 295.5c2.4 2.2 4.9 3.3 7.3 3.3 5.7 0 7-1.2 8.1-2.1.6-.6 1-.9 2.6-.9s2 .4 2.6.9c1.1.9 2.4 2.1 8.1 2.1 2.4 0 4.9-1.1 7.3-3.3 2.1-1.9 4.2-4.6 6-7.9 3.6-6.4 5.8-14.2 5.8-20.3 0-6-1.8-11.7-5.2-15.8-1.6-2-3.5-3.6-5.6-4.7-2.2-1.1-4.5-1.7-6.9-1.7-6 0-8.3 1.3-9.9 2.2-.5.3-1 .6-1.4.7v-5.1c0-3.8-3.1-7-7-7h-6.1c-.5 0-.9.4-.9.9s.4.9.9.9h6.1c1.4 0 2.7.5 3.7 1.5s1.5 2.3 1.5 3.7v5.1c-.5-.1-.9-.4-1.4-.7-1.6-.9-3.9-2.2-9.9-2.2-2.4 0-4.7.6-6.9 1.7-2.1 1.1-4 2.7-5.6 4.7-3.3 4.1-5.2 9.8-5.2 15.8 0 6.1 2.2 13.9 5.8 20.3 1.9 3.3 4 6 6.2 7.9zm-5.4-42.9c3-3.7 7-5.8 11.2-5.8 5.6 0 7.6 1.2 9.1 2 .9.5 1.8 1 3.2 1 1.3 0 2.2-.5 3.2-1 1.5-.8 3.5-2 9.1-2 4.2 0 8.2 2.1 11.2 5.8 3.1 3.9 4.8 9.1 4.8 14.7 0 5.8-2.2 13.3-5.6 19.4-1.7 3.1-3.7 5.6-5.7 7.4-2.1 1.9-4.2 2.8-6.2 2.8-5 0-6.1-.9-6.9-1.7-.7-.7-1.5-1.4-3.7-1.4s-3 .7-3.7 1.4c-.9.8-1.9 1.7-6.9 1.7-2 0-4-1-6.2-2.8-2-1.8-4-4.3-5.7-7.4-3.5-6.2-5.6-13.6-5.6-19.4-.4-5.6 1.3-10.8 4.4-14.7z" class="st1"/><path d="M262.6 238c2.8-2.8 4.3-6.4 4.3-10.3 0-.5-.4-.9-.9-.9-3.9 0-7.6 1.5-10.3 4.3-2.8 2.8-4.3 6.4-4.3 10.3 0 .5.4.9.9.9 3.9 0 7.5-1.6 10.3-4.3zm-5.7-5.7c2.2-2.2 5.1-3.5 8.2-3.7-.2 3.1-1.5 6-3.7 8.2-2.2 2.2-5.1 3.5-8.2 3.7.2-3.1 1.5-6 3.7-8.2zM176.6 61.3h-34.4c-.5 0-.9.4-.9.9s.4.9.9.9h34.4c.5 0 .9-.4.9-.9s-.4-.9-.9-.9zM142.2 91.1h15.6c.5 0 .9-.4.9-.9V71.5c0-.5-.4-.9-.9-.9h-15.6c-.5 0-.9.4-.9.9v18.7c.1.5.5.9.9.9zm.9-18.8H157v17h-13.9v-17zM176.6 76.9h-9.4c-.5 0-.9.4-.9.9s.4.9.9.9h9.4c.5 0 .9-.4.9-.9-.1-.5-.4-.9-.9-.9zM176.6 83.1h-12.5c-.5 0-.9.4-.9.9s.4.9.9.9h12.5c.5 0 .9-.4.9-.9s-.4-.9-.9-.9zM176.6 89.4h-12.5c-.5 0-.9.4-.9.9s.4.9.9.9h12.5c.5 0 .9-.4.9-.9-.1-.5-.4-.9-.9-.9zM176.6 95.6h-34.4c-.5 0-.9.4-.9.9s.4.9.9.9h34.4c.5 0 .9-.4.9-.9s-.4-.9-.9-.9zM176.6 101.9h-34.4c-.5 0-.9.4-.9.9s.4.9.9.9h34.4c.5 0 .9-.4.9-.9-.1-.5-.4-.9-.9-.9zM176.6 108.1h-34.4c-.5 0-.9.4-.9.9s.4.9.9.9h34.4c.5 0 .9-.4.9-.9s-.4-.9-.9-.9z" class="st1"/><path d="M186 51.9h-53.1c-.5 0-.9.4-.9.9v62.5c0 5.6 4.6 10.2 10.2 10.2h53.1c5.6 0 10.2-4.6 10.2-10.2V62.1c0-.5-.4-.9-.9-.9H193v-3.8c0-.5-.4-.9-.9-.9h-5.4v-3.8c.1-.4-.3-.8-.7-.8zm-43.8 71.8c-4.7 0-8.5-3.8-8.5-8.5V53.6h51.4v61.6c0 3.6 1.8 6.7 4.6 8.5h-47.5zm50.9-54.5h4.5v46c0 1.3-1 2.3-2.3 2.3s-2.3-1-2.3-2.3l.1-46zm-1.7-10.9v56.9c0 2.2 1.8 4 4 4s4-1.8 4-4V68.4c0-.5-.4-.9-.9-.9h-5.4V63h10.8v52.2c0 4.7-3.8 8.5-8.5 8.5s-8.5-3.8-8.5-8.5V58.3h4.5zM202.3 255.8c.1-.1.1-.1.1-.2l29.8-37.6c.1-.2.2-.4.2-.6 0-.3 0-.6-.1-.9-.2-2.4-.3-4.3-1.7-5.5-1.3-1.1-3.4-1.4-7.1-1.1-.3 0-.5.2-.6.4l-27 40.1c-.1.1-.1.1-.1.2l-3.7 5.4c-1.9-.6-4-.8-6.1-.3-3 .7-5.5 2.4-7.1 5-.9 1.4-1.3 3.3-1.8 5.2-.5 2.2-1.1 4.5-2.4 6.3-.7.9-1.5 1.6-2.5 2.1-1.2.6-2.7.9-4.4.9-.4 0-.7.2-.8.6-.1.3 0 .7.2.9 3.2 2.8 6.7 4.5 10.6 5 .9.1 1.8.2 2.7.2 2.5 0 5.1-.5 7.6-1.5 3.1-1.2 5.9-3.2 8.1-5.6 2.2-2.5 3.5-5.2 3.7-7.9.2-1.9-.2-3.7-1-5.3-.1-.3-.3-.6-.5-.8l3.8-4.8c0-.1.1-.2.1-.2zm21.8-44.4c2.9-.2 4.6.1 5.5.8.9.7 1 2.2 1.1 4.3v.6L201.5 254l-3.9-3.3 26.5-39.3zm-25.9 55.3c-.4 4.8-4.9 9.7-10.7 12-3.1 1.2-6.3 1.6-9.4 1.2-2.9-.4-5.6-1.5-8.1-3.3 6.6-1.1 7.8-6.2 8.8-10.4.4-1.8.8-3.5 1.6-4.7 1.4-2.1 3.5-3.6 6-4.2 2.5-.6 5.1-.1 7.2 1.2 1.2.8 2.2 1.6 2.9 2.6 0 .1.1.2.2.3 1.2 1.5 1.7 3.3 1.5 5.3zm-3.7-9.6c-.3-.2-.6-.3-.8-.5l3-4.5 3.8 3.2-3.2 4c-.8-.8-1.7-1.5-2.8-2.2zM285.9 162.8c.5 0 .9-.4.9-.9v-7.4c0-.5-.4-.9-.9-.9s-.9.4-.9.9v7.4c.1.6.5.9.9.9zM285.1 178.8c0 .5.4.9.9.9s.9-.4.9-.9v-7.5c0-.5-.4-.9-.9-.9s-.9.4-.9.9v7.5zM290.6 167.5h7.5c.5 0 .9-.4.9-.9s-.4-.9-.9-.9h-7.4c-.5 0-.9.4-.9.9s.4.9.8.9zM273 166.7c0 .5.4.9.9.9h7.4c.5 0 .9-.4.9-.9s-.4-.9-.9-.9h-7.4c-.5 0-.9.4-.9.9zM134.8 173.2c0-.5-.4-.9-.9-.9s-.9.4-.9.9v7.4c0 .5.4.9.9.9s.9-.4.9-.9v-7.4zM133.9 189.1c-.5 0-.9.4-.9.9v7.4c0 .5.4.9.9.9s.9-.4.9-.9V190c0-.5-.4-.9-.9-.9zM138.6 184.4c-.5 0-.9.4-.9.9s.4.9.9.9h7.5c.5 0 .9-.4.9-.9s-.4-.9-.9-.9h-7.5zM130.2 185.3c0-.5-.4-.9-.9-.9h-7.4c-.5 0-.9.4-.9.9s.4.9.9.9h7.4c.5 0 .9-.4.9-.9zM120.9 34.2c.5 0 .9-.4.9-.9v-7.4c0-.5-.4-.9-.9-.9s-.9.4-.9.9v7.4c.1.5.4.9.9.9zM120.1 50.1c0 .5.4.9.9.9s.9-.4.9-.9v-7.5c0-.5-.4-.9-.9-.9s-.9.4-.9.9v7.5zM133.1 37.2h-7.4c-.5 0-.9.4-.9.9s.4.9.9.9h7.4c.5 0 .9-.4.9-.9-.1-.5-.5-.9-.9-.9zM116.3 38.9c.5 0 .9-.4.9-.9s-.4-.9-.9-.9h-7.4c-.5 0-.9.4-.9.9s.4.9.9.9h7.4zM28.7 142.1l3.1 9.1c.1.3.4.6.8.6s.7-.2.8-.6l3.1-9.1 9.1-3.1c.3-.1.6-.4.6-.8s-.2-.7-.6-.8l-9.1-3.1-3.1-9.1c-.1-.3-.4-.6-.8-.6s-.7.2-.8.6l-3.1 9.1-9.1 3.1c-.3.1-.6.4-.6.8s.2.7.6.8l9.1 3.1zm.9-6.2c.3-.1.4-.3.5-.5l2.4-7.1 2.4 7.1c.1.3.3.4.5.5l7.1 2.4-7.1 2.4c-.3.1-.4.3-.5.5l-2.4 7.1-2.4-7.1c-.1-.3-.3-.4-.5-.5l-7.1-2.4 7.1-2.4zM227.1 61.4l9.1 3.1 3.1 9.1c.1.3.4.6.8.6s.7-.2.8-.6l3.1-9.1 9.1-3.1c.3-.1.6-.4.6-.8s-.2-.7-.6-.8l-9.1-3.1-3.1-9.1c-.1-.3-.4-.6-.8-.6s-.7.2-.8.6l-3.1 9.1-9.1 3.1c-.3.1-.6.4-.6.8s.3.7.6.8zm10-3.2c.3-.1.4-.3.5-.5l2.4-7.1 2.4 7.1c.1.3.3.4.5.5l7.1 2.4-7 2.4c-.3.1-.4.3-.5.5l-2.4 7.1-2.4-7.1c-.1-.3-.3-.4-.5-.5l-7.1-2.4 7-2.4zM202 224.6l-9.1-3.1-3.1-9.1c-.1-.3-.4-.6-.8-.6s-.7.2-.8.6l-3.1 9.1-9.1 3.1c-.3.1-.6.4-.6.8s.2.7.6.8l9.1 3.1 3.1 9.1c.1.3.4.6.8.6s.7-.2.8-.6l3.1-9.1 9.1-3.1c.3-.1.6-.4.6-.8s-.2-.6-.6-.8zm-10 3.2c-.3.1-.4.3-.5.5l-2.4 7.1-2.4-7.1c-.1-.3-.3-.4-.5-.5l-7.1-2.4 7.1-2.4c.3-.1.4-.3.5-.5l2.4-7.1 2.4 7.1c.1.3.3.4.5.5l7.1 2.4-7.1 2.4zM297.9 258.6c-2.3 0-4.1 1.9-4.1 4.1s1.9 4.1 4.1 4.1c2.3 0 4.1-1.9 4.1-4.1 0-2.2-1.9-4.1-4.1-4.1zm0 6.6c-1.3 0-2.4-1.1-2.4-2.4s1.1-2.4 2.4-2.4 2.4 1.1 2.4 2.4-1.1 2.4-2.4 2.4zM308.7 69.7h-13c-.5 0-.9.4-.9.9v13c0 .5.4.9.9.9h13c.5 0 .9-.4.9-.9v-13c0-.6-.4-.9-.9-.9zm-.8 13h-11.3V71.4h11.3v11.3zM308.7 89.2h-13c-.5 0-.9.4-.9.9v13c0 .5.4.9.9.9h13c.5 0 .9-.4.9-.9V90c0-.4-.4-.8-.9-.8zm-.8 13h-11.3V90.9h11.3v11.3zM308.7 108.7h-13c-.5 0-.9.4-.9.9v13c0 .5.4.9.9.9h13c.5 0 .9-.4.9-.9v-13c0-.5-.4-.9-.9-.9zm-.8 13h-11.3v-11.3h11.3v11.3zM302.2 126.6c-2.3 0-4.1 1.8-4.1 4.1s1.8 4.1 4.1 4.1 4.1-1.8 4.1-4.1-1.8-4.1-4.1-4.1zm0 6.5c-1.3 0-2.4-1.1-2.4-2.4s1.1-2.4 2.4-2.4 2.4 1.1 2.4 2.4-1 2.4-2.4 2.4zM316.7 286.1c0-.5-.4-.9-.9-.9s-.9.4-.9.9v7.4c0 .5.4.9.9.9s.9-.4.9-.9v-7.4zM315.8 302c-.5 0-.9.4-.9.9v7.4c0 .5.4.9.9.9s.9-.4.9-.9v-7.4c0-.5-.4-.9-.9-.9zM303.7 297.3c-.5 0-.9.4-.9.9s.4.9.9.9h7.4c.5 0 .9-.4.9-.9s-.4-.9-.9-.9h-7.4zM118.5 0l-7 17.7H89.2v-4.2h16.3c.4 0 .7-.2.8-.6L111 0h-1.8L105 11.8h-3.8V0h-1.7v11.8H89.2V0h-1.7v29c0 .1 0 .2.1.3l5.9 13.3c.1.3.4.5.8.5.3 0 .6-.2.8-.5l5.9-13.3c0-.1.1-.2.1-.3v-9.6h11c.4 0 .7-.2.8-.5L120.3 0h-1.8zM94.3 40.3l-4-9h8l-4 9zm5.1-11.4-.4.7H89.5l-.3-.8v-9.4h10.1v9.5h.1zM150.9 34l2.6-1.6c.2-.1.3-.3.4-.5s0-.5-.1-.7L134.1 0h-2l19.7 31.4-5.4 3.3L125.1 0h-2l22.3 36.3c.2.3.4.4.7.4.1 0 .3 0 .4-.1l2.8-1.7 4.6 7.8c.2.3.4.4.7.4.1 0 .3 0 .4-.1.4-.2.5-.8.3-1.2l-4.4-7.8zM179 14.2h-3.4c-.2 0-.4.1-.6.3l-12 12V15c0-.5-.4-.9-.9-.9h-9.3V0h-1.7v15c0 .5.4.9.9.9h9.3v12.6c0 .3.2.7.5.8.1 0 .2.1.3.1.2 0 .4-.1.6-.3L176 15.9h3c.5 0 .9-.4.9-.9s-.5-.8-.9-.8zM261.7 29.6h-2.8l-8-29.6h-1.8l8.1 29.6H239L247 0h-1.8l-8.1 29.6h-2.8c-.5 0-.9.4-.9.9 0 3.9 1.5 7.5 4.2 10.2 2.7 2.7 6.4 4.2 10.2 4.2 3.9 0 7.5-1.5 10.2-4.2 2.7-2.7 4.2-6.4 4.2-10.2.3-.6 0-.9-.5-.9zm-4.6 9.9c-2.4 2.4-5.6 3.7-9 3.7-3.4 0-6.6-1.3-9-3.7-2.2-2.2-3.5-5.1-3.7-8.2h25.5c-.3 3.1-1.6 5.9-3.8 8.2zM309.5 29.6h-2.8l-8-29.6h-1.8l8.1 29.6h-18.2L294.9 0h-1.8L285 29.6h-2.8c-.5 0-.9.4-.9.9 0 3.9 1.5 7.5 4.2 10.2 2.7 2.7 6.4 4.2 10.2 4.2 3.9 0 7.5-1.5 10.2-4.2 2.7-2.7 4.2-6.4 4.2-10.2.3-.6-.1-.9-.6-.9zm-4.6 9.9c-2.4 2.4-5.6 3.7-9 3.7-3.4 0-6.6-1.3-9-3.7-2.2-2.2-3.5-5.1-3.7-8.2h25.5c-.3 3.1-1.6 5.9-3.8 8.2zM59.8 320v-.4c0-1.6 1.3-2.9 2.9-2.9H74c1.6 0 2.9 1.3 2.9 2.9v.4h1.7v-.4c0-2.5-2.1-4.6-4.6-4.6H62.7c-2.3 0-4.1 1.6-4.5 3.8h-6.8c-1.2 0-2.3.5-3.1 1.2h11.5zM89.2 320v-7.3h10.1v7.3h1.7v-11.1c0-3.7-3-6.8-6.8-6.8-3.7 0-6.8 3-6.8 6.8V320h1.8zm0-11.1c0-2.8 2.3-5.1 5.1-5.1s5.1 2.3 5.1 5.1v2.1H89.2v-2.1zM110.9 320l1.6-4.4h7.7l-1.7 4.4h1.8l1.1-2.9 1.8 2.9h2l-2.7-4.4h6.9l2.8 4.4h2l-3.4-5.5v-11.6c0-5.4-4.4-9.7-9.7-9.7-5.4 0-9.7 4.4-9.7 9.7v11.3c0 .1-.1.1-.1.2l-2 5.6h1.6zm2-17.1c0-4.4 3.6-8 8-8s8 3.6 8 8v11h-16.1l.1-11zM152.8 320v-24.7h62.4v21.1c0 .5.4.9.9.9s.9-.4.9-.9v-21.9c0-.5-.4-.9-.9-.9H152c-.5 0-.9.4-.9.9V320h1.7zM237.8 313.7h9.1l-1.7 6.3h1.8l1.1-3.9 1.1 3.9h1.8l-1.7-6.3h21.9v2.6c0 .5.4.9.9.9s.9-.4.9-.9v-2.6h22l-1.7 6.3h1.8l1.1-3.9 1.1 3.9h1.8l-1.7-6.3h9.1c.5 0 .9-.4.9-.9s-.4-.9-.9-.9h-33.4v-6c0-.5-.4-.9-.9-.9s-.9.4-.9.9v6h-33.2c-.5 0-.9.4-.9.9-.2.5.2.9.6.9zM77.3 19.2c-.8-.5-1.8-.6-2.7-.3L56 26.7v-8.1c0-2.5-2.1-4.6-4.6-4.6h-2.9V3.5c0-1.6 1.3-2.9 2.9-2.9h6.8c.4 2.1 2.3 3.8 4.5 3.8H74c2.5 0 4.5-1.9 4.6-4.3h-1.7c-.1 1.5-1.4 2.6-2.9 2.6H62.7c-1.5 0-2.8-1.2-2.9-2.6H48.3c-1 .8-1.6 2.1-1.6 3.5v10.5H33.4V7.3c0-2.5-2.1-4.6-4.6-4.6H0v1.7h28.7c1.6 0 2.9 1.3 2.9 2.9V14H0v1.7h51.4c1.6 0 2.9 1.3 2.9 2.9v30.1c0 1.6-1.3 2.9-2.9 2.9H0v1.7h51.4c2.5 0 4.6-2.1 4.6-4.6v-8.1l18.6 7.8c.4.1.7.2 1.1.2.6 0 1.1-.2 1.6-.5.8-.5 1.3-1.4 1.3-2.4V21.6c0-.9-.5-1.8-1.3-2.4zm-.4 26.5c0 .4-.2.8-.5 1-.3.2-.7.3-1.1.1l-19.3-8V28.6l19.3-8c.4-.1.8-.1 1.1.1.3.2.5.6.5 1v24zM34.9 86.2 20 73.5c-.7-.6-1.5-.9-2.4-1-.5-.7-1.2-1.3-2-1.7L0 65.1v1.8l15 5.5c1.2.5 1.9 1.8 1.4 3.1L0 119.7v4.9l18-48.5c.2-.6.3-1.2.2-1.8.3.1.5.2.7.4l14.8 12.7c1 .9 1.1 2.4.3 3.4L0 130.1v2.6L35.3 92c1.5-1.7 1.3-4.3-.4-5.8zM53.5 168.9c-.1-.2-.3-.4-.5-.5-.2-.1-.5 0-.7.1-.8.5-1.6 1.1-2.3 1.6-1.8 1.3-3.5 2.4-5.6 3.2-.9.3-1.9.6-2.8.9-2.1.7-4.4 1.3-6.3 2.8-1.3 1-2.4 2.1-3.2 3.5-.9 1.4-1.5 2.9-1.9 4.4-.4 2-.1 3.7 1.1 5 .7.9 1.8 1.6 3.2 2.3-.8 1-1.6 2.1-2.3 3.2-1.7 2.5-3.3 5.2-4.5 8-2.5-7.1-5.7-13.9-9.5-20.3.4-.2.9-.4 1.4-.6 3-1.1 5.1-2.5 6.4-4.1 1.7-2 2.2-4.6 1.6-7.5-.5-2.4-1.5-4.6-2.8-6.7-1.3-2-3-3.8-5-5.3-3-2.2-6.4-3.3-9.7-4.3-1.6-.6-3.1-1.1-4.6-1.6-2-.8-3.8-1.8-5.5-2.9v2c1.5.9 3.2 1.8 4.9 2.5 1.5.6 3 1 4.5 1.5 3.3 1 6.5 2 9.2 4 1.8 1.4 3.3 3 4.6 4.9 1.3 1.9 2.1 4 2.6 6.1.5 2.4.1 4.4-1.2 6.1-1.2 1.4-3 2.6-5.7 3.6-.5.2-1.1.4-1.6.7-4.5-7.3-9.8-14.1-15.8-20.2l-.7-.8c-.2-.2-.4-.3-.6-.3v2.1l.1.1c6 6.1 11.3 12.9 15.7 20.2-.3.3-.5.7-.7 1.1 0 .1-.1.1-.1.2-1.4 2.4-3 4.1-4.7 5-1.5.8-3.3 1.1-5.1 1-1.8-.2-3.6-.8-5.1-1.8-.1 0-.1-.1-.2-.1v2c1.6.9 3.3 1.4 5.1 1.6.4 0 .7.1 1.1.1 1.8 0 3.5-.4 5-1.2 2-1.1 3.8-2.9 5.4-5.6 0-.1.1-.1.1-.2.1-.1.1-.2.2-.3 3.8 6.5 7 13.4 9.5 20.5h-14c-.3 0-.5.1-.7.4-.2.2-.2.5-.1.8l7 21.2c.1.3.4.6.8.6h17.4c.4 0 .7-.2.8-.6l7.3-21.2c.1-.3 0-.5-.1-.8-.2-.2-.4-.4-.7-.4H28.8c1.3-3 2.9-5.9 4.8-8.5.8-1.2 1.7-2.3 2.6-3.4.2.1.4.2.5.3.2.2.3.5.5.7l.1.1c1 1.8 2.2 3 3.6 3.7 1 .5 2.1.8 3.3.8h.7c1.4-.1 2.7-.6 3.9-1.4 1.9-1.3 3.5-3.2 4.6-5.6.9-1.9 1.5-4.2 1.9-6.8.7-5.8.1-11.4-1.8-15.9zm-10.7 37.7L36.1 226H20l-6.4-19.5h29.2zm10.7-22.1c-.4 2.5-.9 4.6-1.7 6.4-1 2.1-2.3 3.8-4 4.9-1.9 1.3-4.4 1.5-6.2.5-1.1-.6-2-1.6-2.9-3.1l-.1-.1c-.2-.4-.4-.8-.8-1.1l-.1-.1c-.2-.2-.3-.3-.5-.4 1.1-1.3 2.2-2.5 3.5-3.6l6.1-4.6c.4-.3.5-.8.2-1.2-.3-.4-.8-.5-1.2-.2l-6.2 4.6s-.1 0-.1.1c-1.4 1.3-2.7 2.7-4 4.2-3.2-1.3-4.3-3-3.7-5.6.6-2.6 2.2-5.1 4.5-6.9 1.7-1.3 3.7-1.9 5.8-2.5.9-.3 1.9-.6 2.9-1 2.3-.9 4.1-2.2 5.9-3.4.5-.3.9-.6 1.4-1 1.5 4.2 1.9 9.1 1.2 14.1zM0 200.9h.1c.9 0 1.6.7 1.6 1.6 0 .9-.7 1.6-1.6 1.6H0v1.7h.1c1.8 0 3.3-1.5 3.3-3.3s-1.5-3.3-3.3-3.3H0v1.7zM17.5 263.7 0 235.1v3.3l6.9 11.3H0v1.7h8l8.1 13.2c1.3 2.2 1.4 4.8.1 7.1-1.3 2.2-3.5 3.6-6.1 3.6H0v1.7h10.1c3.2 0 6-1.7 7.6-4.5 1.6-2.8 1.5-6.1-.2-8.8zM8.1 297.3H.6c-.2 0-.4.1-.6.3v1.2c.2.2.4.3.6.3h7.5c.5 0 .9-.4.9-.9-.1-.5-.5-.9-.9-.9z" class="st1"/><path d="M.4 254H0v1.7h.4c2.1 0 3.8 1.7 3.8 3.8 0 2.1-1.7 3.8-3.8 3.8H0v1.7h.4c3 0 5.5-2.5 5.5-5.5-.1-3-2.5-5.5-5.5-5.5zM320 51.6h-1.5c-1.6 0-2.9-1.3-2.9-2.9V18.6c0-1.6 1.3-2.9 2.9-2.9h1.5V14h-1.5c-2.5 0-4.6 2.1-4.6 4.6v30.1c0 2.5 2.1 4.6 4.6 4.6h1.5v-1.7zM320 2.6h-9c-.5 0-.9.4-.9.9s.4.9.9.9h9V2.6zM320 130l-3.7 4.2 3.7-9.9v-4.9l-3.9 10.5V67.3c0-.6-.1-1.2-.4-1.7.3 0 .5.1.8.1L320 67v-1.8l-2.9-1.1c-.9-.3-1.8-.3-2.6-.1-.7-.5-1.6-.8-2.5-.8h-19.5c-2.3 0-4.1 1.8-4.1 4.1v68.4c0 2.3 1.8 4.1 4.1 4.1H312c.8 0 1.6-.2 2.2-.6.1 0 .3-.1.4-.3l.1-.1c.3-.2.5-.5.7-.8l4.6-5.3V130zm-5.6 5.6c0 .5-.1.9-.3 1.2l-.5.6c-.4.3-.9.5-1.5.5h-19.5c-1.3 0-2.4-1.1-2.4-2.4V67.3c0-1.3 1.1-2.4 2.4-2.4H312c1.3 0 2.4 1.1 2.4 2.4v68.3zM319.3 160.6c-.3.3-.3.9 0 1.2l.7.7v-2.2c-.3 0-.5.1-.7.3z" class="st1"/><path d="M320 188.1c-2.6-1.8-4.8-4.4-6.3-7.8-1.3-2.8-2.2-6.2-2.8-10.1-.6-4.1-.7-8.1-.3-12.1.4-3.9 1.1-7.5 2.4-10.7l2.7 1.8c1.4 1 2.9 2 4.4 2.9v-2c-1.1-.7-2.3-1.5-3.4-2.3l-3.6-2.4c-.2-.1-.5-.2-.7-.1-.2.1-.4.3-.5.5-1.5 3.6-2.5 7.7-2.9 12.2-.4 4.1-.3 8.3.4 12.5.6 4.1 1.5 7.6 2.9 10.6 1.7 3.7 4.1 6.6 7 8.5.3.2.6.4.9.5l-.2-2zM320 275.3h-31c-2.6 0-4.8-1.3-6.1-3.6-1.3-2.2-1.2-4.9.1-7.1l8.1-13.2H320v-1.7h-27.8l8.8-14.3c.1-.1.1-.3.1-.4v-29h16.8v3.9h-6.2c-.5 0-.9.4-.9.9s.4.9.9.9h6.2v4.9h-9.7c-.5 0-.9.4-.9.9s.4.9.9.9h9.7v5h-6.2c-.5 0-.9.4-.9.9s.4.9.9.9h6.2v10.2c0 .2 0 .3.1.4l2 3.2v-3.3l-.4-.6v-28.8h.4v-1.7h-21c-.9 0-1.6-.7-1.6-1.6 0-.9.7-1.6 1.6-1.6h21v-1.7h-21c-1.8 0-3.3 1.5-3.3 3.3 0 1.8 1.5 3.3 3.3 3.3h.4v28.8l-17.8 29.1c-1.7 2.7-1.7 6-.2 8.8 1.6 2.8 4.4 4.5 7.6 4.5h31v-2.2z" class="st1"/><path d="M320 263.3c-2-.1-3.5-1.8-3.5-3.8 0-2 1.6-3.6 3.5-3.8V254c-2.9.1-5.2 2.5-5.2 5.5s2.3 5.4 5.2 5.5v-1.7zM320 297.5c-.2.2-.4.4-.4.7 0 .3.1.5.4.7v-1.4z" class="st1"/></g></svg>