<svg baseProfile="tiny" xmlns="http://www.w3.org/2000/svg" viewBox="0 0 700 260"><path d="M92.7 130c0-4.5 3.7-8.2 8.2-8.2 4.5 0 8.2 3.7 8.2 8.2 0 4.5-3.7 8.2-8.2 8.2-4.5 0-8.2-3.7-8.2-8.2M73.8 130c0-4.1 3.3-7.4 7.4-7.4 4.1 0 7.4 3.3 7.4 7.4 0 4.1-3.3 7.4-7.4 7.4-4.1 0-7.4-3.3-7.4-7.4M55.5 130c0-3.7 3-6.6 6.6-6.6 3.7 0 6.6 3 6.6 6.6 0 3.7-3 6.6-6.6 6.6-3.7 0-6.6-2.9-6.6-6.6M37.3 130c0-3.3 2.7-6 6-6s6 2.7 6 6-2.7 6-6 6-6-2.7-6-6M18.9 130c0-3 2.4-5.4 5.4-5.4s5.4 2.4 5.4 5.4c0 3-2.4 5.4-5.4 5.4s-5.4-2.4-5.4-5.4M0 130c0-2.7 2.2-4.8 4.8-4.8 2.7 0 4.8 2.2 4.8 4.8 0 2.7-2.2 4.8-4.8 4.8-2.6 0-4.8-2.1-4.8-4.8"/><path fill="none" d="M.1.5h699.8V260H.1z"/><path d="M127.5 93.2c4.5 0 8.2 3.7 8.2 8.2 0 4.5-3.7 8.2-8.2 8.2-4.5 0-8.2-3.7-8.2-8.2 0-4.6 3.7-8.2 8.2-8.2M127.5 74.2c4.1 0 7.4 3.3 7.4 7.4s-3.3 7.4-7.4 7.4c-4.1 0-7.4-3.3-7.4-7.4s3.3-7.4 7.4-7.4M127.5 55.9c3.7 0 6.6 3 6.6 6.6 0 3.7-3 6.6-6.6 6.6-3.7 0-6.6-3-6.6-6.6 0-3.6 2.9-6.6 6.6-6.6M127.5 37.7c3.3 0 6 2.7 6 6s-2.7 6-6 6-6-2.7-6-6 2.7-6 6-6M127.5 19.3c3 0 5.4 2.4 5.4 5.4 0 3-2.4 5.4-5.4 5.4-3 0-5.4-2.4-5.4-5.4 0-3 2.4-5.4 5.4-5.4M127.5.5c2.7 0 4.8 2.2 4.8 4.8 0 2.7-2.2 4.8-4.8 4.8-2.7 0-4.8-2.2-4.8-4.8 0-2.7 2.1-4.8 4.8-4.8M79.7 107.8c1.5-3.3 5.5-4.8 8.8-3.3 3.3 1.5 4.8 5.5 3.3 8.8-1.5 3.3-5.5 4.8-8.8 3.3-3.4-1.6-4.9-5.5-3.3-8.8M63.2 100.1c1.4-3 4.9-4.3 7.9-2.9s4.3 4.9 2.9 7.9-4.9 4.3-7.9 2.9c-3-1.3-4.3-4.9-2.9-7.9M46.4 92.4c1.2-2.7 4.4-3.9 7.1-2.6 2.7 1.2 3.9 4.4 2.6 7.1-1.2 2.7-4.4 3.9-7.1 2.6-2.6-1.2-3.8-4.4-2.6-7.1M29.3 84.6c1.1-2.4 4-3.5 6.4-2.4 2.4 1.1 3.5 4 2.4 6.4-1.1 2.4-4 3.5-6.4 2.4-2.5-1.1-3.5-4-2.4-6.4M107.9 79.9c3.5-1.2 7.3.7 8.4 4.2 1.2 3.5-.7 7.2-4.2 8.4-3.5 1.2-7.2-.7-8.4-4.2-1.1-3.4.8-7.2 4.2-8.4M102.1 62.7c3.1-1.1 6.5.6 7.6 3.8 1.1 3.1-.6 6.5-3.7 7.6-3.1 1.1-6.5-.6-7.6-3.7-1.1-3.2.6-6.6 3.7-7.7M96.2 45.3c2.8-1 5.9.6 6.8 3.4 1 2.8-.5 5.9-3.4 6.8-2.8 1-5.9-.5-6.8-3.4-.9-2.8.6-5.9 3.4-6.8M90.1 27.4c2.5-.9 5.3.5 6.1 3 .8 2.5-.5 5.3-3 6.1-2.5.9-5.3-.5-6.1-3-.9-2.5.5-5.2 3-6.1M101.6 103.3c-3.2 3.2-3.2 8.4 0 11.6 3.2 3.2 8.4 3.2 11.6 0 3.2-3.2 3.2-8.4 0-11.6-3.2-3.2-8.4-3.2-11.6 0M88.2 89.9c-2.9 2.9-2.9 7.6 0 10.4 2.9 2.9 7.5 2.9 10.4 0 2.9-2.9 2.9-7.6 0-10.4-2.8-2.9-7.5-2.9-10.4 0M75.3 77c-2.6 2.6-2.6 6.8 0 9.4 2.6 2.6 6.8 2.6 9.4 0 2.6-2.6 2.6-6.8 0-9.4-2.6-2.6-6.8-2.6-9.4 0M62.5 64.1c-2.3 2.3-2.3 6.1 0 8.5 2.3 2.3 6.1 2.3 8.5 0 2.3-2.3 2.3-6.1 0-8.4-2.4-2.4-6.2-2.4-8.5-.1M49.4 51.1c-2.1 2.1-2.1 5.5 0 7.6 2.1 2.1 5.5 2.1 7.6 0 2.1-2.1 2.1-5.5 0-7.6-2.1-2.1-5.5-2.1-7.6 0M36.1 37.7c-1.9 1.9-1.9 5 0 6.9 1.9 1.9 5 1.9 6.8 0 1.9-1.9 1.9-4.9 0-6.8-1.8-1.9-4.9-1.9-6.8-.1M127.6 167.3c-4.5 0-8.2-3.7-8.2-8.2 0-4.5 3.7-8.2 8.2-8.2 4.5 0 8.2 3.7 8.2 8.2 0 4.5-3.7 8.2-8.2 8.2M127.6 186.2c-4.1 0-7.4-3.3-7.4-7.4 0-4.1 3.3-7.4 7.4-7.4 4.1 0 7.4 3.3 7.4 7.4 0 4.1-3.3 7.4-7.4 7.4M127.6 204.5c-3.7 0-6.6-3-6.6-6.6 0-3.7 3-6.6 6.6-6.6 3.7 0 6.6 3 6.6 6.6 0 3.7-2.9 6.6-6.6 6.6M127.6 222.7c-3.3 0-6-2.7-6-6s2.7-6 6-6 6 2.7 6 6-2.7 6-6 6M127.6 241.1c-3 0-5.4-2.4-5.4-5.4 0-3 2.4-5.4 5.4-5.4 3 0 5.4 2.4 5.4 5.4 0 3-2.4 5.4-5.4 5.4M127.6 260c-2.7 0-4.8-2.2-4.8-4.8 0-2.7 2.2-4.8 4.8-4.8 2.7 0 4.8 2.2 4.8 4.8 0 2.6-2.1 4.8-4.8 4.8M107.7 178.8c-3.3-1.5-4.8-5.5-3.3-8.8 1.5-3.3 5.5-4.8 8.8-3.3 3.3 1.5 4.8 5.5 3.3 8.8-1.6 3.4-5.5 4.8-8.8 3.3M100.1 195.3c-3-1.4-4.3-4.9-2.9-7.9s4.9-4.3 7.9-2.9 4.3 4.9 2.9 7.9c-1.4 2.9-4.9 4.3-7.9 2.9M92.4 212c-2.7-1.2-3.9-4.4-2.6-7.1 1.2-2.7 4.4-3.9 7.1-2.6 2.7 1.2 3.9 4.4 2.6 7.1-1.3 2.7-4.4 3.9-7.1 2.6M84.5 229.2c-2.4-1.1-3.5-4-2.4-6.4 1.1-2.4 4-3.5 6.4-2.4 2.4 1.1 3.5 4 2.4 6.4-1.1 2.4-4 3.5-6.4 2.4M79.5 151c-1.2-3.5.7-7.3 4.2-8.4 3.5-1.2 7.2.7 8.4 4.2 1.2 3.5-.7 7.2-4.2 8.4-3.4 1.1-7.2-.7-8.4-4.2M62.3 156.8c-1.1-3.1.6-6.5 3.8-7.6 3.1-1.1 6.5.6 7.6 3.7 1.1 3.1-.6 6.5-3.7 7.6-3.2 1.1-6.6-.6-7.7-3.7M44.9 162.7c-1-2.8.6-5.9 3.4-6.8 2.8-1 5.9.5 6.8 3.4 1 2.8-.6 5.9-3.4 6.8-2.8 1-5.9-.5-6.8-3.4M27 168.8c-.9-2.5.5-5.3 3-6.1 2.5-.9 5.3.5 6.1 3 .9 2.5-.5 5.3-3 6.1-2.5.9-5.2-.5-6.1-3M102 155.9c3.2 3.2 8.4 3.2 11.6 0 3.2-3.2 3.2-8.4 0-11.6-3.2-3.2-8.4-3.2-11.6 0-3.2 3.2-3.2 8.4 0 11.6M88.6 169.3c2.9 2.9 7.6 2.9 10.4 0 2.9-2.9 2.9-7.5 0-10.4-2.9-2.9-7.6-2.9-10.4 0-2.9 2.8-2.9 7.5 0 10.4M75.7 182.2c2.6 2.6 6.8 2.6 9.4 0 2.6-2.6 2.6-6.8 0-9.4-2.6-2.6-6.8-2.6-9.4 0-2.6 2.6-2.6 6.8 0 9.4M62.8 195.1c2.3 2.3 6.1 2.3 8.5 0 2.3-2.3 2.3-6.1 0-8.5-2.3-2.3-6.1-2.3-8.4 0-2.4 2.3-2.4 6.1-.1 8.5M49.8 208.1c2.1 2.1 5.5 2.1 7.6 0 2.1-2.1 2.1-5.5 0-7.6-2.1-2.1-5.5-2.1-7.6 0-2.1 2.1-2.1 5.5 0 7.6M36.4 221.4c1.9 1.9 5 1.9 6.9 0 1.9-1.9 1.9-5 0-6.8-1.9-1.9-4.9-1.9-6.8 0-2 1.9-2 4.9-.1 6.8M206.1 134c-.3-6.5-.7-14.3-.6-21.1h-.2c-1.6 6.1-3.7 12.9-6 19.3l-7.4 21.8h-7l-6.7-21.5c-1.9-6.4-3.7-13.3-5.1-19.6h-.1c-.2 6.6-.5 14.6-.9 21.4l-1.1 20.2h-8.6l3.4-50.3h12.1l6.6 20.2c1.8 5.9 3.4 11.9 4.6 17.5h.2c1.3-5.4 3.1-11.6 5-17.5l6.9-20.2h11.9l2.9 50.3h-9l-.9-20.5M254.5 143.6c0 4.3.1 7.9.3 10.9h-8l-.4-5.4h-.2c-1.6 2.5-5.1 6.3-11.7 6.3s-12.6-4-12.6-15.8v-21.3h9.2v19.8c0 6 1.9 9.9 6.8 9.9 3.7 0 6.1-2.5 7-4.9.4-.7.5-1.8.5-2.8v-21.9h9.2v25.2M262.3 146c2 1.3 6 2.7 9.3 2.7 4 0 5.8-1.7 5.8-4.1 0-2.5-1.5-3.7-6-5.3-7.1-2.4-10-6.3-10-10.6 0-6.4 5.3-11.3 13.7-11.3 4 0 7.5 1 9.7 2.2l-1.9 6.4c-1.5-.9-4.5-2.1-7.7-2.1-3.3 0-5.1 1.6-5.1 3.9s1.7 3.4 6.3 5.1c6.6 2.3 9.6 5.7 9.7 11 0 6.6-5.1 11.4-14.8 11.4-4.4 0-8.4-1-11-2.5l2-6.8"/><path d="M314.6 132.5c.1-3.4-1.4-8.9-7.5-8.9-5.7 0-8.1 5.1-8.4 8.9h15.9m-16 6.4c.2 6.6 5.4 9.4 11.2 9.4 4.3 0 7.2-.7 10.1-1.6l1.3 6.3c-3.1 1.3-7.5 2.3-12.7 2.3-11.8 0-18.7-7.2-18.7-18.4 0-10.1 6.1-19.6 17.8-19.6 11.8 0 15.7 9.7 15.7 17.7 0 1.7-.1 3.1-.3 3.9h-24.4zM361.5 143.6c0 4.3.1 7.9.3 10.9h-8l-.4-5.4h-.2c-1.6 2.5-5.2 6.3-11.7 6.3-6.6 0-12.6-4-12.6-15.8v-21.3h9.2v19.8c0 6 1.9 9.9 6.8 9.9 3.7 0 6.1-2.5 7-4.9.4-.7.5-1.8.5-2.8v-21.9h9.2v25.2M368.4 129c0-4.2-.1-7.7-.3-10.8h7.8l.4 5.4h.2c1.7-2.8 5-6.2 11.2-6.2 4.8 0 8.5 2.7 10.1 6.7h.1c1.3-2 2.8-3.5 4.4-4.6 2.1-1.4 4.4-2.2 7.5-2.2 6 0 12.1 4.1 12.1 15.8v21.4h-9v-20.1c0-6-2.1-9.6-6.5-9.6-3.1 0-5.4 2.2-6.4 4.9-.3.8-.4 2-.4 3.1v21.8h-9v-21c0-5.1-2-8.7-6.3-8.7-3.4 0-5.7 2.7-6.6 5.2-.3 1-.4 2-.4 3.1v21.5h-9V129"/><path d="M437.6 146.5c-2.9 0-5.7.6-5.7 3.1 0 1.6 1 2.4 2.4 2.4 1.7 0 2.9-1.1 3.3-2.3.1-.3.1-.6.1-.9v-2.3m4 4.1c0 1.5.1 2.9.3 3.9h-3.7l-.3-1.8h-.1c-1 1.3-2.7 2.2-4.8 2.2-3.3 0-5.1-2.4-5.1-4.9 0-4.1 3.7-6.2 9.7-6.2v-.3c0-1.1-.4-2.9-3.3-2.9-1.6 0-3.3.5-4.4 1.2l-.8-2.7c1.2-.7 3.3-1.4 5.9-1.4 5.2 0 6.8 3.3 6.8 6.9v6zM446 143c0-1.9-.1-3.5-.1-4.9h3.6l.2 2.5h.1c.7-1.3 2.5-2.8 5.2-2.8 2.9 0 5.8 1.8 5.8 7v9.7h-4.1v-9.2c0-2.4-.9-4.1-3.1-4.1-1.6 0-2.8 1.2-3.2 2.4-.1.3-.2.8-.2 1.3v9.6H446V143"/><path d="M476.2 145c0-.3 0-.8-.1-1.1-.4-1.6-1.7-2.9-3.6-2.9-2.7 0-4.1 2.4-4.1 5.4 0 3 1.5 5.2 4.1 5.2 1.7 0 3.2-1.1 3.6-2.9.1-.4.1-.8.1-1.2V145m4.1-14.4v19.3c0 1.7.1 3.5.1 4.6h-3.7l-.2-2.6h-.1c-1 1.8-3 3-5.3 3-3.9 0-7-3.3-7-8.4 0-5.5 3.4-8.7 7.3-8.7 2.2 0 3.9.9 4.6 2.1h.1v-9.3h4.2zM487.9 104.2h9.1v42.6h20.7v7.7h-29.8v-50.3"/><path d="M522.8 118.2h9.2v36.4h-9.2v-36.4zm4.5-5.3c-3.1 0-5.1-2.2-5.1-4.9 0-2.8 2.1-5 5.2-5s5.1 2.2 5.1 5c.1 2.7-1.9 4.9-5.2 4.9zM548.1 139.5c0 .7.1 1.5.2 2.2 1 3.7 4.2 6.4 8.1 6.4 5.7 0 9.3-4.6 9.3-11.9 0-6.4-3.1-11.6-9.2-11.6-3.7 0-7.2 2.7-8.1 6.7-.2.7-.3 1.5-.3 2.4v5.8m-9.2-38.1h9.2v21.7h.1c2.2-3.5 6.2-5.8 11.6-5.8 8.9 0 15.2 7.4 15.2 18.4 0 13.1-8.3 19.6-16.5 19.6-4.7 0-8.9-1.8-11.5-6.3h-.2l-.4 5.4h-7.8c.2-2.5.3-6.5.3-10.2v-42.8zM581.1 129.9c0-4.9-.1-8.5-.3-11.7h7.9l.4 6.9h.2c1.8-5.1 6-7.7 10-7.7.9 0 1.4.1 2.2.2v8.6c-.8-.1-1.6-.2-2.8-.2-4.3 0-7.4 2.8-8.2 6.9-.1.8-.2 1.8-.2 2.8v18.9h-9.2v-24.7"/><path d="M625.4 136.7c-6.5-.1-12.7 1.3-12.7 6.8 0 3.6 2.3 5.2 5.2 5.2 3.7 0 6.3-2.4 7.2-5 .2-.7.2-1.3.2-2v-5m9.1 9.1c0 3.3.1 6.5.6 8.7h-8.3l-.7-4h-.2c-2.2 2.8-6 4.9-10.7 4.9-7.3 0-11.4-5.3-11.4-10.8 0-9.1 8.1-13.8 21.6-13.7v-.6c0-2.4-1-6.3-7.4-6.3-3.6 0-7.3 1.1-9.8 2.7l-1.8-6c2.7-1.6 7.4-3.2 13.1-3.2 11.6 0 15 7.4 15 15.4v12.9zM641.1 129.9c0-4.9-.1-8.5-.3-11.7h7.9l.4 6.9h.2c1.8-5.1 6-7.7 10-7.7.9 0 1.4.1 2.2.2v8.6c-.8-.1-1.6-.2-2.8-.2-4.3 0-7.4 2.8-8.2 6.9-.2.8-.2 1.8-.2 2.8v18.9h-9.2v-24.7M673.6 118.2l6.5 19.5c.7 2.2 1.6 5 2.1 7h.2c.5-2 1.2-4.8 1.9-7.1l5.7-19.4h9.8l-9.1 24.8c-5 13.6-8.4 19.6-12.6 23.4-3.7 3.1-7.4 4.3-9.6 4.6l-2.1-7.7c1.6-.4 3.4-1.2 5.3-2.5 1.7-1.1 3.8-3.3 5.1-5.7.3-.7.5-1.2.5-1.6 0-.4-.1-.9-.4-1.8l-13.4-33.4h10.1M224.9 106.3h-2.8l-.3-.3v-6c0-1 0-13-.3-19.7l.3-.3h2.8l.3.3v7.6c0 7.1.1 12.6.3 18.1l-.3.3M252.6 106.3h-1.4c-.3 0-2 .1-2.3.1l-.4-.2c-1.3-2-2.4-4-3.6-6l-10-17.1.1 5c.1 12 .1 13.3.3 17.8l-.3.3h-2.4l-.3-.3c0-.7 0-16.7-.1-20.4 0-.8-.1-5-.1-5.3l.3-.3h3.7l.4.2c1.2 1.8 1.5 2.3 3.9 6.4 1.6 2.7 3.1 5.3 4.7 7.9l5 8.7v-5c0-4.3-.1-12.5-.3-17.9l.2-.2h2.3l.3.3v5.9c0 6.7 0 13.5.3 19.8l-.3.3M259 101.6c1.4 2.1 4.1 2.9 6.1 2.9 3.5 0 6.1-2 6.1-5 0-2.1-1.3-3.2-3.1-4.1-.7-.4-4.3-2-5.1-2.4-2-1-5-2.6-5-6.5 0-3.5 2.7-6.9 8.5-6.9 2.4 0 4.7.6 6.8 1.8l.1.3c-.2 1.1-.2 1.2-.3 2.3l-.4.2c-1.1-1-2.9-2.2-5.9-2.2-5.4 0-5.7 3.6-5.7 4.5 0 2.1 1.8 3.2 4.1 4.3l2.7 1.2c2.5 1.1 6.4 2.8 6.4 7.4 0 4.1-3.3 7.5-9 7.5-3.7 0-5.8-1.3-7-2l-.1-.4c0-.4.1-.8.2-1.2 0-.5.1-1 .2-1.5l.4-.2M287.5 106.3c-1.1 0-1.2 0-2.8.1l-.3-.3V82.5c-1.7 0-6.1.1-7.9.1l-.3-.3c0-.8.1-1.1.1-2.1l.4-.2c.6 0 3.4.1 4.1.1h8.7c3.1 0 4.7 0 5.6-.1l.3.3c-.1.8-.1 1.3-.2 2.2l-.3.2c-1.3 0-2.5-.1-4.1-.1h-3.4V86c0 2.4 0 4.9.1 7.4 0 2.5 0 5 .1 7.5 0 .8.1 4.5.1 5.3l-.2.1M302.6 106.3h-2.8l-.3-.3v-6c0-1 0-13-.3-19.7l.3-.3h2.8l.3.3v7.6c0 7.1.1 12.6.3 18.1l-.3.3M317.8 106.3c-1.1 0-1.2 0-2.8.1l-.3-.3V82.5c-1.7 0-6.1.1-7.9.1l-.3-.3c0-.8.1-1.1.1-2.1l.4-.2c.6 0 3.4.1 4.1.1h8.7c3.1 0 4.7 0 5.6-.1l.3.3c-.1.8-.1 1.3-.2 2.2l-.3.2c-1.3 0-2.5-.1-4.1-.1h-3.4V86c0 2.4 0 4.9.1 7.4 0 2.5 0 5 .1 7.5 0 .8.1 4.5.1 5.3l-.2.1M349.2 80.3v15c0 2.7-.1 4.9-1 6.7-1.5 3.3-5 4.9-8.9 4.9-2.4 0-4.6-.6-6.1-1.7-3.3-2.4-3.3-6.4-3.3-9.4V80.4l.1-.4h2.9l.3.3c-.1 4.7-.2 9.3-.2 13.9 0 4.5.1 6.9 1.8 8.6 1 .9 2.6 1.5 4.8 1.5 2.5 0 4.7-.9 5.8-3.1.8-1.7.9-3.7.9-7.7 0-4.4 0-8.8-.2-13.2l.3-.3h2.5l.3.3M364.3 106.3c-1.1 0-1.2 0-2.8.1l-.3-.3V82.5c-1.7 0-6.1.1-7.9.1l-.3-.3c0-.8.1-1.1.1-2.1l.4-.2c.6 0 3.4.1 4.1.1h8.7c3.1 0 4.7 0 5.6-.1l.3.3c-.1.8-.1 1.3-.2 2.2l-.3.2c-1.3 0-2.5-.1-4.1-.1h-3.4V86c0 2.4 0 4.9.1 7.4 0 2.5 0 5 .1 7.5 0 .8.1 4.5.1 5.3l-.2.1M391.1 106.3h-11.3c-1.3 0-1.9.1-3.3.1l-.3-.3v-5.7c0-6.5-.1-13.6-.3-20.1l.3-.3h9.5c2.2 0 3.8 0 5.3-.1l.3.3c-.1 1-.1 1.2-.1 2.1l-.3.3c-1.9-.1-2.7-.1-9.9-.1h-1.8v9h11.3l.2.3c-.1 1-.1 1.1-.1 2l-.3.2c-1.7-.1-2.9-.1-7.9 0h-3.2c0 1.7.1 9.3.1 10h2.9c3.4 0 4 0 9-.1l.2.3c-.1.9-.1 1-.1 2l-.2.1"/><path d="M419 95.1c0-3.6-2.4-4.7-4.4-4.7-6.3 0-7.3 8.1-7.3 9.8 0 2.8 1.5 4.8 4.5 4.8 1.1 0 2.3-.2 3.5-1.1 2.2-1.8 3-4.8 3.2-5.9.3-1 .5-1.9.5-2.9m-7.3 11.6c-4.3 0-6.6-2.4-6.6-6.6 0-3.9 1.9-11.4 9.5-11.4 4.7 0 6.5 3 6.5 6.6 0 1.2-.2 2.4-.5 3.5-.4 1.6-2.2 7.9-8.9 7.9zM429.4 90.8c-1.7 7.3-2 9-3.2 15.3l-.3.2-1.9.1-.2-.2 1.6-7.1 1.8-8.3-2.5.1-.2-.2.4-1.4.3-.2 2.5.1.5-2.5c.4-1.8.5-2.6.8-3.3.5-1.4 1.5-3.2 4.6-3.2.7 0 1.2.1 1.8.2l.2.3-.3 1.4-.3.2c-.5-.1-1-.2-1.5-.2-.7 0-1.3.2-1.8.6-.7.6-.9 1.5-1.6 4.3l-.4 2.1 3.3-.1.2.3-.4 1.2-.2.3h-3.2M488.1 188.3c1.4 2.1 4.1 2.9 6.1 2.9 3.5 0 6.1-2 6.1-5 0-2.1-1.3-3.2-3.1-4.1-.7-.4-4.3-2-5.1-2.4-2-1-5-2.6-5-6.5 0-3.5 2.7-6.9 8.5-6.9 2.4 0 4.7.6 6.8 1.8l.1.3c-.2 1.1-.2 1.2-.3 2.3l-.4.2c-1.1-1-2.9-2.2-5.9-2.2-5.4 0-5.7 3.6-5.7 4.5 0 2.1 1.8 3.2 4.1 4.3l2.7 1.2c2.5 1.1 6.4 2.8 6.4 7.4 0 4.1-3.3 7.5-9 7.5-3.7 0-5.8-1.3-7-2l-.1-.4c0-.4.1-.8.2-1.2 0-.5.1-1 .2-1.5l.4-.2M525.7 193h-11.3c-1.3 0-1.9.1-3.3.1l-.3-.3v-5.7c0-6.5-.1-13.6-.3-20.1l.3-.3h9.4c2.2 0 3.8 0 5.3-.1l.3.3c-.1 1-.1 1.2-.1 2.1l-.3.3c-1.9-.1-2.7-.1-9.9-.1h-1.8v9H525l.2.3c-.1 1-.1 1.1-.1 2l-.3.2c-1.7-.1-2.9-.1-7.9 0h-3.2c0 1.7.1 9.3.1 10h2.9c3.4 0 4 0 9-.1l.2.3c-.1.9-.1 1-.1 2l-.1.1"/><path d="M543.7 178.4c1.3-.3 3.9-1.4 3.9-4.7 0-1.6-.6-2.7-1.4-3.4-1.3-1.1-3.2-1.2-5.8-1.2-1.1 0-2.5 0-3.8.1v9.7c3.8 0 5.5 0 7.1-.5m-10-11.6c.1 0 7.4-.1 7.6-.1 2 0 4 .1 5.7.8 2.3 1.1 3.8 3.3 3.8 6.1 0 4-3.2 6.8-7.5 7.3l2.5 3.1c3.1 3.7 3.6 4.4 7 8.5l-.2.4h-3.5l-.4-.2c-.7-1-1.5-1.9-2.2-2.9-1-1.3-2.1-2.6-3.1-3.8-.7-.9-3.4-4.3-3.8-4.8h-3c0 3.8.1 7.6.2 11.4l-.3.3h-2.8l-.3-.3v-6c0-6.5 0-13.1-.3-19.6l.6-.2zM568.1 193h-3.5l-.3-.3c-.8-2.2-1.9-5.8-2.6-8l-3.2-9.8c-.4-1.3-.9-2.6-1.3-3.9-.3-1.1-.9-2.8-1.3-3.8l.2-.3c1.7-.1 1.9-.1 3-.2l.3.2c.9 3.5 1.7 6.1 2.8 9.6l4.4 13.8 5.2-16.5c.8-2.5.9-2.9 2-6.8l.3-.2h2.7l.2.3c-.6 1.8-.9 2.5-3.1 8.8l-3 8.8c-1.1 3.3-1.3 3.8-2.7 8.1l-.1.2M586 193h-2.8l-.3-.3v-6c0-1 0-13-.3-19.7l.3-.3h2.8l.3.3v7.6c0 7.1.1 12.6.3 18.1l-.3.3M614.4 188.4c-.1 1.3-.1 1.6-.2 2.7l-.2.4c-1.5 1.1-3.6 2-7.3 2-2.1 0-5.7-.3-8.7-3.2-2.9-2.6-4.1-6.5-4.1-10.4 0-7.5 4.6-13.8 13.1-13.8 3.6 0 5.7 1.1 6.8 1.7l.2.3c-.2.9-.2 1.1-.4 2.2l-.4.2c-1.3-.8-3.2-2-6.3-2-6.9 0-9.9 5.7-9.9 11.2 0 5.6 3.3 11.1 10.1 11.1 3.6 0 5.2-1.4 6.8-2.7l.5.3M636.9 193h-11.3c-1.3 0-1.9.1-3.3.1l-.3-.3v-5.7c0-6.5-.1-13.6-.3-20.1l.3-.3h9.4c2.2 0 3.8 0 5.3-.1l.3.3c-.1 1-.1 1.2-.1 2.1l-.3.3c-1.9-.1-2.7-.1-9.9-.1h-1.8v9h11.3l.2.3c-.1 1-.1 1.1-.1 2l-.3.2c-1.7-.1-2.9-.1-7.9 0h-3.2c0 1.7.1 9.3.1 10h2.9c3.4 0 4 0 9-.1l.2.3c-.1.9-.1 1-.1 2l-.1.1M643.6 188.3c1.4 2.1 4.1 2.9 6.1 2.9 3.5 0 6.1-2 6.1-5 0-2.1-1.3-3.2-3.1-4.1-.7-.4-4.3-2-5.1-2.4-2-1-5-2.6-5-6.5 0-3.5 2.7-6.9 8.5-6.9 2.4 0 4.7.6 6.8 1.8l.1.3c-.2 1.1-.2 1.2-.3 2.3l-.4.2c-1.1-1-2.9-2.2-5.9-2.2-5.4 0-5.7 3.6-5.7 4.5 0 2.1 1.8 3.2 4.1 4.3l2.7 1.2c2.5 1.1 6.4 2.8 6.4 7.4 0 4.1-3.3 7.5-9 7.5-3.7 0-5.8-1.3-7-2l-.1-.4c0-.4.1-.8.2-1.2 0-.5.1-1 .2-1.5l.4-.2"/></svg>