<svg baseProfile="tiny" xmlns="http://www.w3.org/2000/svg" viewBox="0 0 60 60"><path d="M30 17.7c4 0 4.5 0 6.1.1 1.5.1 2.3.3 2.8.5.7.3 1.2.6 1.7 1.1.5.5.8 1 1.1 1.7.2.5.4 1.3.5 2.8.1 1.6.1 2.1.1 6.1s0 4.5-.1 6.1c-.1 1.5-.3 2.3-.5 2.8-.3.7-.6 1.2-1.1 1.7-.5.5-1 .8-1.7 1.1-.5.2-1.3.4-2.8.5-1.6.1-2.1.1-6.1.1s-4.5 0-6.1-.1c-1.5-.1-2.3-.3-2.8-.5-.7-.3-1.2-.6-1.7-1.1-.5-.5-.8-1-1.1-1.7-.2-.5-.4-1.3-.5-2.8-.1-1.6-.1-2.1-.1-6.1s0-4.5.1-6.1c.1-1.5.3-2.3.5-2.8.3-.7.6-1.2 1.1-1.7.5-.5 1-.8 1.7-1.1.5-.2 1.3-.4 2.8-.5 1.6-.1 2.1-.1 6.1-.1m0-2.7c-4.1 0-4.6 0-6.2.1-1.6.1-2.7.3-3.6.7-1 .4-1.8.9-2.7 1.7-.8.8-1.3 1.7-1.7 2.7-.4 1-.6 2-.7 3.6-.1 1.6-.1 2.1-.1 6.2s0 4.6.1 6.2c.1 1.6.3 2.7.7 3.6.4 1 .9 1.8 1.7 2.7.8.8 1.7 1.3 2.7 1.7 1 .4 2 .6 3.6.7 1.6.1 2.1.1 6.2.1s4.6 0 6.2-.1c1.6-.1 2.7-.3 3.6-.7 1-.4 1.8-.9 2.7-1.7.8-.8 1.3-1.7 1.7-2.7.4-1 .6-2 .7-3.6.1-1.6.1-2.1.1-6.2s0-4.6-.1-6.2c-.1-1.6-.3-2.7-.7-3.6-.4-1-.9-1.8-1.7-2.7-.8-.8-1.7-1.3-2.7-1.7-1-.4-2-.6-3.6-.7-1.6-.1-2.1-.1-6.2-.1zM30 22.3c-4.3 0-7.7 3.4-7.7 7.7s3.4 7.7 7.7 7.7 7.7-3.4 7.7-7.7-3.4-7.7-7.7-7.7zM30 35c-2.8 0-5-2.2-5-5s2.2-5 5-5 5 2.2 5 5-2.2 5-5 5z"/><circle cx="38" cy="22" r="1.8"/></svg>