<svg xmlns="http://www.w3.org/2000/svg" viewBox="0 0 75 30" enable-background="new 0 0 75 30"><path d="M45.8 21.7l-.7.1v7.3c.3 0 .5.1.8.1 1.4 0 1.9-.8 2.4-2.2l.3.1-.5 2.6c-.6-.2-.6-.2-1.2-.2h-3.5v-.4l.6-.1v-7.3l-.6-.1v-.4h2.3v.5zM50.1 29l.5.1v.4h-1.8v-.4l.5-.1v-4c0-.3-.1-.4-.3-.4h-.2v-.4l1.3-.5V29zm-.4-6.5c-.3 0-.6-.3-.6-.6s.3-.7.6-.7.5.3.5.7c0 .3-.2.6-.5.6zM52.3 24.6c.3-.5.9-.9 1.4-.9 1.2 0 1.5 1 1.5 2.2V29l.5.1v.4h-1.8v-.4l.5-.1v-3.1c0-1.1-.3-1.6-.9-1.6-.5 0-.9.3-1.2.8V29l.5.1v.4H51v-.4l.5-.1v-3.5c0-.8-.1-1-.4-1H51v-.4l1-.5c.1.3.2.6.3 1zM57.9 29.7c-1.2 0-2.1-1.1-2.1-2.7 0-1.8 1-3.2 2.3-3.2.8 0 1.4.4 1.4 1 0 .4-.2.6-.5.6s-.5-.3-.6-.7c-.1-.5-.1-.5-.4-.5-.7 0-1.3 1-1.3 2.2 0 1.4.7 2.5 1.7 2.5.5 0 .8-.2 1.2-.9l.3.2c-.6 1-1.3 1.5-2 1.5zM63.2 26.7c0 1.7-.4 2.6-1.2 2.6-.9 0-1.3-.8-1.3-2.6 0-1.5.5-2.5 1.3-2.5s1.2.9 1.2 2.5zm1 .1c0-1.7-.9-3-2.1-3-1.2 0-2.3 1.3-2.3 3s1 3 2.2 3c1.2-.1 2.2-1.5 2.2-3zM65.6 29l.5.1v.4h-1.9v-.4l.5-.1v-6.6c0-.6-.1-.7-.3-.7h-.2v-.4l1.3-.6V29zM67.8 24.6c.3-.5.9-.9 1.4-.9 1.2 0 1.5 1 1.5 2.2V29l.5.1v.4h-1.8v-.4l.5-.1v-3.1c0-1.1-.3-1.6-.9-1.6-.5 0-.9.3-1.2.8V29l.5.1v.4h-1.9v-.4l.6-.1v-3.5c0-.8-.1-1-.4-1h-.1v-.4l1-.5c.1.3.2.6.3 1zM27.3 1.8v2.3c0 .6 0 .7.1.9.1.2.4.4.7.4.3 0 .6-.2.7-.5.1-.1.2-.3.2-.8V1.8h.4v2.3c0 .6 0 .8-.2 1.1-.2.4-.6.6-1.1.6-.6 0-.9-.2-1.1-.7-.1-.2-.1-.4-.1-1V1.8h.4zM32.7 5.7h-.4l-1.8-3.2v3.2H30V1.8h.5L32.3 5V1.8h.4zM33.5 1.8h.4v3.9h-.4zM35.9 4.9L37 1.8h.3L36 5.7h-.3l-1.2-3.9h.4zM39.5 3.5v.4h-1.1v1.4h1.3v.4h-1.8V1.8h1.6v.4h-1.1v1.3zM40.7 3.6V2.2h.4c.3 0 .5.2.5.6 0 .3-.1.5-.2.6-.1.1-.2.1-.4.1h-.3zm-.4 2.1h.4V3.9h.4l.9 1.8h.5l-1-1.8c.2-.1.3-.1.4-.3.2-.2.3-.5.3-.8 0-.4-.1-.7-.4-.9-.1-.1-.3-.1-.7-.1h-.8v3.9zM44.3 2.6c-.1-.3-.3-.5-.5-.5-.3 0-.5.3-.5.6s.1.5.5.8c.3.2.4.3.6.5.1.2.2.4.2.7 0 .7-.4 1.1-1 1.1-.4 0-.7-.2-.9-.6l.3-.4c.1.4.3.6.6.6s.6-.3.6-.7c0-.2-.1-.4-.2-.5-.1-.1-.1-.1-.4-.3-.6-.4-.7-.7-.7-1.1 0-.6.4-1 .9-1 .4 0 .6.2.8.5l-.3.3zM45.3 1.8h.4v3.9h-.4zM47.8 5.7h-.4V2.2h-.9v-.4h2.2v.4h-.9zM51.8 1.8L50.7 4v1.7h-.4V4l-1.1-2.2h.4l.9 1.7.9-1.7zM59.2 2.1c.7 0 1.1.6 1.1 1.7 0 1-.4 1.7-1.1 1.7-.7 0-1.1-.6-1.1-1.7s.4-1.7 1.1-1.7zm0-.4c-1 0-1.5.8-1.5 2 0 .7.1 1.2.5 1.6.3.3.6.5 1.1.5.4 0 .8-.2 1.1-.5.3-.4.5-.9.5-1.6-.2-1.2-.8-2-1.7-2zM63 3.6v.3h-1.1v1.8h-.4V1.8h1.6v.4h-1.2v1.4zM9.8 1.5V2l.3.1c1.4.3 1.6.3 1.6 2v10c-.3-.8-7.4-12.6-7.4-12.6H.5V2h.4c1.5.1 1.6.1 1.6 1.8v12.4c0 1.5-.3 1.5-1.5 1.7l-.5.1v.6h5.3V18h-.7c-1.3-.2-1.5-.2-1.5-1.7V5.8c.4.6 8.2 12.9 8.2 12.9h1.1V3.9c0-1.5.2-1.5 1.3-1.9h.3v-.5H9.8zM27.9 7.1c-1.2 0-2.1.5-2.8 1.5V.3l-.2.1-3.1 1.2v.6h.1c.3-.2.4-.2.5-.2.5 0 .7.2.7 1.4v10.8c0 2.3-.1 3.1-.7 4.5v.1l.6.3s1.2-1.5 1.4-1.7c.7 1.1 1.7 1.7 3 1.7 2.6 0 4.7-2.8 4.7-6.3 0-3.4-1.7-5.7-4.2-5.7zm-.7 10.8c-1.6 0-2.1-.9-2.1-4V10c.7-.8 1.3-1.1 1.9-1.1 1.7 0 3 2.1 3 4.9.1 2.4-1.1 4.1-2.8 4.1zM71.7 16.8c-.4.5-.6.6-.7.6-.3 0-.4-.4-.4-1.1v-5.2c0-1.4-.2-2.1-1-2.7-2-1.6-4.1-1.6-4.8-1.6-2.1-.1-7.1 2.8-8.4 6.1V.2l-3.2 1.2V2h.6c.4 0 .6.2.6 1.2V18c-.2 0-1.2.2-1.2.2v.7h4.4v-.7s-1-.1-1.2-.2c0-2.5.1-3.2 1.5-5.2.2.3 2.6 4.9 2.7 5.2-.2 0-1.1.2-1.1.2v.7h4.8c.4.2.8.3 1.3.3 1.3 0 2.4-.7 3.1-1.9.1 1.2.7 1.9 1.6 1.9.5 0 1.3-.6 2-1.6l.1-.1-.7-.7zm-9.2-.8c0 .8.2 1.4.7 2h-.3c-.1-.1-3.7-6.7-3.8-6.8.7-.9 2.4-2.3 3.7-2.5.4 0 .6-.1.7 0 .3.3.9.3.9.3.1 0 .8.1 1.5-.9 0 0 0-.1.4-.1 1.6 0 2.2 1.8 2.2 3-2.3.7-6 1.9-6 5zm6 .1c-.7.8-1.4 1.2-2.1 1.2-1 0-1.7-.8-1.7-2 0-2.1 2.1-2.8 3.8-3.4v4.2zM21.8 15.5l-.1.1c-.9 1.3-1.6 1.8-2.7 1.8-1.7 0-3.1-1.5-3.4-3.8.2-.1 6.9-1.8 6.9-1.8v-.1c-.3-2.9-1.9-4.6-4.3-4.6-2.6 0-4.7 2.9-4.7 6.4 0 3.2 2 5.6 4.9 5.6 1.8 0 3.1-.9 4.1-3V16l-.7-.5zm-3.6-7.3c1.1 0 1.8.8 1.8 2.1 0 .6-.2 1-1.4 1.3 0 0-2.5.6-3.1.8 0-2.6 1-4.2 2.7-4.2zM51 11.9c-2.5-1.1-2.7-1.2-2.7-2.2 0-.8.7-1.4 1.6-1.4 0 0 .7 0 .8.3 0 .1.3 1.1 1.5.9.6-.2.8-.7.8-1 0-.7-.8-1.4-2-1.4-2.5 0-4.4 1.5-4.4 3.4 0 1.8 1.5 2.5 3 3.2 1.3.6 2.5 1.1 2.5 2.4 0 1-.9 1.8-2 1.8s-1.5-.5-1.6-1.4c-.1-.8-.8-1-1.3-1-.6 0-1.1.4-1.1 1.2v.3c-.2.3-.4.3-.5.3-.3 0-.4-.4-.4-1.1V11c0-1.4-.2-2.1-1-2.7-1.2-1.1-3.6-2-5.7-1.5-1.1.2-2.9 1.6-3.8 3.9-.1-1.8-.2-2.5-.9-3.7v-.1L31.5 8v.5l.2-.1h.1c.7 0 1 .9 1 2.8v6.7c-.2 0-1.2.2-1.2.2v.6h4.5v-.6s-1.1-.1-1.3-.2v-2.6c.3-5.5 1.5-6.1 2-6.4.4-.3 1.1-.3 1.1-.2.4.4 1 .3 1 .3.2 0 .9.1 1.5-.9 0 0 0-.1.4-.1 1.6 0 2.2 1.8 2.2 3-2.3.7-6 2-6 5 0 1.8 1.3 3.1 3.1 3.1 1.3 0 2.4-.7 3.1-1.9.1 1.2.7 1.9 1.6 1.9.4 0 1-.4 1.6-1.1.6.7 1.8 1.1 3.3 1.1 2.3 0 4-1.6 4-3.5.1-1.6-.9-3-2.7-3.7zm-8 4.2c-.7.8-1.4 1.2-2.1 1.2-1 0-1.7-.8-1.7-2 0-2.1 2.1-2.8 3.8-3.4v4.2zM74.5 20.5c0 .8-.6 1.4-1.4 1.4-.8 0-1.4-.6-1.4-1.4 0-.8.6-1.4 1.4-1.4.8 0 1.4.6 1.4 1.4zm-2.5 0c0 .6.5 1.1 1.1 1.1.6 0 1.1-.5 1.1-1.2 0-.6-.5-1.2-1.1-1.2-.6.1-1.1.6-1.1 1.3zm.7-.8h.7c.1.1.2.2.2.4s-.1.4-.3.4l.5.7h-.3l-.4-.7H73v.7h-.2v-1.5zm.4.7c.2 0 .3-.1.3-.3 0-.2-.1-.2-.2-.2H72.9v.5h.2z"/></svg>