<?xml version="1.0" encoding="UTF-8"?><svg xmlns="http://www.w3.org/2000/svg" viewBox="0 0 512 512"><path d="M0 0h512v513H0z" style="fill:#d00000"/><path d="M280.3 448h-48.6c-37 0-67.1-30.1-67.1-67.1V340h48.9v40.9c0 10.1 8.2 18.2 18.2 18.2h48.6c10.1 0 18.2-8.2 18.2-18.2v-20.2c0-8.9-3.1-17.5-8.7-24.4L184.2 206.1c-12.6-15.6-19.6-35.2-19.6-55.2v-19.8c0-37 30.1-67.1 67.1-67.1h48.6c37 0 67.1 30.1 67.1 67.1v41.2h-48.9v-41.2c0-10.1-8.2-18.2-18.2-18.2h-48.6c-10.1 0-18.2 8.2-18.2 18.2v19.8c0 8.9 3.1 17.5 8.7 24.4l105.6 130.2c12.6 15.6 19.6 35.2 19.6 55.2v20.2c0 37-30.1 67.1-67.1 67.1Z" style="fill:#fff"/></svg>
